<?xml version="1.0" encoding="utf-8"?>
<!-- Generator: Adobe Illustrator 18.1.1, SVG Export Plug-In . SVG Version: 6.00 Build 0)  -->
<svg version="1.1" id="Layer_1" xmlns:sketch="http://www.bohemiancoding.com/sketch/ns"
	 xmlns="http://www.w3.org/2000/svg" xmlns:xlink="http://www.w3.org/1999/xlink" x="0px" y="0px" viewBox="-429 231 100 100"
	 enable-background="new -429 231 100 100" xml:space="preserve">
<title>icon_share</title>
<desc>Created with Sketch.</desc>
<g id="Page-1" sketch:type="MSPage">
	<g id="icon_share" sketch:type="MSArtboardGroup">
		<path id="Imported-Layers" sketch:type="MSShapeGroup" fill="#50B3CF" d="M-357.5,291.6c-3.7,0-6.9,1.8-9.1,4.5l-23.5-11.9
			c0.3-1,0.5-2,0.5-3.1s-0.2-2.1-0.5-3.1l23.5-11.9c2.1,2.7,5.4,4.5,9.1,4.5c6.3,0,11.5-5.2,11.5-11.5c0-6.3-5.2-11.5-11.5-11.5
			c-6.3,0-11.5,5.2-11.5,11.5c0,1.1,0.2,2.1,0.5,3.1l-23.5,11.9c-2.1-2.7-5.4-4.5-9.1-4.5c-6.3,0-11.5,5.2-11.5,11.5
			s5.2,11.5,11.5,11.5c3.7,0,6.9-1.8,9.1-4.5l23.5,11.9c-0.3,1-0.5,2-0.5,3.1c0,6.3,5.2,11.5,11.5,11.5c6.3,0,11.5-5.2,11.5-11.5
			C-346,296.8-351.2,291.6-357.5,291.6L-357.5,291.6z M-357.5,251.9c3.9,0,7.1,3.2,7.1,7.1c0,3.9-3.2,7.1-7.1,7.1
			c-3.9,0-7.1-3.2-7.1-7.1C-364.6,255.1-361.4,251.9-357.5,251.9L-357.5,251.9z M-401.1,288.2c-3.9,0-7.1-3.2-7.1-7.1
			s3.2-7.1,7.1-7.1c3.9,0,7.1,3.2,7.1,7.1S-397.2,288.2-401.1,288.2L-401.1,288.2z M-357.5,310.2c-3.9,0-7.1-3.2-7.1-7.1
			c0-3.9,3.2-7.1,7.1-7.1c3.9,0,7.1,3.2,7.1,7.1C-350.4,307-353.6,310.2-357.5,310.2L-357.5,310.2z"/>
	</g>
</g>
</svg>
