<?xml version="1.0" encoding="utf-8"?>
<!-- Generator: Adobe Illustrator 18.1.1, SVG Export Plug-In . SVG Version: 6.00 Build 0)  -->
<svg version="1.1" id="Layer_1" xmlns:sketch="http://www.bohemiancoding.com/sketch/ns"
	 xmlns="http://www.w3.org/2000/svg" xmlns:xlink="http://www.w3.org/1999/xlink" x="0px" y="0px" width="100px" height="100px"
	 viewBox="0 0 100 100" enable-background="new 0 0 100 100" xml:space="preserve">
<title>info</title>
<desc>Created with Sketch.</desc>
<g id="Page-1" sketch:type="MSPage">
	<g id="_x31_00" sketch:type="MSArtboardGroup">
		<g id="info" transform="translate(3.000000, 3.000000)" sketch:type="MSLayerGroup">
			<g id="Oval">
				<path fill="#57B1CA" d="M47,96.9C19.5,96.9-2.9,74.5-2.9,47C-2.9,19.5,19.5-2.9,47-2.9c27.5,0,49.9,22.4,49.9,49.9
					C96.9,74.5,74.5,96.9,47,96.9z M47,3.9C23.3,3.9,3.9,23.3,3.9,47c0,23.7,19.3,43.1,43.1,43.1c23.7,0,43.1-19.3,43.1-43.1
					C90.1,23.3,70.7,3.9,47,3.9z"/>
			</g>
			<path id="Shape" sketch:type="MSShapeGroup" fill="#57B1CA" d="M40.6,50.4c0-9.9,12.1-11,12.1-16.7c0-2.6-1.9-4.7-6.5-4.7
				c-4.1,0-7.6,2.1-10.2,5.1l-6.7-7.5c4.4-5.1,11-8,18.1-8c10.7,0,17.2,5.4,17.2,13.1c0,12.1-13.8,13-13.8,20c0,1.3,0.7,2.7,1.5,3.5
				l-9,2.6C41.6,55.8,40.6,53.3,40.6,50.4L40.6,50.4z M40.6,68.8c0-3.6,3.1-6.7,6.7-6.7c3.6,0,6.7,3.1,6.7,6.7
				c0,3.6-3.1,6.7-6.7,6.7C43.6,75.5,40.6,72.4,40.6,68.8L40.6,68.8z"/>
		</g>
	</g>
</g>
</svg>
