<?xml version="1.0" encoding="UTF-8" standalone="no"?>
<svg width="46px" height="46px" viewBox="0 0 46 46" version="1.1" xmlns="http://www.w3.org/2000/svg" xmlns:xlink="http://www.w3.org/1999/xlink" xmlns:sketch="http://www.bohemiancoding.com/sketch/ns">
    <!-- Generator: Sketch 3.3 (11970) - http://www.bohemiancoding.com/sketch -->
    <title>workplace</title>
    <desc>Created with Sketch.</desc>
    <defs></defs>
    <g id="Page-1" stroke="none" stroke-width="1" fill="none" fill-rule="evenodd" sketch:type="MSPage">
        <g id="workplace" sketch:type="MSArtboardGroup" fill="#000000">
            <g id="Imported-Layers" sketch:type="MSLayerGroup" transform="translate(0.000000, 3.000000)">
                <path d="M23.9764151,15.2665208 L23.9764151,0.03075 L0.759433962,0.03075 L0.759433962,40.8112292 L45.240566,40.8112292 L45.240566,15.2665208 L23.9764151,15.2665208 L23.9764151,15.2665208 Z M2.71226415,1.952625 L22.0235849,1.952625 L22.0235849,38.8902083 L2.71226415,38.8902083 L2.71226415,1.952625 Z M23.9764151,17.1883958 L43.2877358,17.1883958 L43.2877358,38.8893542 L23.9764151,38.8893542 L23.9764151,17.1883958 Z" id="Fill-1" sketch:type="MSShapeGroup"></path>
                <path d="M10.1955094,29.6822917 L14.4518113,29.6822917 L14.4518113,38.8645833 L10.1955094,38.8645833 L10.1955094,29.6822917 Z" id="Fill-2" sketch:type="MSShapeGroup"></path>
                <path d="M31.3060377,29.6822917 L35.9589811,29.6822917 L35.9589811,38.8645833 L31.3060377,38.8645833 L31.3060377,29.6822917 Z" id="Fill-3" sketch:type="MSShapeGroup"></path>
                <path d="M29.0555094,22.5559792 L32.1739623,22.5559792 L32.1739623,25.625 L29.0555094,25.625 L29.0555094,22.5559792 Z" id="Fill-4" sketch:type="MSShapeGroup"></path>
                <path d="M35.0901887,22.5559792 L38.2086415,22.5559792 L38.2086415,25.625 L35.0901887,25.625 L35.0901887,22.5559792 Z" id="Fill-5" sketch:type="MSShapeGroup"></path>
                <path d="M7.74709434,22.5559792 L10.8655472,22.5559792 L10.8655472,25.625 L7.74709434,25.625 L7.74709434,22.5559792 Z" id="Fill-6" sketch:type="MSShapeGroup"></path>
                <path d="M13.7826415,22.5559792 L16.9010943,22.5559792 L16.9010943,25.625 L13.7826415,25.625 L13.7826415,22.5559792 Z" id="Fill-7" sketch:type="MSShapeGroup"></path>
                <path d="M7.74709434,14.693375 L10.8655472,14.693375 L10.8655472,17.7623958 L7.74709434,17.7623958 L7.74709434,14.693375 Z" id="Fill-8" sketch:type="MSShapeGroup"></path>
                <path d="M13.7826415,14.693375 L16.9010943,14.693375 L16.9010943,17.7623958 L13.7826415,17.7623958 L13.7826415,14.693375 Z" id="Fill-9" sketch:type="MSShapeGroup"></path>
                <path d="M7.74709434,6.65908333 L10.8655472,6.65908333 L10.8655472,9.72810417 L7.74709434,9.72810417 L7.74709434,6.65908333 Z" id="Fill-10" sketch:type="MSShapeGroup"></path>
                <path d="M13.7826415,6.65908333 L16.9010943,6.65908333 L16.9010943,9.72810417 L13.7826415,9.72810417 L13.7826415,6.65908333 Z" id="Fill-11" sketch:type="MSShapeGroup"></path>
            </g>
        </g>
    </g>
</svg>