<?xml version="1.0" encoding="UTF-8" standalone="no"?>
<svg width="46px" height="46px" viewBox="0 0 46 46" version="1.1" xmlns="http://www.w3.org/2000/svg" xmlns:xlink="http://www.w3.org/1999/xlink" xmlns:sketch="http://www.bohemiancoding.com/sketch/ns">
    <!-- Generator: Sketch 3.3 (11970) - http://www.bohemiancoding.com/sketch -->
    <title>infographic</title>
    <desc>Created with Sketch.</desc>
    <defs></defs>
    <g id="Page-1" stroke="none" stroke-width="1" fill="none" fill-rule="evenodd" sketch:type="MSPage">
        <g id="infographic" sketch:type="MSArtboardGroup" fill="#000000">
            <g id="Imported-Layers" sketch:type="MSLayerGroup" transform="translate(12.000000, 13.000000)">
                <path d="M21.2027391,19.877561 L0.47826087,19.877561 C0.21426087,19.877561 0,19.6590244 0,19.3897561 C0,19.1204878 0.21426087,18.9019512 0.47826087,18.9019512 L21.2027391,18.9019512 C21.4672174,18.9019512 21.681,19.1204878 21.681,19.3897561 C21.681,19.6590244 21.4672174,19.877561 21.2027391,19.877561" id="Fill-1" sketch:type="MSShapeGroup"></path>
                <path d="M6.2173913,19.877561 L2.39130435,19.877561 C2.12730435,19.877561 1.91304348,19.6590244 1.91304348,19.3897561 L1.91304348,13.5360976 C1.91304348,13.2668293 2.12730435,13.0482927 2.39130435,13.0482927 L6.2173913,13.0482927 C6.4813913,13.0482927 6.69565217,13.2668293 6.69565217,13.5360976 L6.69565217,19.3897561 C6.69565217,19.6590244 6.4813913,19.877561 6.2173913,19.877561 L6.2173913,19.877561 Z M2.86956522,18.9019512 L5.73913043,18.9019512 L5.73913043,14.0239024 L2.86956522,14.0239024 L2.86956522,18.9019512 Z" id="Fill-2" sketch:type="MSShapeGroup"></path>
                <path d="M12.9130435,19.877561 L9.08695652,19.877561 C8.82295652,19.877561 8.60869565,19.6590244 8.60869565,19.3897561 L8.60869565,6.70682927 C8.60869565,6.43756098 8.82295652,6.21902439 9.08695652,6.21902439 L12.9130435,6.21902439 C13.1770435,6.21902439 13.3913043,6.43756098 13.3913043,6.70682927 L13.3913043,19.3897561 C13.3913043,19.6590244 13.1770435,19.877561 12.9130435,19.877561 L12.9130435,19.877561 Z M9.56521739,18.9019512 L12.4347826,18.9019512 L12.4347826,7.19463415 L9.56521739,7.19463415 L9.56521739,18.9019512 Z" id="Fill-3" sketch:type="MSShapeGroup"></path>
                <path d="M19.6086957,19.877561 L15.7826087,19.877561 C15.5186087,19.877561 15.3043478,19.6590244 15.3043478,19.3897561 L15.3043478,0.650731707 C15.3043478,0.38097561 15.5186087,0.162926829 15.7826087,0.162926829 L19.6086957,0.162926829 C19.8726957,0.162926829 20.0869565,0.38097561 20.0869565,0.650731707 L20.0869565,19.3897561 C20.0869565,19.6590244 19.8726957,19.877561 19.6086957,19.877561 L19.6086957,19.877561 Z M16.2608696,18.9019512 L19.1304348,18.9019512 L19.1304348,1.13804878 L16.2608696,1.13804878 L16.2608696,18.9019512 Z" id="Fill-4" sketch:type="MSShapeGroup"></path>
            </g>
        </g>
    </g>
</svg>