<?xml version="1.0" encoding="UTF-8" standalone="no"?>
<svg width="46px" height="46px" viewBox="0 0 46 46" version="1.1" xmlns="http://www.w3.org/2000/svg" xmlns:xlink="http://www.w3.org/1999/xlink" xmlns:sketch="http://www.bohemiancoding.com/sketch/ns">
    <!-- Generator: Sketch 3.3 (11970) - http://www.bohemiancoding.com/sketch -->
    <title>location</title>
    <desc>Created with Sketch.</desc>
    <defs></defs>
    <g id="Page-1" stroke="none" stroke-width="1" fill="none" fill-rule="evenodd" sketch:type="MSPage">
        <g id="location" sketch:type="MSArtboardGroup" fill="#000000">
            <g id="Imported-Layers" sketch:type="MSLayerGroup" transform="translate(8.000000, 0.000000)">
                <path d="M16.2492632,10.6918431 C13.5132632,10.6918431 11.2934737,13.0685098 11.2934737,15.9998824 C11.2934737,18.9312549 13.5132632,21.3079216 16.2492632,21.3079216 C18.9869474,21.3079216 21.2058947,18.9312549 21.2058947,15.9998824 C21.2058947,13.0685098 18.9869474,10.6918431 16.2492632,10.6918431" id="Fill-1" sketch:type="MSShapeGroup"></path>
                <path d="M16.2492632,0.601607843 C7.58736842,0.601607843 0.565894737,8.12215686 0.565894737,17.3997255 C0.565894737,26.6772941 16.2492632,45.3974902 16.2492632,45.3974902 C16.2492632,45.3974902 31.9334737,26.6772941 31.9334737,17.3997255 C31.9334737,8.12215686 24.9103158,0.601607843 16.2492632,0.601607843 L16.2492632,0.601607843 Z M3.17978947,17.5738039 C3.17978947,9.74658824 9.03157895,3.40039216 16.2492632,3.40039216 C23.4669474,3.40039216 29.3187368,9.7474902 29.3187368,17.5747059 C29.3187368,25.4028235 16.2492632,41.1970588 16.2492632,41.1970588 C16.2492632,41.1970588 3.17978947,25.4019216 3.17978947,17.5738039 L3.17978947,17.5738039 Z" id="Fill-2" sketch:type="MSShapeGroup"></path>
            </g>
        </g>
    </g>
</svg>