<?xml version="1.0" encoding="utf-8"?>
<!-- Generator: Adobe Illustrator 18.1.1, SVG Export Plug-In . SVG Version: 6.00 Build 0)  -->
<svg version="1.1" id="Layer_1" xmlns:sketch="http://www.bohemiancoding.com/sketch/ns"
	 xmlns="http://www.w3.org/2000/svg" xmlns:xlink="http://www.w3.org/1999/xlink" x="0px" y="0px" viewBox="-429 231 100 100"
	 enable-background="new -429 231 100 100" xml:space="preserve">
<title>icon_rss</title>
<desc>Created with Sketch.</desc>
<g id="Page-1" sketch:type="MSPage">
	<g id="icon_rss" sketch:type="MSArtboardGroup">
		<g id="noun_27267_cc" transform="translate(1.000000, 0.000000)" sketch:type="MSLayerGroup">
			<path id="Shape" sketch:type="MSShapeGroup" fill="#FFFFFF" d="M-393.1,302.2c0,4.4-3.5,7.9-7.9,7.9s-7.9-3.5-7.9-7.9
				c0-4.4,3.5-7.9,7.9-7.9C-396.7,294.3-393.1,297.9-393.1,302.2"/>
			<path id="Shape_1_" sketch:type="MSShapeGroup" fill="#FFFFFF" d="M-409,270.9v10.9c0,0,26.6,0.7,27.4,28.2h11.7
				C-369.9,310.1-368.5,272.8-409,270.9"/>
			<path id="Shape_2_" sketch:type="MSShapeGroup" fill="#FFFFFF" d="M-409,250.9V262c0,0,43.3-0.7,48.1,48.1h10.9
				C-350,310.1-348.8,254.2-409,250.9"/>
		</g>
	</g>
</g>
</svg>
