<?xml version="1.0" encoding="UTF-8" standalone="no"?>
<svg width="46px" height="46px" viewBox="0 0 46 46" version="1.1" xmlns="http://www.w3.org/2000/svg" xmlns:xlink="http://www.w3.org/1999/xlink" xmlns:sketch="http://www.bohemiancoding.com/sketch/ns">
    <!-- Generator: Sketch 3.3 (11970) - http://www.bohemiancoding.com/sketch -->
    <title>linkedin</title>
    <desc>Created with Sketch.</desc>
    <defs></defs>
    <g id="Page-1" stroke="none" stroke-width="1" fill="none" fill-rule="evenodd" sketch:type="MSPage">
        <g id="linkedin" sketch:type="MSArtboardGroup" fill="#ffffff">
            <path d="M1.14481818,14.5225 L10.0071364,14.5225 L10.0071364,43.174 L1.14481818,43.174 L1.14481818,14.5225 Z M5.34990909,10.93825 L5.28531818,10.93825 C2.08027273,10.93825 0,8.749 0,5.97475 C0,3.142 2.14263636,1 5.41227273,1 C8.67968182,1 10.6909091,3.1375 10.7555,5.968 C10.7555,8.74 8.67968182,10.93825 5.34990909,10.93825 L5.34990909,10.93825 Z M45.4564091,43.174 L35.4091818,43.174 L35.4091818,28.3465 C35.4091818,24.46525 33.8389545,21.81925 30.3822273,21.81925 C27.7384545,21.81925 26.2706818,23.6035 25.5846818,25.32925 C25.3307727,25.94575 25.3686364,26.80525 25.3686364,27.66925 L25.3686364,43.174 L15.4149545,43.174 C15.4149545,43.174 15.5441364,16.90975 15.4149545,14.5225 L25.3686364,14.5225 L25.3686364,19.018 C25.9566364,17.0515 29.1371818,14.24575 34.2153636,14.24575 C40.5096364,14.24575 45.4564091,18.36775 45.4564091,27.24175 L45.4564091,43.174 L45.4564091,43.174 Z" id="Imported-Layers" sketch:type="MSShapeGroup"></path>
        </g>
    </g>
</svg>