<?xml version="1.0" encoding="utf-8"?>
<!-- Generator: Adobe Illustrator 18.1.1, SVG Export Plug-In . SVG Version: 6.00 Build 0)  -->
<svg version="1.1" id="Layer_1" xmlns:sketch="http://www.bohemiancoding.com/sketch/ns"
	 xmlns="http://www.w3.org/2000/svg" xmlns:xlink="http://www.w3.org/1999/xlink" x="0px" y="0px" viewBox="-456 258 46 46"
	 enable-background="new -456 258 46 46" xml:space="preserve">
<title>Email</title>
<desc>Created with Sketch.</desc>
<g id="Page-1" sketch:type="MSPage">
	<g id="Email" sketch:type="MSArtboardGroup">
		<g id="Imported-Layers" transform="translate(0.000000, 6.000000)" sketch:type="MSLayerGroup">
			<path id="Fill-1" sketch:type="MSShapeGroup" fill="#FFFFFF" d="M-415.5,265.9l-17,13.6c-0.2,0.1-0.3,0.2-0.5,0.2
				c-0.2,0-0.4-0.1-0.5-0.2l-17-13.6c-0.3,0.5-0.5,1-0.5,1.7v17.8c0,1.8,1.5,3.2,3.3,3.2h29.5c1.8,0,3.3-1.5,3.3-3.2v-17.8
				C-415,267-415.2,266.4-415.5,265.9"/>
			<path id="Fill-2" sketch:type="MSShapeGroup" fill="#FFFFFF" d="M-416.6,264.8c-0.5-0.3-1-0.4-1.6-0.4h-29.5
				c-0.6,0-1.1,0.2-1.6,0.4l16.3,13.1L-416.6,264.8"/>
		</g>
	</g>
</g>
</svg>
