<?xml version="1.0" encoding="UTF-8" standalone="no"?>
<svg width="46px" height="46px" viewBox="0 0 46 46" version="1.1" xmlns="http://www.w3.org/2000/svg" xmlns:xlink="http://www.w3.org/1999/xlink" xmlns:sketch="http://www.bohemiancoding.com/sketch/ns">
    <!-- Generator: Sketch 3.3 (11970) - http://www.bohemiancoding.com/sketch -->
    <title>Mass Empowerment</title>
    <desc>Created with Sketch.</desc>
    <defs></defs>
    <g id="Page-1" stroke="none" stroke-width="1" fill="none" fill-rule="evenodd" sketch:type="MSPage">
        <g id="Mass-Empowerment" sketch:type="MSArtboardGroup" fill="#231F1F">
            <g id="Imported-Layers" sketch:type="MSLayerGroup" transform="translate(13.000000, 12.000000)">
                <path d="M5.26043478,13.9062 C5.14086957,14.069 4.98434783,14.07032 4.8526087,14.07032 L4.41782609,14.07032 L4.41782609,18.75588 L2.20086957,18.75588 L2.20086957,14.07032 L1.76565217,14.07032 C1.51521739,14.07032 1.17173913,14.07032 1.17173913,12.94832 L1.17173913,10.26388 L5.09173913,10.26388 L5.09173913,9.38388 L0.302173913,9.38388 L0.302173913,12.94832 C0.302173913,14.06152 0.647826087,14.71448 1.33130435,14.89708 L1.33130435,19.63588 L5.2873913,19.63588 L5.2873913,14.89708 C5.42347826,14.861 5.5426087,14.80028 5.65173913,14.72636 C5.48695652,14.47468 5.35521739,14.1988 5.26043478,13.9062" id="Fill-1" sketch:type="MSShapeGroup"></path>
                <path d="M11.976087,21.62248 L8.01956522,21.62248 L8.01956522,15.3362 C6.85173913,15.12764 5.96173913,14.09276 5.96173913,12.85196 L5.96173913,7.205 L14.033913,7.205 L14.033913,12.85196 C14.033913,14.09276 13.143913,15.12764 11.976087,15.3362 L11.976087,21.62248 L11.976087,21.62248 Z M8.88913043,20.74248 L11.1065217,20.74248 L11.1065217,14.49448 L11.5413043,14.49448 C12.4365217,14.49448 13.1643478,13.75792 13.1643478,12.85196 L13.1643478,8.085 L6.83130435,8.085 L6.83130435,12.85196 C6.83130435,13.75792 7.55956522,14.49448 8.45434783,14.49448 L8.88913043,14.49448 L8.88913043,20.74248 L8.88913043,20.74248 Z" id="Fill-2" sketch:type="MSShapeGroup"></path>
                <path d="M9.99782609,5.78644 C8.45695652,5.78644 7.20347826,4.51836 7.20347826,2.959 C7.20347826,1.39964 8.45695652,0.13068 9.99782609,0.13068 C11.5386957,0.13068 12.7921739,1.39964 12.7921739,2.959 C12.7921739,4.51836 11.5386957,5.78644 9.99782609,5.78644 L9.99782609,5.78644 Z M9.99782609,1.01068 C8.93652174,1.01068 8.07304348,1.88452 8.07304348,2.959 C8.07304348,4.03304 8.93652174,4.90644 9.99782609,4.90644 C11.0595652,4.90644 11.9226087,4.03304 11.9226087,2.959 C11.9226087,1.88452 11.0595652,1.01068 9.99782609,1.01068 L9.99782609,1.01068 Z" id="Fill-3" sketch:type="MSShapeGroup"></path>
                <path d="M16.686087,8.30588 C15.5273913,8.30588 14.5847826,7.35196 14.5847826,6.17936 C14.5847826,5.00676 15.5273913,4.0524 16.686087,4.0524 C17.8447826,4.0524 18.7878261,5.00676 18.7878261,6.17936 C18.7878261,7.35196 17.8447826,8.30588 16.686087,8.30588 L16.686087,8.30588 Z M16.686087,4.9324 C16.0065217,4.9324 15.4543478,5.49164 15.4543478,6.17936 C15.4543478,6.86664 16.0065217,7.42588 16.686087,7.42588 C17.3652174,7.42588 17.9182609,6.86664 17.9182609,6.17936 C17.9182609,5.49164 17.3652174,4.9324 16.686087,4.9324 L16.686087,4.9324 Z" id="Fill-4" sketch:type="MSShapeGroup"></path>
                <path d="M3.30913043,8.30588 C2.15043478,8.30588 1.20782609,7.35196 1.20782609,6.17936 C1.20782609,5.00676 2.15043478,4.0524 3.30913043,4.0524 C4.46782609,4.0524 5.41086957,5.00676 5.41086957,6.17936 C5.41086957,7.35196 4.46782609,8.30588 3.30913043,8.30588 L3.30913043,8.30588 Z M3.30913043,4.9324 C2.63,4.9324 2.0773913,5.49164 2.0773913,6.17936 C2.0773913,6.86664 2.63,7.42588 3.30913043,7.42588 C3.98869565,7.42588 4.54130435,6.86664 4.54130435,6.17936 C4.54130435,5.49164 3.98869565,4.9324 3.30913043,4.9324 L3.30913043,4.9324 Z" id="Fill-5" sketch:type="MSShapeGroup"></path>
                <path d="M14.903913,9.38388 L14.903913,10.26388 L18.823913,10.26388 L18.823913,12.94832 C18.823913,14.07032 18.4804348,14.07032 18.23,14.07032 L17.7952174,14.07032 L17.7952174,18.75588 L15.5773913,18.75588 L15.5773913,14.07032 L15.1426087,14.07032 C15.0113043,14.07032 14.8547826,14.069 14.7352174,13.9062 C14.6408696,14.1988 14.5086957,14.47424 14.3434783,14.72636 C14.4530435,14.80028 14.5717391,14.86056 14.7078261,14.89708 L14.7078261,19.63588 L18.6647826,19.63588 L18.6647826,14.89708 C19.3478261,14.71448 19.6934783,14.06152 19.6934783,12.94832 L19.6934783,9.38388 L14.903913,9.38388" id="Fill-6" sketch:type="MSShapeGroup"></path>
            </g>
        </g>
    </g>
</svg>