<?xml version="1.0" encoding="UTF-8" standalone="no"?>
<svg width="46px" height="46px" viewBox="0 0 46 46" version="1.1" xmlns="http://www.w3.org/2000/svg" xmlns:xlink="http://www.w3.org/1999/xlink" xmlns:sketch="http://www.bohemiancoding.com/sketch/ns">
    <!-- Generator: Sketch 3.3 (11970) - http://www.bohemiancoding.com/sketch -->
    <title>question-mark</title>
    <desc>Created with Sketch.</desc>
    <defs></defs>
    <g id="Page-1" stroke="none" stroke-width="1" fill="none" fill-rule="evenodd" sketch:type="MSPage">
        <g id="question-mark" sketch:type="MSArtboardGroup" fill="#1A1918">
            <g id="Imported-Layers" sketch:type="MSLayerGroup" transform="translate(1.000000, -1.000000)">
                <path d="M22.382069,46.824 C10.1886207,46.824 0.27,36.5968 0.27,24.024 C0.27,11.4528 10.1886207,1.224 22.382069,1.224 C34.5739655,1.224 44.4941379,11.4528 44.4941379,24.024 C44.4941379,36.5968 34.5739655,46.824 22.382069,46.824 L22.382069,46.824 Z M22.382069,3.624 C11.4734483,3.624 2.59758621,12.776 2.59758621,24.024 C2.59758621,35.272 11.4734483,44.424 22.382069,44.424 C33.2906897,44.424 42.1665517,35.272 42.1665517,24.024 C42.1665517,12.776 33.2906897,3.624 22.382069,3.624 L22.382069,3.624 Z" id="Fill-1" sketch:type="MSShapeGroup"></path>
                <path d="M19.4912069,25.6 C19.4912069,21.0256 24.9362069,20.4864 24.9362069,17.8336 C24.9362069,16.6416 24.0781034,15.6416 22.0282759,15.6416 C20.1615517,15.6416 18.5974138,16.6032 17.4413793,18.0256 L14.4186207,14.5264 C16.397069,12.1424 19.3810345,10.7968 22.5868966,10.7968 C27.3972414,10.7968 30.3439655,13.296 30.3439655,16.872 C30.3439655,22.4864 24.1153448,22.9088 24.1153448,26.1392 C24.1153448,26.7552 24.4148276,27.408 24.7872414,27.7536 L20.7217241,28.984 C19.9396552,28.1008 19.4912069,26.9472 19.4912069,25.6 L19.4912069,25.6 Z M19.4912069,34.1376 C19.4912069,32.4448 20.8706897,31.0224 22.5124138,31.0224 C24.1541379,31.0224 25.532069,32.4448 25.532069,34.1376 C25.532069,35.8288 24.1541379,37.2512 22.5124138,37.2512 C20.8706897,37.2512 19.4912069,35.8288 19.4912069,34.1376 L19.4912069,34.1376 Z" id="Fill-2" sketch:type="MSShapeGroup"></path>
            </g>
        </g>
    </g>
</svg>