<?xml version="1.0" encoding="UTF-8" standalone="no"?>
<svg width="46px" height="46px" viewBox="0 0 46 46" version="1.1" xmlns="http://www.w3.org/2000/svg" xmlns:xlink="http://www.w3.org/1999/xlink" xmlns:sketch="http://www.bohemiancoding.com/sketch/ns">
    <!-- Generator: Sketch 3.3 (11970) - http://www.bohemiancoding.com/sketch -->
    <title>question-mark</title>
    <desc>Created with Sketch.</desc>
    <defs></defs>
    <g id="Page-1" stroke="none" stroke-width="1" fill="none" fill-rule="evenodd" sketch:type="MSPage">
        <g id="question-mark" sketch:type="MSArtboardGroup" fill="#1A1918">
            <g id="Imported-Layers" sketch:type="MSLayerGroup" transform="translate(13.000000, 13.000000)">
                <path d="M9.94758621,20.4855 C4.52827586,20.4855 0.12,16.0111 0.12,10.5105 C0.12,5.0106 4.52827586,0.5355 9.94758621,0.5355 C15.3662069,0.5355 19.7751724,5.0106 19.7751724,10.5105 C19.7751724,16.0111 15.3662069,20.4855 9.94758621,20.4855 L9.94758621,20.4855 Z M9.94758621,1.5855 C5.09931034,1.5855 1.15448276,5.5895 1.15448276,10.5105 C1.15448276,15.4315 5.09931034,19.4355 9.94758621,19.4355 C14.7958621,19.4355 18.7406897,15.4315 18.7406897,10.5105 C18.7406897,5.5895 14.7958621,1.5855 9.94758621,1.5855 L9.94758621,1.5855 Z" id="Fill-1" sketch:type="MSShapeGroup"></path>
                <path d="M8.66275862,11.2 C8.66275862,9.1987 11.0827586,8.9628 11.0827586,7.8022 C11.0827586,7.2807 10.7013793,6.8432 9.79034483,6.8432 C8.96068966,6.8432 8.26551724,7.2639 7.75172414,7.8862 L6.40827586,6.3553 C7.28758621,5.3123 8.6137931,4.7236 10.0386207,4.7236 C12.1765517,4.7236 13.4862069,5.817 13.4862069,7.3815 C13.4862069,9.8378 10.717931,10.0226 10.717931,11.4359 C10.717931,11.7054 10.8510345,11.991 11.0165517,12.1422 L9.20965517,12.6805 C8.86206897,12.2941 8.66275862,11.7894 8.66275862,11.2 L8.66275862,11.2 Z M8.66275862,14.9352 C8.66275862,14.1946 9.27586207,13.5723 10.0055172,13.5723 C10.7351724,13.5723 11.3475862,14.1946 11.3475862,14.9352 C11.3475862,15.6751 10.7351724,16.2974 10.0055172,16.2974 C9.27586207,16.2974 8.66275862,15.6751 8.66275862,14.9352 L8.66275862,14.9352 Z" id="Fill-2" sketch:type="MSShapeGroup"></path>
            </g>
        </g>
    </g>
</svg>