<?xml version="1.0" encoding="UTF-8" standalone="no"?>
<svg width="46px" height="46px" viewBox="0 0 46 46" version="1.1" xmlns="http://www.w3.org/2000/svg" xmlns:xlink="http://www.w3.org/1999/xlink" xmlns:sketch="http://www.bohemiancoding.com/sketch/ns">
    <!-- Generator: Sketch 3.3 (11970) - http://www.bohemiancoding.com/sketch -->
    <title>share</title>
    <desc>Created with Sketch.</desc>
    <defs></defs>
    <g id="Page-1" stroke="none" stroke-width="1" fill="none" fill-rule="evenodd" sketch:type="MSPage">
        <g id="share" sketch:type="MSArtboardGroup" fill="#000000">
            <path d="M29.0084167,26.0072083 C28.003,26.0072083 27.117125,26.4917083 26.5431667,27.2295417 L20.1338333,23.98925 C20.2122083,23.7169167 20.2668333,23.4342917 20.2668333,23.1374167 C20.2668333,22.8405417 20.2122083,22.5579167 20.1338333,22.2855833 L26.5431667,19.0452917 C27.117125,19.7839167 28.003,20.267625 29.0084167,20.267625 C30.736625,20.267625 32.1418333,18.8624167 32.1418333,17.1342083 C32.1418333,15.406 30.736625,14 29.0084167,14 C27.2802083,14 25.875,15.406 25.875,17.1342083 C25.875,17.4310833 25.929625,17.7137083 26.0072083,17.9860417 L19.5986667,21.2263333 C19.0247083,20.4877083 18.1388333,20.004 17.1334167,20.004 C15.4052083,20.004 14,21.4092083 14,23.1374167 C14,24.865625 15.4052083,26.271625 17.1334167,26.271625 C18.1388333,26.271625 19.0247083,25.787125 19.5986667,25.0492917 L26.0072083,28.2895833 C25.929625,28.5619167 25.875,28.84375 25.875,29.140625 C25.875,30.8688333 27.2802083,32.2748333 29.0084167,32.2748333 C30.736625,32.2748333 32.1418333,30.8688333 32.1418333,29.140625 C32.1418333,27.4132083 30.736625,26.0072083 29.0084167,26.0072083 L29.0084167,26.0072083 Z M29.0084167,15.1875 C30.081125,15.1875 30.9543333,16.0615 30.9543333,17.1342083 C30.9543333,18.2069167 30.081125,19.080125 29.0084167,19.080125 C27.9349167,19.080125 27.0625,18.2069167 27.0625,17.1342083 C27.0625,16.0615 27.9349167,15.1875 29.0084167,15.1875 L29.0084167,15.1875 Z M17.1334167,25.084125 C16.0599167,25.084125 15.1875,24.210125 15.1875,23.1374167 C15.1875,22.0647083 16.0599167,21.1915 17.1334167,21.1915 C18.206125,21.1915 19.0793333,22.0647083 19.0793333,23.1374167 C19.0793333,24.210125 18.206125,25.084125 17.1334167,25.084125 L17.1334167,25.084125 Z M29.0084167,31.0873333 C27.9349167,31.0873333 27.0625,30.214125 27.0625,29.140625 C27.0625,28.0679167 27.9349167,27.1947083 29.0084167,27.1947083 C30.081125,27.1947083 30.9543333,28.0679167 30.9543333,29.140625 C30.9543333,30.214125 30.081125,31.0873333 29.0084167,31.0873333 L29.0084167,31.0873333 Z" id="Imported-Layers" sketch:type="MSShapeGroup"></path>
        </g>
    </g>
</svg>