<?xml version="1.0" encoding="utf-8"?>
<!-- Generator: Adobe Illustrator 18.1.1, SVG Export Plug-In . SVG Version: 6.00 Build 0)  -->
<svg version="1.1" id="Layer_1" xmlns="http://www.w3.org/2000/svg" xmlns:xlink="http://www.w3.org/1999/xlink" x="0px" y="0px"
	 viewBox="0 0 87.9 87.9" enable-background="new 0 0 87.9 87.9" xml:space="preserve">
<g opacity="0.15">
	<path fill="#C4BDC0" d="M17.8,75.4V65l14.3-7.8l5.3-2.5l-1-6.5l-2.2-3.5l-1.2-5l-1.5-2.2L32,34l1.2-1.3l-1.7-5l0.2-1.8l2.5-0.7
		l2.5-1.8l2.5-2.7l8.7-1l6.3,2.5l2.3,3.5l-1.8,5.7v1.8l1.8,2l-0.8,3.3L54,40.7l-1,3.2l-1.7,3.6l-1,2l0.2,5.2l17.7,9.7l1,2.3v10.5
		l7.7-5.7c0,0,10.7-12.3,9.5-24.8s0-29.3-27.7-42.5s-49,15-49,15s-12.3,17.7-7,35.7S17.8,75.4,17.8,75.4z"/>
	<path opacity="0.3" fill="#C4BDC0" d="M17.8,75.4V65l14.3-7.8l5.3-2.5l-1-6.5l-2.2-3.5l-1.2-5l-1.5-2.2L32,34l1.2-1.3l-1.7-5
		l0.2-1.8l2.5-0.7l2.5-1.8l2.5-2.7l8.7-1l6.3,2.5l2.3,3.5l-1.8,5.7v1.8l1.8,2l-0.8,3.3L54,40.7l-1,3.2l-1.7,3.6l-1,2l0.2,5.2
		l17.7,9.7l1,2.3v10.5l7.7-5.7c0,0,10.7-12.3,9.5-24.8s0-29.3-27.7-42.5s-49,15-49,15s-12.3,17.7-7,35.7S17.8,75.4,17.8,75.4z"/>
</g>
<path fill="#C4BDC0" d="M43.9,0C19.7,0,0,19.7,0,43.9c0,24.2,19.7,43.9,43.9,43.9s43.9-19.7,43.9-43.9C87.9,19.7,68.2,0,43.9,0z
	 M43.9,84.9c-8.9,0-17.1-2.9-23.9-7.7L18.6,76v-8.8c0.7-1.4,9.3-6.5,18.8-10.3c0.4-0.2,0.6-0.5,0.6-0.9v-7c0-0.4-0.3-0.8-0.7-1
	c0,0-3-1.1-3-7.7c0-0.6-0.4-1-1-1c-0.5,0-1.2-1.4-1.2-3c0-0.7,0.1-1.2,0.4-1.6c0.2-0.3,0.5-0.5,0.9-0.5c0.6,0,1-0.4,1-1
	c0-0.4-0.2-0.8-0.6-1.8c-0.6-1.4-2-4.6-1.3-5.7c0.3-0.4,1.1-0.5,2.4-0.3c0.5,0.1,1-0.2,1.2-0.7c0.8-3.1,5.5-4.5,9.5-4.5
	c4.1,0,8.8,1.4,9.5,4.5c0.7,2.8-0.5,5.5-1.2,7c-0.3,0.7-0.5,1.1-0.5,1.5c0,0.6,0.4,1,1,1c0.4,0,0.6,0.1,0.8,0.4
	c0.2,0.4,0.3,0.9,0.3,1.5c0,1.6-0.8,3-1.3,3c-0.6,0-1,0.4-1,1c0,6.6-2.7,7.7-2.8,7.7c-0.4,0.1-0.7,0.5-0.7,1v7
	c0,0.4,0.3,0.8,0.6,0.9c8.8,3.4,18,8.8,18.8,10.3v8.6l-1.7,1.3C61.1,82,52.8,84.9,43.9,84.9z M71.4,74.2v-7.1
	c0-2.9-13.4-9.4-19.5-11.8v-5.7c1.1-0.7,3.3-2.9,3.4-8.5c1.4-0.7,2.3-2.8,2.3-4.8c0-1-0.2-1.9-0.7-2.6c-0.3-0.5-0.7-0.8-1.2-1.1
	c0.8-1.7,2.2-4.8,1.3-8.3c-1-4.2-6.5-6-11.5-6c-4.6,0-9.6,1.6-11.2,5.1c-2.1-0.2-3.2,0.6-3.6,1.2c-1.3,2,0.1,5.3,1.1,7.6
	c0,0.1,0.1,0.2,0.1,0.3c-0.5,0.2-0.9,0.6-1.3,1.1c-0.4,0.7-0.7,1.6-0.7,2.7c0,2,0.8,4.1,2.3,4.7c0.2,5.6,2.5,7.8,3.7,8.5v5.7
	c-4.4,1.8-19.5,8.7-19.5,11.8v7.2C8.3,66.9,3,56,3,43.9C3,21.4,21.4,3,43.9,3c22.6,0,40.9,18.4,40.9,40.9
	C84.9,55.9,79.7,66.7,71.4,74.2z"/>
</svg>
