<?xml version="1.0" encoding="UTF-8" standalone="no"?>
<svg width="46px" height="46px" viewBox="0 0 46 46" version="1.1" xmlns="http://www.w3.org/2000/svg" xmlns:xlink="http://www.w3.org/1999/xlink" xmlns:sketch="http://www.bohemiancoding.com/sketch/ns">
    <!-- Generator: Sketch 3.3 (11970) - http://www.bohemiancoding.com/sketch -->
    <title>create-folder</title>
    <desc>Created with Sketch.</desc>
    <defs></defs>
    <g id="Page-1" stroke="none" stroke-width="1" fill="none" fill-rule="evenodd" sketch:type="MSPage">
        <g id="create-folder" sketch:type="MSArtboardGroup" fill="#000000">
            <g id="Imported-Layers" sketch:type="MSLayerGroup" transform="translate(10.000000, 12.000000)">
                <path d="M19.3864878,9.8757027 C15.8086341,9.8757027 12.8972683,12.7289459 12.8972683,16.2367568 C12.8972683,19.7445676 15.8086341,22.5990541 19.3864878,22.5990541 C22.9649756,22.5990541 25.8763415,19.7445676 25.8763415,16.2367568 C25.8763415,12.7289459 22.9649756,9.8757027 19.3864878,9.8757027 L19.3864878,9.8757027 Z M19.3864878,21.4795135 C16.4377073,21.4795135 14.0393659,19.1272973 14.0393659,16.2367568 C14.0393659,13.3462162 16.4377073,10.9952432 19.3864878,10.9952432 C22.3359024,10.9952432 24.7342439,13.3462162 24.7342439,16.2367568 C24.7342439,19.1272973 22.3359024,21.4795135 19.3864878,21.4795135 L19.3864878,21.4795135 Z" id="Fill-1" sketch:type="MSShapeGroup"></path>
                <path d="M19.9578537,13.7502703 L18.8157561,13.7502703 L18.8157561,15.6772973 L16.8499024,15.6772973 L16.8499024,16.7962162 L18.8157561,16.7962162 L18.8157561,18.7232432 L19.9578537,18.7232432 L19.9578537,16.7962162 L21.9230732,16.7962162 L21.9230732,15.6772973 L19.9578537,15.6772973 L19.9578537,13.7502703" id="Fill-2" sketch:type="MSShapeGroup"></path>
                <path d="M6.17087805,7.3457027 L22.4056585,7.3457027 L21.718878,9.01040541 L22.7766341,9.43062162 L24.0988293,6.22678378 L18.9083415,6.22678378 L18.9083415,1.82321622 L7.79682927,1.82321622 L6.58180488,0.165972973 L0.0634146341,0.165972973 L0.0634146341,17.3426216 L11.4672683,17.3426216 L11.4672683,16.2237027 L1.79970732,16.2237027 L6.17087805,7.3457027 L6.17087805,7.3457027 Z M5.99585366,1.28489189 L7.21087805,2.94213514 L17.766878,2.94213514 L17.766878,6.22678378 L5.45492683,6.22678378 L1.20487805,14.8567568 L1.20487805,1.28489189 L5.99585366,1.28489189 L5.99585366,1.28489189 Z" id="Fill-3" sketch:type="MSShapeGroup"></path>
            </g>
        </g>
    </g>
</svg>