<?xml version="1.0" encoding="utf-8"?>
<!-- Generator: Adobe Illustrator 18.1.1, SVG Export Plug-In . SVG Version: 6.00 Build 0)  -->
<svg version="1.1" id="Layer_1" xmlns="http://www.w3.org/2000/svg" xmlns:xlink="http://www.w3.org/1999/xlink" x="0px" y="0px"
	 viewBox="-1389 851 100 100" enable-background="new -1389 851 100 100" xml:space="preserve">
<path fill='currentColor' d="M-1334.6,901l44.4-44.4c1.2-1.2,1.2-3.2,0-4.4c-1.2-1.2-3.2-1.2-4.4,0l-44.4,44.4l-44.4-44.4c-1.2-1.2-3.2-1.2-4.4,0
	c-1.2,1.2-1.2,3.2,0,4.4l44.4,44.4l-44.4,44.4c-1.2,1.2-1.2,3.2,0,4.4c0.6,0.6,1.4,0.9,2.2,0.9c0.8,0,1.6-0.3,2.2-0.9l44.4-44.4
	l44.4,44.4c0.6,0.6,1.4,0.9,2.2,0.9c0.8,0,1.6-0.3,2.2-0.9c1.2-1.2,1.2-3.2,0-4.4L-1334.6,901z"/>
</svg>
