<?xml version="1.0" encoding="UTF-8" standalone="no"?>
<svg width="46px" height="46px" viewBox="0 0 46 46" version="1.1" xmlns="http://www.w3.org/2000/svg" xmlns:xlink="http://www.w3.org/1999/xlink" xmlns:sketch="http://www.bohemiancoding.com/sketch/ns">
    <!-- Generator: Sketch 3.3 (11970) - http://www.bohemiancoding.com/sketch -->
    <title>star</title>
    <desc>Created with Sketch.</desc>
    <defs></defs>
    <g id="Page-1" stroke="none" stroke-width="1" fill="none" fill-rule="evenodd" sketch:type="MSPage">
        <g id="star" sketch:type="MSArtboardGroup" fill="#000000">
            <path d="M22.599648,15.203 L24.575648,20.8 L30.064648,20.8 L25.497648,24.39 L27.434648,30.202 L22.599648,26.657 L17.765648,30.202 L19.702648,24.39 L15.134648,20.8 L20.624648,20.8 L22.599648,15.203 M22.599648,13 C22.430648,13 22.279648,13.107 22.222648,13.267 L19.916648,19.8 L13.399648,19.8 C13.229648,19.8 13.077648,19.909 13.021648,20.07 C12.966648,20.231 13.018648,20.409 13.152648,20.515 L18.531648,24.741 L16.220648,31.674 C16.165648,31.839 16.223648,32.021 16.364648,32.124 C16.434648,32.175 16.516648,32.2 16.599648,32.2 C16.682648,32.2 16.765648,32.175 16.836648,32.123 L22.599648,27.896 L28.363648,32.123 C28.433648,32.175 28.516648,32.201 28.599648,32.201 C28.682648,32.201 28.765648,32.175 28.835648,32.124 C28.976648,32.021 29.034648,31.839 28.979648,31.674 L26.668648,24.741 L32.046648,20.515 C32.181648,20.409 32.233648,20.231 32.177648,20.07 C32.122648,19.909 31.970648,19.8 31.799648,19.8 L25.282648,19.8 L22.977648,13.267 C22.920648,13.107 22.769648,13 22.599648,13" id="Imported-Layers" sketch:type="MSShapeGroup"></path>
        </g>
    </g>
</svg>