<?xml version="1.0" encoding="UTF-8" standalone="no"?>
<svg width="46px" height="46px" viewBox="0 0 46 46" version="1.1" xmlns="http://www.w3.org/2000/svg" xmlns:xlink="http://www.w3.org/1999/xlink" xmlns:sketch="http://www.bohemiancoding.com/sketch/ns">
    <!-- Generator: Sketch 3.3 (11970) - http://www.bohemiancoding.com/sketch -->
    <title>our-latest-thinking</title>
    <desc>Created with Sketch.</desc>
    <defs></defs>
    <g id="Page-1" stroke="none" stroke-width="1" fill="none" fill-rule="evenodd" sketch:type="MSPage">
        <g id="our-latest-thinking" sketch:type="MSArtboardGroup" fill="currentColor">
            <g id="Imported-Layers" sketch:type="MSLayerGroup" transform="translate(15.000000, 12.000000)">
                <path d="M14.6048378,22.892202 L2.44524324,22.892202 C1.15577027,22.892202 0.106824324,21.8314141 0.106824324,20.5271515 L0.106824324,2.55462626 C0.106824324,1.25059596 1.15577027,0.189808081 2.44524324,0.189808081 L14.6048378,0.189808081 C15.8945405,0.189808081 16.9434865,1.25059596 16.9434865,2.55462626 L16.9434865,20.5271515 C16.9434865,21.8314141 15.8945405,22.892202 14.6048378,22.892202 L14.6048378,22.892202 Z M2.44524324,1.13559596 C1.67151351,1.13559596 1.04205405,1.77216162 1.04205405,2.55462626 L1.04205405,20.5271515 C1.04205405,21.3098485 1.67151351,21.9461818 2.44524324,21.9461818 L14.6048378,21.9461818 C15.3785676,21.9461818 16.008027,21.3098485 16.008027,20.5271515 L16.008027,2.55462626 C16.008027,1.77216162 15.3785676,1.13559596 14.6048378,1.13559596 L2.44524324,1.13559596 L2.44524324,1.13559596 Z" id="Fill-1" sketch:type="MSShapeGroup"></path>
                <path d="M8.52504054,19.5813636 C8.00814865,19.5813636 7.58981081,20.0044242 7.58981081,20.5273838 C7.58981081,21.0494141 8.00814865,21.4731717 8.52504054,21.4731717 C9.04124324,21.4731717 9.4605,21.0494141 9.4605,20.5273838 C9.4605,20.0044242 9.04124324,19.5813636 8.52504054,19.5813636" id="Fill-2" sketch:type="MSShapeGroup"></path>
                <path d="M14.6048378,19.1083535 L2.44524324,19.1083535 C2.1867973,19.1083535 1.97751351,18.8967071 1.97751351,18.6353434 L1.97751351,3.50041414 C1.97751351,3.23928283 2.1867973,3.02763636 2.44524324,3.02763636 L14.6048378,3.02763636 C14.8630541,3.02763636 15.0725676,3.23928283 15.0725676,3.50041414 L15.0725676,18.6353434 C15.0725676,18.8967071 14.8630541,19.1083535 14.6048378,19.1083535 L14.6048378,19.1083535 Z M2.91297297,18.1625657 L14.1371081,18.1625657 L14.1371081,3.97342424 L2.91297297,3.97342424 L2.91297297,18.1625657 Z" id="Fill-3" sketch:type="MSShapeGroup"></path>
                <path d="M8.52504054,1.60860606 C8.26659459,1.60860606 8.05754054,1.8200202 8.05754054,2.08161616 C8.05754054,2.34251515 8.26659459,2.55462626 8.52504054,2.55462626 C8.78348649,2.55462626 8.99277027,2.34251515 8.99277027,2.08161616 C8.99277027,1.8200202 8.78348649,1.60860606 8.52504054,1.60860606" id="Fill-4" sketch:type="MSShapeGroup"></path>
                <path d="M12.2590676,8.99137374 L4.66443243,8.99137374 C4.40621622,8.99137374 4.1967027,8.77972727 4.1967027,8.51859596 L4.1967027,5.97256566 C4.1967027,5.71143434 4.40621622,5.49978788 4.66443243,5.49978788 L12.2590676,5.49978788 C12.5172838,5.49978788 12.7267973,5.71143434 12.7267973,5.97256566 L12.7267973,8.51859596 C12.7267973,8.77972727 12.5172838,8.99137374 12.2590676,8.99137374 L12.2590676,8.99137374 Z M5.13216216,8.04558586 L11.7913378,8.04558586 L11.7913378,6.44557576 L5.13216216,6.44557576 L5.13216216,8.04558586 Z" id="Fill-5" sketch:type="MSShapeGroup"></path>
                <path d="M12.1756757,11.1515152 L4.59459459,11.1515152 C4.34097297,11.1515152 4.13513514,10.9435859 4.13513514,10.6868687 C4.13513514,10.4301515 4.34097297,10.2222222 4.59459459,10.2222222 L12.1756757,10.2222222 C12.429527,10.2222222 12.6351351,10.4301515 12.6351351,10.6868687 C12.6351351,10.9435859 12.429527,11.1515152 12.1756757,11.1515152" id="Fill-6" sketch:type="MSShapeGroup"></path>
                <path d="M12.1756757,13.7070707 L4.59459459,13.7070707 C4.34097297,13.7070707 4.13513514,13.4991414 4.13513514,13.2424242 C4.13513514,12.9857071 4.34097297,12.7777778 4.59459459,12.7777778 L12.1756757,12.7777778 C12.429527,12.7777778 12.6351351,12.9857071 12.6351351,13.2424242 C12.6351351,13.4991414 12.429527,13.7070707 12.1756757,13.7070707" id="Fill-7" sketch:type="MSShapeGroup"></path>
                <path d="M12.1756757,16.4949495 L4.59459459,16.4949495 C4.34097297,16.4949495 4.13513514,16.2870202 4.13513514,16.030303 C4.13513514,15.7735859 4.34097297,15.5656566 4.59459459,15.5656566 L12.1756757,15.5656566 C12.429527,15.5656566 12.6351351,15.7735859 12.6351351,16.030303 C12.6351351,16.2870202 12.429527,16.4949495 12.1756757,16.4949495" id="Fill-8" sketch:type="MSShapeGroup"></path>
            </g>
        </g>
    </g>
</svg>