<?xml version="1.0" encoding="UTF-8" standalone="no"?>
<svg width="46px" height="46px" viewBox="0 0 46 46" version="1.1" xmlns="http://www.w3.org/2000/svg" xmlns:xlink="http://www.w3.org/1999/xlink" xmlns:sketch="http://www.bohemiancoding.com/sketch/ns">
    <!-- Generator: Sketch 3.3 (11970) - http://www.bohemiancoding.com/sketch -->
    <title>Twitter</title>
    <desc>Created with Sketch.</desc>
    <defs></defs>
    <g id="Page-1" stroke="none" stroke-width="1" fill="none" fill-rule="evenodd" sketch:type="MSPage">
        <g id="Twitter" sketch:type="MSArtboardGroup" fill="#000000">
            <g id="03-twitter" sketch:type="MSLayerGroup" transform="translate(-1.000000, 4.000000)">
                <path d="M46.84678,4.81792683 C45.14444,5.58365854 43.31238,6.10017073 41.39008,6.33131707 C43.3528,5.14229268 44.85774,3.25887805 45.56744,1.01209756 C43.73162,2.11456098 41.69934,2.91453659 39.53452,3.34639024 C37.8021,1.47819512 35.33272,0.310097561 32.60014,0.310097561 C27.354,0.310097561 23.1005,4.61436585 23.1005,9.92407317 C23.1005,10.6764878 23.18416,11.409878 23.34678,12.1147317 C15.45078,11.7133171 8.44966,7.88656098 3.76376,2.06985366 C2.94596,3.48907317 2.47784,5.14039024 2.47784,6.90395122 C2.47784,10.2389268 4.1548,13.182 6.70408,14.9056098 C5.14744,14.8551951 3.68198,14.4223902 2.40076,13.7023171 C2.39982,13.7422683 2.39982,13.7831707 2.39982,13.8240732 C2.39982,18.4812439 5.67478,22.3660244 10.02134,23.2506585 C9.22422,23.469439 8.3848,23.5873902 7.51812,23.5873902 C6.90524,23.5873902 6.31022,23.5274634 5.73024,23.4142683 C6.94002,27.2334146 10.4481,30.0138293 14.60478,30.090878 C11.35332,32.6696341 7.25774,34.2068049 2.8059,34.2068049 C2.0398,34.2068049 1.2831,34.1611463 0.53956,34.0717317 C4.74512,36.8007805 9.7384,38.3912195 15.10298,38.3912195 C32.57852,38.3912195 42.13362,23.742439 42.13362,11.0379512 C42.13362,10.6213171 42.12516,10.2056341 42.1073,9.79280488 C43.96286,8.44017073 45.57402,6.74604878 46.84678,4.81792683 L46.84678,4.81792683 Z" id="Shape" sketch:type="MSShapeGroup"></path>
            </g>
        </g>
    </g>
</svg>