<?xml version="1.0" encoding="UTF-8" standalone="no"?>
<svg width="46px" height="46px" viewBox="0 0 46 46" version="1.1" xmlns="http://www.w3.org/2000/svg" xmlns:xlink="http://www.w3.org/1999/xlink" xmlns:sketch="http://www.bohemiancoding.com/sketch/ns">
    <!-- Generator: Sketch 3.3 (11970) - http://www.bohemiancoding.com/sketch -->
    <title>collaborators</title>
    <desc>Created with Sketch.</desc>
    <defs></defs>
    <g id="Page-1" stroke="none" stroke-width="1" fill="none" fill-rule="evenodd" sketch:type="MSPage">
        <g id="collaborators" sketch:type="MSArtboardGroup" fill="#000000">
            <g id="Imported-Layers" sketch:type="MSLayerGroup" transform="translate(0.000000, 4.000000)">
                <path d="M40.5140741,29.3245714 L40.3351852,29.2828571 C37.771679,28.6868571 34.862321,28.0131429 34.362,26.9085714 C34.2024198,26.556 34.3052099,26.0274286 34.6675309,25.3411429 C38.0516543,18.9194286 38.6706667,13.92 36.4115556,10.1417143 C34.8532346,7.53314286 32.021679,6.04 28.6449383,6.04 C25.2409383,6.04 22.3917778,7.55657143 20.8277778,10.2017143 C18.5624198,14.0291429 19.2035802,19.012 22.626321,25.352 C22.9931852,26.0331429 23.1005185,26.5542857 22.942642,26.9045714 C22.4485679,28.0074286 19.4568642,28.7017143 17.0523704,29.2577143 L16.7746667,29.3228571 C11.5789383,30.5291429 11.5965432,33.7571429 11.6181235,37.4977143 L11.620963,39.6377143 L14.1657284,39.6377143 L14.1657284,37.0788571 L14.1583457,37.0788571 C14.1430123,33.6188571 14.2503457,32.5348571 17.3454074,31.816 L17.623679,31.7508571 C21.0305185,30.9622857 24.2488148,30.2177143 25.2613827,27.956 C25.7622716,26.8405714 25.627679,25.5508571 24.8615802,24.132 C21.8818025,18.6148571 21.2253086,14.5314286 23.0124938,11.5125714 C24.1238765,9.63371429 26.1217531,8.59885714 28.6443704,8.59885714 C31.1442716,8.59885714 33.1290864,9.616 34.2325185,11.4617143 C36.0151605,14.4422857 35.3722963,18.548 32.4226173,24.1428571 C31.671284,25.5691429 31.5452099,26.8588571 32.050642,27.9725714 C33.0734321,30.2228571 36.3240988,30.9771429 39.767284,31.7765714 L39.9439012,31.8182857 C43.038963,32.5337143 43.1451605,33.6182857 43.1298272,37.0788571 L43.1286914,37.0788571 L43.1286914,39.6377143 L45.6672099,39.6377143 L45.6683457,37.4971429 C45.6916296,33.7588571 45.7080988,30.5308571 40.5140741,29.3245714" id="Fill-1" sketch:type="MSShapeGroup"></path>
                <path d="M17.5123704,0.178285714 C14.1083704,0.178285714 11.2592099,1.69542857 9.69520988,4.34 C7.42985185,8.16742857 8.07101235,13.1502857 11.494321,19.4902857 C11.8606173,20.1714286 11.9679506,20.6931429 11.8100741,21.0434286 C11.316,22.1462857 8.3248642,22.8405714 5.91980247,23.396 L5.64209877,23.4617143 C0.44637037,24.668 0.463975309,27.896 0.486123457,31.636 L0.488395062,33.776 L3.03316049,33.776 L3.03316049,31.2177143 L3.02577778,31.2177143 C3.01101235,27.7577143 3.11834568,26.6737143 6.21340741,25.9548571 L6.49111111,25.8897143 C9.89795062,25.1011429 13.1162469,24.356 14.1288148,22.0948571 C14.6297037,20.9788571 14.4951111,19.6897143 13.7290123,18.2708571 C10.7492346,12.7537143 10.0927407,8.67028571 11.8804938,5.65085714 C12.9913086,3.77257143 14.9891852,2.73714286 17.5123704,2.73714286 C19.5800988,2.73714286 21.286642,3.44285714 22.442321,4.72857143 C23.1908148,4.28 24.0182469,3.94 24.9098519,3.72114286 C23.2958765,1.46057143 20.6392346,0.178285714 17.5123704,0.178285714" id="Fill-2" sketch:type="MSShapeGroup"></path>
            </g>
        </g>
    </g>
</svg>