<?xml version="1.0" encoding="UTF-8" standalone="no"?>
<svg width="46px" height="46px" viewBox="0 0 46 46" version="1.1" xmlns="http://www.w3.org/2000/svg" xmlns:xlink="http://www.w3.org/1999/xlink" xmlns:sketch="http://www.bohemiancoding.com/sketch/ns">
    <!-- Generator: Sketch 3.3 (11970) - http://www.bohemiancoding.com/sketch -->
    <title>add</title>
    <desc>Created with Sketch.</desc>
    <defs></defs>
    <g id="Page-1" stroke="none" stroke-width="1" fill="none" fill-rule="evenodd" sketch:type="MSPage">
        <g id="add" sketch:type="MSArtboardGroup" fill="#000000">
            <g id="Imported-Layers" sketch:type="MSLayerGroup" transform="translate(12.000000, 12.000000)">
                <path d="M11.450431,0.110964912 C5.25153448,0.110964912 0.208189655,5.24278947 0.208189655,11.5504386 C0.208189655,17.8580877 5.25153448,22.9899123 11.450431,22.9899123 C17.6493276,22.9899123 22.6926724,17.8580877 22.6926724,11.5504386 C22.6926724,5.24278947 17.6493276,0.110964912 11.450431,0.110964912 L11.450431,0.110964912 Z M11.450431,21.9004386 C5.84160345,21.9004386 1.27887931,17.2576667 1.27887931,11.5504386 C1.27887931,5.84321053 5.84160345,1.2004386 11.450431,1.2004386 C17.0592586,1.2004386 21.6219828,5.84321053 21.6219828,11.5504386 C21.6219828,17.2576667 17.0592586,21.9004386 11.450431,21.9004386 L11.450431,21.9004386 Z" id="Fill-1" sketch:type="MSShapeGroup"></path>
                <path d="M11.9857759,7.46491228 L10.9150862,7.46491228 L10.9150862,10.9302456 L7.5095,10.9302456 L7.5095,12.0193158 L10.9150862,12.0193158 L10.9150862,15.4846491 L11.9857759,15.4846491 L11.9857759,12.0193158 L15.3909655,12.0193158 L15.3909655,10.9302456 L11.9857759,10.9302456 L11.9857759,7.46491228" id="Fill-2" sketch:type="MSShapeGroup"></path>
            </g>
        </g>
    </g>
</svg>