<?xml version="1.0" encoding="UTF-8" standalone="no"?>
<svg width="46px" height="46px" viewBox="0 0 46 46" version="1.1" xmlns="http://www.w3.org/2000/svg" xmlns:xlink="http://www.w3.org/1999/xlink" xmlns:sketch="http://www.bohemiancoding.com/sketch/ns">
    <!-- Generator: Sketch 3.3 (11970) - http://www.bohemiancoding.com/sketch -->
    <title>search-article</title>
    <desc>Created with Sketch.</desc>
    <defs></defs>
    <g id="Page-1" stroke="none" stroke-width="1" fill="none" fill-rule="evenodd" sketch:type="MSPage">
        <g id="search-article" sketch:type="MSArtboardGroup" fill="#231F1F">
            <g id="Imported-Layers" sketch:type="MSLayerGroup" transform="translate(10.000000, 10.000000)">
                <path d="M25.3004762,25.8678837 L20.5542381,21.0292326 C21.3107143,20.0641395 21.7663333,18.846 21.7663333,17.5198605 C21.7663333,14.4035581 19.266619,11.8686977 16.1949048,11.8686977 C13.1225714,11.8686977 10.6234762,14.4035581 10.6234762,17.5198605 C10.6234762,20.6361628 13.1225714,23.1710233 16.1949048,23.1710233 C17.5140952,23.1710233 18.7261905,22.7013488 19.682,21.9208605 L24.4226667,26.7538605 C24.543381,26.8769302 24.7024762,26.9384651 24.8615714,26.9384651 C25.0194286,26.9384651 25.1772857,26.8775581 25.298,26.7557442 C25.5406667,26.5108605 25.5412857,26.1133953 25.3004762,25.8678837 L25.3004762,25.8678837 Z M16.1949048,21.9152093 C13.805381,21.9152093 11.8615714,19.9435814 11.8615714,17.5198605 C11.8615714,15.0961395 13.805381,13.1245116 16.1949048,13.1245116 C18.5844286,13.1245116 20.5282381,15.0961395 20.5282381,17.5198605 C20.5282381,19.9435814 18.5844286,21.9152093 16.1949048,21.9152093 L16.1949048,21.9152093 Z" id="Fill-1" sketch:type="MSShapeGroup"></path>
                <path d="M1.17742857,19.0933953 L1.17742857,1.49127907 L15.652,1.49127907 L15.652,10.449 L16.7662857,10.449 L16.7662857,0.361046512 L0.0631428571,0.361046512 L0.0631428571,20.2242558 L9.23371429,20.2242558 L9.17490476,19.0933953 L1.17742857,19.0933953" id="Fill-2" sketch:type="MSShapeGroup"></path>
                <path d="M3.14785714,3.44846512 L13.6716667,3.44846512 L13.6716667,4.57869767 L3.14785714,4.57869767 L3.14785714,3.44846512 Z" id="Fill-3" sketch:type="MSShapeGroup"></path>
                <path d="M3.14785714,7.21590698 L13.6716667,7.21590698 L13.6716667,8.34613953 L3.14785714,8.34613953 L3.14785714,7.21590698 Z" id="Fill-4" sketch:type="MSShapeGroup"></path>
                <path d="M3.14785714,10.9833488 L11.0023333,10.9833488 L11.0023333,12.1135814 L3.14785714,12.1135814 L3.14785714,10.9833488 Z" id="Fill-5" sketch:type="MSShapeGroup"></path>
            </g>
        </g>
    </g>
</svg>