<?xml version="1.0" encoding="UTF-8" standalone="no"?>
<svg width="46px" height="46px" viewBox="0 0 46 46" version="1.1" xmlns="http://www.w3.org/2000/svg" xmlns:xlink="http://www.w3.org/1999/xlink" xmlns:sketch="http://www.bohemiancoding.com/sketch/ns">
    <!-- Generator: Sketch 3.3 (11970) - http://www.bohemiancoding.com/sketch -->
    <title>save-article</title>
    <desc>Created with Sketch.</desc>
    <defs></defs>
    <g id="Page-1" stroke="none" stroke-width="1" fill="none" fill-rule="evenodd" sketch:type="MSPage">
        <g id="save-article" sketch:type="MSArtboardGroup" fill="#231F1F">
            <g id="Imported-Layers" sketch:type="MSLayerGroup" transform="translate(11.000000, 10.000000)">
                <path d="M23.6918919,16.8688 C23.5738378,16.5308 23.2540541,16.3033 22.8966486,16.3033 L19.0819459,16.3033 L17.724973,12.4501 C17.6075676,12.1108 17.2871351,11.8833 16.9290811,11.8833 C16.5703784,11.8833 16.2505946,12.1108 16.1338378,12.44685 L14.7749189,16.3033 L10.9608649,16.3033 C10.6021622,16.3033 10.2817297,16.5321 10.1643243,16.87205 C10.0469189,17.212 10.1578378,17.58965 10.4406486,17.8126 L13.6060541,20.30535 L12.2387027,24.41725 C12.1193514,24.7676 12.2393514,25.1498 12.5377297,25.3695 C12.8237838,25.58205 13.2291892,25.5905 13.536,25.37015 L16.9290811,22.8761 L20.328,25.37535 C20.4732973,25.4787 20.6432432,25.5333 20.820973,25.5333 C21.0019459,25.5333 21.1751351,25.47675 21.3171892,25.37145 C21.6149189,25.1537 21.7375135,24.7728 21.6207568,24.4218 L20.2514595,20.30535 L23.4188108,17.81195 C23.6996757,17.58965 23.8105946,17.212 23.6918919,16.8688 L23.6918919,16.8688 Z M18.8841081,19.8939 L20.1911351,23.82315 L16.9290811,21.4253 L13.6663784,23.82315 L14.9727568,19.8939 L11.8994595,17.47395 L15.6012973,17.47395 L16.9290811,13.70525 L18.2555676,17.47395 L21.9580541,17.47395 L18.8841081,19.8939 L18.8841081,19.8939 Z" id="Fill-1" sketch:type="MSShapeGroup"></path>
                <path d="M1.17794595,19.51105 L1.17794595,1.28895 L16.3446486,1.28895 L16.3446486,10.5625 L17.5128649,10.5625 L17.5128649,0.1196 L0.011027027,0.1196 L0.011027027,20.68105 L11.2482162,20.68105 L9.45210811,19.51105 L1.17794595,19.51105" id="Fill-2" sketch:type="MSShapeGroup"></path>
                <path d="M3.24324324,3.315 L14.2702703,3.315 L14.2702703,4.485 L3.24324324,4.485 L3.24324324,3.315 Z" id="Fill-3" sketch:type="MSShapeGroup"></path>
                <path d="M3.24324324,7.215 L14.2702703,7.215 L14.2702703,8.385 L3.24324324,8.385 L3.24324324,7.215 Z" id="Fill-4" sketch:type="MSShapeGroup"></path>
                <path d="M3.24324324,11.115 L11.4726486,11.115 L11.4726486,12.285 L3.24324324,12.285 L3.24324324,11.115 Z" id="Fill-5" sketch:type="MSShapeGroup"></path>
            </g>
        </g>
    </g>
</svg>