<?xml version="1.0" encoding="UTF-8" standalone="no"?>
<svg width="46px" height="46px" viewBox="0 0 46 46" version="1.1" xmlns="http://www.w3.org/2000/svg" xmlns:xlink="http://www.w3.org/1999/xlink" xmlns:sketch="http://www.bohemiancoding.com/sketch/ns">
    <!-- Generator: Sketch 3.3 (11970) - http://www.bohemiancoding.com/sketch -->
    <title>pdf</title>
    <desc>Created with Sketch.</desc>
    <defs></defs>
    <g id="Page-1" stroke="none" stroke-width="1" fill="none" fill-rule="evenodd" sketch:type="MSPage">
        <g id="pdf" sketch:type="MSArtboardGroup" fill="#000000">
            <g id="Imported-Layers" sketch:type="MSLayerGroup" transform="translate(15.000000, 13.000000)">
                <path d="M11.417,0.311 L0.784,0.311 L0.784,20.446 L16.295,20.446 L16.295,5.19 L11.417,0.311 L11.417,0.311 Z M11.671,4.935 L11.671,1.797 L14.809,4.935 L11.671,4.935 L11.671,4.935 Z M15.425,5.805 L15.425,19.576 L1.654,19.576 L1.654,1.181 L10.801,1.181 L10.801,5.805 L15.425,5.805 L15.425,5.805 Z" id="Fill-1" sketch:type="MSShapeGroup"></path>
                <path d="M4.127,16.873 L4.127,16.873 C3.968,16.873 3.815,16.821 3.684,16.723 C3.208,16.366 3.144,15.968 3.174,15.697 C3.257,14.952 4.179,14.171 5.914,13.377 C6.602,11.868 7.257,10.009 7.647,8.456 C7.191,7.462 6.747,6.172 7.07,5.415 C7.184,5.15 7.383,4.964 7.647,4.876 C7.751,4.841 7.853,4.823 7.95,4.823 C8.181,4.823 8.387,4.924 8.531,5.107 C8.666,5.28 9.073,5.798 8.461,8.374 C9.078,9.648 9.952,10.946 10.79,11.835 C11.39,11.727 11.906,11.672 12.327,11.672 C13.043,11.672 13.478,11.839 13.655,12.183 C13.802,12.468 13.741,12.8 13.476,13.171 C13.221,13.528 12.87,13.717 12.46,13.717 C11.903,13.717 11.255,13.365 10.532,12.671 C9.233,12.942 7.717,13.426 6.491,13.962 C6.109,14.774 5.742,15.429 5.401,15.908 C4.932,16.566 4.528,16.873 4.127,16.873 L4.127,16.873 Z M5.345,14.527 C4.367,15.076 3.968,15.528 3.94,15.782 C3.935,15.825 3.923,15.935 4.137,16.099 C4.205,16.078 4.604,15.896 5.345,14.527 L5.345,14.527 Z M11.513,12.502 C11.886,12.789 12.216,12.946 12.46,12.946 C12.567,12.946 12.708,12.921 12.849,12.723 C12.918,12.628 12.944,12.566 12.955,12.534 C12.898,12.504 12.734,12.442 12.327,12.442 C12.096,12.442 11.821,12.463 11.513,12.502 L11.513,12.502 Z M8.168,9.48 C7.841,10.613 7.409,11.835 6.944,12.943 C7.901,12.571 8.941,12.247 9.918,12.018 C9.3,11.3 8.682,10.404 8.168,9.48 L8.168,9.48 Z M7.935,5.596 C7.925,5.597 7.91,5.601 7.891,5.607 C7.846,5.622 7.81,5.646 7.779,5.719 C7.661,5.994 7.754,6.517 7.934,7.079 C8.084,6.11 8.004,5.699 7.935,5.596 L7.935,5.596 Z" id="Fill-2" sketch:type="MSShapeGroup"></path>
            </g>
        </g>
    </g>
</svg>