<?xml version="1.0" encoding="UTF-8" standalone="no"?>
<svg width="46px" height="46px" viewBox="0 0 46 46" version="1.1" xmlns="http://www.w3.org/2000/svg" xmlns:xlink="http://www.w3.org/1999/xlink" xmlns:sketch="http://www.bohemiancoding.com/sketch/ns">
    <!-- Generator: Sketch 3.3 (11970) - http://www.bohemiancoding.com/sketch -->
    <title>create-folder</title>
    <desc>Created with Sketch.</desc>
    <defs></defs>
    <g id="Page-1" stroke="none" stroke-width="1" fill="none" fill-rule="evenodd" sketch:type="MSPage">
        <g id="create-folder" sketch:type="MSArtboardGroup" fill="#000000">
            <g id="Imported-Layers" sketch:type="MSLayerGroup" transform="translate(0.000000, 3.000000)">
                <path d="M34.2991707,17.6045135 C27.969122,17.6045135 22.8182439,22.6907297 22.8182439,28.9437838 C22.8182439,35.1968378 27.969122,40.2852703 34.2991707,40.2852703 C40.6303415,40.2852703 45.7812195,35.1968378 45.7812195,28.9437838 C45.7812195,22.6907297 40.6303415,17.6045135 34.2991707,17.6045135 L34.2991707,17.6045135 Z M34.2991707,38.2895676 C29.0820976,38.2895676 24.838878,34.0964865 24.838878,28.9437838 C24.838878,23.7910811 29.0820976,19.6002162 34.2991707,19.6002162 C39.5173659,19.6002162 43.7605854,23.7910811 43.7605854,28.9437838 C43.7605854,34.0964865 39.5173659,38.2895676 34.2991707,38.2895676 L34.2991707,38.2895676 Z" id="Fill-1" sketch:type="MSShapeGroup"></path>
                <path d="M35.3100488,24.5113514 L33.2894146,24.5113514 L33.2894146,27.9464865 L29.8113659,27.9464865 L29.8113659,29.9410811 L33.2894146,29.9410811 L33.2894146,33.3762162 L35.3100488,33.3762162 L35.3100488,29.9410811 L38.7869756,29.9410811 L38.7869756,27.9464865 L35.3100488,27.9464865 L35.3100488,24.5113514" id="Fill-2" sketch:type="MSShapeGroup"></path>
                <path d="M10.9177073,13.0945135 L39.6407805,13.0945135 L38.4257073,16.062027 L40.297122,16.8111081 L42.6363902,11.0999189 L33.4532195,11.0999189 L33.4532195,3.25008108 L13.7943902,3.25008108 L11.6447317,0.295864865 L0.112195122,0.295864865 L0.112195122,30.9151081 L20.2882439,30.9151081 L20.2882439,28.9205135 L3.18409756,28.9205135 L10.9177073,13.0945135 L10.9177073,13.0945135 Z M10.6080488,2.29045946 L12.7577073,5.24467568 L31.4337073,5.24467568 L31.4337073,11.0999189 L9.65102439,11.0999189 L2.13170732,26.4837838 L2.13170732,2.29045946 L10.6080488,2.29045946 L10.6080488,2.29045946 Z" id="Fill-3" sketch:type="MSShapeGroup"></path>
            </g>
        </g>
    </g>
</svg>