<?xml version="1.0" encoding="UTF-8" standalone="no"?>
<svg width="46px" height="46px" viewBox="0 0 46 46" version="1.1" xmlns="http://www.w3.org/2000/svg" xmlns:xlink="http://www.w3.org/1999/xlink" xmlns:sketch="http://www.bohemiancoding.com/sketch/ns">
    <!-- Generator: Sketch 3.3 (11970) - http://www.bohemiancoding.com/sketch -->
    <title>star filled</title>
    <desc>Created with Sketch.</desc>
    <defs></defs>
    <g id="Page-1" stroke="none" stroke-width="1" fill="none" fill-rule="evenodd" sketch:type="MSPage">
        <g id="star-filled" sketch:type="MSArtboardGroup" fill="#000000">
            <path d="M45.0410994,15.9105481 L37.2775495,15.9105481 L29.4273579,15.9105481 L23.9049282,0.622474745 C23.7683649,0.248053846 23.4065918,0 22.9992977,0 C22.5943994,0 22.2326263,0.248053846 22.096063,0.622474745 L16.5712375,15.9105481 L0.957495942,15.9105481 C0.55020178,15.9105481 0.186032881,16.1656223 0.0518653925,16.5423834 C-0.0799062483,16.9191444 0.0446778485,17.3356876 0.365721483,17.5837415 L13.252988,27.4731335 L7.71618319,43.6972591 C7.58441155,44.0833806 7.72337074,44.5092844 8.06118531,44.7503178 C8.39660403,44.9890112 8.854211,44.9890112 9.19202557,44.7479777 L22.9992977,34.8562456 L36.8089656,44.7479777 C36.976675,44.8696645 37.1755304,44.9305079 37.3743858,44.9305079 C37.5732412,44.9305079 37.7720965,44.8696645 37.9398059,44.7503178 C38.2776205,44.5092844 38.4165797,44.0833806 38.284808,43.6972591 L32.7480033,27.4731335 L45.6328739,17.5837415 C45.9563134,17.3356876 46.0808975,16.9191444 45.94673,16.5423834 C45.8149583,16.1656223 45.4507894,15.9105481 45.0410994,15.9105481 Z" id="Imported-Layers" sketch:type="MSShapeGroup"></path>
        </g>
    </g>
</svg>