<?xml version="1.0" encoding="utf-8"?>
<!-- Generator: Adobe Illustrator 18.1.1, SVG Export Plug-In . SVG Version: 6.00 Build 0)  -->
<svg version="1.1" id="Layer_1" xmlns:sketch="http://www.bohemiancoding.com/sketch/ns"
	 xmlns="http://www.w3.org/2000/svg" xmlns:xlink="http://www.w3.org/1999/xlink" x="0px" y="0px" viewBox="-429 231 100 100"
	 enable-background="new -429 231 100 100" xml:space="preserve">
<g id="Page-1" sketch:type="MSPage">
	<g id="icon_share-filled" sketch:type="MSArtboardGroup">
		<circle sketch:type="MSShapeGroup" fill='currentColor' cx="-400.7" cy="280.9" r="8.9">
		</circle>
		<circle sketch:type="MSShapeGroup" fill='currentColor' cx="-356.9" cy="258.3" r="8.9">
		</circle>
		<circle sketch:type="MSShapeGroup" fill='currentColor' cx="-356.9" cy="302.8" r="8.9">
		</circle>
		<path id="outer-path" fill='currentColor' sketch:type="MSShapeGroup" d="M-357.2,291.5c-3.7,0-7,1.8-9,4.5l-23.6-11.9c0.3-1,0.5-2.1,0.5-3.2
			s-0.2-2.1-0.5-3.2l23.6-11.9c2.1,2.7,5.3,4.5,9,4.5c6.4,0,11.5-5.1,11.5-11.5c0-6.4-5.1-11.5-11.5-11.5s-11.5,5.1-11.5,11.5
			c0,1.1,0.2,2.1,0.5,3.2l-23.6,11.9c-2.1-2.7-5.3-4.5-9-4.5c-6.4,0-11.5,5.1-11.5,11.5s5.1,11.5,11.5,11.5c3.7,0,7-1.8,9-4.5
			l23.6,11.9c-0.3,1-0.5,2.1-0.5,3.2c0,6.4,5.1,11.5,11.5,11.5s11.5-5.1,11.5-11.5C-345.7,296.7-350.9,291.5-357.2,291.5
			L-357.2,291.5z M-357.2,251.8c4,0,7.1,3.2,7.1,7.2c0,4-3.2,7.1-7.1,7.1c-4,0-7.1-3.2-7.1-7.1S-361.2,251.8-357.2,251.8
			L-357.2,251.8z M-400.9,288.1c-4,0-7.1-3.2-7.1-7.2c0-4,3.2-7.1,7.1-7.1c4,0,7.1,3.2,7.1,7.1
			C-393.7,284.9-396.9,288.1-400.9,288.1L-400.9,288.1z M-357.2,310.2c-4,0-7.1-3.2-7.1-7.2s3.2-7.1,7.1-7.1c4,0,7.1,3.2,7.1,7.1
			C-350.1,307-353.3,310.2-357.2,310.2L-357.2,310.2z"/>
	</g>
</g>
</svg>
