<?xml version="1.0" encoding="utf-8"?>
<!-- Generator: Adobe Illustrator 18.1.1, SVG Export Plug-In . SVG Version: 6.00 Build 0)  -->
<svg version="1.1" id="Layer_1" xmlns:sketch="http://www.bohemiancoding.com/sketch/ns"
	 xmlns="http://www.w3.org/2000/svg" xmlns:xlink="http://www.w3.org/1999/xlink" x="0px" y="0px" width="46px" height="46px"
	 viewBox="-1416 878 46 46" enable-background="new -1416 878 46 46" xml:space="preserve">
<g id="stroke" sketch:type="MSPage">
	<g id="star" sketch:type="MSArtboardGroup">
		<path d="M-1379.5,923.4c-0.4,0-0.9-0.1-1.1-0.4l-12.5-8.9l-12.6,8.9c-0.7,0.5-1.6,0.5-2.3,0c-0.7-0.5-1-1.4-0.8-2.2l5-14.7
			l-11.6-8.9c-0.7-0.5-1-1.4-0.7-2.2c0.3-0.8,1-1.3,1.9-1.3h14.1l5-13.8c0.3-0.8,1-1.3,1.9-1.3s1.6,0.5,1.9,1.3l5,13.8h14.1
			c0.9,0,1.6,0.6,1.9,1.3c0.3,0.8,0,1.7-0.7,2.2l-11.6,8.9l5,14.7c0.3,0.9,0,1.7-0.8,2.2C-1378.7,923.3-1379.1,923.4-1379.5,923.4z
			 M-1393.2,911.5l13.3,9.6l-5.3-15.7l12.5-9.5h-15.1l-5.3-14.8l-5.3,14.8h-15.1l12.5,9.5l-5.3,15.7L-1393.2,911.5z"/>
	</g>
</g>
<polygon id="hover" points="-1413.6,895.9 -1398.5,895.9 -1393.2,881 -1387.9,895.9 -1372.1,895.9 -1385.2,905.4 -1379.9,921.1 
	-1393.2,911.5 -1406.5,921.1 -1401.2,905.4 "/>
</svg>
