<?xml version="1.0" encoding="UTF-8" standalone="no"?>
<svg width="100px" height="100px" viewBox="0 0 100 100" version="1.1" xmlns="http://www.w3.org/2000/svg" xmlns:xlink="http://www.w3.org/1999/xlink" xmlns:sketch="http://www.bohemiancoding.com/sketch/ns">
    <!-- Generator: Sketch 3.3 (11970) - http://www.bohemiancoding.com/sketch -->
    <title>icon_star</title>
    <desc>Created with Sketch.</desc>
    <defs></defs>
    <g id="Page-1" stroke="none" stroke-width="1" fill="none" fill-rule="evenodd" sketch:type="MSPage">
        <g id="icon_star" sketch:type="MSArtboardGroup" fill="#50b3cf">
            <path d="M49.8267445,11.4556 L60.0831255,40.56 L88.5736493,40.56 L64.8687445,59.228 L74.9226969,89.4504 L49.8267445,71.0164 L24.7359826,89.4504 L34.789935,59.228 L11.0798398,40.56 L39.5755541,40.56 L49.8267445,11.4556 M49.8267445,0 C48.9495541,0 48.1657922,0.5564 47.869935,1.3884 L35.9006969,35.36 L2.07436359,35.36 C1.19198264,35.36 0.403030257,35.9268 0.11236359,36.764 C-0.1731126,37.6012 0.0967921618,38.5268 0.792315971,39.078 L28.7118874,61.0532 L16.7166969,97.1048 C16.4312207,97.9628 16.7322684,98.9092 17.4641255,99.4448 C17.8274588,99.71 18.2530779,99.84 18.6838874,99.84 C19.1146969,99.84 19.5455064,99.71 19.9140303,99.4396 L49.8267445,77.4592 L79.7446493,99.4396 C80.1079826,99.71 80.5387922,99.8452 80.9696017,99.8452 C81.4004112,99.8452 81.8312207,99.71 82.1945541,99.4448 C82.9264112,98.9092 83.2274588,97.9628 82.9419826,97.1048 L70.9467922,61.0532 L98.8611731,39.078 C99.5618874,38.5268 99.8317922,37.6012 99.5411255,36.764 C99.2556493,35.9268 98.4666969,35.36 97.5791255,35.36 L63.7527922,35.36 L51.7887445,1.3884 C51.4928874,0.5564 50.7091255,0 49.8267445,0" id="Imported-Layers" sketch:type="MSShapeGroup"></path>
        </g>
    </g>
</svg>