<?xml version="1.0" encoding="UTF-8" standalone="no"?>
<svg width="46px" height="46px" viewBox="0 0 46 46" version="1.1" xmlns="http://www.w3.org/2000/svg" xmlns:xlink="http://www.w3.org/1999/xlink" xmlns:sketch="http://www.bohemiancoding.com/sketch/ns">
    <!-- Generator: Sketch 3.3 (11970) - http://www.bohemiancoding.com/sketch -->
    <title>exit</title>
    <desc>Created with Sketch.</desc>
    <defs></defs>
    <g id="Page-1" stroke="none" stroke-width="1" fill="none" fill-rule="evenodd" sketch:type="MSPage">
        <g id="exit" sketch:type="MSArtboardGroup" fill="#231F1F">
            <g id="Imported-Layers" sketch:type="MSLayerGroup" transform="translate(5.000000, 0.000000)">
                <path d="M34.3636364,45.425 L14.3181818,45.425 C13.7307273,45.425 13.2545455,44.9469286 13.2545455,44.3571429 L13.2545455,34.5821429 C13.2545455,33.9923571 13.7307273,33.5142857 14.3181818,33.5142857 C14.9056364,33.5142857 15.3818182,33.9923571 15.3818182,34.5821429 L15.3818182,43.2892857 L33.3,43.2892857 L33.3,2.71071429 L15.3818182,2.71071429 L15.3818182,11.0892857 C15.3818182,11.6790714 14.9056364,12.1571429 14.3181818,12.1571429 C13.7307273,12.1571429 13.2545455,11.6790714 13.2545455,11.0892857 L13.2545455,1.64285714 C13.2545455,1.05307143 13.7307273,0.575 14.3181818,0.575 L34.3636364,0.575 C34.9510909,0.575 35.4272727,1.05307143 35.4272727,1.64285714 L35.4272727,44.3571429 C35.4272727,44.9469286 34.9510909,45.425 34.3636364,45.425" id="Fill-1" sketch:type="MSShapeGroup"></path>
                <path d="M27.8181818,24.0883929 L3.27272727,24.0883929 C2.68527273,24.0883929 2.20909091,23.6103214 2.20909091,23.0205357 C2.20909091,22.43075 2.68527273,21.9526786 3.27272727,21.9526786 L27.8181818,21.9526786 C28.4056364,21.9526786 28.8818182,22.43075 28.8818182,23.0205357 C28.8818182,23.6103214 28.4056364,24.0883929 27.8181818,24.0883929" id="Fill-2" sketch:type="MSShapeGroup"></path>
                <path d="M6.25990909,30.7008929 C5.93836364,30.7008929 5.62090909,30.5546786 5.41227273,30.2786786 L0.380454545,23.6251071 C0.0924545455,23.2456071 0.0916363636,22.7198929 0.376363636,22.33875 L5.28545455,15.7673214 C5.63890909,15.295 6.30490909,15.1997143 6.77454545,15.55375 C7.24418182,15.9077857 7.33990909,16.5764286 6.98727273,17.04875 L2.55927273,22.9753571 L7.10590909,28.9873929 C7.46181818,29.45725 7.37018182,30.1267143 6.90218182,30.4832143 C6.70990909,30.6294286 6.48409091,30.7008929 6.25990909,30.7008929" id="Fill-3" sketch:type="MSShapeGroup"></path>
            </g>
        </g>
    </g>
</svg>