<?xml version="1.0" encoding="UTF-8" standalone="no"?>
<svg width="46px" height="46px" viewBox="0 0 46 46" version="1.1" xmlns="http://www.w3.org/2000/svg" xmlns:xlink="http://www.w3.org/1999/xlink" xmlns:sketch="http://www.bohemiancoding.com/sketch/ns">
    <!-- Generator: Sketch 3.3 (11970) - http://www.bohemiancoding.com/sketch -->
    <title>x</title>
    <desc>Created with Sketch.</desc>
    <defs></defs>
    <g id="Page-1" stroke="none" stroke-width="1" fill="none" fill-rule="evenodd" sketch:type="MSPage">
        <g id="x" sketch:type="MSArtboardGroup" fill="#000000">
            <g id="Imported-Layers" sketch:type="MSLayerGroup">
                <path d="M7.00231034,6.92340351 C-1.76465517,15.8441754 -1.76465517,30.358386 7.00151724,39.2783509 C15.7684828,48.1991228 30.0332414,48.1991228 38.7994138,39.2783509 C47.5663793,30.358386 47.5663793,15.8433684 38.8002069,6.92259649 C30.0332414,-1.99736842 15.7684828,-1.99736842 7.00231034,6.92340351 L7.00231034,6.92340351 Z M37.2861724,37.7385614 C29.3543448,45.8095439 16.4481724,45.8087368 8.51634483,37.7377544 C0.584517241,29.6667719 0.583724138,16.5341754 8.51555172,8.46319298 C16.4473793,0.392210526 29.3535517,0.393017544 37.2853793,8.464 C45.2172069,16.5349825 45.218,29.6675789 37.2861724,37.7385614 L37.2861724,37.7385614 Z" id="Fill-1" sketch:type="MSShapeGroup"></path>
                <path d="M17.9796552,16.5527368 L16.4656207,18.0933333 L21.2813448,22.9943509 L16.4656207,27.8945614 L17.9796552,29.4351579 L22.7953793,24.5341404 L27.6118966,29.4351579 L29.125931,27.8945614 L24.3094138,22.9935439 L29.125931,18.0933333 L27.6118966,16.5527368 L22.7961724,21.4529474 L17.9796552,16.5527368" id="Fill-2" sketch:type="MSShapeGroup"></path>
            </g>
        </g>
    </g>
</svg>