<?xml version="1.0" encoding="UTF-8" standalone="no"?>
<svg width="46px" height="46px" viewBox="0 0 46 46" version="1.1" xmlns="http://www.w3.org/2000/svg" xmlns:xlink="http://www.w3.org/1999/xlink" xmlns:sketch="http://www.bohemiancoding.com/sketch/ns">
    <!-- Generator: Sketch 3.3 (11970) - http://www.bohemiancoding.com/sketch -->
    <title>global sourcing</title>
    <desc>Created with Sketch.</desc>
    <defs></defs>
    <g id="Page-1" stroke="none" stroke-width="1" fill="none" fill-rule="evenodd" sketch:type="MSPage">
        <g id="global-sourcing" sketch:type="MSArtboardGroup">
            <g id="Imported-Layers" sketch:type="MSLayerGroup" transform="translate(9.000000, 11.000000)">
                <path d="M13.9801053,24.8716912 L0.644736842,24.8716912 C0.412631579,24.8716912 0.224736842,24.6841912 0.224736842,24.4529412 C0.224736842,24.4 0.231736842,23.1496324 0.848842105,21.9180147 C1.29757895,21.0224265 2.772,20.48125 4.81305263,19.7323529 C5.01826316,19.6569853 5.22826316,19.5797794 5.44268421,19.5003676 L5.44268421,18.2547794 C5.16342105,18.0051471 4.66310526,17.4415441 4.58389474,16.5602941 C4.45126316,16.4286765 4.34847368,16.2279412 4.28805263,15.9724265 C4.18710526,15.5463235 4.23389474,15.0433824 4.51942105,14.7183824 C4.51684211,14.7106618 4.51463158,14.7022059 4.51205263,14.6944853 C4.30905263,14.0253676 3.93068421,12.78125 4.47373684,12.0507353 C4.61226316,11.8647059 4.86168421,11.6485294 5.29347368,11.5816176 C5.69026316,10.9573529 6.75757895,10.7264706 7.71031579,10.7264706 C8.91910526,10.7264706 10.4071579,11.1091912 10.6230526,12.1871324 C10.794,13.0415441 10.3710526,14.1055147 10.1437368,14.6772059 C10.1356316,14.6977941 10.1278947,14.7172794 10.1201579,14.7360294 C10.3924211,15.0613971 10.4355263,15.5544118 10.3367895,15.9724265 C10.2763684,16.2283088 10.1732105,16.4286765 10.0405789,16.5602941 C9.96136842,17.4415441 9.46105263,18.0051471 9.18142105,18.2547794 L9.18142105,19.5003676 C9.39547368,19.5797794 9.60510526,19.6566176 9.80994737,19.7316176 C11.8513684,20.4808824 13.3261579,21.0220588 13.7756316,21.9180147 C14.3927368,23.1496324 14.3997368,24.4 14.3997368,24.4529412 C14.3997368,24.6841912 14.2118421,24.8716912 13.9801053,24.8716912 L13.9801053,24.8716912 Z M1.09642105,24.0338235 L13.5284211,24.0338235 C13.4786842,23.6158088 13.3512105,22.9441176 13.0247895,22.2930147 C12.7245263,21.69375 11.2394211,21.1488971 9.52,20.5183824 C9.22747368,20.4110294 8.925,20.2996324 8.61442105,20.1834559 C8.45047368,20.1220588 8.34178947,19.9658088 8.34178947,19.7911765 L8.34178947,18.0551471 C8.34178947,17.9154412 8.41178947,17.7841912 8.52894737,17.7066176 C8.55436842,17.6889706 9.21163158,17.2264706 9.21163158,16.3198529 C9.21163158,16.1466912 9.317,15.9981618 9.46731579,15.9341912 C9.51631579,15.8345588 9.57415789,15.6 9.53215789,15.4029412 C9.51410526,15.3205882 9.48463158,15.2680147 9.44373684,15.2481618 C9.30152632,15.1768382 9.21163158,15.0319853 9.21163158,14.8731618 C9.21163158,14.7492647 9.25621053,14.6378676 9.36342105,14.3683824 C9.54468421,13.9121324 9.92194737,12.9628676 9.79963158,12.3518382 C9.71121053,11.9102941 8.79347368,11.5643382 7.71031579,11.5643382 C6.67984211,11.5643382 6.03326316,11.8702206 5.98021053,12.0816176 C5.93378947,12.2680147 5.76542105,12.3992647 5.57310526,12.3992647 C5.26031579,12.3992647 5.17594737,12.5128676 5.14794737,12.5503676 C4.85726316,12.9415441 5.19031579,14.0386029 5.31557895,14.4511029 C5.38226316,14.6709559 5.41284211,14.7716912 5.41284211,14.8731618 C5.41284211,15.0319853 5.32294737,15.1768382 5.18110526,15.2481618 C5.14021053,15.2680147 5.11036842,15.3205882 5.09268421,15.4029412 C5.05031579,15.6 5.10852632,15.8345588 5.15752632,15.9341912 C5.30747368,15.9981618 5.41284211,16.1466912 5.41284211,16.3198529 C5.41284211,17.2422794 6.08852632,17.7018382 6.09552632,17.7066176 C6.21231579,17.7841912 6.28268421,17.9154412 6.28268421,18.0551471 L6.28268421,19.7911765 C6.28268421,19.9658088 6.174,20.1220588 6.01005263,20.1834559 C5.69910526,20.3 5.39589474,20.4113971 5.103,20.51875 C3.38394737,21.1492647 1.89957895,21.6941176 1.60005263,22.2930147 C1.27363158,22.9441176 1.14578947,23.6158088 1.09642105,24.0338235 L1.09642105,24.0338235 Z" id="Fill-1" fill="#231F1F" sketch:type="MSShapeGroup"></path>
                <path d="M17.605,0.0966911765 C17.4557895,0.0966911765 17.3087895,0.0996323529 17.1603158,0.105147059 C11.6373158,0.327941176 7.45721053,4.52242647 7.34594737,9.90073529 C7.46568421,9.89448529 7.58542105,9.88823529 7.71031579,9.88823529 C7.83705263,9.88823529 7.96157895,9.89154412 8.08352632,9.89779412 C8.113,8.60147059 8.39668421,7.37941176 8.89294737,6.27757353 L13.4458947,6.27757353 C13.0833684,7.58566176 12.9242105,8.93492647 12.9691579,10.3073529 L9.93521053,10.3073529 C10.3555789,10.4955882 10.7007895,10.74375 10.9590526,11.0426471 L13.0115263,11.0426471 C13.125,12.3735294 13.4267368,13.7220588 13.9193158,15.0724265 L11.1734737,15.0724265 C11.2221053,15.3047794 11.2364737,15.5518382 11.2110526,15.8077206 L14.2055789,15.8077206 C14.756,17.1327206 15.4884211,18.4555147 16.4039474,19.7613971 C14.2368947,19.4875 12.2949474,18.4643382 10.8323158,16.9533088 C10.7781579,17.2470588 10.6897368,17.5095588 10.5821579,17.7426471 C12.4128421,19.4959559 14.8716842,20.5727941 17.5729474,20.5727941 C23.2451579,20.5727941 27.86,15.9636029 27.86,10.2977941 C27.86,4.67279412 23.2595263,0.0966911765 17.605,0.0966911765 L17.605,0.0966911765 Z M25.8296316,5.54227941 L21.5375263,5.54227941 C20.9852632,3.91875 20.1106316,2.36691176 18.9143684,0.923529412 C21.8657895,1.32941176 24.3876316,3.08492647 25.8296316,5.54227941 L25.8296316,5.54227941 Z M17.3434211,0.836764706 C17.4303684,0.834926471 17.5169474,0.831985294 17.605,0.831985294 C17.6926842,0.831985294 17.7796316,0.836029412 17.8665789,0.838602941 C19.2024737,2.30845588 20.1754737,3.88786765 20.7852105,5.54227941 L14.4236842,5.54227941 C15.0337895,3.8875 16.0071579,2.30735294 17.3434211,0.836764706 L17.3434211,0.836764706 Z M9.26578947,5.54227941 C10.6727895,3.05330882 13.2185789,1.30551471 16.3011579,0.915073529 C15.1015789,2.36066176 14.2247368,3.91544118 13.6713684,5.54227941 L9.26578947,5.54227941 L9.26578947,5.54227941 Z M14.1757368,6.27757353 L21.0327895,6.27757353 C21.4247895,7.58382353 21.5938947,8.93272059 21.5452632,10.3073529 L13.6636316,10.3073529 C13.6146316,8.93272059 13.7837368,7.58382353 14.1757368,6.27757353 L14.1757368,6.27757353 Z M13.7085789,11.0426471 L21.4999474,11.0426471 C21.378,12.3694853 21.0515789,13.7172794 20.524,15.0724265 L14.6841579,15.0724265 C14.1569474,13.7172794 13.8305263,12.3694853 13.7085789,11.0426471 L13.7085789,11.0426471 Z M17.5729474,19.8375 C17.5033158,19.8375 17.4340526,19.8338235 17.3647895,19.8319853 C16.3748421,18.4955882 15.5842105,17.1496324 14.9903158,15.8077206 L20.2178421,15.8077206 C19.6239474,17.1492647 18.8336842,18.4944853 17.8441053,19.8305147 C17.7538421,19.8330882 17.6639474,19.8375 17.5729474,19.8375 L17.5729474,19.8375 Z M18.8082632,19.7551471 C19.7215789,18.4514706 20.4528947,17.1305147 21.0025789,15.8077206 L25.3617368,15.8077206 C23.8556316,17.9261029 21.5076842,19.4051471 18.8082632,19.7551471 L18.8082632,19.7551471 Z M25.8355263,15.0724265 L21.2888421,15.0724265 C21.7814211,13.7220588 22.0835263,12.3735294 22.197,11.0426471 L27.0914737,11.0426471 C26.9776316,12.5022059 26.5347895,13.8698529 25.8355263,15.0724265 L25.8355263,15.0724265 Z M22.2393684,10.3073529 C22.2846842,8.93492647 22.1251579,7.58566176 21.763,6.27757353 L26.2197895,6.27757353 C26.7982105,7.49852941 27.1231579,8.86102941 27.1231579,10.2977941 C27.1231579,10.3011029 27.1227895,10.3040441 27.1227895,10.3073529 L22.2393684,10.3073529 L22.2393684,10.3073529 Z" id="Fill-2" fill="#000000" sketch:type="MSShapeGroup"></path>
            </g>
        </g>
    </g>
</svg>