<?xml version="1.0" encoding="UTF-8" standalone="no"?>
<svg width="46px" height="46px" viewBox="0 0 46 46" version="1.1" xmlns="http://www.w3.org/2000/svg" xmlns:xlink="http://www.w3.org/1999/xlink" xmlns:sketch="http://www.bohemiancoding.com/sketch/ns">
    <!-- Generator: Sketch 3.3 (11970) - http://www.bohemiancoding.com/sketch -->
    <title>workplace</title>
    <desc>Created with Sketch.</desc>
    <defs></defs>
    <g id="Page-1" stroke="none" stroke-width="1" fill="none" fill-rule="evenodd" sketch:type="MSPage">
        <g id="workplace" sketch:type="MSArtboardGroup" fill="#000000">
            <g id="Imported-Layers" sketch:type="MSLayerGroup" transform="translate(11.000000, 11.000000)">
                <path d="M13.5518868,8.56414583 L13.5518868,0.01725 L0.429245283,0.01725 L0.429245283,22.8941042 L25.5707547,22.8941042 L25.5707547,8.56414583 L13.5518868,8.56414583 L13.5518868,8.56414583 Z M1.53301887,1.095375 L12.4481132,1.095375 L12.4481132,21.8164583 L1.53301887,21.8164583 L1.53301887,1.095375 Z M13.5518868,9.64227083 L24.4669811,9.64227083 L24.4669811,21.8159792 L13.5518868,21.8159792 L13.5518868,9.64227083 Z" id="Fill-1" sketch:type="MSShapeGroup"></path>
                <path d="M5.76267925,16.6510417 L8.16841509,16.6510417 L8.16841509,21.8020833 L5.76267925,21.8020833 L5.76267925,16.6510417 Z" id="Fill-2" sketch:type="MSShapeGroup"></path>
                <path d="M17.694717,16.6510417 L20.3246415,16.6510417 L20.3246415,21.8020833 L17.694717,21.8020833 L17.694717,16.6510417 Z" id="Fill-3" sketch:type="MSShapeGroup"></path>
                <path d="M16.4226792,12.6533542 L18.185283,12.6533542 L18.185283,14.375 L16.4226792,14.375 L16.4226792,12.6533542 Z" id="Fill-4" sketch:type="MSShapeGroup"></path>
                <path d="M19.8335849,12.6533542 L21.5961887,12.6533542 L21.5961887,14.375 L19.8335849,14.375 L19.8335849,12.6533542 Z" id="Fill-5" sketch:type="MSShapeGroup"></path>
                <path d="M4.37879245,12.6533542 L6.14139623,12.6533542 L6.14139623,14.375 L4.37879245,14.375 L4.37879245,12.6533542 Z" id="Fill-6" sketch:type="MSShapeGroup"></path>
                <path d="M7.79018868,12.6533542 L9.55279245,12.6533542 L9.55279245,14.375 L7.79018868,14.375 L7.79018868,12.6533542 Z" id="Fill-7" sketch:type="MSShapeGroup"></path>
                <path d="M4.37879245,8.242625 L6.14139623,8.242625 L6.14139623,9.96427083 L4.37879245,9.96427083 L4.37879245,8.242625 Z" id="Fill-8" sketch:type="MSShapeGroup"></path>
                <path d="M7.79018868,8.242625 L9.55279245,8.242625 L9.55279245,9.96427083 L7.79018868,9.96427083 L7.79018868,8.242625 Z" id="Fill-9" sketch:type="MSShapeGroup"></path>
                <path d="M4.37879245,3.73558333 L6.14139623,3.73558333 L6.14139623,5.45722917 L4.37879245,5.45722917 L4.37879245,3.73558333 Z" id="Fill-10" sketch:type="MSShapeGroup"></path>
                <path d="M7.79018868,3.73558333 L9.55279245,3.73558333 L9.55279245,5.45722917 L7.79018868,5.45722917 L7.79018868,3.73558333 Z" id="Fill-11" sketch:type="MSShapeGroup"></path>
            </g>
        </g>
    </g>
</svg>