<?xml version="1.0" encoding="UTF-8" standalone="no"?>
<svg width="46px" height="46px" viewBox="0 0 46 46" version="1.1" xmlns="http://www.w3.org/2000/svg" xmlns:xlink="http://www.w3.org/1999/xlink" xmlns:sketch="http://www.bohemiancoding.com/sketch/ns">
    <!-- Generator: Sketch 3.3 (11970) - http://www.bohemiancoding.com/sketch -->
    <title>settings</title>
    <desc>Created with Sketch.</desc>
    <defs></defs>
    <g id="Page-1" stroke="none" stroke-width="1" fill="none" fill-rule="evenodd" sketch:type="MSPage">
        <g id="settings" sketch:type="MSArtboardGroup" fill="#000000">
            <path d="M33.2419178,21.1710137 L31.4255479,20.7683562 C31.2837671,20.3162329 31.099137,19.8833288 30.8858356,19.4668082 L31.8691644,17.8306575 C32.2359041,17.2446301 32.4208493,16.3835479 31.8691644,15.8312329 L30.8672466,14.8308904 C30.5972329,14.5605616 30.2339589,14.4461918 29.8687945,14.4461918 C29.489137,14.4461918 29.1056986,14.5693836 28.8186712,14.7681918 L27.226,15.7827123 C26.8126301,15.5681507 26.3809863,15.385411 25.9313836,15.2398493 L25.5233699,13.4036301 C25.4020685,12.7290685 24.8125753,12 24.0305753,12 L22.6159178,12 C21.8342329,12 21.3550137,12.740411 21.2,13.4146575 L20.7463014,15.2288219 C20.266137,15.3816301 19.8064521,15.5769726 19.3672466,15.8079178 L17.7345616,14.7681918 C17.4481644,14.5690685 17.0640959,14.4458767 16.6847534,14.4458767 C16.319274,14.4458767 15.9569452,14.5602466 15.6859863,14.8305753 L14.6856438,15.8309178 C14.1323836,16.3832329 14.3170137,17.2446301 14.6856438,17.8306575 L15.7193836,19.5525068 C15.5253014,19.9431918 15.353274,20.3461644 15.2203151,20.7680411 L13.4042603,21.1703836 C12.7300137,21.2923151 12,21.8811781 12,22.6616027 L12,24.0762603 C12,24.8566849 12.7410411,25.335589 13.4152877,25.4902877 L15.2543425,25.9490274 C15.3819452,26.3378219 15.5404247,26.7130685 15.7200137,27.0757123 L14.6856438,28.799137 C14.3179589,29.3842192 14.1333288,30.2453014 14.6856438,30.7979315 L15.6866164,31.798274 C15.9569452,32.0682877 16.319274,32.1823425 16.6853836,32.1823425 C17.064411,32.1823425 17.4481644,32.0594658 17.7351918,31.8603425 L19.3719726,30.818411 C19.8130685,31.0509315 20.2759041,31.2475342 20.758274,31.4006575 L21.2113425,33.2100959 C21.365726,33.8840274 21.8446301,34.6244384 22.6263151,34.6244384 L24.0419178,34.6244384 C24.8236027,34.6244384 25.413411,33.8947397 25.5343973,33.2208082 L25.9433562,31.379863 C26.3876027,31.2365068 26.8135753,31.0553425 27.2231644,30.8433014 L28.8186712,31.8603425 C29.1056986,32.0591507 29.489137,32.1820274 29.8687945,32.1820274 C30.2339589,32.1820274 30.5972329,32.0682877 30.8672466,31.7979589 L31.8691644,30.7976164 C32.4208493,30.2449863 32.2359041,29.3839041 31.8691644,28.7988219 L30.8852055,27.1604658 C31.0827534,26.7723014 31.2541507,26.3680685 31.3915205,25.9487123 L33.2308904,25.4899726 C33.9054521,25.335589 34.6461781,24.8563699 34.6461781,24.0762603 L34.6461781,22.6612877 C34.6461781,21.8818082 33.9171096,21.2929452 33.2419178,21.1710137 L33.2419178,21.1710137 Z M33.5138219,24.0768904 C33.5138219,24.1323425 33.3049315,24.3128767 32.9564658,24.3929041 L31.117411,24.8516438 L30.510589,25.0031918 L30.3158767,25.597411 C30.2008767,25.9458767 30.0531096,26.2996986 29.875726,26.6478493 L29.590274,27.2064658 L30.9088356,29.3983973 C31.0877945,29.6844795 31.1066986,29.9598493 31.0688904,29.9976575 L30.0650822,30.9995753 C30.0165616,31.0480959 29.9015616,31.0525068 29.8681644,31.0525068 C29.728589,31.0525068 29.5688493,31.0049315 29.4626712,30.9312055 L29.4459726,30.9189178 L29.4273836,30.9072603 L27.2808219,29.5395479 L26.701726,29.8394932 C26.3368767,30.0282192 25.9647808,30.1841781 25.5945753,30.3042192 L24.9779863,30.5033425 L24.429137,32.9766301 L24.4240959,32.9986849 L24.42,33.0210548 C24.3777808,33.2560959 24.1641644,33.4933425 24.0416027,33.4933425 L22.626,33.4933425 C22.5705479,33.4933425 22.3890685,33.2853973 22.3090411,32.9366164 L21.8562877,31.1265479 L21.7022192,30.5134247 L21.098863,30.3228082 C20.6962055,30.1958356 20.2932329,30.0263288 19.8997123,29.8186986 L19.3177808,29.5118219 L18.7629452,29.8653288 L17.1261644,30.9078904 L17.1075753,30.9192329 L17.0896164,30.9318356 C16.9834384,31.0052466 16.8246438,31.053137 16.6850685,31.053137 C16.650726,31.053137 16.5363562,31.048726 16.4865753,30.9989452 L15.4856027,30.0001781 C15.4465342,29.9598493 15.4657534,29.6854247 15.6557397,29.3820137 L17.009589,27.1280137 L16.7342192,26.5734932 C16.5672329,26.2385753 16.4355342,25.919726 16.3309315,25.5999315 L16.1368493,25.0044521 L15.5287671,24.8529041 L13.6679726,24.3891233 C13.3406164,24.314137 13.131726,24.1336027 13.131726,24.0781507 L13.131726,22.6631781 C13.131726,22.5415616 13.3702329,22.3276301 13.6049589,22.285411 L13.6270137,22.2813151 L13.6493836,22.2769041 L15.4657534,21.8736164 L16.1040822,21.7318356 L16.3000548,21.1089452 C16.4046575,20.776863 16.5461233,20.4321781 16.7323288,20.0569315 L17.0086438,19.502726 L16.6894795,18.9718356 L15.6440822,17.2310822 C15.4657534,16.9462603 15.4459041,16.6712055 15.4859178,16.632137 L16.4862603,15.6317945 C16.5344658,15.5842192 16.641589,15.5791781 16.6844384,15.5791781 C16.8246438,15.5791781 16.9828082,15.6261233 17.0883562,15.6995342 L17.1069452,15.712137 L17.1261644,15.7241096 L18.7591644,16.7638356 L19.3136849,17.1157671 L19.8953014,16.8098356 C20.2818904,16.6063014 20.6839178,16.4377397 21.0900411,16.3076164 L21.6915068,16.1160548 L22.3033699,13.6692329 C22.3793014,13.3412466 22.5601507,13.1333014 22.6159178,13.1333014 L24.0305753,13.1333014 C24.1528219,13.1333014 24.3670685,13.370863 24.4092877,13.605274 L24.4130685,13.6276438 L24.4181096,13.6500137 L24.9663288,16.1185753 L25.5829178,16.3173836 C25.9591096,16.4393151 26.3365616,16.5971644 26.7045616,16.788411 L27.2839726,17.0893014 L27.8347123,16.7386301 L29.4276986,15.7241096 L29.4459726,15.7124521 L29.4639315,15.6998493 C29.5691644,15.6261233 29.7292192,15.5791781 29.8684795,15.5791781 C29.9025068,15.5791781 30.0168767,15.5829589 30.0669726,15.6327397 L31.067,16.6315068 C31.1070137,16.6705753 31.0877945,16.9462603 30.8981233,17.2499863 L29.5915342,19.4233288 L29.8773014,19.9825753 C30.0776849,20.3738904 30.229863,20.7415753 30.3442329,21.1067397 L30.5405205,21.7321507 L31.1794795,21.8739315 L32.9961644,22.2772192 L33.0182192,22.2816301 L33.0415342,22.285726 C33.2753151,22.3279452 33.5138219,22.5412466 33.5138219,22.6634932 L33.5138219,24.0768904 L33.5138219,24.0768904 Z M23.3326986,18.7809041 C20.8291644,18.7809041 18.7919315,20.8124658 18.7919315,23.3096986 C18.7919315,25.8069315 20.8291644,27.8384932 23.3326986,27.8384932 C25.8365479,27.8384932 27.8731507,25.8069315 27.8731507,23.3096986 C27.8731507,20.8124658 25.8365479,18.7809041 23.3326986,18.7809041 L23.3326986,18.7809041 Z M23.3421507,26.7329178 C21.4545753,26.7329178 19.9189315,25.2023151 19.9189315,23.3223014 C19.9189315,21.4422877 21.4545753,19.9116849 23.3421507,19.9116849 C25.2303562,19.9116849 26.7666301,21.4422877 26.7666301,23.3223014 C26.7666301,25.2023151 25.2303562,26.7329178 23.3421507,26.7329178 L23.3421507,26.7329178 Z" id="Imported-Layers" sketch:type="MSShapeGroup"></path>
        </g>
    </g>
</svg>