<?xml version="1.0" encoding="UTF-8" standalone="no"?>
<svg width="46px" height="46px" viewBox="0 0 46 46" version="1.1" xmlns="http://www.w3.org/2000/svg" xmlns:xlink="http://www.w3.org/1999/xlink" xmlns:sketch="http://www.bohemiancoding.com/sketch/ns">
    <!-- Generator: Sketch 3.3 (11970) - http://www.bohemiancoding.com/sketch -->
    <title>exit</title>
    <desc>Created with Sketch.</desc>
    <defs></defs>
    <g id="Page-1" stroke="none" stroke-width="1" fill="none" fill-rule="evenodd" sketch:type="MSPage">
        <g id="exit" sketch:type="MSArtboardGroup" fill="#231F1F">
            <g id="Imported-Layers" sketch:type="MSLayerGroup" transform="translate(15.000000, 13.000000)">
                <path d="M15.2727273,19.75 L6.36363636,19.75 C6.10254545,19.75 5.89090909,19.5421429 5.89090909,19.2857143 L5.89090909,15.0357143 C5.89090909,14.7792857 6.10254545,14.5714286 6.36363636,14.5714286 C6.62472727,14.5714286 6.83636364,14.7792857 6.83636364,15.0357143 L6.83636364,18.8214286 L14.8,18.8214286 L14.8,1.17857143 L6.83636364,1.17857143 L6.83636364,4.82142857 C6.83636364,5.07785714 6.62472727,5.28571429 6.36363636,5.28571429 C6.10254545,5.28571429 5.89090909,5.07785714 5.89090909,4.82142857 L5.89090909,0.714285714 C5.89090909,0.457857143 6.10254545,0.25 6.36363636,0.25 L15.2727273,0.25 C15.5338182,0.25 15.7454545,0.457857143 15.7454545,0.714285714 L15.7454545,19.2857143 C15.7454545,19.5421429 15.5338182,19.75 15.2727273,19.75" id="Fill-1" sketch:type="MSShapeGroup"></path>
                <path d="M12.3636364,10.4732143 L1.45454545,10.4732143 C1.19345455,10.4732143 0.981818182,10.2653571 0.981818182,10.0089286 C0.981818182,9.7525 1.19345455,9.54464286 1.45454545,9.54464286 L12.3636364,9.54464286 C12.6247273,9.54464286 12.8363636,9.7525 12.8363636,10.0089286 C12.8363636,10.2653571 12.6247273,10.4732143 12.3636364,10.4732143" id="Fill-2" sketch:type="MSShapeGroup"></path>
                <path d="M2.78218182,13.3482143 C2.63927273,13.3482143 2.49818182,13.2846429 2.40545455,13.1646429 L0.169090909,10.2717857 C0.0410909091,10.1067857 0.0407272727,9.87821429 0.167272727,9.7125 L2.34909091,6.85535714 C2.50618182,6.65 2.80218182,6.60857143 3.01090909,6.7625 C3.21963636,6.91642857 3.26218182,7.20714286 3.10545455,7.4125 L1.13745455,9.98928571 L3.15818182,12.6032143 C3.31636364,12.8075 3.27563636,13.0985714 3.06763636,13.2535714 C2.98218182,13.3171429 2.88181818,13.3482143 2.78218182,13.3482143" id="Fill-3" sketch:type="MSShapeGroup"></path>
            </g>
        </g>
    </g>
</svg>