<?xml version="1.0" encoding="utf-8"?>
<!-- Generator: Adobe Illustrator 18.1.1, SVG Export Plug-In . SVG Version: 6.00 Build 0)  -->
<svg version="1.1" id="icon_x5F_star-filled" xmlns:sketch="http://www.bohemiancoding.com/sketch/ns"
	 xmlns="http://www.w3.org/2000/svg" xmlns:xlink="http://www.w3.org/1999/xlink" x="0px" y="0px" viewBox="-26 28 46 46"
	 enable-background="new -26 28 46 46" xml:space="preserve">
<title>star filled</title>
<desc>Created with Sketch.</desc>
<g id="Page-1" sketch:type="MSPage">
	<g id="star-filled" sketch:type="MSArtboardGroup">
		<path id="Imported-Layers" sketch:type="MSShapeGroup" stroke="#000000" stroke-width="2.8125" d="M17.6,44.3h-7.3H3L-2.2,30
			c-0.1-0.4-0.5-0.6-0.8-0.6c-0.4,0-0.7,0.2-0.8,0.6L-9,44.3h-14.6c-0.4,0-0.7,0.2-0.8,0.6c-0.1,0.4,0,0.7,0.3,1l12.1,9.3l-5.2,15.2
			c-0.1,0.4,0,0.8,0.3,1c0.3,0.2,0.7,0.2,1.1,0L-3,62.1l12.9,9.3c0.2,0.1,0.3,0.2,0.5,0.2s0.4-0.1,0.5-0.2c0.3-0.2,0.4-0.6,0.3-1
			L6.1,55.2l12.1-9.3c0.3-0.2,0.4-0.6,0.3-1C18.4,44.6,18,44.3,17.6,44.3z"/>
	</g>
</g>
</svg>
