<?xml version="1.0" encoding="utf-8"?>
<!-- Generator: Adobe Illustrator 18.1.1, SVG Export Plug-In . SVG Version: 6.00 Build 0)  -->
<svg version="1.1" id="Layer_1" xmlns="http://www.w3.org/2000/svg" xmlns:xlink="http://www.w3.org/1999/xlink" x="0px" y="0px"
	 width="46px" height="46px" viewBox="-1416 878 46 46" enable-background="new -1416 878 46 46" xml:space="preserve">
<path class="hover" fill='currentColor' d="M-1414,901.1c0,3.3,2.7,6,6,6c3.3,0,6-2.7,6-6c0-3.3-2.7-6-6-6C-1411.3,895.1-1414,897.8-1414,901.1z"/>
<path class="hover" fill='currentColor' d="M-1384.2,885.9c0,3.5,2.8,6.3,6.3,6.3c3.5,0,6.3-2.8,6.3-6.3s-2.8-6.3-6.3-6.3
	C-1381.4,879.6-1384.2,882.4-1384.2,885.9z"/>
<path class="hover" fill='currentColor' d="M-1378.1,909.5c-3.6,0-6.6,2.9-6.6,6.6c0,3.6,2.9,6.6,6.6,6.6s6.6-2.9,6.6-6.6
	C-1371.5,912.5-1374.4,909.5-1378.1,909.5z"/>
<path id="stroke" fill='currentColor' d="M-1377.9,924c-4.3,0-7.8-3.5-7.8-7.8c0-0.7,0.1-1.5,0.3-2.1l-16.3-8.3c-1.5,1.9-3.6,3-6.2,3
	c-4.3,0-7.8-3.5-7.8-7.8s3.5-7.8,7.8-7.8c2.6,0,4.8,1.2,6.2,3.1l16.2-8.3c-0.2-0.7-0.3-1.5-0.3-2.2c0-4.3,3.5-7.8,7.8-7.8
	c4.3,0,7.8,3.5,7.8,7.8s-3.5,7.8-7.8,7.8c-2.5,0-4.7-1.1-6.1-3l-16.3,8.3c0.2,0.6,0.3,1.4,0.3,2.1s-0.1,1.5-0.3,2.2l16.2,8.3
	c1.5-1.9,3.7-3.1,6.2-3.1c4.3,0,7.8,3.5,7.8,7.8S-1373.7,924-1377.9,924z M-1377.9,911.3c-2.7,0-4.9,2.2-4.9,4.9s2.2,4.9,4.9,4.9
	s4.9-2.2,4.9-4.9C-1373.1,913.5-1375.2,911.3-1377.9,911.3z M-1408,896.2c-2.7,0-4.9,2.2-4.9,4.9s2.2,4.9,4.9,4.9
	c2.7,0,4.9-2.2,4.9-4.9C-1403.1,898.4-1405.3,896.2-1408,896.2z M-1377.9,881.1c-2.7,0-4.9,2.2-4.9,4.9c0,2.7,2.2,4.9,4.9,4.9
	s4.9-2.2,4.9-4.9S-1375.2,881.1-1377.9,881.1z"/>
</svg>
