<?xml version="1.0" encoding="UTF-8" standalone="no"?>
<svg width="46px" height="46px" viewBox="0 0 46 46" version="1.1" xmlns="http://www.w3.org/2000/svg" xmlns:xlink="http://www.w3.org/1999/xlink" xmlns:sketch="http://www.bohemiancoding.com/sketch/ns">
    <!-- Generator: Sketch 3.3 (11970) - http://www.bohemiancoding.com/sketch -->
    <title>Smart Sourcing</title>
    <desc>Created with Sketch.</desc>
    <defs></defs>
    <g id="Page-1" stroke="none" stroke-width="1" fill="none" fill-rule="evenodd" sketch:type="MSPage">
        <g id="Smart-Sourcing" sketch:type="MSArtboardGroup">
            <g id="Imported-Layers" sketch:type="MSLayerGroup" transform="translate(11.000000, 12.000000)">
                <path d="M13.8741493,0.0686349206 C13.7290746,0.0686349206 13.585791,0.0719206349 13.441791,0.0773968254 C8.49707463,0.28147619 4.65779104,3.8285873 3.9961791,8.55892063 C4.11761194,8.54979365 4.23868657,8.53993651 4.36226866,8.53993651 C4.48370149,8.53993651 4.60262687,8.54979365 4.72191045,8.55855556 C4.84835821,7.73019048 5.07976119,6.94161905 5.4039403,6.20671429 L9.83032836,6.20671429 C9.47785075,7.50566667 9.32310448,8.84550794 9.36680597,10.2083492 L8.03426866,10.2083492 C8.23522388,10.4343333 8.4161194,10.6782063 8.57480597,10.9385079 L9.408,10.9385079 C9.51832836,12.2597302 9.81170149,13.5992063 10.2906269,14.9401429 L9.13719403,14.9401429 C9.06949254,15.1894921 8.98925373,15.4348254 8.88537313,15.6703016 L10.568597,15.6703016 C11.1041194,16.9856825 11.8162388,18.2996032 12.7060299,19.596 C10.824,19.3532222 9.11820896,18.5146349 7.76167164,17.2693492 C7.71689552,17.3120635 7.67641791,17.3584286 7.63020896,17.3996825 C7.48477612,17.5409683 7.39414925,17.7096349 7.33683582,17.8644286 C9.08274627,19.4433968 11.3570149,20.4020952 13.8433433,20.4020952 C19.3583284,20.4020952 23.8448955,15.8247302 23.8448955,10.1988571 C23.8448955,4.61314286 19.3719403,0.0686349206 13.8741493,0.0686349206 L13.8741493,0.0686349206 Z M21.870806,5.47655556 L17.6976716,5.47655556 C17.1607164,3.864 16.3103284,2.32336508 15.1472239,0.890063492 C18.0168358,1.29311111 20.4687761,3.03636508 21.870806,5.47655556 L21.870806,5.47655556 Z M13.6194627,0.804269841 C13.7043582,0.802079365 13.7885373,0.798793651 13.8741493,0.798793651 C13.959403,0.798793651 14.0439403,0.803174603 14.1288358,0.805730159 C15.4277015,2.26531746 16.3733731,3.83369841 16.966209,5.47655556 L10.7810149,5.47655556 C11.374209,3.83296825 12.3202388,2.2645873 13.6194627,0.804269841 L13.6194627,0.804269841 Z M5.76608955,5.47655556 C7.13408955,3.00496825 9.60931343,1.26974603 12.6064478,0.881666667 C11.4401194,2.31752381 10.5875821,3.86107937 10.0499104,5.47655556 L5.76608955,5.47655556 L5.76608955,5.47655556 Z M10.5402985,6.20671429 L17.2072836,6.20671429 C17.5880597,7.50384127 17.7528358,8.84331746 17.705194,10.2083492 L10.0420299,10.2083492 C9.99438806,8.84331746 10.158806,7.50384127 10.5402985,6.20671429 L10.5402985,6.20671429 Z M10.0857313,10.9385079 L17.6611343,10.9385079 C17.5425672,12.2557143 17.225194,13.5944603 16.7122388,14.9401429 L11.0342687,14.9401429 C10.5216716,13.5944603 10.2042985,12.2557143 10.0857313,10.9385079 L10.0857313,10.9385079 Z M13.8433433,19.6719365 C13.7752836,19.6719365 13.7079403,19.6679206 13.6402388,19.6664603 C12.6780896,18.3393968 11.9093731,17.0028413 11.3319403,15.6703016 L16.4145672,15.6703016 C15.8374925,17.0021111 15.0687761,18.3383016 14.1066269,19.665 C14.0188657,19.6675556 13.9314627,19.6719365 13.8433433,19.6719365 L13.8433433,19.6719365 Z M15.0444179,19.5897937 C15.9324179,18.2955873 16.6431045,16.9838571 17.1779104,15.6703016 L21.4158806,15.6703016 C19.9515224,17.7735238 17.6686567,19.2422381 15.0444179,19.5897937 L15.0444179,19.5897937 Z M21.8765373,14.9401429 L17.4562388,14.9401429 C17.934806,13.5992063 18.2285373,12.2597302 18.3388657,10.9385079 L23.0973134,10.9385079 C22.9869851,12.387873 22.5564179,13.7459683 21.8765373,14.9401429 L21.8765373,14.9401429 Z M18.3800597,10.2083492 C18.4241194,8.84550794 18.2693731,7.50566667 17.9168955,6.20671429 L22.249791,6.20671429 C22.8125373,7.41914286 23.1284776,8.7717619 23.1284776,10.1988571 C23.1284776,10.2017778 23.1281194,10.2050635 23.1281194,10.2083492 L18.3800597,10.2083492 L18.3800597,10.2083492 Z" id="Fill-1" fill="#000000" sketch:type="MSShapeGroup"></path>
                <path d="M2.51140299,18.6909683 L2.50638806,18.6909683 C2.30901493,18.6880476 2.15104478,18.5233968 2.15283582,18.3226032 C2.15283582,18.3072698 2.14638806,17.470873 1.53564179,16.8889365 C0.607164179,16.0656825 0.0691343284,14.862381 0.0691343284,13.5959206 C0.0691343284,11.1831111 1.99486567,9.22007937 4.36226866,9.22007937 C6.72967164,9.22007937 8.65540299,11.1831111 8.65540299,13.5959206 C8.65540299,14.862381 8.11737313,16.0660476 7.17922388,16.8976984 C6.57528358,17.4734286 6.57134328,18.3145714 6.57134328,18.3226032 C6.5720597,18.5237619 6.41337313,18.6884127 6.21635821,18.6902381 L6.21313433,18.6902381 C6.01755224,18.6902381 5.85779104,18.5306984 5.85492537,18.331 C5.85456716,18.2835397 5.84955224,17.1653016 6.69958209,16.3555556 C7.49086567,15.653873 7.93898507,14.651 7.93898507,13.5959206 C7.93898507,11.5857937 6.33456716,9.9502381 4.36226866,9.9502381 C2.38997015,9.9502381 0.785552239,11.5857937 0.785552239,13.5959206 C0.785552239,14.651 1.23367164,15.6535079 2.01528358,16.3467937 C2.87498507,17.1653016 2.86997015,18.2835397 2.86925373,18.331 C2.86674627,18.5306984 2.70698507,18.6909683 2.51140299,18.6909683" id="Fill-2" fill="#231F1F" sketch:type="MSShapeGroup"></path>
                <path d="M1.53671642,13.781746 C1.33898507,13.781746 1.17886567,13.6185556 1.17886567,13.4166667 C1.17886567,11.6277778 2.60668657,10.1722063 4.36226866,10.1722063 C4.56,10.1722063 4.72047761,10.3357619 4.72047761,10.5372857 C4.72047761,10.7388095 4.56,10.9023651 4.36226866,10.9023651 C3.00179104,10.9023651 1.89492537,12.0304603 1.89492537,13.4166667 C1.89492537,13.6185556 1.73480597,13.781746 1.53671642,13.781746" id="Fill-3" fill="#000000" sketch:type="MSShapeGroup"></path>
                <path d="M2.53074627,20.9194127 C2.3799403,20.9194127 2.23916418,20.8212063 2.19008955,20.6667778 C2.12919403,20.4751111 2.232,20.2692063 2.42041791,20.2071429 L3.95570149,19.6996825 L2.53074627,19.6996825 C2.33301493,19.6996825 2.17253731,19.536127 2.17253731,19.3346032 C2.17253731,19.1330794 2.33301493,18.9695238 2.53074627,18.9695238 L6.22137313,18.9695238 C6.39761194,18.9695238 6.54770149,19.1002222 6.57528358,19.2776508 C6.60286567,19.4547143 6.49934328,19.6263016 6.3320597,19.6817937 L2.64143284,20.9015238 C2.60489552,20.9135714 2.56764179,20.9194127 2.53074627,20.9194127" id="Fill-4" fill="#231F1F" sketch:type="MSShapeGroup"></path>
                <path d="M6.22137313,21.8583968 L2.53074627,21.8583968 C2.35450746,21.8583968 2.20441791,21.7280635 2.17719403,21.5502698 C2.14961194,21.3728413 2.25277612,21.201254 2.42041791,21.146127 L6.11104478,19.9263968 C6.29946269,19.8643333 6.50113433,19.9694762 6.56202985,20.1611429 C6.62328358,20.3528095 6.5201194,20.5587143 6.3320597,20.6207778 L4.79677612,21.1282381 L6.22137313,21.1282381 C6.41910448,21.1282381 6.57958209,21.2914286 6.57958209,21.4933175 C6.57958209,21.6952063 6.41910448,21.8583968 6.22137313,21.8583968" id="Fill-5" fill="#231F1F" sketch:type="MSShapeGroup"></path>
                <path d="M4.89528358,23 L3.64191045,23 C3.4438209,23 3.28334328,22.8368095 3.28334328,22.6349206 C3.28334328,22.4330317 3.4438209,22.2698413 3.64191045,22.2698413 L4.89528358,22.2698413 C5.09337313,22.2698413 5.25385075,22.4330317 5.25385075,22.6349206 C5.25385075,22.8368095 5.09337313,23 4.89528358,23" id="Fill-6" fill="#231F1F" sketch:type="MSShapeGroup"></path>
            </g>
        </g>
    </g>
</svg>