<?xml version="1.0" encoding="utf-8"?>
<!-- Generator: Adobe Illustrator 18.1.1, SVG Export Plug-In . SVG Version: 6.00 Build 0)  -->
<svg version="1.1" id="Layer_1" xmlns:sketch="http://www.bohemiancoding.com/sketch/ns"
	 xmlns="http://www.w3.org/2000/svg" xmlns:xlink="http://www.w3.org/1999/xlink" x="0px" y="0px" width="46px" height="46px"
	 viewBox="-1416 878 46 46" enable-background="new -1416 878 46 46" xml:space="preserve">
<title>star</title>
<desc>Created with Sketch.</desc>
<g id="Page-1" sketch:type="MSPage">
	<g id="star" sketch:type="MSArtboardGroup" fill='currentColor'>
		<path d="M-1378.6,924.1c-0.4,0-0.9-0.1-1.2-0.4l-13.1-9.4l-13.2,9.4c-0.7,0.5-1.7,0.5-2.4,0c-0.7-0.5-1.1-1.5-0.8-2.3l5.3-15.5
			l-12.2-9.4c-0.7-0.5-1-1.5-0.7-2.3c0.3-0.8,1.1-1.4,2-1.4h14.8l5.3-14.5c0.3-0.8,1.1-1.4,2-1.4c0.9,0,1.7,0.5,2,1.4l5.3,14.5h14.8
			c0.9,0,1.7,0.6,2,1.4c0.3,0.8,0,1.8-0.7,2.3l-12.2,9.4l5.3,15.5c0.3,0.9,0,1.8-0.8,2.3C-1377.8,923.9-1378.2,924.1-1378.6,924.1z
			 M-1393,911.5l14,10.1l-5.6-16.5l13.1-10h-15.9l-5.6-15.6l-5.6,15.6h-15.9l13.1,10l-5.6,16.5L-1393,911.5z"/>
	</g>
</g>
</svg>
