<?xml version="1.0" encoding="UTF-8" standalone="no"?>
<svg width="46px" height="46px" viewBox="0 0 46 46" version="1.1" xmlns="http://www.w3.org/2000/svg" xmlns:xlink="http://www.w3.org/1999/xlink" xmlns:sketch="http://www.bohemiancoding.com/sketch/ns">
    <!-- Generator: Sketch 3.3 (11970) - http://www.bohemiancoding.com/sketch -->
    <title>collaborators</title>
    <desc>Created with Sketch.</desc>
    <defs></defs>
    <g id="Page-1" stroke="none" stroke-width="1" fill="none" fill-rule="evenodd" sketch:type="MSPage">
        <g id="collaborators" sketch:type="MSArtboardGroup" fill="#000000">
            <g id="Imported-Layers" sketch:type="MSLayerGroup" transform="translate(13.000000, 13.000000)">
                <path d="M19.3762963,13.9291714 L19.2907407,13.9093571 C18.064716,13.6262571 16.673284,13.3062429 16.434,12.7815714 C16.357679,12.6141 16.4068395,12.3630286 16.5801235,12.0370429 C18.1986173,8.98672857 18.4946667,6.612 17.4142222,4.81731429 C16.6689383,3.57824286 15.314716,2.869 13.6997531,2.869 C12.0717531,2.869 10.7091111,3.58937143 9.96111111,4.84581429 C8.87767901,6.66384286 9.18432099,9.0307 10.821284,12.0422 C10.9967407,12.3657429 11.0480741,12.6132857 10.9725679,12.7796714 C10.7362716,13.3035286 9.30545679,13.6333143 8.15548148,13.8974143 L8.02266667,13.9283571 C5.53775309,14.5013429 5.54617284,16.0346429 5.55649383,17.8114143 L5.55785185,18.8279143 L6.77491358,18.8279143 L6.77491358,17.6124571 L6.77138272,17.6124571 C6.76404938,15.9689571 6.81538272,15.4540571 8.29562963,15.1126 L8.42871605,15.0816571 C10.0580741,14.7070857 11.5972593,14.3534143 12.0815309,13.2791 C12.3210864,12.7492714 12.256716,12.1366571 11.890321,11.4627 C10.4652099,8.84205714 10.1512346,6.90242857 11.0059753,5.46847143 C11.5375062,4.57601429 12.4930123,4.08445714 13.6994815,4.08445714 C14.8950864,4.08445714 15.8443457,4.5676 16.3720741,5.44431429 C17.224642,6.86008571 16.9171852,8.8103 15.5064691,11.4678571 C15.1471358,12.1453429 15.0868395,12.7579571 15.3285679,13.2869714 C15.8177284,14.3558571 17.3723951,14.7141429 19.0191358,15.0938714 L19.1036049,15.1136857 C20.5838519,15.4535143 20.634642,15.9686857 20.6273086,17.6124571 L20.6267654,17.6124571 L20.6267654,18.8279143 L21.8408395,18.8279143 L21.8413827,17.8111429 C21.8525185,16.0354571 21.8603951,14.5021571 19.3762963,13.9291714" id="Fill-1" sketch:type="MSShapeGroup"></path>
                <path d="M8.37548148,0.0846857143 C6.74748148,0.0846857143 5.38483951,0.805328571 4.63683951,2.0615 C3.55340741,3.87952857 3.86004938,6.24638571 5.49728395,9.25788571 C5.67246914,9.58142857 5.72380247,9.82924286 5.6482963,9.99562857 C5.412,10.5194857 3.98145679,10.8492714 2.83120988,11.1131 L2.69839506,11.1443143 C0.213481481,11.7173 0.221901235,13.2506 0.232493827,15.0271 L0.233580247,16.0436 L1.45064198,16.0436 L1.45064198,14.8284143 L1.44711111,14.8284143 C1.44004938,13.1849143 1.49138272,12.6700143 2.97162963,12.3285571 L3.10444444,12.2976143 C4.73380247,11.9230429 6.27298765,11.5691 6.75725926,10.4950571 C6.99681481,9.96495714 6.93244444,9.35261429 6.56604938,8.67865714 C5.14093827,6.05801429 4.82696296,4.11838571 5.68197531,2.68415714 C6.21323457,1.79197143 7.16874074,1.30014286 8.37548148,1.30014286 C9.36439506,1.30014286 10.1805679,1.63535714 10.733284,2.24607143 C11.0912593,2.033 11.4869877,1.8715 11.9134074,1.76754286 C11.1415062,0.693771429 9.87093827,0.0846857143 8.37548148,0.0846857143" id="Fill-2" sketch:type="MSShapeGroup"></path>
            </g>
        </g>
    </g>
</svg>