<?xml version="1.0" encoding="UTF-8" standalone="no"?>
<svg width="46px" height="46px" viewBox="0 0 46 46" version="1.1" xmlns="http://www.w3.org/2000/svg" xmlns:xlink="http://www.w3.org/1999/xlink" xmlns:sketch="http://www.bohemiancoding.com/sketch/ns">
    <!-- Generator: Sketch 3.3 (11970) - http://www.bohemiancoding.com/sketch -->
    <title>industry</title>
    <desc>Created with Sketch.</desc>
    <defs></defs>
    <g id="Page-1" stroke="none" stroke-width="1" fill="none" fill-rule="evenodd" sketch:type="MSPage">
        <g id="industry" sketch:type="MSArtboardGroup" fill="#000000">
            <path d="M33.5687353,18.1501455 C33.5687353,17.4723636 33.0582059,16.9212364 32.4305588,16.9212364 L27.8202647,16.9212364 L27.8202647,15.8039273 C27.8202647,14.8090182 27.0201765,14 26.0369706,14 L19.5317647,14 C18.5485588,14 17.7481471,14.8090182 17.7481471,15.8039273 L17.7481471,16.9212364 L13.1381765,16.9212364 C12.5105294,16.9212364 12,17.4723636 12,18.1501455 L12,30.5806182 C12,31.2587273 12.5105294,31.8098545 13.1381765,31.8098545 L32.4305588,31.8098545 C33.0582059,31.8098545 33.5687353,31.2587273 33.5687353,30.5806182 L33.5687353,19.9818909 L33.5638824,19.9894182 L33.5687353,18.1501455 L33.5687353,18.1501455 Z M18.9788529,15.8039273 C18.9788529,15.4956364 19.2266765,15.2446182 19.5317647,15.2446182 L26.0369706,15.2446182 C26.3420588,15.2446182 26.5898824,15.4953091 26.5898824,15.8039273 L26.5898824,16.9212364 L18.9788529,16.9212364 L18.9788529,15.8039273 L18.9788529,15.8039273 Z M13.2349118,18.1658545 L32.3380294,18.1658545 L32.3296176,21.4284364 C32.3296176,21.9985455 31.7469412,22.5176 31.1073235,22.5176 L25.3834412,22.5176 C25.2190882,21.938 24.6901176,21.5128727 24.0650588,21.5128727 L21.5819706,21.5128727 C20.9565882,21.5128727 20.4272941,21.9383273 20.2626176,22.5176 L14.4610882,22.5176 C13.903,22.5176 13.3407059,22.0918182 13.2307059,21.5956727 L13.2349118,18.1658545 L13.2349118,18.1658545 Z M21.4399412,23.7628727 L21.4399412,22.9005091 C21.4399412,22.8216364 21.504,22.7578182 21.5819706,22.7578182 L24.0650588,22.7578182 C24.1430294,22.7578182 24.2061176,22.8216364 24.2061176,22.9005091 L24.2061176,24.0027636 C24.2061176,24.0816364 24.1427059,24.1457818 24.0650588,24.1457818 L21.5819706,24.1457818 C21.504,24.1457818 21.4399412,24.0816364 21.4399412,24.0027636 L21.4399412,23.7628727 L21.4399412,23.7628727 Z M32.3338235,30.5649091 L13.2307059,30.5649091 L13.2307059,23.4745455 C13.4798235,23.5959636 13.7470588,23.6774545 14.0210882,23.7222909 C14.0217353,23.7226182 14.0227059,23.7226182 14.0233529,23.7229455 C14.0828824,23.7324364 14.1420882,23.7416 14.2022647,23.7471636 C14.2876765,23.7566545 14.3740588,23.7625455 14.4610882,23.7625455 L20.2092353,23.7625455 L20.2092353,24.0024364 C20.2092353,24.7676 20.8249118,25.3900727 21.5816471,25.3900727 L24.0647353,25.3900727 C24.8214706,25.3900727 25.4365,24.7676 25.4365,24.0024364 L25.4365,23.7625455 L31.1073235,23.7625455 C31.1998529,23.7625455 31.2910882,23.7563273 31.3813529,23.7461818 C31.4437941,23.7399636 31.5055882,23.7288364 31.5673824,23.7183636 C31.58,23.7157455 31.5929412,23.7137818 31.6055588,23.7114909 C31.8595294,23.6637091 32.1063824,23.5845091 32.3373824,23.4696364 L32.3338235,30.5649091 L32.3338235,30.5649091 Z" id="Imported-Layers" sketch:type="MSShapeGroup"></path>
        </g>
    </g>
</svg>