<?xml version="1.0" encoding="UTF-8" standalone="no"?>
<svg width="46px" height="46px" viewBox="0 0 46 46" version="1.1" xmlns="http://www.w3.org/2000/svg" xmlns:xlink="http://www.w3.org/1999/xlink" xmlns:sketch="http://www.bohemiancoding.com/sketch/ns">
    <!-- Generator: Sketch 3.3 (11970) - http://www.bohemiancoding.com/sketch -->
    <title>search</title>
    <desc>Created with Sketch.</desc>
    <defs></defs>
    <g id="Page-1" stroke="none" stroke-width="1" fill="none" fill-rule="evenodd" sketch:type="MSPage">
        <g id="search" sketch:type="MSArtboardGroup" fill="#000000">
            <path d="M16.56,33.12 C20.48104,33.12 24.08376,31.74368 26.92472,29.45656 L41.01544,43.6172 C41.37424,43.97968 41.84712,44.16 42.32,44.16 C42.7892,44.16 43.2584,43.98152 43.6172,43.62456 C44.33848,42.9088 44.34032,41.74224 43.62456,41.0228 L29.51728,26.84376 C31.76576,24.01568 33.12,20.44608 33.12,16.56 C33.12,7.42992 25.69008,0 16.56,0 C7.42808,0 0,7.42992 0,16.56 C0,25.69192 7.42808,33.12 16.56,33.12 L16.56,33.12 Z M16.56,3.68 C23.6624,3.68 29.44,9.4576 29.44,16.56 C29.44,23.6624 23.6624,29.44 16.56,29.44 C9.4576,29.44 3.68,23.6624 3.68,16.56 C3.68,9.4576 9.4576,3.68 16.56,3.68 L16.56,3.68 Z" id="Imported-Layers" sketch:type="MSShapeGroup"></path>
        </g>
    </g>
</svg>