<?xml version="1.0" encoding="UTF-8" standalone="no"?>
<svg width="46px" height="46px" viewBox="0 0 46 46" version="1.1" xmlns="http://www.w3.org/2000/svg" xmlns:xlink="http://www.w3.org/1999/xlink" xmlns:sketch="http://www.bohemiancoding.com/sketch/ns">
    <!-- Generator: Sketch 3.3 (11970) - http://www.bohemiancoding.com/sketch -->
    <title>download</title>
    <desc>Created with Sketch.</desc>
    <defs></defs>
    <g id="Page-1" stroke="none" stroke-width="1" fill="none" fill-rule="evenodd" sketch:type="MSPage">
        <g id="download" sketch:type="MSArtboardGroup" fill="#000000">
            <g id="Imported-Layers" sketch:type="MSLayerGroup" transform="translate(12.000000, 13.000000)">
                <path d="M16.5857436,11.4137838 L15.779641,10.6197568 L11.6374359,14.8725405 L11.6374359,0.105 L10.5092308,0.105 L10.5092308,14.8725405 L6.36702564,10.6197568 L5.56092308,11.4137838 L11.0733333,17.0735676 L16.5857436,11.4137838 L16.5857436,11.4137838 Z M11.0812308,15.4440811 L11.0733333,15.452027 L11.0654359,15.4440811 L11.0812308,15.4440811 L11.0812308,15.4440811 Z" id="Fill-1" sketch:type="MSShapeGroup"></path>
                <path d="M17.0172821,7.20697297 L17.0172821,8.34210811 L20.5017436,8.34210811 L20.5017436,19.8364865 L1.64492308,19.8364865 L1.64492308,8.34210811 L4.98271795,8.34210811 L4.98271795,7.20697297 L0.516717949,7.20697297 L0.516717949,20.9716216 L21.6299487,20.9716216 L21.6299487,7.20697297 L17.0172821,7.20697297" id="Fill-2" sketch:type="MSShapeGroup"></path>
            </g>
        </g>
    </g>
</svg>