<?xml version="1.0" encoding="utf-8"?>
<!-- Generator: Adobe Illustrator 18.1.1, SVG Export Plug-In . SVG Version: 6.00 Build 0)  -->
<svg version="1.1" id="Layer_1" xmlns="http://www.w3.org/2000/svg" xmlns:xlink="http://www.w3.org/1999/xlink" x="0px" y="0px"
	 viewBox="0 0 100 100" enable-background="new 0 0 100 100" xml:space="preserve">
<path fill="#010101" d="M80.5,99.3H3.9c-2,0-3.5-1.6-3.5-3.5V19.1c0-2,1.6-3.5,3.5-3.5h38.3c2,0,3.5,1.6,3.5,3.5s-1.6,3.5-3.5,3.5
	H7.4v69.5H77V57.4c0-2,1.6-3.5,3.5-3.5c2,0,3.5,1.6,3.5,3.5v38.3C84,97.7,82.5,99.3,80.5,99.3z M98.2,17.6l-10,10L49.8,66
	c-0.3,0.3-0.7,0.6-1.1,0.8L29.4,75c-0.5,0.2-0.9,0.3-1.4,0.3c-0.9,0-1.8-0.4-2.5-1c-1-1-1.3-2.6-0.7-3.9L33,51.2
	c0.2-0.4,0.4-0.8,0.8-1.1l38.5-38.5l10-10c1.4-1.4,3.6-1.4,5,0l11,11C99.6,14,99.6,16.2,98.2,17.6z M42.2,61.9L38,57.6l-3.2,7.5
	L42.2,61.9z M81.1,24.7l-6-6L40.4,53.4l6,6L81.1,24.7z M90.7,15.1l-6-6l-6.3,6.3l6,6L90.7,15.1z"/>
</svg>
