<?xml version="1.0" encoding="UTF-8" standalone="no"?>
<svg width="46px" height="46px" viewBox="0 0 46 46" version="1.1" xmlns="http://www.w3.org/2000/svg" xmlns:xlink="http://www.w3.org/1999/xlink" xmlns:sketch="http://www.bohemiancoding.com/sketch/ns">
    <!-- Generator: Sketch 3.3 (11970) - http://www.bohemiancoding.com/sketch -->
    <title>Virtual Capital</title>
    <desc>Created with Sketch.</desc>
    <defs></defs>
    <g id="Page-1" stroke="none" stroke-width="1" fill="none" fill-rule="evenodd" sketch:type="MSPage">
        <g id="Virtual-Capital" sketch:type="MSArtboardGroup" fill="#000000">
            <g id="Imported-Layers" sketch:type="MSLayerGroup" transform="translate(7.000000, 12.000000)">
                <path d="M27.8148861,0.223428571 L1.67331646,0.223428571 C0.915848101,0.223428571 0.299746835,0.847714286 0.299746835,1.61575 L0.299746835,17.3231071 C0.299746835,18.0907321 0.915848101,18.7154286 1.67331646,18.7154286 L11.9181772,18.7154286 L11.9181772,21.8208393 L8.93488608,21.8208393 C8.71088608,21.8208393 8.52982278,22.0044286 8.52982278,22.2315536 C8.52982278,22.4586786 8.71088608,22.6422679 8.93488608,22.6422679 L20.5533165,22.6422679 C20.7769114,22.6422679 20.9583797,22.4586786 20.9583797,22.2315536 C20.9583797,22.0044286 20.7769114,21.8208393 20.5533165,21.8208393 L17.6486076,21.8208393 L17.6486076,18.7154286 L20.4629873,18.7154286 C20.3102785,18.45175 20.1709367,18.1794464 20.0542785,17.894 L1.67331646,17.894 C1.36263291,17.894 1.10987342,17.6377143 1.10987342,17.3231071 L1.10987342,1.61575 C1.10987342,1.30073214 1.36263291,1.04485714 1.67331646,1.04485714 L27.8148861,1.04485714 C28.1251646,1.04485714 28.3779241,1.30073214 28.3779241,1.61575 L28.3779241,8.98478571 C28.6566076,9.08458929 28.9271899,9.20082143 29.1880506,9.33594643 L29.1880506,1.61575 C29.1880506,0.847714286 28.5719494,0.223428571 27.8148861,0.223428571 L27.8148861,0.223428571 Z M12.7283038,18.7154286 L16.6801013,18.7154286 L16.6801013,21.8204286 L12.7283038,21.8204286 L12.7283038,18.7154286 Z" id="Fill-1" sketch:type="MSShapeGroup"></path>
                <path d="M26.1832911,20.8195179 C23.1955443,20.8195179 20.7643544,18.3548214 20.7643544,15.3253929 C20.7643544,12.2955536 23.1955443,9.83126786 26.1832911,9.83126786 C29.171443,9.83126786 31.6022278,12.2955536 31.6022278,15.3253929 C31.6022278,18.3548214 29.171443,20.8195179 26.1832911,20.8195179 L26.1832911,20.8195179 Z M26.1832911,10.6526964 C23.6419241,10.6526964 21.574481,12.7489821 21.574481,15.3253929 C21.574481,17.9022143 23.6419241,19.9980893 26.1832911,19.9980893 C28.7246582,19.9980893 30.7921013,17.9022143 30.7921013,15.3253929 C30.7921013,12.7489821 28.7246582,10.6526964 26.1832911,10.6526964 L26.1832911,10.6526964 Z" id="Fill-2" sketch:type="MSShapeGroup"></path>
                <path d="M26.3659747,14.9335714 L26.3659747,13.5404286 C26.6584304,13.6221607 26.8747342,13.8915893 26.8747342,14.2135893 C26.8747342,14.4407143 27.0562025,14.6243036 27.2797975,14.6243036 C27.5033924,14.6243036 27.6848608,14.4407143 27.6848608,14.2135893 C27.6848608,13.4373393 27.1072405,12.802375 26.3659747,12.7095536 L26.3659747,12.3604464 C26.3659747,12.2581786 26.2841519,12.1752143 26.1832911,12.1752143 C26.0824304,12.1752143 26.0006076,12.2581786 26.0006076,12.3604464 L26.0006076,12.7095536 C25.2593418,12.802375 24.6817215,13.4373393 24.6817215,14.2135893 C24.6817215,14.9898393 25.2593418,15.6248036 26.0006076,15.717625 L26.0006076,17.1103571 C25.7081519,17.028625 25.4918481,16.7596071 25.4918481,16.4371964 C25.4918481,16.2104821 25.3103797,16.0268929 25.0867848,16.0268929 C24.8627848,16.0268929 24.6817215,16.2104821 24.6817215,16.4371964 C24.6817215,17.2134464 25.2593418,17.8484107 26.0006076,17.9412321 L26.0006076,18.2903393 C26.0006076,18.3926071 26.0824304,18.4755714 26.1832911,18.4755714 C26.2841519,18.4755714 26.3659747,18.3926071 26.3659747,18.2903393 L26.3659747,17.9412321 C27.1072405,17.8484107 27.6848608,17.2134464 27.6848608,16.4371964 C27.6848608,15.6613571 27.1072405,15.0263929 26.3659747,14.9335714 L26.3659747,14.9335714 Z M25.4918481,14.2135893 C25.4918481,13.8915893 25.7081519,13.6221607 26.0006076,13.5404286 L26.0006076,14.88675 C25.7081519,14.8050179 25.4918481,14.536 25.4918481,14.2135893 L25.4918481,14.2135893 Z M26.3659747,17.1103571 L26.3659747,15.7644464 C26.6584304,15.8461786 26.8747342,16.1151964 26.8747342,16.4371964 C26.8747342,16.7596071 26.6584304,17.028625 26.3659747,17.1103571 L26.3659747,17.1103571 Z" id="Fill-3" sketch:type="MSShapeGroup"></path>
                <path d="M19.5795443,15.930375 L3.04648101,15.930375 L3.04648101,3.00807143 L26.4413165,3.00807143 L26.4413165,8.61185714 C26.7163544,8.62294643 26.9861266,8.65046429 27.251443,8.694 L27.251443,2.18664286 L2.23635443,2.18664286 L2.23635443,16.7518036 L19.7026835,16.7518036 C19.6455696,16.4836071 19.6042532,16.2096607 19.5795443,15.930375" id="Fill-4" sketch:type="MSShapeGroup"></path>
            </g>
        </g>
    </g>
</svg>