<?xml version="1.0" encoding="UTF-8" standalone="no"?>
<svg width="46px" height="46px" viewBox="0 0 46 46" version="1.1" xmlns="http://www.w3.org/2000/svg" xmlns:xlink="http://www.w3.org/1999/xlink" xmlns:sketch="http://www.bohemiancoding.com/sketch/ns">
    <!-- Generator: Sketch 3.3 (11970) - http://www.bohemiancoding.com/sketch -->
    <title>search-folders</title>
    <desc>Created with Sketch.</desc>
    <defs></defs>
    <g id="Page-1" stroke="none" stroke-width="1" fill="none" fill-rule="evenodd" sketch:type="MSPage">
        <g id="search-folders" sketch:type="MSArtboardGroup" fill="#000000">
            <g id="Imported-Layers" sketch:type="MSLayerGroup" transform="translate(10.000000, 12.000000)">
                <path d="M25.6544889,21.9903 L21.1674667,17.502425 C21.8827556,16.60715 22.3132,15.477275 22.3132,14.24735 C22.3132,11.356825 19.9506667,9.00565 17.0461778,9.00565 C14.1416889,9.00565 11.7791556,11.356825 11.7791556,14.24735 C11.7791556,17.137875 14.1416889,19.48905 17.0461778,19.48905 C18.2936,19.48905 19.4393333,19.0532 20.3429778,18.329275 L24.8242222,22.811975 C24.9386222,22.9264 25.0888444,22.983325 25.2396444,22.983325 C25.3887111,22.983325 25.5377778,22.926975 25.6521778,22.814275 C25.8809778,22.58715 25.8821333,22.218575 25.6544889,21.9903 L25.6544889,21.9903 Z M17.0461778,18.3241 C14.7870667,18.3241 12.9497333,16.4956 12.9497333,14.24735 C12.9497333,11.9991 14.7870667,10.1706 17.0461778,10.1706 C19.3052889,10.1706 21.1426222,11.9991 21.1426222,14.24735 C21.1426222,16.4956 19.3052889,18.3241 17.0461778,18.3241 L17.0461778,18.3241 Z" id="Fill-1" sketch:type="MSShapeGroup"></path>
                <path d="M5.83324444,7.0817 L20.6243556,7.0817 L20.3112,7.85335 L21.2755111,8.2409 L22.1664444,6.047275 L17.4379111,6.047275 L17.4379111,1.973975 L7.31408889,1.973975 L6.20648889,0.441025 L0.268088889,0.441025 L0.268088889,16.329425 L8.92493333,16.329425 L8.92493333,15.294425 L1.85004444,15.294425 L5.83324444,7.0817 L5.83324444,7.0817 Z M5.6732,1.47545 L6.7808,3.008975 L16.3979111,3.008975 L16.3979111,6.047275 L5.18035556,6.047275 L1.30808889,14.030575 L1.30808889,1.47545 L5.6732,1.47545 L5.6732,1.47545 Z" id="Fill-2" sketch:type="MSShapeGroup"></path>
            </g>
        </g>
    </g>
</svg>