<?xml version="1.0" encoding="UTF-8" standalone="no"?>
<svg width="46px" height="46px" viewBox="0 0 46 46" version="1.1" xmlns="http://www.w3.org/2000/svg" xmlns:xlink="http://www.w3.org/1999/xlink" xmlns:sketch="http://www.bohemiancoding.com/sketch/ns">
    <!-- Generator: Sketch 3.3 (11970) - http://www.bohemiancoding.com/sketch -->
    <title>search-article</title>
    <desc>Created with Sketch.</desc>
    <defs></defs>
    <g id="Page-1" stroke="none" stroke-width="1" fill="none" fill-rule="evenodd" sketch:type="MSPage">
        <g id="search-article" sketch:type="MSArtboardGroup" fill="#231F1F">
            <g id="Imported-Layers" sketch:type="MSLayerGroup" transform="translate(1.000000, 0.000000)">
                <path d="M43.7892857,44.0712093 L35.5746429,35.8275814 C36.8839286,34.1833488 37.6725,32.108 37.6725,29.8486512 C37.6725,24.5393953 33.3460714,20.2207442 28.0296429,20.2207442 C22.7121429,20.2207442 18.3867857,24.5393953 18.3867857,29.8486512 C18.3867857,35.157907 22.7121429,39.4765581 28.0296429,39.4765581 C30.3128571,39.4765581 32.4107143,38.6763721 34.065,37.3466512 L42.27,45.5806512 C42.4789286,45.7903256 42.7542857,45.8951628 43.0296429,45.8951628 C43.3028571,45.8951628 43.5760714,45.7913953 43.785,45.5838605 C44.205,45.1666512 44.2060714,44.4894884 43.7892857,44.0712093 L43.7892857,44.0712093 Z M28.0296429,37.3370233 C23.8939286,37.3370233 20.5296429,33.9779535 20.5296429,29.8486512 C20.5296429,25.7193488 23.8939286,22.3602791 28.0296429,22.3602791 C32.1653571,22.3602791 35.5296429,25.7193488 35.5296429,29.8486512 C35.5296429,33.9779535 32.1653571,37.3370233 28.0296429,37.3370233 L28.0296429,37.3370233 Z" id="Fill-1" sketch:type="MSShapeGroup"></path>
                <path d="M2.03785714,32.5294884 L2.03785714,2.54069767 L27.09,2.54069767 L27.09,17.802 L29.0185714,17.802 L29.0185714,0.615116279 L0.109285714,0.615116279 L0.109285714,34.4561395 L15.9814286,34.4561395 L15.8796429,32.5294884 L2.03785714,32.5294884" id="Fill-2" sketch:type="MSShapeGroup"></path>
                <path d="M5.44821429,5.87516279 L23.6625,5.87516279 L23.6625,7.80074419 L5.44821429,7.80074419 L5.44821429,5.87516279 Z" id="Fill-3" sketch:type="MSShapeGroup"></path>
                <path d="M5.44821429,12.2937674 L23.6625,12.2937674 L23.6625,14.2193488 L5.44821429,14.2193488 L5.44821429,12.2937674 Z" id="Fill-4" sketch:type="MSShapeGroup"></path>
                <path d="M5.44821429,18.7123721 L19.0425,18.7123721 L19.0425,20.6379535 L5.44821429,20.6379535 L5.44821429,18.7123721 Z" id="Fill-5" sketch:type="MSShapeGroup"></path>
            </g>
        </g>
    </g>
</svg>