<?xml version="1.0" encoding="UTF-8" standalone="no"?>
<svg width="46px" height="46px" viewBox="0 0 46 46" version="1.1" xmlns="http://www.w3.org/2000/svg" xmlns:xlink="http://www.w3.org/1999/xlink" xmlns:sketch="http://www.bohemiancoding.com/sketch/ns">
    <!-- Generator: Sketch 3.3 (11970) - http://www.bohemiancoding.com/sketch -->
    <title>pdf</title>
    <desc>Created with Sketch.</desc>
    <defs></defs>
    <g id="Page-1" stroke="none" stroke-width="1" fill="none" fill-rule="evenodd" sketch:type="MSPage">
        <g id="pdf" sketch:type="MSArtboardGroup" fill="#000000">
            <g id="Imported-Layers" sketch:type="MSLayerGroup" transform="translate(4.000000, 0.000000)">
                <path d="M26.1919412,0.696047619 L1.79858824,0.696047619 L1.79858824,45.7600952 L37.3826471,45.7600952 L37.3826471,11.6157143 L26.1919412,0.696047619 L26.1919412,0.696047619 Z M26.7746471,11.045 L26.7746471,4.02185714 L33.9735882,11.045 L26.7746471,11.045 L26.7746471,11.045 Z M35.3867647,12.9921429 L35.3867647,43.8129524 L3.79447059,43.8129524 L3.79447059,2.64319048 L24.7787647,2.64319048 L24.7787647,12.9921429 L35.3867647,12.9921429 L35.3867647,12.9921429 Z" id="Fill-1" sketch:type="MSShapeGroup"></path>
                <path d="M9.46782353,37.763381 L9.46782353,37.763381 C9.10305882,37.763381 8.75205882,37.647 8.45152941,37.4276667 C7.35952941,36.6286667 7.21270588,35.7379048 7.28152941,35.131381 C7.47194118,33.464 9.58711765,31.7160476 13.5674118,29.939 C15.1457647,26.5617143 16.6484118,22.4010952 17.5431176,18.9253333 C16.497,16.7006667 15.4784118,13.8135238 16.2194118,12.1192857 C16.4809412,11.5261905 16.9374706,11.1099048 17.5431176,10.9129524 C17.7817059,10.834619 18.0157059,10.7943333 18.2382353,10.7943333 C18.7681765,10.7943333 19.2407647,11.020381 19.5711176,11.4299524 C19.8808235,11.8171429 20.8145294,12.9764762 19.4105294,18.7418095 C20.826,21.5931429 22.8310588,24.4981905 24.7535294,26.4878571 C26.13,26.2461429 27.3137647,26.1230476 28.2795882,26.1230476 C29.9221765,26.1230476 30.9201176,26.4968095 31.3261765,27.2667143 C31.6634118,27.9045714 31.5234706,28.647619 30.9155294,29.4779524 C30.3305294,30.2769524 29.5252941,30.6999524 28.5847059,30.6999524 C27.3068824,30.6999524 25.8202941,29.9121429 24.1616471,28.3589048 C21.1815882,28.9654286 17.7037059,30.0486667 14.8911176,31.2482857 C14.0147647,33.065619 13.1728235,34.5315714 12.3905294,35.603619 C11.3145882,37.0762857 10.3877647,37.763381 9.46782353,37.763381 L9.46782353,37.763381 Z M12.2620588,32.5128095 C10.0184118,33.7415238 9.10305882,34.7531429 9.03882353,35.321619 C9.02735294,35.4178571 8.99982353,35.6640476 9.49076471,36.0310952 C9.64676471,35.9840952 10.5621176,35.5767619 12.2620588,32.5128095 L12.2620588,32.5128095 Z M26.4121765,27.9806667 C27.2678824,28.623 28.0249412,28.974381 28.5847059,28.974381 C28.8301765,28.974381 29.1536471,28.9184286 29.4771176,28.4752857 C29.6354118,28.2626667 29.6950588,28.1239048 29.7202941,28.0522857 C29.5895294,27.9851429 29.2132941,27.846381 28.2795882,27.846381 C27.7496471,27.846381 27.1187647,27.893381 26.4121765,27.9806667 L26.4121765,27.9806667 Z M18.7383529,21.2171429 C17.9881765,23.7529048 16.9971176,26.4878571 15.9303529,28.9676667 C18.1258235,28.1350952 20.5117059,27.4099524 22.7530588,26.8974286 C21.3352941,25.2904762 19.9175294,23.2851429 18.7383529,21.2171429 L18.7383529,21.2171429 Z M18.2038235,12.524381 C18.1808824,12.526619 18.1464706,12.5355714 18.1028824,12.549 C17.9996471,12.5825714 17.9170588,12.6362857 17.8459412,12.7996667 C17.5752353,13.4151429 17.7885882,14.5856667 18.2015294,15.8434762 C18.5456471,13.6747619 18.3621176,12.7549048 18.2038235,12.524381 L18.2038235,12.524381 Z" id="Fill-2" sketch:type="MSShapeGroup"></path>
            </g>
        </g>
    </g>
</svg>