<?xml version="1.0" encoding="UTF-8" standalone="no"?>
<svg width="46px" height="46px" viewBox="0 0 46 46" version="1.1" xmlns="http://www.w3.org/2000/svg" xmlns:xlink="http://www.w3.org/1999/xlink" xmlns:sketch="http://www.bohemiancoding.com/sketch/ns">
    <!-- Generator: Sketch 3.3 (11970) - http://www.bohemiancoding.com/sketch -->
    <title>edit</title>
    <desc>Created with Sketch.</desc>
    <defs></defs>
    <g id="Page-1" stroke="none" stroke-width="1" fill="none" fill-rule="evenodd" sketch:type="MSPage">
        <g id="edit" sketch:type="MSArtboardGroup" fill="#000000">
            <g id="Imported-Layers" sketch:type="MSLayerGroup" transform="translate(11.000000, 11.000000)">
                <path d="M19.4496269,23.9109848 L1.35261194,23.9109848 L1.35261194,5.44507576 L12.4679104,5.44507576 L12.4679104,4.40340909 L0.326492537,4.40340909 L0.326492537,24.9526515 L20.4757463,24.9526515 L20.4757463,12.7916667 L19.4496269,12.7916667 L19.4496269,23.9109848" id="Fill-1" sketch:type="MSShapeGroup"></path>
                <path d="M21.2503731,0.153409091 L7.51268657,14.0636364 L4.81268657,20.392803 L11.0313433,17.6575758 L11.1854478,17.4886364 L24.7141791,3.80454545 L24.780597,3.7375 L21.2503731,0.153409091 L21.2503731,0.153409091 Z M21.2503731,1.62651515 L23.3291045,3.73712121 L22.0302239,5.05568182 L19.9514925,2.94507576 L21.2503731,1.62651515 L21.2503731,1.62651515 Z M19.2257463,3.68143939 L21.3048507,5.79204545 L10.561194,16.6628788 L10.4037313,16.8227273 L8.32686567,14.7098485 L19.2257463,3.68143939 L19.2257463,3.68143939 Z M9.36455224,17.255303 L6.78619403,18.3897727 L7.90335821,15.7719697 L9.36455224,17.255303 L9.36455224,17.255303 Z" id="Fill-2" sketch:type="MSShapeGroup"></path>
            </g>
        </g>
    </g>
</svg>