<?xml version="1.0" encoding="UTF-8" standalone="no"?>
<svg width="46px" height="46px" viewBox="0 0 46 46" version="1.1" xmlns="http://www.w3.org/2000/svg" xmlns:xlink="http://www.w3.org/1999/xlink" xmlns:sketch="http://www.bohemiancoding.com/sketch/ns">
    <!-- Generator: Sketch 3.3 (11970) - http://www.bohemiancoding.com/sketch -->
    <title>x</title>
    <desc>Created with Sketch.</desc>
    <defs></defs>
    <g id="Page-1" stroke="none" stroke-width="1" fill="none" fill-rule="evenodd" sketch:type="MSPage">
        <g id="x" sketch:type="MSArtboardGroup" fill="#000000">
            <g id="Imported-Layers" sketch:type="MSLayerGroup" transform="translate(12.000000, 12.000000)">
                <path d="M3.50115517,3.46170175 C-0.882327586,7.92208772 -0.882327586,15.179193 3.50075862,19.6391754 C7.88424138,24.0995614 15.0166207,24.0995614 19.3997069,19.6391754 C23.7831897,15.179193 23.7831897,7.92168421 19.4001034,3.46129825 C15.0166207,-0.998684211 7.88424138,-0.998684211 3.50115517,3.46170175 L3.50115517,3.46170175 Z M18.6430862,18.8692807 C14.6771724,22.9047719 8.22408621,22.9043684 4.25817241,18.8688772 C0.292258621,14.833386 0.291862069,8.26708772 4.25777586,4.23159649 C8.22368966,0.196105263 14.6767759,0.196508772 18.6426897,4.232 C22.6086034,8.26749123 22.609,14.8337895 18.6430862,18.8692807 L18.6430862,18.8692807 Z" id="Fill-1" sketch:type="MSShapeGroup"></path>
                <path d="M8.98982759,8.27636842 L8.23281034,9.04666667 L10.6406724,11.4971754 L8.23281034,13.9472807 L8.98982759,14.7175789 L11.3976897,12.2670702 L13.8059483,14.7175789 L14.5629655,13.9472807 L12.1547069,11.4967719 L14.5629655,9.04666667 L13.8059483,8.27636842 L11.3980862,10.7264737 L8.98982759,8.27636842" id="Fill-2" sketch:type="MSShapeGroup"></path>
            </g>
        </g>
    </g>
</svg>