<?xml version="1.0" encoding="utf-8"?>
<!-- Generator: Adobe Illustrator 18.1.1, SVG Export Plug-In . SVG Version: 6.00 Build 0)  -->
<svg version="1.1" id="Layer_1" xmlns="http://www.w3.org/2000/svg" xmlns:xlink="http://www.w3.org/1999/xlink" x="0px" y="0px"
	 width="46px" height="46px" viewBox="-1416 878 46 46" enable-background="new -1416 878 46 46" xml:space="preserve">
<title>share</title>
<path fill='currentColor' d="M-1379,922.7c-4.1,0-7.5-3.4-7.5-7.5c0-0.7,0.1-1.4,0.3-2l-15.7-8c-1.4,1.8-3.5,2.9-6,2.9c-4.1,0-7.5-3.4-7.5-7.5
	s3.4-7.5,7.5-7.5c2.5,0,4.6,1.2,6,3l15.6-8c-0.2-0.7-0.3-1.4-0.3-2.1c0-4.1,3.4-7.5,7.5-7.5s7.5,3.4,7.5,7.5c0,4.1-3.4,7.5-7.5,7.5
	c-2.4,0-4.5-1.1-5.9-2.9l-15.7,8c0.2,0.6,0.3,1.3,0.3,2c0,0.7-0.1,1.4-0.3,2.1l15.6,8c1.4-1.8,3.6-3,6-3c4.1,0,7.5,3.4,7.5,7.5
	S-1374.9,922.7-1379,922.7z M-1379,910.5c-2.6,0-4.7,2.1-4.7,4.7c0,2.6,2.1,4.7,4.7,4.7c2.6,0,4.7-2.1,4.7-4.7
	C-1374.3,912.6-1376.4,910.5-1379,910.5z M-1407.9,896c-2.6,0-4.7,2.1-4.7,4.7c0,2.6,2.1,4.7,4.7,4.7c2.6,0,4.7-2.1,4.7-4.7
	C-1403.2,898.1-1405.3,896-1407.9,896z M-1379,881.4c-2.6,0-4.7,2.1-4.7,4.7c0,2.6,2.1,4.7,4.7,4.7c2.6,0,4.7-2.1,4.7-4.7
	C-1374.3,883.5-1376.4,881.4-1379,881.4z"/>
</svg>
