<?xml version="1.0" encoding="UTF-8" standalone="no"?>
<svg width="46px" height="46px" viewBox="0 0 46 46" version="1.1" xmlns="http://www.w3.org/2000/svg" xmlns:xlink="http://www.w3.org/1999/xlink" xmlns:sketch="http://www.bohemiancoding.com/sketch/ns">
    <!-- Generator: Sketch 3.3 (11970) - http://www.bohemiancoding.com/sketch -->
    <title>Decisive Infrastructure</title>
    <desc>Created with Sketch.</desc>
    <defs></defs>
    <g id="Page-1" stroke="none" stroke-width="1" fill="none" fill-rule="evenodd" sketch:type="MSPage">
        <g id="Decisive-Infrastructure" sketch:type="MSArtboardGroup" fill="#231F1F">
            <g id="Imported-Layers" sketch:type="MSLayerGroup" transform="translate(10.000000, 15.000000)">
                <path d="M26.3433214,16.9518333 L17.0770179,16.9518333 C16.8103929,16.9518333 16.594875,16.74075 16.594875,16.4796111 L16.594875,7.40491667 C16.594875,7.14377778 16.8103929,6.93269444 17.0770179,6.93269444 L26.3433214,6.93269444 C26.6094643,6.93269444 26.8254643,7.14377778 26.8254643,7.40491667 L26.8254643,16.4796111 C26.8254643,16.74075 26.6094643,16.9518333 26.3433214,16.9518333 L26.3433214,16.9518333 Z M17.5591607,16.0073889 L25.8611786,16.0073889 L25.8611786,7.87666667 L17.5591607,7.87666667 L17.5591607,16.0073889 Z" id="Fill-1" sketch:type="MSShapeGroup"></path>
                <path d="M24.026625,10.1456944 L19.3937143,10.1456944 C19.1270893,10.1456944 18.9115714,9.93461111 18.9115714,9.67347222 C18.9115714,9.41280556 19.1270893,9.20125 19.3937143,9.20125 L24.026625,9.20125 C24.29325,9.20125 24.5087679,9.41280556 24.5087679,9.67347222 C24.5087679,9.93461111 24.29325,10.1456944 24.026625,10.1456944" id="Fill-2" sketch:type="MSShapeGroup"></path>
                <path d="M10.1274107,16.9518333 L0.861589286,16.9518333 C0.594964286,16.9518333 0.379446429,16.74075 0.379446429,16.4796111 L0.379446429,7.40491667 C0.379446429,7.14377778 0.594964286,6.93269444 0.861589286,6.93269444 L10.1274107,6.93269444 C10.3940357,6.93269444 10.6095536,7.14377778 10.6095536,7.40491667 L10.6095536,16.4796111 C10.6095536,16.74075 10.3940357,16.9518333 10.1274107,16.9518333 L10.1274107,16.9518333 Z M1.34373214,16.0073889 L9.64526786,16.0073889 L9.64526786,7.87666667 L1.34373214,7.87666667 L1.34373214,16.0073889 Z" id="Fill-3" sketch:type="MSShapeGroup"></path>
                <path d="M7.81071429,10.1456944 L3.17828571,10.1456944 C2.91166071,10.1456944 2.69614286,9.93461111 2.69614286,9.67347222 C2.69614286,9.41280556 2.91166071,9.20125 3.17828571,9.20125 L7.81071429,9.20125 C8.07733929,9.20125 8.29285714,9.41280556 8.29285714,9.67347222 C8.29285714,9.93461111 8.07733929,10.1456944 7.81071429,10.1456944" id="Fill-4" sketch:type="MSShapeGroup"></path>
                <path d="M7.522875,1.97813889 L5.4945,1.97813889 C5.22835714,1.97813889 5.01283929,2.18969444 5.01283929,2.45036111 L5.01283929,5.98777778 L5.97664286,5.98777778 L5.97664286,2.92258333 L7.522875,2.92258333 L7.522875,1.97813889" id="Fill-5" sketch:type="MSShapeGroup"></path>
                <path d="M21.7099286,1.97813889 L19.6815536,1.97813889 L19.6815536,2.92258333 L21.2277857,2.92258333 L21.2277857,5.98777778 L22.1920714,5.98777778 L22.1920714,2.45036111 C22.1920714,2.18969444 21.9765536,1.97813889 21.7099286,1.97813889" id="Fill-6" sketch:type="MSShapeGroup"></path>
                <path d="M11.5738393,9.21966667 L15.6310714,9.21966667 L15.6310714,10.1641111 L11.5738393,10.1641111 L11.5738393,9.21966667 Z" id="Fill-7" sketch:type="MSShapeGroup"></path>
                <path d="M17.7529821,5.98825 L18.7172679,5.98825 L18.7172679,0.617194444 C18.7172679,0.356055556 18.50175,0.144972222 18.235125,0.144972222 L8.96978571,0.144972222 C8.70316071,0.144972222 8.48764286,0.356055556 8.48764286,0.617194444 L8.48764286,5.98825 L9.45144643,5.98825 L9.45144643,1.08941667 L17.7529821,1.08941667 L17.7529821,5.98825" id="Fill-8" sketch:type="MSShapeGroup"></path>
                <path d="M15.8885357,3.36552778 L11.2561071,3.36552778 C10.9894821,3.36552778 10.7739643,3.15444444 10.7739643,2.89330556 C10.7739643,2.63216667 10.9894821,2.42108333 11.2561071,2.42108333 L15.8885357,2.42108333 C16.1551607,2.42108333 16.3706786,2.63216667 16.3706786,2.89330556 C16.3706786,3.15444444 16.1551607,3.36552778 15.8885357,3.36552778" id="Fill-9" sketch:type="MSShapeGroup"></path>
            </g>
        </g>
    </g>
</svg>