<?xml version="1.0" encoding="utf-8"?>
<!-- Generator: Adobe Illustrator 18.1.1, SVG Export Plug-In . SVG Version: 6.00 Build 0)  -->
<svg version="1.1" id="play_button" xmlns="http://www.w3.org/2000/svg" xmlns:xlink="http://www.w3.org/1999/xlink" x="0px"
	 y="0px" viewBox="0 0 100 100" enable-background="new 0 0 100 100" xml:space="preserve">
<g>
	<path fill="#FFFFFF" d="M50,99.2c-27.1,0-49.2-22.1-49.2-49.2C0.8,22.9,22.9,0.9,50,0.9c27.1,0,49.2,22.1,49.2,49.2
		C99.2,77.2,77.1,99.2,50,99.2z M50,2.9C24,2.9,2.8,24.1,2.8,50.1S24,97.2,50,97.2c26,0,47.2-21.2,47.2-47.2S76,2.9,50,2.9z"/>
</g>
<polygon fill="#FFFFFF" points="39.8,50.1 39.8,28.4 53.9,39.2 67.9,50.1 53.9,60.9 39.8,71.8 "/>
</svg>
