<?xml version="1.0" encoding="utf-8"?>
<!-- Generator: Adobe Illustrator 18.1.1, SVG Export Plug-In . SVG Version: 6.00 Build 0)  -->
<svg version="1.1" id="Layer_1" xmlns:sketch="http://www.bohemiancoding.com/sketch/ns"
	 xmlns="http://www.w3.org/2000/svg" xmlns:xlink="http://www.w3.org/1999/xlink" x="0px" y="0px" width="100px" height="100px"
	 viewBox="-1389 851 100 100" enable-background="new -1389 851 100 100" xml:space="preserve">
<g id="Page-1" sketch:type="MSPage">
	<g id="icon_share-filled" sketch:type="MSArtboardGroup">
		<circle id="fill" fill='currentColor' fill='transparent' sketch:type="MSShapeGroup" cx="-1371" cy="901" r="13">
		</circle>
		<circle id="fill_1_" fill='currentColor' fill='transparent' sketch:type="MSShapeGroup" cx="-1307" cy="868" r="13">
		</circle>
		<circle id="fill_2_" fill='currentColor' sketch:type="MSShapeGroup" cx="-1307" cy="933" r="13">
		</circle>
		<path id="outer-path" fill='currentColor' sketch:type="MSShapeGroup" d="M-1307.4,916.5c-5.4,0-10.2,2.6-13.2,6.6l-34.4-17.4c0.4-1.5,0.7-3,0.7-4.6
			s-0.3-3.1-0.7-4.6l34.4-17.4c3.1,4,7.8,6.6,13.2,6.6c9.3,0,16.8-7.5,16.8-16.8s-7.5-16.8-16.8-16.8c-9.3,0-16.8,7.5-16.8,16.8
			c0,1.6,0.3,3.1,0.7,4.6l-34.4,17.4c-3.1-4-7.8-6.6-13.2-6.6c-9.3,0-16.8,7.5-16.8,16.8c0,9.3,7.5,16.8,16.8,16.8
			c5.4,0,10.2-2.6,13.2-6.6l34.4,17.4c-0.4,1.5-0.7,3-0.7,4.6c0,9.3,7.5,16.8,16.8,16.8c9.3,0,16.8-7.5,16.8-16.8
			C-1290.6,924-1298.2,916.5-1307.4,916.5L-1307.4,916.5z M-1307.4,858.4c5.8,0,10.4,4.7,10.4,10.5s-4.7,10.4-10.4,10.4
			c-5.8,0-10.4-4.7-10.4-10.4S-1313.2,858.4-1307.4,858.4L-1307.4,858.4z M-1371.2,911.5c-5.8,0-10.4-4.7-10.4-10.5
			c0-5.8,4.7-10.4,10.4-10.4c5.8,0,10.4,4.7,10.4,10.4C-1360.7,906.8-1365.4,911.5-1371.2,911.5L-1371.2,911.5z M-1307.4,943.7
			c-5.8,0-10.4-4.7-10.4-10.5c0-5.8,4.7-10.4,10.4-10.4c5.8,0,10.4,4.7,10.4,10.4C-1297,939-1301.7,943.7-1307.4,943.7
			L-1307.4,943.7z"/>
	</g>
</g>
</svg>
