<?xml version="1.0" encoding="UTF-8" standalone="no"?>
<svg width="46px" height="46px" viewBox="0 0 46 46" version="1.1" xmlns="http://www.w3.org/2000/svg" xmlns:xlink="http://www.w3.org/1999/xlink" xmlns:sketch="http://www.bohemiancoding.com/sketch/ns">
    <!-- Generator: Sketch 3.3 (11970) - http://www.bohemiancoding.com/sketch -->
    <title>smart-search</title>
    <desc>Created with Sketch.</desc>
    <defs></defs>
    <g id="Page-1" stroke="none" stroke-width="1" fill="none" fill-rule="evenodd" sketch:type="MSPage">
        <g id="smart-search" sketch:type="MSArtboardGroup" fill="#000000">
            <g id="Imported-Layers" sketch:type="MSLayerGroup" transform="translate(0.000000, 7.000000)">
                <path d="M2.36834146,2.53073333 L33.1831463,2.53073333 L33.1831463,5.36406667 L35.2477073,5.36406667 L35.2477073,0.491866667 L0.306073171,0.491866667 L0.306073171,21.42 L17.6834634,21.42 L17.6834634,19.38 L2.36834146,19.38 L2.36834146,2.53073333" id="Fill-1" sketch:type="MSShapeGroup"></path>
                <path d="M46.006122,31.6687333 L37.9381707,23.7728 C39.533878,21.9198 40.5036829,19.5239333 40.5036829,16.9048 C40.5036829,11.0522667 35.6867561,6.29 29.7659024,6.29 C23.8461951,6.29 19.0292683,11.0522667 19.0292683,16.9048 C19.0292683,22.7573333 23.8461951,27.5196 29.7659024,27.5196 C32.295878,27.5196 34.6195122,26.6446667 36.4570976,25.1928667 L44.5548537,33.1194 L46.006122,31.6687333 L46.006122,31.6687333 Z M21.0926829,16.9048 C21.0926829,12.1765333 24.9833659,8.33 29.7659024,8.33 C34.548439,8.33 38.439122,12.1765333 38.439122,16.9048 C38.439122,21.6330667 34.548439,25.4784667 29.7659024,25.4784667 C24.9833659,25.4784667 21.0926829,21.6330667 21.0926829,16.9048 L21.0926829,16.9048 Z" id="Fill-2" sketch:type="MSShapeGroup"></path>
            </g>
        </g>
    </g>
</svg>