<?xml version="1.0" encoding="UTF-8" standalone="no"?>
<svg width="100px" height="100px" viewBox="0 0 100 100" version="1.1" xmlns="http://www.w3.org/2000/svg" xmlns:xlink="http://www.w3.org/1999/xlink" xmlns:sketch="http://www.bohemiancoding.com/sketch/ns">
    <!-- Generator: Sketch 3.3 (11970) - http://www.bohemiancoding.com/sketch -->
    <title>icon_share</title>
    <desc>Created with Sketch.</desc>
    <defs></defs>
    <g id="Page-1" stroke="none" stroke-width="1" fill="none" fill-rule="evenodd" sketch:type="MSPage">
        <g id="icon_share" sketch:type="MSArtboardGroup" fill="#000000">
            <path d="M81.5715,65.45975 C76.174,65.45975 71.41825,68.06075 68.337,72.02175 L33.929,54.6265 C34.34975,53.1645 34.643,51.64725 34.643,50.0535 C34.643,48.45975 34.34975,46.9425 33.929,45.4805 L68.337,28.08525 C71.41825,32.0505 76.174,34.64725 81.5715,34.64725 C90.84925,34.64725 98.393,27.1035 98.393,17.82575 C98.393,8.548 90.84925,1 81.5715,1 C72.29375,1 64.75,8.548 64.75,17.82575 C64.75,19.4195 65.04325,20.93675 65.45975,22.39875 L31.056,39.794 C27.97475,35.82875 23.219,33.232 17.8215,33.232 C8.54375,33.232 1,40.77575 1,50.0535 C1,59.33125 8.54375,66.87925 17.8215,66.87925 C23.219,66.87925 27.97475,64.27825 31.056,60.31725 L65.45975,77.7125 C65.04325,79.1745 64.75,80.6875 64.75,82.28125 C64.75,91.559 72.29375,99.107 81.5715,99.107 C90.84925,99.107 98.393,91.559 98.393,82.28125 C98.393,73.00775 90.84925,65.45975 81.5715,65.45975 L81.5715,65.45975 Z M81.5715,7.375 C87.33025,7.375 92.018,12.067 92.018,17.82575 C92.018,23.5845 87.33025,28.27225 81.5715,28.27225 C75.8085,28.27225 71.125,23.5845 71.125,17.82575 C71.125,12.067 75.8085,7.375 81.5715,7.375 L81.5715,7.375 Z M17.8215,60.50425 C12.0585,60.50425 7.375,55.81225 7.375,50.0535 C7.375,44.29475 12.0585,39.607 17.8215,39.607 C23.58025,39.607 28.268,44.29475 28.268,50.0535 C28.268,55.81225 23.58025,60.50425 17.8215,60.50425 L17.8215,60.50425 Z M81.5715,92.732 C75.8085,92.732 71.125,88.04425 71.125,82.28125 C71.125,76.5225 75.8085,71.83475 81.5715,71.83475 C87.33025,71.83475 92.018,76.5225 92.018,82.28125 C92.018,88.04425 87.33025,92.732 81.5715,92.732 L81.5715,92.732 Z" id="Imported-Layers" sketch:type="MSShapeGroup"></path>
        </g>
    </g>
</svg>