<?xml version="1.0" encoding="UTF-8" standalone="no"?>
<svg width="46px" height="46px" viewBox="0 0 46 46" version="1.1" xmlns="http://www.w3.org/2000/svg" xmlns:xlink="http://www.w3.org/1999/xlink" xmlns:sketch="http://www.bohemiancoding.com/sketch/ns">
    <!-- Generator: Sketch 3.3 (11970) - http://www.bohemiancoding.com/sketch -->
    <title>Mobile First</title>
    <desc>Created with Sketch.</desc>
    <defs></defs>
    <g id="Page-1" stroke="none" stroke-width="1" fill="none" fill-rule="evenodd" sketch:type="MSPage">
        <g id="Mobile-First" sketch:type="MSArtboardGroup" fill="#000000">
            <g id="Imported-Layers" sketch:type="MSLayerGroup" transform="translate(14.000000, 11.000000)">
                <path d="M12.4310455,24.8971311 L2.61286364,24.8971311 C1.25959091,24.8971311 0.158318182,23.7942623 0.158318182,22.4381148 L0.158318182,2.76598361 C0.158318182,1.40983607 1.25959091,0.306967213 2.61286364,0.306967213 L12.4310455,0.306967213 C13.7847273,0.306967213 14.8855909,1.40983607 14.8855909,2.76598361 L14.8855909,6.14754098 C14.8855909,6.37377049 14.7023182,6.55737705 14.4765,6.55737705 C14.2506818,6.55737705 14.0674091,6.37377049 14.0674091,6.14754098 L14.0674091,2.76598361 C14.0674091,1.86188525 13.3335,1.12663934 12.4310455,1.12663934 L2.61286364,1.12663934 C1.71081818,1.12663934 0.9765,1.86188525 0.9765,2.76598361 L0.9765,22.4381148 C0.9765,23.3422131 1.71081818,24.077459 2.61286364,24.077459 L12.4310455,24.077459 C13.3335,24.077459 14.0674091,23.3422131 14.0674091,22.4381148 L14.0674091,16.8032787 C14.0674091,16.5770492 14.2506818,16.3934426 14.4765,16.3934426 C14.7023182,16.3934426 14.8855909,16.5770492 14.8855909,16.8032787 L14.8855909,22.4381148 C14.8855909,23.7942623 13.7847273,24.8971311 12.4310455,24.8971311" id="Fill-1" sketch:type="MSShapeGroup"></path>
                <path d="M14.4765,5.225 L0.567409091,5.225 C0.341590909,5.225 0.158318182,5.04139344 0.158318182,4.81516393 C0.158318182,4.58893443 0.341590909,4.40532787 0.567409091,4.40532787 L14.4765,4.40532787 C14.7023182,4.40532787 14.8855909,4.58893443 14.8855909,4.81516393 C14.8855909,5.04139344 14.7023182,5.225 14.4765,5.225" id="Fill-2" sketch:type="MSShapeGroup"></path>
                <path d="M14.4765,20.7987705 L0.567409091,20.7987705 C0.341590909,20.7987705 0.158318182,20.6151639 0.158318182,20.3889344 C0.158318182,20.1627049 0.341590909,19.9790984 0.567409091,19.9790984 L14.4765,19.9790984 C14.7023182,19.9790984 14.8855909,20.1627049 14.8855909,20.3889344 C14.8855909,20.6151639 14.7023182,20.7987705 14.4765,20.7987705" id="Fill-3" sketch:type="MSShapeGroup"></path>
                <path d="M10.3855909,3.58565574 L4.65831818,3.58565574 C4.4325,3.58565574 4.24922727,3.40204918 4.24922727,3.17581967 C4.24922727,2.94959016 4.4325,2.76598361 4.65831818,2.76598361 L10.3855909,2.76598361 C10.6118182,2.76598361 10.7946818,2.94959016 10.7946818,3.17581967 C10.7946818,3.40204918 10.6118182,3.58565574 10.3855909,3.58565574" id="Fill-4" sketch:type="MSShapeGroup"></path>
                <path d="M7.52195455,23.667623 C6.84531818,23.667623 6.29468182,23.1159836 6.29468182,22.4381148 C6.29468182,21.7602459 6.84531818,21.2086066 7.52195455,21.2086066 C8.19859091,21.2086066 8.74922727,21.7602459 8.74922727,22.4381148 C8.74922727,23.1159836 8.19859091,23.667623 7.52195455,23.667623 L7.52195455,23.667623 Z M7.52195455,22.0282787 C7.29654545,22.0282787 7.11286364,22.2122951 7.11286364,22.4381148 C7.11286364,22.6639344 7.29654545,22.8479508 7.52195455,22.8479508 C7.74736364,22.8479508 7.93104545,22.6639344 7.93104545,22.4381148 C7.93104545,22.2122951 7.74736364,22.0282787 7.52195455,22.0282787 L7.52195455,22.0282787 Z" id="Fill-5" sketch:type="MSShapeGroup"></path>
                <path d="M16.4667273,7.23278689 L7.84268182,7.23278689 C7.05559091,7.23278689 6.41495455,7.87459016 6.41495455,8.66352459 L6.41495455,14.1053279 C6.41495455,14.3315574 6.59781818,14.5151639 6.82404545,14.5151639 C7.04986364,14.5151639 7.23313636,14.3315574 7.23313636,14.1053279 L7.23313636,8.66352459 C7.23313636,8.32663934 7.50681818,8.05245902 7.84268182,8.05245902 L16.4667273,8.05245902 C16.803,8.05245902 17.0766818,8.32663934 17.0766818,8.66352459 L17.0766818,14.1053279 C17.0766818,14.4422131 16.803,14.7163934 16.4667273,14.7163934 L9.22745455,14.7163934 C9.21354545,14.7163934 9.20168182,14.7229508 9.18818182,14.7241803 C9.16036364,14.7270492 9.13377273,14.7319672 9.10677273,14.7405738 C9.07977273,14.7491803 9.05563636,14.7598361 9.0315,14.7733607 C9.01922727,14.779918 9.00572727,14.7811475 8.99427273,14.7893443 L6.59086364,16.4586066 C6.40513636,16.5877049 6.35890909,16.8430328 6.48777273,17.0290984 C6.56713636,17.1438525 6.69477273,17.2053279 6.82445455,17.2053279 C6.90463636,17.2053279 6.98604545,17.1815574 7.05681818,17.132377 L9.35509091,15.5360656 L16.4667273,15.5360656 C17.2542273,15.5360656 17.8948636,14.8942623 17.8948636,14.1053279 L17.8948636,8.66352459 C17.8948636,7.87459016 17.2542273,7.23278689 16.4667273,7.23278689" id="Fill-6" sketch:type="MSShapeGroup"></path>
            </g>
        </g>
    </g>
</svg>