<?xml version="1.0" encoding="UTF-8" standalone="no"?>
<svg width="46px" height="46px" viewBox="0 0 46 46" version="1.1" xmlns="http://www.w3.org/2000/svg" xmlns:xlink="http://www.w3.org/1999/xlink" xmlns:sketch="http://www.bohemiancoding.com/sketch/ns">
    <!-- Generator: Sketch 3.3 (11970) - http://www.bohemiancoding.com/sketch -->
    <title>save-article</title>
    <desc>Created with Sketch.</desc>
    <defs></defs>
    <g id="Page-1" stroke="none" stroke-width="1" fill="none" fill-rule="evenodd" sketch:type="MSPage">
        <g id="save-article" sketch:type="MSArtboardGroup" fill="#231F1F">
            <g id="Imported-Layers" sketch:type="MSLayerGroup" transform="translate(2.000000, 0.000000)">
                <path d="M41.4608108,29.8448 C41.2542162,29.2468 40.6945946,28.8443 40.0691351,28.8443 L33.3934054,28.8443 L31.0187027,22.0271 C30.8132432,21.4268 30.2524865,21.0243 29.6258919,21.0243 C28.9981622,21.0243 28.4385405,21.4268 28.2342162,22.02135 L25.8561081,28.8443 L19.1815135,28.8443 C18.5537838,28.8443 17.993027,29.2491 17.7875676,29.85055 C17.5821081,30.452 17.7762162,31.12015 18.2711351,31.5146 L23.8105946,35.92485 L21.4177297,43.19975 C21.2088649,43.8196 21.4188649,44.4958 21.941027,44.8845 C22.4416216,45.26055 23.1510811,45.2755 23.688,44.88565 L29.6258919,40.4731 L35.574,44.89485 C35.8282703,45.0777 36.1256757,45.1743 36.4367027,45.1743 C36.7534054,45.1743 37.0564865,45.07425 37.3050811,44.88795 C37.8261081,44.5027 38.0406486,43.8288 37.8363243,43.2078 L35.4400541,35.92485 L40.9829189,31.51345 C41.4744324,31.12015 41.6685405,30.452 41.4608108,29.8448 L41.4608108,29.8448 Z M33.0471892,35.1969 L35.3344865,42.14865 L29.6258919,37.9063 L23.9161622,42.14865 L26.2023243,35.1969 L20.8240541,30.91545 L27.3022703,30.91545 L29.6258919,24.24775 L31.9472432,30.91545 L38.4265946,30.91545 L33.0471892,35.1969 L33.0471892,35.1969 Z" id="Fill-1" sketch:type="MSShapeGroup"></path>
                <path d="M2.06140541,34.51955 L2.06140541,2.28045 L28.6031351,2.28045 L28.6031351,18.6875 L30.6475135,18.6875 L30.6475135,0.2116 L0.0192972973,0.2116 L0.0192972973,36.58955 L19.6843784,36.58955 L16.5411892,34.51955 L2.06140541,34.51955" id="Fill-2" sketch:type="MSShapeGroup"></path>
                <path d="M5.67567568,5.865 L24.972973,5.865 L24.972973,7.935 L5.67567568,7.935 L5.67567568,5.865 Z" id="Fill-3" sketch:type="MSShapeGroup"></path>
                <path d="M5.67567568,12.765 L24.972973,12.765 L24.972973,14.835 L5.67567568,14.835 L5.67567568,12.765 Z" id="Fill-4" sketch:type="MSShapeGroup"></path>
                <path d="M5.67567568,19.665 L20.0771351,19.665 L20.0771351,21.735 L5.67567568,21.735 L5.67567568,19.665 Z" id="Fill-5" sketch:type="MSShapeGroup"></path>
            </g>
        </g>
    </g>
</svg>