<?xml version="1.0" encoding="utf-8"?>
<!-- Generator: Adobe Illustrator 18.1.1, SVG Export Plug-In . SVG Version: 6.00 Build 0)  -->
<svg version="1.1" id="Layer_1" xmlns="http://www.w3.org/2000/svg" xmlns:xlink="http://www.w3.org/1999/xlink" x="0px" y="0px"
	 viewBox="0 0 100 100" enable-background="new 0 0 100 100" xml:space="preserve">
<g>
	<g>
		<path fill="#010101" d="M83.3,99.8H5c-2,0-3.6-1.6-3.6-3.6V17.9c0-2,1.6-3.6,3.6-3.6h39.1c2,0,3.6,1.6,3.6,3.6s-1.6,3.6-3.6,3.6
			H8.6v71.1h71.1V57.1c0-2,1.6-3.6,3.6-3.6c2,0,3.6,1.6,3.6,3.6v39.1C86.9,98.2,85.3,99.8,83.3,99.8z"/>
	</g>
</g>
<g>
	<path fill="#010101" d="M46.7,73.5L25.6,52.4c-2.1-2.1-2.1-5.4,0-7.5c2.1-2.1,5.4-2.1,7.5,0l12.6,12.6L88.3,2.3
		c1.8-2.3,5.1-2.7,7.4-1c2.3,1.8,2.7,5.1,1,7.4L46.7,73.5z"/>
</g>
</svg>
