<?xml version="1.0" encoding="UTF-8" standalone="no"?>
<svg width="46px" height="46px" viewBox="0 0 46 46" version="1.1" xmlns="http://www.w3.org/2000/svg" xmlns:xlink="http://www.w3.org/1999/xlink" xmlns:sketch="http://www.bohemiancoding.com/sketch/ns">
    <!-- Generator: Sketch 3.3 (11970) - http://www.bohemiancoding.com/sketch -->
    <title>infographic</title>
    <desc>Created with Sketch.</desc>
    <defs></defs>
    <g id="Page-1" stroke="none" stroke-width="1" fill="none" fill-rule="evenodd" sketch:type="MSPage">
        <g id="infographic" sketch:type="MSArtboardGroup" fill="#000000">
            <g id="Imported-Layers" sketch:type="MSLayerGroup" transform="translate(0.000000, 2.000000)">
                <path d="M44.333,41.742878 L1,41.742878 C0.448,41.742878 0,41.2839512 0,40.7184878 C0,40.1530244 0.448,39.6940976 1,39.6940976 L44.333,39.6940976 C44.886,39.6940976 45.333,40.1530244 45.333,40.7184878 C45.333,41.2839512 44.886,41.742878 44.333,41.742878" id="Fill-1" sketch:type="MSShapeGroup"></path>
                <path d="M13,41.742878 L5,41.742878 C4.448,41.742878 4,41.2839512 4,40.7184878 L4,28.4258049 C4,27.8603415 4.448,27.4014146 5,27.4014146 L13,27.4014146 C13.552,27.4014146 14,27.8603415 14,28.4258049 L14,40.7184878 C14,41.2839512 13.552,41.742878 13,41.742878 L13,41.742878 Z M6,39.6940976 L12,39.6940976 L12,29.4501951 L6,29.4501951 L6,39.6940976 Z" id="Fill-2" sketch:type="MSShapeGroup"></path>
                <path d="M27,41.742878 L19,41.742878 C18.448,41.742878 18,41.2839512 18,40.7184878 L18,14.0843415 C18,13.518878 18.448,13.0599512 19,13.0599512 L27,13.0599512 C27.552,13.0599512 28,13.518878 28,14.0843415 L28,40.7184878 C28,41.2839512 27.552,41.742878 27,41.742878 L27,41.742878 Z M20,39.6940976 L26,39.6940976 L26,15.1087317 L20,15.1087317 L20,39.6940976 Z" id="Fill-3" sketch:type="MSShapeGroup"></path>
                <path d="M41,41.742878 L33,41.742878 C32.448,41.742878 32,41.2839512 32,40.7184878 L32,1.36653659 C32,0.80004878 32.448,0.342146341 33,0.342146341 L41,0.342146341 C41.552,0.342146341 42,0.80004878 42,1.36653659 L42,40.7184878 C42,41.2839512 41.552,41.742878 41,41.742878 L41,41.742878 Z M34,39.6940976 L40,39.6940976 L40,2.38990244 L34,2.38990244 L34,39.6940976 Z" id="Fill-4" sketch:type="MSShapeGroup"></path>
            </g>
        </g>
    </g>
</svg>