<?xml version="1.0" encoding="UTF-8" standalone="no"?>
<svg width="46px" height="46px" viewBox="0 0 46 46" version="1.1" xmlns="http://www.w3.org/2000/svg" xmlns:xlink="http://www.w3.org/1999/xlink" xmlns:sketch="http://www.bohemiancoding.com/sketch/ns">
    <!-- Generator: Sketch 3.3 (11970) - http://www.bohemiancoding.com/sketch -->
    <title>edit</title>
    <desc>Created with Sketch.</desc>
    <defs></defs>
    <g id="Page-1" stroke="none" stroke-width="1" fill="none" fill-rule="evenodd" sketch:type="MSPage">
        <g id="edit" sketch:type="MSArtboardGroup" fill="#000000">
            <g id="Imported-Layers" sketch:type="MSLayerGroup">
                <path d="M35.7873134,43.9962121 L2.48880597,43.9962121 L2.48880597,10.0189394 L22.9409552,10.0189394 L22.9409552,8.10227273 L0.600746269,8.10227273 L0.600746269,45.9128788 L37.6753731,45.9128788 L37.6753731,23.5366667 L35.7873134,23.5366667 L35.7873134,43.9962121" id="Fill-1" sketch:type="MSShapeGroup"></path>
                <path d="M39.1006866,0.282272727 L13.8233433,25.8770909 L8.85534328,37.5227576 L20.2976716,32.4899394 L20.5812239,32.1790909 L45.4740896,7.00036364 L45.5962985,6.877 L39.1006866,0.282272727 L39.1006866,0.282272727 Z M39.1006866,2.99278788 L42.9255522,6.87630303 L40.5356119,9.30245455 L36.7107463,5.41893939 L39.1006866,2.99278788 L39.1006866,2.99278788 Z M35.3753731,6.77384848 L39.2009254,10.6573636 L19.432597,30.659697 L19.1428657,30.9538182 L15.3214328,27.0661212 L35.3753731,6.77384848 L35.3753731,6.77384848 Z M17.2307761,31.7497576 L12.486597,33.8371818 L14.5421791,29.0204242 L17.2307761,31.7497576 L17.2307761,31.7497576 Z" id="Fill-2" sketch:type="MSShapeGroup"></path>
            </g>
        </g>
    </g>
</svg>