<?xml version="1.0" encoding="UTF-8" standalone="no"?>
<svg width="46px" height="46px" viewBox="0 0 46 46" version="1.1" xmlns="http://www.w3.org/2000/svg" xmlns:xlink="http://www.w3.org/1999/xlink" xmlns:sketch="http://www.bohemiancoding.com/sketch/ns">
    <!-- Generator: Sketch 3.3 (11970) - http://www.bohemiancoding.com/sketch -->
    <title>search-folders</title>
    <desc>Created with Sketch.</desc>
    <defs></defs>
    <g id="Page-1" stroke="none" stroke-width="1" fill="none" fill-rule="evenodd" sketch:type="MSPage">
        <g id="search-folders" sketch:type="MSArtboardGroup" fill="#000000">
            <g id="Imported-Layers" sketch:type="MSLayerGroup" transform="translate(0.000000, 4.000000)">
                <path d="M45.3887111,39.2001 L37.4501333,31.199975 C38.7156444,29.60405 39.4772,27.589925 39.4772,25.39745 C39.4772,20.244775 35.2973333,16.05355 30.1586222,16.05355 C25.0199111,16.05355 20.8400444,20.244775 20.8400444,25.39745 C20.8400444,30.550125 25.0199111,34.74135 30.1586222,34.74135 C32.3656,34.74135 34.3926667,33.9644 35.9914222,32.673925 L43.9197778,40.664825 C44.1221778,40.8688 44.3879556,40.970275 44.6547556,40.970275 C44.9184889,40.970275 45.1822222,40.869825 45.3846222,40.668925 C45.7894222,40.26405 45.7914667,39.607025 45.3887111,39.2001 L45.3887111,39.2001 Z M30.1586222,32.6647 C26.1617333,32.6647 22.9110667,29.4052 22.9110667,25.39745 C22.9110667,21.3897 26.1617333,18.1302 30.1586222,18.1302 C34.1555111,18.1302 37.4061778,21.3897 37.4061778,25.39745 C37.4061778,29.4052 34.1555111,32.6647 30.1586222,32.6647 L30.1586222,32.6647 Z" id="Fill-1" sketch:type="MSShapeGroup"></path>
                <path d="M10.3203556,12.6239 L36.4892444,12.6239 L35.9352,13.99945 L37.6412889,14.6903 L39.2175556,10.779925 L30.8516889,10.779925 L30.8516889,3.518825 L12.9403111,3.518825 L10.9807111,0.786175 L0.474311111,0.786175 L0.474311111,29.108975 L15.7902667,29.108975 L15.7902667,27.263975 L3.27315556,27.263975 L10.3203556,12.6239 L10.3203556,12.6239 Z M10.0372,2.63015 L11.9968,5.363825 L29.0116889,5.363825 L29.0116889,10.779925 L9.16524444,10.779925 L2.31431111,25.011025 L2.31431111,2.63015 L10.0372,2.63015 L10.0372,2.63015 Z" id="Fill-2" sketch:type="MSShapeGroup"></path>
            </g>
        </g>
    </g>
</svg>