<?xml version="1.0" encoding="UTF-8" standalone="no"?>
<svg width="46px" height="46px" viewBox="0 0 46 46" version="1.1" xmlns="http://www.w3.org/2000/svg" xmlns:xlink="http://www.w3.org/1999/xlink" xmlns:sketch="http://www.bohemiancoding.com/sketch/ns">
    <!-- Generator: Sketch 3.3 (11970) - http://www.bohemiancoding.com/sketch -->
    <title>location</title>
    <desc>Created with Sketch.</desc>
    <defs></defs>
    <g id="Page-1" stroke="none" stroke-width="1" fill="none" fill-rule="evenodd" sketch:type="MSPage">
        <g id="location" sketch:type="MSArtboardGroup" fill="#000000">
            <g id="Imported-Layers" sketch:type="MSLayerGroup" transform="translate(16.000000, 13.000000)">
                <path d="M7.61684211,4.88105882 C6.33434211,4.88105882 5.29381579,5.96605882 5.29381579,7.30429412 C5.29381579,8.64252941 6.33434211,9.72752941 7.61684211,9.72752941 C8.90013158,9.72752941 9.94026316,8.64252941 9.94026316,7.30429412 C9.94026316,5.96605882 8.90013158,4.88105882 7.61684211,4.88105882" id="Fill-1" sketch:type="MSShapeGroup"></path>
                <path d="M7.61684211,0.274647059 C3.55657895,0.274647059 0.265263158,3.70794118 0.265263158,7.94335294 C0.265263158,12.1787647 7.61684211,20.7249412 7.61684211,20.7249412 C7.61684211,20.7249412 14.9688158,12.1787647 14.9688158,7.94335294 C14.9688158,3.70794118 11.6767105,0.274647059 7.61684211,0.274647059 L7.61684211,0.274647059 Z M1.49052632,8.02282353 C1.49052632,4.44952941 4.23355263,1.55235294 7.61684211,1.55235294 C11.0001316,1.55235294 13.7431579,4.44994118 13.7431579,8.02323529 C13.7431579,11.5969412 7.61684211,18.8073529 7.61684211,18.8073529 C7.61684211,18.8073529 1.49052632,11.5965294 1.49052632,8.02282353 L1.49052632,8.02282353 Z" id="Fill-2" sketch:type="MSShapeGroup"></path>
            </g>
        </g>
    </g>
</svg>