<?xml version="1.0" encoding="UTF-8" standalone="no"?>
<svg width="46px" height="46px" viewBox="0 0 46 46" version="1.1" xmlns="http://www.w3.org/2000/svg" xmlns:xlink="http://www.w3.org/1999/xlink" xmlns:sketch="http://www.bohemiancoding.com/sketch/ns">
    <!-- Generator: Sketch 3.3 (11970) - http://www.bohemiancoding.com/sketch -->
    <title>Data Science</title>
    <desc>Created with Sketch.</desc>
    <defs></defs>
    <g id="Page-1" stroke="none" stroke-width="1" fill="none" fill-rule="evenodd" sketch:type="MSPage">
        <g id="Data-Science" sketch:type="MSArtboardGroup" fill="#000000">
            <g id="Imported-Layers" sketch:type="MSLayerGroup" transform="translate(10.000000, 14.000000)">
                <path d="M25.5666667,17.8898049 L0.433333333,17.8898049 C0.194133333,17.8898049 0,17.693561 0,17.4507805 C0,17.208439 0.194133333,17.0117561 0.433333333,17.0117561 L25.5666667,17.0117561 C25.8058667,17.0117561 26,17.208439 26,17.4507805 C26,17.693561 25.8058667,17.8898049 25.5666667,17.8898049" id="Fill-1" sketch:type="MSShapeGroup"></path>
                <path d="M5.63333333,17.8898049 L2.16666667,17.8898049 C1.92746667,17.8898049 1.73333333,17.693561 1.73333333,17.4507805 L1.73333333,12.1824878 C1.73333333,11.9401463 1.92746667,11.7434634 2.16666667,11.7434634 L5.63333333,11.7434634 C5.87253333,11.7434634 6.06666667,11.9401463 6.06666667,12.1824878 L6.06666667,17.4507805 C6.06666667,17.693561 5.87253333,17.8898049 5.63333333,17.8898049 L5.63333333,17.8898049 Z M2.6,17.0117561 L5.2,17.0117561 L5.2,12.6215122 L2.6,12.6215122 L2.6,17.0117561 Z" id="Fill-2" sketch:type="MSShapeGroup"></path>
                <path d="M11.7,17.8898049 L8.23333333,17.8898049 C7.99413333,17.8898049 7.8,17.693561 7.8,17.4507805 L7.8,6.03614634 C7.8,5.79380488 7.99413333,5.59712195 8.23333333,5.59712195 L11.7,5.59712195 C11.9392,5.59712195 12.1333333,5.79380488 12.1333333,6.03614634 L12.1333333,17.4507805 C12.1333333,17.693561 11.9392,17.8898049 11.7,17.8898049 L11.7,17.8898049 Z M8.66666667,17.0117561 L11.2666667,17.0117561 L11.2666667,6.47517073 L8.66666667,6.47517073 L8.66666667,17.0117561 Z" id="Fill-3" sketch:type="MSShapeGroup"></path>
                <path d="M17.7666667,17.8898049 L14.3,17.8898049 C14.0608,17.8898049 13.8666667,17.693561 13.8666667,17.4507805 L13.8666667,8.67029268 C13.8666667,8.42795122 14.0608,8.23126829 14.3,8.23126829 L17.7666667,8.23126829 C18.0058667,8.23126829 18.2,8.42795122 18.2,8.67029268 L18.2,17.4507805 C18.2,17.693561 18.0058667,17.8898049 17.7666667,17.8898049 L17.7666667,17.8898049 Z M14.7333333,17.0117561 L17.3333333,17.0117561 L17.3333333,9.10931707 L14.7333333,9.10931707 L14.7333333,17.0117561 Z" id="Fill-4" sketch:type="MSShapeGroup"></path>
                <path d="M23.8333333,17.8898049 L20.3666667,17.8898049 C20.1274667,17.8898049 19.9333333,17.693561 19.9333333,17.4507805 L19.9333333,0.767853659 C19.9333333,0.525512195 20.1274667,0.328829268 20.3666667,0.328829268 L23.8333333,0.328829268 C24.0725333,0.328829268 24.2666667,0.525512195 24.2666667,0.767853659 L24.2666667,17.4507805 C24.2666667,17.693561 24.0725333,17.8898049 23.8333333,17.8898049 L23.8333333,17.8898049 Z M20.8,17.0117561 L23.4,17.0117561 L23.4,1.20687805 L20.8,1.20687805 L20.8,17.0117561 Z" id="Fill-5" sketch:type="MSShapeGroup"></path>
            </g>
        </g>
    </g>
</svg>