<?xml version="1.0" encoding="UTF-8" standalone="no"?>
<svg width="46px" height="46px" viewBox="0 0 46 46" version="1.1" xmlns="http://www.w3.org/2000/svg" xmlns:xlink="http://www.w3.org/1999/xlink" xmlns:sketch="http://www.bohemiancoding.com/sketch/ns">
    <!-- Generator: Sketch 3.3 (11970) - http://www.bohemiancoding.com/sketch -->
    <title>smart-search</title>
    <desc>Created with Sketch.</desc>
    <defs></defs>
    <g id="Page-1" stroke="none" stroke-width="1" fill="none" fill-rule="evenodd" sketch:type="MSPage">
        <g id="smart-search" sketch:type="MSArtboardGroup" fill="#000000">
            <g id="Imported-Layers" sketch:type="MSLayerGroup" transform="translate(9.000000, 13.000000)">
                <path d="M1.46131707,1.5631 L20.4747073,1.5631 L20.4747073,3.3131 L21.7485854,3.3131 L21.7485854,0.3038 L0.188853659,0.3038 L0.188853659,13.23 L10.9110732,13.23 L10.9110732,11.97 L1.46131707,11.97 L1.46131707,1.5631" id="Fill-1" sketch:type="MSShapeGroup"></path>
                <path d="M28.3867561,19.5601 L23.4086585,14.6832 C24.3932439,13.5387 24.9916341,12.0589 24.9916341,10.4412 C24.9916341,6.8264 22.0194878,3.885 18.3661951,3.885 C14.7136098,3.885 11.7414634,6.8264 11.7414634,10.4412 C11.7414634,14.056 14.7136098,16.9974 18.3661951,16.9974 C19.9272439,16.9974 21.3609756,16.457 22.4948049,15.5603 L27.4912927,20.4561 L28.3867561,19.5601 L28.3867561,19.5601 Z M13.0146341,10.4412 C13.0146341,7.5208 15.4152683,5.145 18.3661951,5.145 C21.317122,5.145 23.7177561,7.5208 23.7177561,10.4412 C23.7177561,13.3616 21.317122,15.7367 18.3661951,15.7367 C15.4152683,15.7367 13.0146341,13.3616 13.0146341,10.4412 L13.0146341,10.4412 Z" id="Fill-2" sketch:type="MSShapeGroup"></path>
            </g>
        </g>
    </g>
</svg>