<?xml version="1.0" encoding="utf-8"?>
<!-- Generator: Adobe Illustrator 18.1.1, SVG Export Plug-In . SVG Version: 6.00 Build 0)  -->
<svg version="1.1" id="Layer_1" xmlns:sketch="http://www.bohemiancoding.com/sketch/ns"
	 xmlns="http://www.w3.org/2000/svg" xmlns:xlink="http://www.w3.org/1999/xlink" x="0px" y="0px" width="100px" height="100px"
	 viewBox="-1389 851 100 100" enable-background="new -1389 851 100 100" xml:space="preserve">
<g id="Page-1" sketch:type="MSPage">
	<g id="icon_star-filled" sketch:type="MSArtboardGroup">
		<polygon class='fill' fill='currentColor' sketch:type="MSShapeGroup" points="-1339.5,924.2 -1367.7,945.5 -1356.3,911.6 -1383.9,889.5 -1351.1,889.5 
			-1339.5,855.9 -1327.9,889.5 -1295.1,889.5 -1322.7,911.6 -1310.3,945.5 		">
		</polygon>
		<path id="outer-path" fill='currentColor' sketch:type="MSShapeGroup" d="M-1339.2,862.5l10.3,29.1h28.5l-23.7,18.7l10.1,30.2l-25.1-18.4l-25.1,18.4
			l10.1-30.2l-23.7-18.7h28.5L-1339.2,862.5 M-1339.2,851c-0.9,0-1.7,0.6-2,1.4l-12,34h-33.8c-0.9,0-1.7,0.6-2,1.4
			c-0.3,0.8,0,1.8,0.7,2.3l27.9,22l-12,36.1c-0.3,0.9,0,1.8,0.7,2.3c0.4,0.3,0.8,0.4,1.2,0.4c0.4,0,0.9-0.1,1.2-0.4l29.9-22l29.9,22
			c0.4,0.3,0.8,0.4,1.2,0.4s0.9-0.1,1.2-0.4c0.7-0.5,1-1.5,0.7-2.3l-12-36.1l27.9-22c0.7-0.6,1-1.5,0.7-2.3c-0.3-0.8-1.1-1.4-2-1.4
			h-33.8l-12-34C-1337.5,851.6-1338.3,851-1339.2,851"/>
	</g>
</g>
</svg>
