<?xml version="1.0" encoding="UTF-8" standalone="no"?>
<svg width="46px" height="46px" viewBox="0 0 46 46" version="1.1" xmlns="http://www.w3.org/2000/svg" xmlns:xlink="http://www.w3.org/1999/xlink" xmlns:sketch="http://www.bohemiancoding.com/sketch/ns">
    <!-- Generator: Sketch 3.3 (11970) - http://www.bohemiancoding.com/sketch -->
    <title>industry</title>
    <desc>Created with Sketch.</desc>
    <defs></defs>
    <g id="Page-1" stroke="none" stroke-width="1" fill="none" fill-rule="evenodd" sketch:type="MSPage">
        <g id="industry" sketch:type="MSArtboardGroup" fill="#000000">
            <path d="M45.0982647,12.7614182 C45.0982647,11.3305455 44.0307941,10.1670545 42.7184412,10.1670545 L33.0787353,10.1670545 L33.0787353,7.80829091 C33.0787353,5.70792727 31.4058235,4 29.3500294,4 L15.7482353,4 C13.6924412,4 12.0188529,5.70792727 12.0188529,7.80829091 L12.0188529,10.1670545 L2.37982353,10.1670545 C1.06747059,10.1670545 0,11.3305455 0,12.7614182 L0,39.0035273 C0,40.4350909 1.06747059,41.5985818 2.37982353,41.5985818 L42.7184412,41.5985818 C44.0307941,41.5985818 45.0982647,40.4350909 45.0982647,39.0035273 L45.0982647,16.6284364 L45.0881176,16.6443273 L45.0982647,12.7614182 L45.0982647,12.7614182 Z M14.5921471,7.80829091 C14.5921471,7.15745455 15.1103235,6.62752727 15.7482353,6.62752727 L29.3500294,6.62752727 C29.9879412,6.62752727 30.5061176,7.15676364 30.5061176,7.80829091 L30.5061176,10.1670545 L14.5921471,10.1670545 L14.5921471,7.80829091 L14.5921471,7.80829091 Z M2.58208824,12.7945818 L42.5249706,12.7945818 L42.5073824,19.6822545 C42.5073824,20.8858182 41.2890588,21.9816 39.9516765,21.9816 L27.9835588,21.9816 C27.6399118,20.758 26.5338824,19.8605091 25.2269412,19.8605091 L20.0350294,19.8605091 C18.7274118,19.8605091 17.6207059,20.7586909 17.2763824,21.9816 L5.14591176,21.9816 C3.979,21.9816 2.80329412,21.0827273 2.57329412,20.0353091 L2.58208824,12.7945818 L2.58208824,12.7945818 Z M19.7380588,24.6105091 L19.7380588,22.7899636 C19.7380588,22.6234545 19.872,22.4887273 20.0350294,22.4887273 L25.2269412,22.4887273 C25.3899706,22.4887273 25.5218824,22.6234545 25.5218824,22.7899636 L25.5218824,25.1169455 C25.5218824,25.2834545 25.3892941,25.4188727 25.2269412,25.4188727 L20.0350294,25.4188727 C19.872,25.4188727 19.7380588,25.2834545 19.7380588,25.1169455 L19.7380588,24.6105091 L19.7380588,24.6105091 Z M42.5161765,38.9703636 L2.57329412,38.9703636 L2.57329412,24.0018182 C3.09417647,24.2581455 3.65294118,24.4301818 4.22591176,24.5248364 C4.22726471,24.5255273 4.22929412,24.5255273 4.23064706,24.5262182 C4.35511765,24.5462545 4.47891176,24.5656 4.60473529,24.5773455 C4.78332353,24.5973818 4.96394118,24.6098182 5.14591176,24.6098182 L17.1647647,24.6098182 L17.1647647,25.1162545 C17.1647647,26.7316 18.4520882,28.0457091 20.0343529,28.0457091 L25.2262647,28.0457091 C26.8085294,28.0457091 28.0945,26.7316 28.0945,25.1162545 L28.0945,24.6098182 L39.9516765,24.6098182 C40.1451471,24.6098182 40.3359118,24.5966909 40.5246471,24.5752727 C40.6552059,24.5621455 40.7844118,24.5386545 40.9136176,24.5165455 C40.94,24.5110182 40.9670588,24.5068727 40.9934412,24.5020364 C41.5244706,24.4011636 42.0406176,24.2339636 42.5236176,23.9914545 L42.5161765,38.9703636 L42.5161765,38.9703636 Z" id="Imported-Layers" sketch:type="MSShapeGroup"></path>
        </g>
    </g>
</svg>