<?xml version="1.0" encoding="UTF-8" standalone="no"?>
<svg width="46px" height="46px" viewBox="0 0 46 46" version="1.1" xmlns="http://www.w3.org/2000/svg" xmlns:xlink="http://www.w3.org/1999/xlink" xmlns:sketch="http://www.bohemiancoding.com/sketch/ns">
    <!-- Generator: Sketch 3.3 (11970) - http://www.bohemiancoding.com/sketch -->
    <title>Email</title>
    <desc>Created with Sketch.</desc>
    <defs></defs>
    <g id="Page-1" stroke="none" stroke-width="1" fill="none" fill-rule="evenodd" sketch:type="MSPage">
        <g id="Email" sketch:type="MSArtboardGroup" fill="#000000">
            <g id="Imported-Layers" sketch:type="MSLayerGroup" transform="translate(0.000000, 6.000000)">
                <path d="M45.3683478,2.025375 L23.6786087,19.37925 C23.4866087,19.531875 23.2528696,19.6081875 23.0212174,19.6081875 C22.7895652,19.6081875 22.5558261,19.531875 22.3638261,19.37925 L0.674086957,2.025375 C0.29426087,2.6461875 0.0646956522,3.3639375 0.0646956522,4.1394375 L0.0646956522,26.8269375 C0.0646956522,29.101875 1.93669565,30.9519375 4.2386087,30.9519375 L41.8038261,30.9519375 C44.1057391,30.9519375 45.9777391,29.101875 45.9777391,26.8269375 L45.9777391,4.1394375 C45.9777391,3.3639375 45.746087,2.6461875 45.3683478,2.025375" id="Fill-1" sketch:type="MSShapeGroup"></path>
                <path d="M43.8636522,0.573375 C43.2542609,0.226875 42.5572174,0.0144375 41.8038261,0.0144375 L4.2386087,0.0144375 C3.48521739,0.0144375 2.78817391,0.226875 2.17669565,0.573375 L23.0212174,17.25075 L43.8636522,0.573375" id="Fill-2" sketch:type="MSShapeGroup"></path>
            </g>
        </g>
    </g>
</svg>