<?xml version="1.0" encoding="UTF-8" standalone="no"?>
<svg width="46px" height="46px" viewBox="0 0 46 46" version="1.1" xmlns="http://www.w3.org/2000/svg" xmlns:xlink="http://www.w3.org/1999/xlink" xmlns:sketch="http://www.bohemiancoding.com/sketch/ns">
    <!-- Generator: Sketch 3.3 (11970) - http://www.bohemiancoding.com/sketch -->
    <title>Change Centers</title>
    <desc>Created with Sketch.</desc>
    <defs></defs>
    <g id="Page-1" stroke="none" stroke-width="1" fill="none" fill-rule="evenodd" sketch:type="MSPage">
        <g id="Change-Centers" sketch:type="MSArtboardGroup" fill="#231F1F">
            <g id="Imported-Layers" sketch:type="MSLayerGroup" transform="translate(8.000000, 11.000000)">
                <path d="M19.0579367,20.1976 C19.0512658,20.1976 19.0442025,20.1976 19.0375316,20.1972 C18.9143165,20.1908 18.8009114,20.1252 18.7322405,20.0208 L17.7818354,18.5772 C17.6613671,18.3936 17.7092405,18.1452 17.888962,18.0224 C18.0686835,17.898 18.3131519,17.948 18.4336203,18.1312 L19.0920759,19.1316 L19.8498101,18.2072 C19.9879367,18.0376 20.2359367,18.014 20.4023165,18.1564 C20.5686962,18.2976 20.5914557,18.55 20.4521519,18.7196 L19.3593038,20.054 C19.2843544,20.1452 19.1740886,20.1976 19.0579367,20.1976" id="Fill-1" sketch:type="MSShapeGroup"></path>
                <path d="M28.4379873,19.0424 C28.3626456,19.0424 28.2869114,19.0208 28.2194177,18.9748 C28.0396962,18.8516 27.9918228,18.6032 28.1126835,18.4196 L29.0626962,16.9764 C29.1313671,16.872 29.2447722,16.8064 29.3679873,16.7996 C29.4896329,16.7892 29.6104937,16.846 29.6897595,16.9428 L30.7826076,18.2772 C30.9219114,18.4468 30.8991519,18.6992 30.7327722,18.8408 C30.5663924,18.9828 30.3187848,18.9592 30.1802658,18.79 L29.4225316,17.8652 L28.7640759,18.8656 C28.6883418,18.9804 28.5643418,19.0424 28.4379873,19.0424" id="Fill-2" sketch:type="MSShapeGroup"></path>
                <path d="M24.2357215,23.8116 C22.7952025,23.8116 21.402557,23.2392 20.3450253,22.176 C20.1904177,22.0212 20.1888481,21.768 20.3411013,21.6104 C20.4933544,21.4536 20.7413544,21.4516 20.895962,21.6068 C22.0743544,22.7912 23.7377595,23.2656 25.3458354,22.8788 C27.7791392,22.2924 29.4539241,19.7468 29.0030506,17.3204 C28.9630253,17.1032 29.1027215,16.8936 29.3154051,16.8528 C29.5316203,16.8128 29.7337089,16.9544 29.7741266,17.1712 C30.3097595,20.0544 28.4042405,22.964 25.5267342,23.6576 C25.0970506,23.7608 24.6642278,23.8116 24.2357215,23.8116" id="Fill-3" sketch:type="MSShapeGroup"></path>
                <path d="M19.0897215,20.0832 C18.9170633,20.0832 18.7585316,19.9656 18.711443,19.7872 C18.3186456,18.2988 18.5368228,16.7372 19.3259494,15.3892 C20.1370506,14.0032 21.4653418,13.0004 22.9702152,12.6376 C24.9667722,12.158 27.0500506,12.8308 28.4101266,14.3968 C28.5541392,14.5624 28.5388354,14.8152 28.3763797,14.9616 C28.2143165,15.1076 27.9671013,15.0924 27.8223038,14.9272 C26.6541139,13.582 24.863962,13.0024 23.1511139,13.4164 C21.8514684,13.7292 20.7028987,14.5976 19.9997089,15.7992 C19.3204557,16.9592 19.1321013,18.302 19.4691772,19.5792 C19.5256835,19.7924 19.4012911,20.012 19.1921392,20.0696 C19.158,20.0788 19.1234684,20.0832 19.0897215,20.0832" id="Fill-4" sketch:type="MSShapeGroup"></path>
                <path d="M8.84677215,15.8668 L7.92422785,15.8668 C7.70762025,15.8668 7.53182278,16.0456 7.53182278,16.2668 C7.53182278,16.488 7.70762025,16.6668 7.92422785,16.6668 L8.84677215,16.6668 C9.06377215,16.6668 9.23917722,16.488 9.23917722,16.2668 C9.23917722,16.0456 9.06377215,15.8668 8.84677215,15.8668" id="Fill-5" sketch:type="MSShapeGroup"></path>
                <path d="M6.07913924,13.9864 L5.15698734,13.9864 C4.93998734,13.9864 4.76458228,14.1652 4.76458228,14.3864 C4.76458228,14.6076 4.93998734,14.7864 5.15698734,14.7864 L6.07913924,14.7864 C6.29613924,14.7864 6.4715443,14.6076 6.4715443,14.3864 C6.4715443,14.1652 6.29613924,13.9864 6.07913924,13.9864" id="Fill-6" sketch:type="MSShapeGroup"></path>
                <path d="M8.84677215,13.9864 L7.92422785,13.9864 C7.70762025,13.9864 7.53182278,14.1652 7.53182278,14.3864 C7.53182278,14.6076 7.70762025,14.7864 7.92422785,14.7864 L8.84677215,14.7864 C9.06377215,14.7864 9.23917722,14.6076 9.23917722,14.3864 C9.23917722,14.1652 9.06377215,13.9864 8.84677215,13.9864" id="Fill-7" sketch:type="MSShapeGroup"></path>
                <path d="M3.31189873,15.8668 L2.38974684,15.8668 C2.17274684,15.8668 1.99734177,16.0456 1.99734177,16.2668 C1.99734177,16.488 2.17274684,16.6668 2.38974684,16.6668 L3.31189873,16.6668 C3.52889873,16.6668 3.7043038,16.488 3.7043038,16.2668 C3.7043038,16.0456 3.52889873,15.8668 3.31189873,15.8668" id="Fill-8" sketch:type="MSShapeGroup"></path>
                <path d="M3.31189873,13.9864 L2.38974684,13.9864 C2.17274684,13.9864 1.99734177,14.1652 1.99734177,14.3864 C1.99734177,14.6076 2.17274684,14.7864 2.38974684,14.7864 L3.31189873,14.7864 C3.52889873,14.7864 3.7043038,14.6076 3.7043038,14.3864 C3.7043038,14.1652 3.52889873,13.9864 3.31189873,13.9864" id="Fill-9" sketch:type="MSShapeGroup"></path>
                <path d="M6.07913924,15.8668 L5.15698734,15.8668 C4.93998734,15.8668 4.76458228,16.0456 4.76458228,16.2668 C4.76458228,16.488 4.93998734,16.6668 5.15698734,16.6668 L6.07913924,16.6668 C6.29613924,16.6668 6.4715443,16.488 6.4715443,16.2668 C6.4715443,16.0456 6.29613924,15.8668 6.07913924,15.8668" id="Fill-10" sketch:type="MSShapeGroup"></path>
                <path d="M11.6140127,4.5604 L18.9935823,4.5604 C19.2105823,4.5604 19.3859873,4.3816 19.3859873,4.1604 C19.3859873,3.9396 19.2105823,3.7604 18.9935823,3.7604 L11.6140127,3.7604 C11.3970127,3.7604 11.2216076,3.9396 11.2216076,4.1604 C11.2216076,4.3816 11.3970127,4.5604 11.6140127,4.5604" id="Fill-11" sketch:type="MSShapeGroup"></path>
                <path d="M11.6140127,7.5872 L18.9935823,7.5872 C19.2105823,7.5872 19.3859873,7.4084 19.3859873,7.1872 C19.3859873,6.966 19.2105823,6.7872 18.9935823,6.7872 L11.6140127,6.7872 C11.3970127,6.7872 11.2216076,6.966 11.2216076,7.1872 C11.2216076,7.4084 11.3970127,7.5872 11.6140127,7.5872" id="Fill-12" sketch:type="MSShapeGroup"></path>
                <path d="M11.6140127,15.8668 L10.6914684,15.8668 C10.4744684,15.8668 10.2990633,16.0456 10.2990633,16.2668 C10.2990633,16.488 10.4744684,16.6668 10.6914684,16.6668 L11.6140127,16.6668 C11.8306203,16.6668 12.0064177,16.488 12.0064177,16.2668 C12.0064177,16.0456 11.8306203,15.8668 11.6140127,15.8668" id="Fill-13" sketch:type="MSShapeGroup"></path>
                <path d="M11.6140127,10.6136 L18.9935823,10.6136 C19.2105823,10.6136 19.3859873,10.4348 19.3859873,10.2136 C19.3859873,9.9924 19.2105823,9.8136 18.9935823,9.8136 L11.6140127,9.8136 C11.3970127,9.8136 11.2216076,9.9924 11.2216076,10.2136 C11.2216076,10.4348 11.3970127,10.6136 11.6140127,10.6136" id="Fill-14" sketch:type="MSShapeGroup"></path>
                <path d="M11.6140127,13.9864 L10.6914684,13.9864 C10.4744684,13.9864 10.2990633,14.1652 10.2990633,14.3864 C10.2990633,14.6076 10.4744684,14.7864 10.6914684,14.7864 L11.6140127,14.7864 C11.8306203,14.7864 12.0064177,14.6076 12.0064177,14.3864 C12.0064177,14.1652 11.8306203,13.9864 11.6140127,13.9864" id="Fill-15" sketch:type="MSShapeGroup"></path>
                <path d="M17.1571266,19.628 L13.8515063,19.628 L13.8515063,16.6668 L17.1571266,16.6668 C17.2112785,16.394 17.2826962,16.128 17.3651013,15.8668 L13.8515063,15.8668 L13.8515063,13.6404 L18.5168101,13.6404 C18.7169367,13.374 18.9288354,13.118 19.1615316,12.882 C19.110519,12.8568 19.0544051,12.8404 18.9935823,12.8404 L13.7027848,12.8404 C13.485,12.4064 13.0466835,12.1056 12.5361646,12.1056 L9.23917722,12.1056 L9.23917722,1.6708 C9.23917722,1.3728 9.47658228,1.1304 9.76892405,1.1304 L20.8382785,1.1304 C21.1310127,1.1304 21.3684177,1.3728 21.3684177,1.6708 L21.3684177,11.3516 C21.6230886,11.2376 21.884038,11.1352 22.1532278,11.0508 L22.1532278,1.6708 C22.1532278,0.9316 21.563443,0.3304 20.8382785,0.3304 L9.76892405,0.3304 C9.0441519,0.3304 8.45436709,0.9316 8.45436709,1.6708 L8.45436709,12.1056 L1.46681013,12.1056 C0.742037975,12.1056 0.152253165,12.7068 0.152253165,13.4456 L0.152253165,20.028 C0.152253165,20.2492 0.327658228,20.428 0.544658228,20.428 L17.3651013,20.428 C17.2826962,20.1672 17.2112785,19.9008 17.1571266,19.628 L17.1571266,19.628 Z M6.01046835,18.5472 L7.99289873,18.5472 L7.99289873,19.628 L6.01046835,19.628 L6.01046835,18.5472 Z M13.0666962,19.628 L8.77770886,19.628 L8.77770886,18.1472 C8.77770886,17.926 8.6023038,17.7472 8.3853038,17.7472 L5.61806329,17.7472 C5.40106329,17.7472 5.22565823,17.926 5.22565823,18.1472 L5.22565823,19.628 L0.937063291,19.628 L0.937063291,13.4456 C0.937063291,13.1476 1.17446835,12.9056 1.46681013,12.9056 L12.5361646,12.9056 C12.8285063,12.9056 13.0666962,13.1476 13.0666962,13.4456 L13.0666962,19.628 L13.0666962,19.628 Z" id="Fill-16" sketch:type="MSShapeGroup"></path>
            </g>
        </g>
    </g>
</svg>