<?xml version="1.0" encoding="UTF-8" standalone="no"?>
<svg width="46px" height="46px" viewBox="0 0 46 46" version="1.1" xmlns="http://www.w3.org/2000/svg" xmlns:xlink="http://www.w3.org/1999/xlink" xmlns:sketch="http://www.bohemiancoding.com/sketch/ns">
    <!-- Generator: Sketch 3.3 (11970) - http://www.bohemiancoding.com/sketch -->
    <title>future-of-work</title>
    <desc>Created with Sketch.</desc>
    <defs></defs>
    <g id="Page-1" stroke="none" stroke-width="1" fill="none" fill-rule="evenodd" sketch:type="MSPage">
        <g id="future-of-work" sketch:type="MSArtboardGroup" fill="#231F1F">
            <g id="Imported-Layers" sketch:type="MSLayerGroup" transform="translate(15.000000, 9.000000)">
                <path d="M15.0715897,26.8889016 L6.35364103,26.8889016 C6.21066667,26.8889016 6.07641026,26.8176393 5.99533333,26.6981311 L1.428,20.0012459 C1.05051282,19.4156557 0.853923077,18.4325902 1.22007692,17.7443115 C1.45023077,17.3127541 1.85953846,17.074623 2.37215385,17.074623 C3.54297436,17.074623 4.31625641,17.3468361 5.94738462,19.6821148 L5.91774359,9.18531148 C5.91774359,8.04644262 6.97697436,6.97086885 8.09723077,6.97086885 C9.25802564,6.97086885 10.2767179,8.00483607 10.2767179,9.18398361 L10.2767179,15.5006557 L15.1557179,17.0958689 C16.5109231,17.5371639 16.8147436,19.1213115 16.5235641,20.4066885 L15.5013846,26.5206393 C15.4660769,26.7330984 15.2838718,26.8889016 15.0715897,26.8889016 L15.0715897,26.8889016 Z M6.58205128,26.0036557 L14.7032564,26.0036557 L15.6687692,20.2331803 C15.8788718,19.305 15.720641,18.2095082 14.8885128,17.938623 L9.707,16.2447049 C9.52697436,16.1858361 9.40492308,16.0154262 9.40492308,15.8233279 L9.40492308,9.18398361 C9.40492308,8.50145902 8.76938462,7.85611475 8.09723077,7.85611475 C7.44948718,7.85611475 6.78953846,8.5262459 6.78953846,9.18398361 L6.82266667,21.1334754 C6.82310256,21.3295574 6.69625641,21.5030656 6.511,21.5592787 C6.32487179,21.6146066 6.12610256,21.5406885 6.02105128,21.3755902 C3.83807692,17.9598689 3.22302564,17.9598689 2.37215385,17.9598689 C2.12805128,17.9598689 2.03825641,18.070082 1.98725641,18.1656885 C1.8185641,18.4826066 1.89528205,19.1093607 2.15115385,19.5068361 L6.58205128,26.0036557 L6.58205128,26.0036557 Z" id="Fill-1" sketch:type="MSShapeGroup"></path>
                <path d="M13.5934615,14.5547705 C13.4818718,14.5547705 13.3702821,14.5113934 13.2848462,14.425082 C13.1148462,14.2520164 13.1148462,13.9718361 13.2848462,13.7992131 C14.6561795,12.4071639 15.4115897,10.5561148 15.4115897,8.58732787 C15.4115897,6.61898361 14.6561795,4.76793443 13.2848462,3.37544262 C11.9143846,1.98339344 10.0914615,1.21677049 8.15258974,1.21677049 C6.21371795,1.21677049 4.39079487,1.98339344 3.01989744,3.37544262 C1.6485641,4.7674918 0.894025641,6.61854098 0.894025641,8.58732787 C0.894025641,10.5565574 1.6485641,12.4071639 3.01989744,13.7992131 C3.18989744,13.9718361 3.18989744,14.2520164 3.01989744,14.425082 C2.84946154,14.5977049 2.57353846,14.5977049 2.40353846,14.425082 C0.867435897,12.8657213 0.0222307692,10.792918 0.0222307692,8.58732787 C0.0222307692,6.38218033 0.867435897,4.30893443 2.40353846,2.74957377 C3.93876923,1.19021311 5.98051282,0.33152459 8.15215385,0.33152459 L8.15258974,0.33152459 C10.3242308,0.33152459 12.3659744,1.19065574 13.901641,2.74957377 C15.4373077,4.30893443 16.2833846,6.38218033 16.2833846,8.58732787 C16.2833846,10.792918 15.4373077,12.8657213 13.901641,14.425082 C13.8162051,14.5113934 13.7046154,14.5547705 13.5934615,14.5547705" id="Fill-2" sketch:type="MSShapeGroup"></path>
                <path d="M13.5934615,14.5547705 C13.4818718,14.5547705 13.3702821,14.5113934 13.2848462,14.425082 C13.1148462,14.2520164 13.1148462,13.9718361 13.2848462,13.7992131 C14.6561795,12.4071639 15.4115897,10.5561148 15.4115897,8.58732787 C15.4115897,6.61898361 14.6561795,4.76793443 13.2848462,3.37544262 C11.9143846,1.98339344 10.0914615,1.21677049 8.15258974,1.21677049 C6.21371795,1.21677049 4.39079487,1.98339344 3.01989744,3.37544262 C1.6485641,4.7674918 0.894025641,6.61854098 0.894025641,8.58732787 C0.894025641,10.5565574 1.6485641,12.4071639 3.01989744,13.7992131 C3.18989744,13.9718361 3.18989744,14.2520164 3.01989744,14.425082 C2.84946154,14.5977049 2.57353846,14.5977049 2.40353846,14.425082 C0.867435897,12.8657213 0.0222307692,10.792918 0.0222307692,8.58732787 C0.0222307692,6.38218033 0.867435897,4.30893443 2.40353846,2.74957377 C3.93876923,1.19021311 5.98051282,0.33152459 8.15215385,0.33152459 L8.15258974,0.33152459 C10.3242308,0.33152459 12.3659744,1.19065574 13.901641,2.74957377 C15.4373077,4.30893443 16.2833846,6.38218033 16.2833846,8.58732787 C16.2833846,10.792918 15.4373077,12.8657213 13.901641,14.425082 C13.8162051,14.5113934 13.7046154,14.5547705 13.5934615,14.5547705" id="Fill-3" sketch:type="MSShapeGroup"></path>
                <path d="M4.31974359,12.9219344 C4.20815385,12.9219344 4.0965641,12.8785574 4.0115641,12.7922459 C2.90525641,11.6693115 2.29587179,10.1759016 2.29587179,8.58732787 C2.29587179,6.9987541 2.90525641,5.50534426 4.0115641,4.38240984 C6.29392308,2.06395082 10.0095128,2.06395082 12.2936154,4.38240984 C13.3999231,5.50578689 14.0093077,6.99919672 14.0093077,8.58732787 C14.0093077,10.1759016 13.3999231,11.6693115 12.2936154,12.7922459 C12.1231795,12.9653115 11.8476923,12.9653115 11.6772564,12.7922459 C11.5068205,12.6191803 11.5068205,12.339 11.6772564,12.166377 C12.6187949,11.2103115 13.1375128,9.93954098 13.1375128,8.58732787 C13.1375128,7.23555738 12.6187949,5.96434426 11.6772564,5.00827869 C9.73402564,3.03506557 6.57115385,3.03462295 4.62792308,5.00827869 C3.68638462,5.96434426 3.16766667,7.23555738 3.16766667,8.58732787 C3.16766667,9.93954098 3.68638462,11.2103115 4.62792308,12.166377 C4.79835897,12.339 4.79835897,12.6191803 4.62792308,12.7922459 C4.54292308,12.8785574 4.43133333,12.9219344 4.31974359,12.9219344" id="Fill-4" sketch:type="MSShapeGroup"></path>
            </g>
        </g>
    </g>
</svg>