<?xml version="1.0" encoding="UTF-8" standalone="no"?>
<svg width="46px" height="46px" viewBox="0 0 46 46" version="1.1" xmlns="http://www.w3.org/2000/svg" xmlns:xlink="http://www.w3.org/1999/xlink" xmlns:sketch="http://www.bohemiancoding.com/sketch/ns">
    <!-- Generator: Sketch 3.3 (11970) - http://www.bohemiancoding.com/sketch -->
    <title>Value Webs</title>
    <desc>Created with Sketch.</desc>
    <defs></defs>
    <g id="Page-1" stroke="none" stroke-width="1" fill="none" fill-rule="evenodd" sketch:type="MSPage">
        <g id="Value-Webs" sketch:type="MSArtboardGroup">
            <g id="Imported-Layers" sketch:type="MSLayerGroup" transform="translate(4.000000, 13.000000)">
                <path d="M18.8244948,13.5392308 C18.6078557,13.5392308 18.4327423,13.3673077 18.4327423,13.1546154 L18.4327423,7.80961538 C18.4327423,7.59692308 18.6078557,7.425 18.8244948,7.425 C19.041134,7.425 19.2162474,7.59692308 19.2162474,7.80961538 L19.2162474,13.1546154 C19.2162474,13.3673077 19.041134,13.5392308 18.8244948,13.5392308" id="Fill-1" fill="#000000" sketch:type="MSShapeGroup"></path>
                <path d="M18.8244948,12.8715385 C18.045299,12.8715385 17.4118351,12.2492308 17.4118351,11.4842308 C17.4118351,11.2719231 17.5873402,11.0996154 17.8035876,11.0996154 C18.0202268,11.0996154 18.1953402,11.2719231 18.1953402,11.4842308 C18.1953402,11.825 18.4774021,12.1023077 18.8244948,12.1023077 C19.1715876,12.1023077 19.4532577,11.825 19.4532577,11.4842308 C19.4532577,11.1438462 19.1715876,10.8669231 18.8244948,10.8669231 C18.045299,10.8669231 17.4118351,10.245 17.4118351,9.48 C17.4118351,8.71538462 18.045299,8.09307692 18.8244948,8.09307692 C19.603299,8.09307692 20.2367629,8.71538462 20.2367629,9.48 C20.2367629,9.69269231 20.0616495,9.865 19.8450103,9.865 C19.6287629,9.865 19.4532577,9.69269231 19.4532577,9.48 C19.4532577,9.13961538 19.1715876,8.86230769 18.8244948,8.86230769 C18.4774021,8.86230769 18.1953402,9.13961538 18.1953402,9.48 C18.1953402,9.82076923 18.4774021,10.0976923 18.8244948,10.0976923 C19.603299,10.0976923 20.2367629,10.7196154 20.2367629,11.4842308 C20.2367629,12.2492308 19.603299,12.8715385 18.8244948,12.8715385" id="Fill-2" fill="#000000" sketch:type="MSShapeGroup"></path>
                <path d="M23.366866,10.4823077 C23.366866,10.6688462 23.3511959,10.8519231 23.3284742,11.0326923 C23.3633402,11.0065385 23.3974227,10.9788462 23.4330722,10.9530769 C23.5897732,10.8388462 23.7503918,10.7273077 23.9114021,10.6157692 L24.1488041,10.4496154 C24.133134,7.95307692 22.3267629,5.86692308 19.9292371,5.36807692 C19.8066186,5.36884615 19.680866,5.36923077 19.5441443,5.37 C19.4732371,5.37153846 19.384701,5.36269231 19.308701,5.34769231 C19.2354433,5.59153846 19.1081237,5.82076923 18.9428041,6.02884615 C21.392433,6.09115385 23.366866,8.06230769 23.366866,10.4823077" id="Fill-3" fill="#000000" sketch:type="MSShapeGroup"></path>
                <path d="M15.7868454,14.7711538 C16.2933814,14.7696154 16.6945361,14.7696154 17.0878557,14.77 C17.253567,14.7703846 17.4204536,14.7703846 17.590866,14.7703846 C15.6845979,14.2407692 14.2821237,12.5211538 14.2821237,10.4823077 C14.2821237,10.1180769 14.3318763,9.76538462 14.4161031,9.42615385 C14.3710515,9.45769231 14.3267835,9.49 14.2813402,9.52115385 L13.984,9.72923077 C13.8993814,9.78923077 13.8167216,9.85 13.7344536,9.91038462 C13.6631546,9.96269231 13.5918557,10.015 13.5201649,10.0665385 C13.5088041,10.2042308 13.4986186,10.3419231 13.4986186,10.4823077 C13.4986186,12.2569231 14.4059175,13.8253846 15.7868454,14.7711538" id="Fill-4" fill="#000000" sketch:type="MSShapeGroup"></path>
                <path d="M15.2278144,19.7565385 C14.7796495,19.7565385 14.3714433,19.66 14.0149485,19.47 C13.6897938,19.2969231 13.4210515,19.0111538 13.2381031,18.6438462 C13.1025567,18.3715385 12.9282268,17.9538462 12.9807216,17.4715385 C13.0230309,17.0776923 13.1393814,16.7396154 13.3266392,16.4661538 C13.4461237,16.2903846 13.6016495,16.1534615 13.7387629,16.0326923 L13.8178969,15.9623077 C14.099567,15.7073077 14.4623299,15.5807692 14.9265567,15.575 C15.0425155,15.5738462 15.157299,15.5665385 15.272866,15.5588462 C15.4115464,15.55 15.5502268,15.5411538 15.689299,15.5407692 C16.2463711,15.5388462 16.6718144,15.5388462 17.0878557,15.5392308 C17.5579588,15.5392308 18.0210103,15.5392308 18.6521237,15.5369231 L18.6536907,15.5369231 C18.8695464,15.5369231 19.0446598,15.7080769 19.0454433,15.92 C19.0462268,16.1319231 18.8718969,16.3053846 18.6552577,16.3061538 C18.0229691,16.3084615 17.5599175,16.3084615 17.0878557,16.3084615 C16.6694639,16.3076923 16.2475464,16.3080769 15.6916495,16.31 C15.5690309,16.3103846 15.4468041,16.3188462 15.3237938,16.3265385 C15.1945155,16.335 15.0648454,16.3426923 14.9351753,16.3442308 C14.666433,16.3473077 14.4858351,16.4042308 14.3483299,16.5284615 L14.2625361,16.6046154 C14.1493196,16.7046154 14.0427629,16.7988462 13.9773402,16.8946154 C13.8617732,17.0630769 13.7885155,17.285 13.7595258,17.5526923 C13.7364124,17.7692308 13.794,18.0088462 13.9420825,18.3057692 C14.0192577,18.4611538 14.1598969,18.6719231 14.3886804,18.7938462 C14.6296082,18.9223077 14.9116701,18.9873077 15.2278144,18.9873077 L15.2301649,18.9873077 C16.9276289,18.9846154 18.6258763,18.9838462 20.3221649,18.985 L22.4188247,18.985 C22.8250722,18.985 23.2567835,18.9780769 23.6794845,18.8923077 C24.0696701,18.8134615 24.4257732,18.6519231 24.7223299,18.5046154 C25.1642268,18.2842308 25.5998557,18.0111538 26.0209897,17.7469231 C26.4530928,17.4757692 26.8844124,17.1826923 27.3012371,16.8996154 L27.3705773,16.8523077 C27.5347216,16.7407692 27.695732,16.6261538 27.857134,16.5115385 C28.0483093,16.3753846 28.2394845,16.2396154 28.4341856,16.1096154 C28.7518969,15.8961538 29.0809691,15.6969231 29.3614639,15.53 C29.5843711,15.3969231 29.8883711,15.2419231 30.2648454,15.22 C30.4176289,15.2111538 30.5539588,15.2030769 30.6898969,15.2026923 L32.9836082,15.2019231 L32.9836082,10.1392308 L32.3172371,10.1396154 C31.5192371,10.1396154 30.7208454,10.14 29.9228454,10.1376923 C29.6928866,10.1369231 29.4488247,10.1246154 29.1961443,10.1011538 C29.0848866,10.0907692 28.9736289,10.0738462 28.8623711,10.0565385 C28.7240825,10.0353846 28.5932371,10.015 28.4710103,10.0115385 C28.1172577,10.0019231 27.7607629,10.0623077 27.3987835,10.1903846 C27.1927216,10.2638462 26.9905773,10.3776923 26.7766804,10.4992308 L26.6454433,10.5726923 C26.5639588,10.6180769 26.489134,10.6757692 26.4143093,10.7319231 C26.368866,10.7665385 26.3226392,10.8007692 26.2764124,10.8338462 L25.3977113,11.4580769 C25.3076082,11.5242308 25.2175052,11.5903846 25.1262268,11.6553846 C25.0220206,11.7288462 24.9178144,11.8015385 24.8136082,11.8734615 C24.6627835,11.9780769 24.5123505,12.0823077 24.3638763,12.19 C24.2635876,12.2634615 24.1652577,12.34 24.0673196,12.4165385 C23.9689897,12.4930769 23.8706598,12.57 23.7703711,12.6434615 C23.639134,12.74 23.5051546,12.8338462 23.3707835,12.9276923 L23.1184948,13.1057692 C23.0421031,13.1603846 22.9668866,13.2161538 22.8912784,13.2723077 C22.8125361,13.3303846 22.7334021,13.3892308 22.6538763,13.4461538 L22.2554639,13.7288462 C22.0638969,13.8642308 21.8727216,13.9992308 21.6831134,14.1373077 C21.5440412,14.2380769 21.4073196,14.3403846 21.2698144,14.4430769 C21.0645361,14.5961538 20.858866,14.75 20.6488866,14.8969231 C20.5090309,14.9953846 20.4142268,15.1173077 20.3828866,15.2396154 C20.2900412,15.6038462 20.3249072,15.9219231 20.486701,16.1823077 C20.6786598,16.4907692 20.8643505,16.6734615 21.0876495,16.7738462 C21.3293608,16.8830769 21.5730309,16.8930769 21.8116082,16.8061538 C21.9526392,16.7546154 22.0979794,16.6519231 22.2523299,16.5430769 C22.3083505,16.5030769 22.3643711,16.4638462 22.4211753,16.4257692 C22.5637732,16.33 22.7044124,16.23 22.8446598,16.1303846 C22.9888247,16.0280769 23.1325979,15.9261538 23.2787216,15.8273077 C23.7069072,15.5392308 24.1390103,15.2565385 24.5718969,14.9742308 C24.8437732,14.7969231 25.1783299,14.63 25.6010309,14.7353846 C25.6793814,14.7553846 25.7393196,14.7853846 25.7925979,14.8123077 L25.8525361,14.8415385 C26.0491959,14.9307692 26.1349897,15.1592308 26.0444948,15.3519231 C25.9536082,15.545 25.7216907,15.63 25.5242474,15.54 C25.4905567,15.5246154 25.461567,15.5103846 25.4353196,15.4969231 C25.420433,15.4892308 25.4067216,15.4823077 25.3937938,15.4769231 C25.303299,15.455 25.197134,15.4892308 25.005567,15.615 C24.5758144,15.895 24.1468454,16.1757692 23.7217938,16.4619231 C23.5807629,16.5569231 23.4424742,16.6553846 23.3041856,16.7534615 C23.1580619,16.8573077 23.0115464,16.9611538 22.8626804,17.0607692 C22.8117526,17.0953846 22.7612165,17.1311538 22.7102887,17.1673077 C22.5296907,17.295 22.3244124,17.44 22.0846598,17.5273077 C21.6505979,17.6861538 21.1926392,17.6673077 20.7613196,17.4734615 C20.2771134,17.2553846 19.9907423,16.8611538 19.8179794,16.5830769 C19.5464948,16.1461538 19.4791134,15.6165385 19.6232784,15.0519231 C19.7012371,14.7484615 19.8982887,14.4788462 20.1932784,14.2711538 C20.3969897,14.1284615 20.596,13.9796154 20.7954021,13.8307692 C20.9352577,13.7257692 21.0758969,13.6215385 21.2169278,13.5184615 C21.4092784,13.3792308 21.6035876,13.2423077 21.7975052,13.1046154 L22.192,12.825 C22.2683918,12.77 22.3436082,12.7142308 22.4196082,12.6580769 C22.4983505,12.6 22.5770928,12.5411538 22.6566186,12.4842308 L22.9163505,12.3011538 C23.0452371,12.2111538 23.1741237,12.1211538 23.3006598,12.0276923 C23.3954639,11.9584615 23.4875258,11.8861538 23.5791959,11.8146154 C23.6845773,11.7326923 23.7899588,11.6503846 23.8980825,11.5719231 C24.050866,11.4607692 24.206,11.3530769 24.3615258,11.2453846 L24.6674845,11.0319231 C24.7548454,10.9696154 24.8418144,10.9053846 24.9287835,10.8419231 L25.8184536,10.2092308 C25.8591959,10.1807692 25.8983711,10.1511538 25.9375464,10.1215385 C26.036268,10.0473077 26.1385155,9.97076923 26.2587835,9.90346154 L26.3857113,9.83230769 C26.6195876,9.7 26.8616907,9.56307692 27.1327835,9.46692308 C27.5883918,9.30538462 28.0498763,9.23076923 28.493732,9.24230769 C28.6668866,9.24769231 28.8278969,9.27269231 28.9838144,9.29692308 C29.0794021,9.31153846 29.1745979,9.32653846 29.2701856,9.33538462 C29.4993608,9.35653846 29.719134,9.36807692 29.9251959,9.36846154 C30.7224124,9.37076923 31.5196289,9.37038462 32.3168454,9.37038462 L33.1716495,9.37 C33.588866,9.37 33.7671134,9.54269231 33.7671134,9.94692308 L33.7671134,15.3746154 C33.7671134,15.7761538 33.5681031,15.9711538 33.1595052,15.9711538 L30.6918557,15.9719231 C30.5708041,15.9723077 30.4497526,15.9796154 30.328701,15.9869231 C30.1492784,15.9973077 29.9870928,16.0569231 29.7677113,16.1873077 C29.4966186,16.3492308 29.1781237,16.5419231 28.8756907,16.745 C28.686866,16.8711538 28.5019588,17.0026923 28.3170515,17.1342308 C28.1509485,17.2523077 27.9852371,17.3703846 27.8163918,17.4846154 L27.7470515,17.5319231 C27.3243505,17.8192308 26.8875464,18.1161538 26.4440825,18.3942308 C26.0057113,18.6696154 25.5536289,18.9530769 25.0764742,19.1907692 C24.7336907,19.3615385 24.318433,19.5488462 23.8377526,19.6457692 C23.3429691,19.7461538 22.8654227,19.7542308 22.4188247,19.7542308 L20.3221649,19.7542308 C18.6250928,19.7526923 16.9284124,19.7538462 15.2313402,19.7565385 L15.2278144,19.7565385" id="Fill-5" fill="#000000" sketch:type="MSShapeGroup"></path>
                <path id="Stroke-6" stroke="#000000" stroke-width="2" sketch:type="MSShapeGroup"></path>
                <path d="M37.472701,17.9892308 L33.3753608,17.9892308 C33.1591134,17.9892308 32.9836082,17.8169231 32.9836082,17.6042308 L32.9836082,8.74192308 C32.9836082,8.52923077 33.1591134,8.35730769 33.3753608,8.35730769 L37.472701,8.35730769 C37.6893402,8.35730769 37.8644536,8.52923077 37.8644536,8.74192308 L37.8644536,17.6042308 C37.8644536,17.8169231 37.6893402,17.9892308 37.472701,17.9892308 L37.472701,17.9892308 Z M33.7671134,17.22 L37.0809485,17.22 L37.0809485,9.12653846 L33.7671134,9.12653846 L33.7671134,17.22 Z" id="Fill-7" fill="#000000" sketch:type="MSShapeGroup"></path>
                <path d="M35.4242268,12.0392308 C34.8103505,12.0392308 34.3112577,11.5488462 34.3112577,10.9465385 C34.3112577,10.3442308 34.8103505,9.85384615 35.4242268,9.85384615 C36.0377113,9.85384615 36.5371959,10.3442308 36.5371959,10.9465385 C36.5371959,11.5488462 36.0377113,12.0392308 35.4242268,12.0392308 L35.4242268,12.0392308 Z M35.4242268,10.6230769 C35.2424536,10.6230769 35.0947629,10.7680769 35.0947629,10.9465385 C35.0947629,11.125 35.2424536,11.27 35.4242268,11.27 C35.606,11.27 35.7536907,11.125 35.7536907,10.9465385 C35.7536907,10.7680769 35.606,10.6230769 35.4242268,10.6230769 L35.4242268,10.6230769 Z" id="Fill-8" fill="#000000" sketch:type="MSShapeGroup"></path>
                <path d="M9.79694845,10.8957692 C9.76404124,10.8957692 9.73113402,10.8953846 9.69861856,10.8946154 C9.52585567,10.8896154 9.36406186,10.8646154 9.20775258,10.8403846 C9.11294845,10.8253846 9.01814433,10.8103846 8.9225567,10.8015385 C8.69338144,10.7803846 8.47360825,10.7692308 8.26793814,10.7684615 C7.47072165,10.7665385 6.6731134,10.7665385 5.87589691,10.7665385 L5.02109278,10.7669231 C4.60387629,10.7669231 4.42562887,10.5946154 4.42562887,10.19 L4.42562887,4.76269231 C4.42562887,4.36115385 4.62463918,4.16576923 5.03362887,4.16576923 L7.50127835,4.165 C7.62193814,4.16461538 7.74338144,4.15769231 7.86404124,4.15038462 C8.04307216,4.14038462 8.20525773,4.08038462 8.42503093,3.95 C8.69573196,3.78846154 9.01383505,3.59576923 9.3174433,3.39230769 C9.50665979,3.26576923 9.69156701,3.13384615 9.87686598,3.00230769 C10.0425773,2.88461538 10.2082887,2.76653846 10.3759588,2.65269231 L10.4456907,2.605 C10.8683918,2.31769231 11.3051959,2.02115385 11.7486598,1.74269231 C12.1870309,1.46730769 12.6395052,1.18384615 13.1166598,0.946538462 C13.4590515,0.775769231 13.8743093,0.588076923 14.3553814,0.491153846 C14.8497732,0.391153846 15.3273196,0.382692308 15.7743093,0.382692308 L17.8705773,0.382692308 C19.5676495,0.384230769 21.2643299,0.383076923 22.9614021,0.380384615 L22.9649278,0.380384615 C23.4134845,0.380384615 23.8216907,0.476923077 24.1777938,0.666923077 C24.503732,0.841153846 24.7720825,1.12730769 24.9546392,1.49423077 C25.0901856,1.76576923 25.2645155,2.18346154 25.2124124,2.66576923 C25.1697113,3.05923077 25.0533608,3.39730769 24.8664948,3.67076923 C24.7466186,3.84653846 24.5914845,3.98346154 24.4539794,4.10461538 L24.3752371,4.175 C24.0931753,4.43 23.7304124,4.55653846 23.2665773,4.56192308 C23.1517938,4.56346154 23.0374021,4.57115385 22.9226186,4.57807692 C22.7827629,4.58730769 22.643299,4.59576923 22.5034433,4.59615385 C21.932268,4.59807692 21.4993814,4.59807692 21.0731546,4.59807692 C20.6124536,4.59807692 20.1580206,4.59807692 19.5406186,4.60038462 L19.5390515,4.60038462 C19.3231959,4.60038462 19.1480825,4.42923077 19.147299,4.21730769 C19.1465155,4.005 19.3208454,3.83192308 19.5374845,3.83115385 C20.1552784,3.82884615 20.6089278,3.82769231 21.0735464,3.82884615 C21.4970309,3.82884615 21.9310928,3.82884615 22.5010928,3.82692308 C22.6248866,3.82653846 22.7478969,3.81846154 22.8716907,3.81038462 C23.0001856,3.80269231 23.1286804,3.79423077 23.2571753,3.79269231 C23.5263093,3.79 23.707299,3.73269231 23.8444124,3.60884615 L23.9302062,3.53269231 C24.0434227,3.43269231 24.1499794,3.33846154 24.2154021,3.24269231 C24.3309691,3.07384615 24.4042268,2.85230769 24.4332165,2.58461538 C24.4567216,2.36730769 24.3987423,2.12846154 24.2506598,1.83192308 C24.1734845,1.67615385 24.0332371,1.46576923 23.8036701,1.34307692 C23.563134,1.21461538 23.2814639,1.14961538 22.9649278,1.14961538 L22.9625773,1.14961538 C21.2651134,1.15230769 19.566866,1.15307692 17.8705773,1.15192308 L15.7743093,1.15192308 C15.3680619,1.15192308 14.9359588,1.15923077 14.5132577,1.24461538 C14.1230722,1.32346154 13.7673608,1.485 13.4708041,1.63230769 C13.0285155,1.85269231 12.5932784,2.12576923 12.1717526,2.39038462 C11.7396495,2.66153846 11.3083299,2.95461538 10.8918969,3.23769231 L10.8221649,3.285 C10.6588041,3.39615385 10.4977938,3.51076923 10.3367835,3.62538462 C10.1456082,3.76115385 9.95404124,3.89730769 9.75894845,4.02807692 C9.44006186,4.24115385 9.11098969,4.44076923 8.83127835,4.60730769 C8.60797938,4.74038462 8.30319588,4.89615385 7.92750515,4.91692308 C7.77550515,4.92615385 7.63878351,4.93384615 7.50284536,4.93423077 L5.20913402,4.935 L5.20913402,9.99769231 L5.87550515,9.99730769 C6.67350515,9.99730769 7.47189691,9.99692308 8.26989691,9.99923077 C8.49985567,10 8.74391753,10.0123077 8.99659794,10.0361538 C9.10785567,10.0461538 9.21872165,10.0630769 9.32997938,10.0803846 C9.46826804,10.1019231 9.59872165,10.1219231 9.72173196,10.1253846 C10.0660825,10.1373077 10.4308041,10.0753846 10.7939588,9.94653846 C11.0000206,9.87346154 11.2025567,9.75923077 11.4164536,9.63807692 L11.5476907,9.56423077 C11.6291753,9.51884615 11.7036082,9.46153846 11.778433,9.405 C11.824268,9.37038462 11.8701031,9.33615385 11.9163299,9.30307692 L12.7950309,8.67884615 C12.8855258,8.61307692 12.9752371,8.54692308 13.0665155,8.48192308 C13.1707216,8.40807692 13.2753196,8.33576923 13.379134,8.26346154 C13.5299588,8.15923077 13.6803918,8.05461538 13.828866,7.94692308 C13.9307216,7.87307692 14.0298351,7.79576923 14.1289485,7.71807692 C14.2257113,7.64230769 14.3232577,7.56692308 14.4219794,7.49346154 C14.5536082,7.39692308 14.6875876,7.30307692 14.8219588,7.20923077 L15.0746392,7.03115385 C15.1506392,6.97692308 15.2258557,6.92076923 15.3018557,6.865 C15.3805979,6.80653846 15.4593402,6.74807692 15.538866,6.69115385 L15.9208247,6.42 C16.1178763,6.28076923 16.3149278,6.14153846 16.5100206,6 C16.6490928,5.89884615 16.7873814,5.79576923 16.9248866,5.69269231 C17.1297732,5.54 17.334268,5.38730769 17.5434639,5.24 C17.6841031,5.14153846 17.7785155,5.02 17.8098557,4.89730769 C17.902701,4.53307692 17.8678351,4.21538462 17.7060412,3.95461538 C17.5140825,3.64653846 17.3283918,3.46384615 17.1050928,3.36307692 C16.8629897,3.25461538 16.6197113,3.24384615 16.381134,3.33076923 C16.2397113,3.38230769 16.0939794,3.48538462 15.9396289,3.59538462 C15.8836082,3.63461538 15.8279794,3.67384615 15.7723505,3.71115385 C15.6277938,3.80807692 15.4859794,3.90884615 15.3441649,4.00961538 C15.2019588,4.11076923 15.0589691,4.21192308 14.9140206,4.30961538 C14.4862268,4.59769231 14.053732,4.88038462 13.6212371,5.16307692 C13.3489691,5.34038462 13.0148041,5.50730769 12.5921031,5.40153846 C12.5133608,5.38153846 12.4534227,5.35153846 12.4001443,5.325 L12.3402062,5.29576923 C12.1435464,5.20615385 12.0577526,4.97769231 12.1486392,4.785 C12.239134,4.59269231 12.4718351,4.50846154 12.6684948,4.59692308 C12.7021856,4.61230769 12.7311753,4.62653846 12.7574227,4.64 C12.772701,4.64769231 12.7860206,4.655 12.7989485,4.66 C12.8894433,4.68192308 12.9956082,4.64769231 13.1871753,4.52230769 C13.6169278,4.24192308 14.0462887,3.96153846 14.4709485,3.67538462 C14.6108041,3.58115385 14.7479175,3.48384615 14.8850309,3.38653846 C15.0327216,3.28153846 15.1800206,3.17692308 15.3300619,3.07615385 C15.3805979,3.04230769 15.4307423,3.00692308 15.4812784,2.97153846 C15.662268,2.84307692 15.8675464,2.69769231 16.1080825,2.60961538 C16.5433196,2.45153846 17.0004948,2.47038462 17.4314227,2.66384615 C17.9156289,2.88153846 18.202,3.27615385 18.3747629,3.55384615 C18.6466392,3.99115385 18.7140206,4.52076923 18.5694639,5.08538462 C18.4915052,5.38884615 18.2944536,5.65846154 17.9994639,5.86576923 C17.7965361,6.00846154 17.5979175,6.15692308 17.399299,6.30538462 C17.2586598,6.41 17.1176289,6.515 16.9758144,6.61846154 C16.7779794,6.76192308 16.5781856,6.90307692 16.3787835,7.04461538 L16.0007423,7.31269231 C15.9243505,7.36692308 15.849134,7.42307692 15.7735258,7.47884615 C15.6947835,7.53730769 15.6156495,7.59576923 15.5361237,7.65307692 L15.2763918,7.83576923 C15.1475052,7.92576923 15.0186186,8.01615385 14.8924742,8.10923077 C14.7984536,8.17807692 14.707567,8.24923077 14.6166804,8.32038462 C14.5101237,8.40346154 14.4039588,8.48615385 14.2946598,8.56538462 C14.142268,8.67653846 13.9867423,8.78423077 13.8316082,8.89153846 L13.5252577,9.10538462 C13.4378969,9.16769231 13.3509278,9.23153846 13.2639588,9.295 L12.3738969,9.92807692 C12.3335464,9.95653846 12.2943711,9.98615385 12.2551959,10.0153846 C12.1564742,10.0896154 12.0546186,10.1665385 11.9339588,10.2334615 L11.8074227,10.3046154 C11.5731546,10.4373077 11.3310515,10.5738462 11.0599588,10.67 C10.636866,10.82 10.2125979,10.8957692 9.79694845,10.8957692" id="Fill-9" fill="#000000" sketch:type="MSShapeGroup"></path>
                <path d="M4.81738144,11.7803846 L0.720041237,11.7803846 C0.503402062,11.7803846 0.32828866,11.6084615 0.32828866,11.3957692 L0.32828866,2.53269231 C0.32828866,2.32 0.503402062,2.14807692 0.720041237,2.14807692 L4.81738144,2.14807692 C5.03402062,2.14807692 5.20913402,2.32 5.20913402,2.53269231 L5.20913402,11.3957692 C5.20913402,11.6084615 5.03402062,11.7803846 4.81738144,11.7803846 L4.81738144,11.7803846 Z M1.11179381,11.0111538 L4.42562887,11.0111538 L4.42562887,2.91730769 L1.11179381,2.91730769 L1.11179381,11.0111538 Z" id="Fill-10" fill="#000000" sketch:type="MSShapeGroup"></path>
                <path d="M2.76851546,10.2830769 C2.15503093,10.2830769 1.65593814,9.79307692 1.65593814,9.19076923 C1.65593814,8.58807692 2.15503093,8.09807692 2.76851546,8.09807692 C3.38239175,8.09807692 3.88148454,8.58807692 3.88148454,9.19076923 C3.88148454,9.79307692 3.38239175,10.2830769 2.76851546,10.2830769 L2.76851546,10.2830769 Z M2.76851546,8.86730769 C2.58713402,8.86730769 2.4394433,9.01230769 2.4394433,9.19076923 C2.4394433,9.36884615 2.58713402,9.51384615 2.76851546,9.51384615 C2.95028866,9.51384615 3.09797938,9.36884615 3.09797938,9.19076923 C3.09797938,9.01230769 2.95028866,8.86730769 2.76851546,8.86730769 L2.76851546,8.86730769 Z" id="Fill-11" fill="#000000" sketch:type="MSShapeGroup"></path>
            </g>
        </g>
    </g>
</svg>