<?xml version="1.0" encoding="UTF-8" standalone="no"?>
<svg width="46px" height="46px" viewBox="0 0 46 46" version="1.1" xmlns="http://www.w3.org/2000/svg" xmlns:xlink="http://www.w3.org/1999/xlink" xmlns:sketch="http://www.bohemiancoding.com/sketch/ns">
    <!-- Generator: Sketch 3.3 (11970) - http://www.bohemiancoding.com/sketch -->
    <title>download</title>
    <desc>Created with Sketch.</desc>
    <defs></defs>
    <g id="Page-1" stroke="none" stroke-width="1" fill="none" fill-rule="evenodd" sketch:type="MSPage">
        <g id="download" sketch:type="MSArtboardGroup" fill="#000000">
            <g id="Imported-Layers" sketch:type="MSLayerGroup" transform="translate(-1.000000, 1.000000)">
                <path d="M36.1870769,24.4581081 L34.4283077,22.7566216 L25.3907692,31.8697297 L25.3907692,0.225 L22.9292308,0.225 L22.9292308,31.8697297 L13.8916923,22.7566216 L12.1329231,24.4581081 L24.16,36.5862162 L36.1870769,24.4581081 L36.1870769,24.4581081 Z M24.1772308,33.0944595 L24.16,33.1114865 L24.1427692,33.0944595 L24.1772308,33.0944595 L24.1772308,33.0944595 Z" id="Fill-1" sketch:type="MSShapeGroup"></path>
                <path d="M37.1286154,15.4435135 L37.1286154,17.8759459 L44.7310769,17.8759459 L44.7310769,42.5067568 L3.58892308,42.5067568 L3.58892308,17.8759459 L10.8713846,17.8759459 L10.8713846,15.4435135 L1.12738462,15.4435135 L1.12738462,44.9391892 L47.1926154,44.9391892 L47.1926154,15.4435135 L37.1286154,15.4435135" id="Fill-2" sketch:type="MSShapeGroup"></path>
            </g>
        </g>
    </g>
</svg>