<?xml version="1.0" encoding="UTF-8" standalone="no"?>
<svg width="46px" height="46px" viewBox="0 0 46 46" version="1.1" xmlns="http://www.w3.org/2000/svg" xmlns:xlink="http://www.w3.org/1999/xlink" xmlns:sketch="http://www.bohemiancoding.com/sketch/ns">
    <!-- Generator: Sketch 3.3 (11970) - http://www.bohemiancoding.com/sketch -->
    <title>settings</title>
    <desc>Created with Sketch.</desc>
    <defs></defs>
    <g id="Page-1" stroke="none" stroke-width="1" fill="none" fill-rule="evenodd" sketch:type="MSPage">
        <g id="settings" sketch:type="MSArtboardGroup" fill="#000000">
            <path d="M42.4838356,18.3420274 L38.8510959,17.5367123 C38.5675342,16.6324658 38.198274,15.7666575 37.7716712,14.9336164 L39.7383288,11.6613151 C40.4718082,10.4892603 40.8416986,8.76709589 39.7383288,7.66246575 L37.7344932,5.66178082 C37.1944658,5.12112329 36.4679178,4.89238356 35.737589,4.89238356 C34.978274,4.89238356 34.2113973,5.13876712 33.6373425,5.53638356 L30.452,7.56542466 C29.6252603,7.13630137 28.7619726,6.77082192 27.8627671,6.47969863 L27.0467397,2.80726027 C26.804137,1.45813699 25.6251507,0 24.0611507,0 L21.2318356,0 C19.6684658,0 18.7100274,1.48082192 18.4,2.82931507 L17.4926027,6.45764384 C16.532274,6.76326027 15.6129041,7.15394521 14.7344932,7.61583562 L11.4691233,5.53638356 C10.8963288,5.13813699 10.1281918,4.89175342 9.36950685,4.89175342 C8.63854795,4.89175342 7.91389041,5.12049315 7.3719726,5.66115068 L5.37128767,7.66183562 C4.26476712,8.76646575 4.6340274,10.4892603 5.37128767,11.6613151 L7.43876712,15.1050137 C7.05060274,15.8863836 6.70654795,16.6923288 6.44063014,17.5360822 L2.80852055,18.3407671 C1.4600274,18.5846301 0,19.7623562 0,21.3232055 L0,24.1525205 C0,25.7133699 1.48208219,26.6711781 2.83057534,26.9805753 L6.50868493,27.8980548 C6.76389041,28.6756438 7.08084932,29.426137 7.4400274,30.1514247 L5.37128767,33.598274 C4.63591781,34.7684384 4.26665753,36.4906027 5.37128767,37.595863 L7.37323288,39.5965479 C7.91389041,40.1365753 8.63854795,40.3646849 9.37076712,40.3646849 C10.1288219,40.3646849 10.8963288,40.1189315 11.4703836,39.7206849 L14.7439452,37.6368219 C15.626137,38.101863 16.5518082,38.4950685 17.5165479,38.8013151 L18.4226849,42.4201918 C18.7314521,43.7680548 19.6892603,45.2488767 21.2526301,45.2488767 L24.0838356,45.2488767 C25.6472055,45.2488767 26.8268219,43.7894795 27.0687945,42.4416164 L27.8867123,38.759726 C28.7752055,38.4730137 29.6271507,38.1106849 30.4463288,37.6866027 L33.6373425,39.7206849 C34.2113973,40.1183014 34.978274,40.3640548 35.737589,40.3640548 C36.4679178,40.3640548 37.1944658,40.1365753 37.7344932,39.5959178 L39.7383288,37.5952329 C40.8416986,36.4899726 40.4718082,34.7678082 39.7383288,33.5976438 L37.770411,30.3209315 C38.1655068,29.5446027 38.5083014,28.736137 38.7830411,27.8974247 L42.4617808,26.9799452 C43.8109041,26.6711781 45.2923562,25.7127397 45.2923562,24.1525205 L45.2923562,21.3225753 C45.2923562,19.7636164 43.8342192,18.5858904 42.4838356,18.3420274 L42.4838356,18.3420274 Z M43.0276438,24.1537808 C43.0276438,24.2646849 42.609863,24.6257534 41.9129315,24.7858082 L38.2348219,25.7032877 L37.0211781,26.0063836 L36.6317534,27.1948219 C36.4017534,27.8917534 36.1062192,28.5993973 35.7514521,29.2956986 L35.1805479,30.4129315 L37.8176712,34.7967945 C38.175589,35.3689589 38.2133973,35.9196986 38.1377808,35.9953151 L36.1301644,37.9991507 C36.0331233,38.0961918 35.8031233,38.1050137 35.7363288,38.1050137 C35.4571781,38.1050137 35.1376986,38.009863 34.9253425,37.862411 L34.8919452,37.8378356 L34.8547671,37.8145205 L30.5616438,35.0790959 L29.4034521,35.6789863 C28.6737534,36.0564384 27.9295616,36.3683562 27.1891507,36.6084384 L25.9559726,37.0066849 L24.858274,41.9532603 L24.8481918,41.9973699 L24.84,42.0421096 C24.7555616,42.5121918 24.3283288,42.9866849 24.0832055,42.9866849 L21.252,42.9866849 C21.1410959,42.9866849 20.778137,42.5707945 20.6180822,41.8732329 L19.7125753,38.2530959 L19.4044384,37.0268493 L18.197726,36.6456164 C17.392411,36.3916712 16.5864658,36.0526575 15.7994247,35.6373973 L14.6355616,35.0236438 L13.5258904,35.7306575 L10.2523288,37.8157808 L10.2151507,37.8384658 L10.1792329,37.8636712 C9.96687671,38.0104932 9.64928767,38.106274 9.37013699,38.106274 C9.30145205,38.106274 9.07271233,38.0974521 8.97315068,37.9978904 L6.97120548,36.0003562 C6.89306849,35.9196986 6.93150685,35.3708493 7.31147945,34.7640274 L10.0191781,30.2560274 L9.46843836,29.1469863 C9.13446575,28.4771507 8.87106849,27.8394521 8.66186301,27.199863 L8.27369863,26.0089041 L7.05753425,25.7058082 L3.33594521,24.7782466 C2.68123288,24.628274 2.26345205,24.2672055 2.26345205,24.1563014 L2.26345205,21.3263562 C2.26345205,21.0831233 2.74046575,20.6552603 3.20991781,20.5708219 L3.2540274,20.5626301 L3.29876712,20.5538082 L6.93150685,19.7472329 L8.20816438,19.4636712 L8.60010959,18.2178904 C8.80931507,17.553726 9.09224658,16.8643562 9.46465753,16.113863 L10.0172877,15.0054521 L9.3789589,13.9436712 L7.28816438,10.4621644 C6.93150685,9.89252055 6.89180822,9.34241096 6.97183562,9.26427397 L8.97252055,7.26358904 C9.06893151,7.16843836 9.28317808,7.15835616 9.36887671,7.15835616 C9.64928767,7.15835616 9.96561644,7.25224658 10.1767123,7.39906849 L10.2138904,7.42427397 L10.2523288,7.44821918 L13.5183288,9.52767123 L14.6273699,10.2315342 L15.7906027,9.61967123 C16.5637808,9.21260274 17.3678356,8.87547945 18.1800822,8.61523288 L19.3830137,8.23210959 L20.6067397,3.33846575 C20.7586027,2.68249315 21.1203014,2.26660274 21.2318356,2.26660274 L24.0611507,2.26660274 C24.3056438,2.26660274 24.734137,2.74172603 24.8185753,3.21054795 L24.826137,3.25528767 L24.8362192,3.3000274 L25.9326575,8.23715068 L27.1658356,8.63476712 C27.9182192,8.87863014 28.6731233,9.19432877 29.4091233,9.57682192 L30.5679452,10.1786027 L31.6694247,9.47726027 L34.8553973,7.44821918 L34.8919452,7.42490411 L34.927863,7.39969863 C35.1383288,7.25224658 35.4584384,7.15835616 35.7369589,7.15835616 C35.8050137,7.15835616 36.0337534,7.16591781 36.1339452,7.26547945 L38.134,9.2630137 C38.2140274,9.34115068 38.175589,9.89252055 37.7962466,10.4999726 L35.1830685,14.8466575 L35.7546027,15.9651507 C36.1553699,16.7477808 36.459726,17.4831507 36.6884658,18.2134795 L37.0810411,19.4643014 L38.3589589,19.747863 L41.9923288,20.5544384 L42.0364384,20.5632603 L42.0830685,20.5714521 C42.5506301,20.6558904 43.0276438,21.0824932 43.0276438,21.3269863 L43.0276438,24.1537808 L43.0276438,24.1537808 Z M22.6653973,13.5618082 C17.6583288,13.5618082 13.583863,17.6249315 13.583863,22.6193973 C13.583863,27.613863 17.6583288,31.6769863 22.6653973,31.6769863 C27.6730959,31.6769863 31.7463014,27.613863 31.7463014,22.6193973 C31.7463014,17.6249315 27.6730959,13.5618082 22.6653973,13.5618082 L22.6653973,13.5618082 Z M22.6843014,29.4658356 C18.9091507,29.4658356 15.837863,26.4046301 15.837863,22.6446027 C15.837863,18.8845753 18.9091507,15.8233699 22.6843014,15.8233699 C26.4607123,15.8233699 29.5332603,18.8845753 29.5332603,22.6446027 C29.5332603,26.4046301 26.4607123,29.4658356 22.6843014,29.4658356 L22.6843014,29.4658356 Z" id="Imported-Layers" sketch:type="MSShapeGroup"></path>
        </g>
    </g>
</svg>