<?xml version="1.0" encoding="UTF-8" standalone="no"?>
<svg width="46px" height="46px" viewBox="0 0 46 46" version="1.1" xmlns="http://www.w3.org/2000/svg" xmlns:xlink="http://www.w3.org/1999/xlink" xmlns:sketch="http://www.bohemiancoding.com/sketch/ns">

            <g fill="currentColor">
                <path d="M22.9008621,0.221929825 C10.503069,0.221929825 0.41637931,10.4855789 0.41637931,23.1008772 C0.41637931,35.7161754 10.503069,45.9798246 22.9008621,45.9798246 C35.2986552,45.9798246 45.3853448,35.7161754 45.3853448,23.1008772 C45.3853448,10.4855789 35.2986552,0.221929825 22.9008621,0.221929825 L22.9008621,0.221929825 Z M22.9008621,43.8008772 C11.6832069,43.8008772 2.55775862,34.5153333 2.55775862,23.1008772 C2.55775862,11.6864211 11.6832069,2.40087719 22.9008621,2.40087719 C34.1185172,2.40087719 43.2439655,11.6864211 43.2439655,23.1008772 C43.2439655,34.5153333 34.1185172,43.8008772 22.9008621,43.8008772 L22.9008621,43.8008772 Z" fill="currentColor"></path>
                <path d="M23.9715517,14.9298246 L21.8301724,14.9298246 L21.8301724,21.8604912 L15.019,21.8604912 L15.019,24.0386316 L21.8301724,24.0386316 L21.8301724,30.9692982 L23.9715517,30.9692982 L23.9715517,24.0386316 L30.781931,24.0386316 L30.781931,21.8604912 L23.9715517,21.8604912 L23.9715517,14.9298246" fill="currentColor"></path>
            </g>
</svg>