<?xml version="1.0" encoding="utf-8"?>
<!-- Generator: Adobe Illustrator 18.1.1, SVG Export Plug-In . SVG Version: 6.00 Build 0)  -->
<svg version="1.1" id="linkedin" xmlns="http://www.w3.org/2000/svg" xmlns:xlink="http://www.w3.org/1999/xlink" x="0px" y="0px"
	 viewBox="0 159 960 237.5" enable-background="new 0 159 960 237.5" xml:space="preserve">
<g>
	<path fill="#FFFFFF" d="M947.1,351.9c2.6-0.6,3.9-1.9,3.9-4.5c0-3.2-1.9-4.5-5.8-4.5h-6.5V359h2.6v-7.1h2.6l0,0l4.5,7.1h2.6
		L947.1,351.9L947.1,351.9z M944.5,349.9h-2.6v-5.2h3.2c1.9,0,3.9,0,3.9,2.6C949,349.9,947.1,349.9,944.5,349.9z"/>
	<path fill="#FFFFFF" d="M945.1,335.7c-8.4,0-15.5,6.5-15.5,15.5c0,8.4,6.5,15.5,15.5,15.5c8.4,0,15.5-6.5,15.5-15.5
		C960,342.1,953.5,335.7,945.1,335.7z M945.1,364.2c-7.1,0-12.9-5.8-12.9-13.6c0-7.8,5.8-13.6,12.9-13.6s12.9,5.8,12.9,13.6
		C958.1,358.3,952.2,364.2,945.1,364.2z"/>
	<polygon fill="#FFFFFF" points="36.3,197.8 0,197.8 0,362.2 102.3,362.2 102.3,329.2 36.3,329.2 	"/>
	<circle fill="#FFFFFF" cx="135.9" cy="215.3" r="20.1"/>
	<rect x="118.5" y="250.9" fill="#FFFFFF" width="34.3" height="111.3"/>
	<polygon fill="#FFFFFF" points="413.6,250.9 370.9,250.9 332.1,296.2 332.1,197.8 297.1,197.8 297.1,362.2 332.1,362.2 
		332.1,307.2 332.1,307.2 369,362.2 412.4,362.2 368.3,302 	"/>
	<path fill="#FFFFFF" d="M238.2,248.3c-16.8,0-27.8,9.1-33,18.1h-0.6v-14.9h-33v111.3h34.3v-55c0-14.2,2.6-28.5,20.7-28.5
		c17.5,0,18.1,16.8,18.1,29.8v54.4H279v-60.8C279.6,270.9,273.2,248.3,238.2,248.3z"/>
	<path fill="#FFFFFF" d="M468,247.6c-34.3,0-62.1,23.3-62.1,58.9s27.8,58.9,62.1,58.9c18.1,0,36.3-7.8,47.3-22l-24-18.1
		c-5.8,7.8-13.6,13.6-24.6,13.6c-13.6,0-23.3-8.4-25.9-21.4h80.3v-11.7C520.5,270.3,500.4,247.6,468,247.6z M440.2,293.6
		c0.6-11,9.1-21.4,24.6-21.4c12.3,0,21.4,9.7,21.4,21.4H440.2z"/>
	<path fill="#FFFFFF" d="M617.6,261.9L617.6,261.9c-8.4-11-21.4-14.9-35.6-14.9c-31.7,0-51.1,28.5-51.1,59.6c0,33.7,22,57.6,55,57.6
		c15.5,0,29.1-9.7,34.3-17.5h0.6v14.9h31.7V197.8h-34.3v64.1H617.6z M592.3,334.4c-17.5,0-27.8-11.7-27.8-28.5s10.4-28.5,27.8-28.5
		s27.8,11.7,27.8,28.5S609.8,334.4,592.3,334.4z"/>
	<path fill="#FFFFFF" d="M902.4,163.5H703.7c-9.7,0-17.5,7.8-17.5,16.8v199.4c0,9.1,7.8,16.8,17.5,16.8h198.7
		c9.7,0,17.5-7.8,17.5-16.8V180.3C919.9,171.2,912.1,163.5,902.4,163.5z M755.4,362.2h-34.3V250.9h34.3V362.2z M738.6,235.3
		c-11,0-20.1-9.1-20.1-20.1c0-11,9.1-20.1,20.1-20.1s20.1,9.1,20.1,20.1C758.7,226.9,749.6,235.3,738.6,235.3z M884.9,362.2h-34.3
		v-54.4c0-12.9,0-29.8-18.1-29.8s-20.7,14.2-20.7,28.5v55h-34.3V250.9h33v14.9h0.6c4.5-9.1,16.2-18.1,33-18.1
		c35,0,41.4,23.3,41.4,53.1v61.5H884.9z"/>
</g>
</svg>
