<?xml version="1.0" encoding="utf-8"?>
<!-- Generator: Adobe Illustrator 18.1.1, SVG Export Plug-In . SVG Version: 6.00 Build 0)  -->
<svg version="1.2" baseProfile="tiny" id="Capa_1" xmlns="http://www.w3.org/2000/svg" xmlns:xlink="http://www.w3.org/1999/xlink"
	 x="0px" y="0px" width="246px" height="82px" viewBox="-767 -2.2 246 82" xml:space="preserve">
<path fill="#FFFFFF" d="M-767-2.2v82h246v-82H-767z M-616.6,24.9c0,0.7,0,1.3,0,1.7c0,18.5-14.1,39.9-39.9,39.9
	c-8.1,0-15.4-2.3-21.5-6.4c1,0,2.3,0.3,3.4,0.3c6.7,0,12.8-2.3,17.4-6c-6,0-11.4-4-13.1-9.7c0.7,0.3,1.3,0.3,2.3,0.3
	c1.3,0,2.7,0,3.7-0.3c-6.4-1.3-11.4-7-11.4-13.8v-0.3c2,1,4.4,1.7,6.4,1.7c-3.7-2.7-6.4-6.7-6.4-11.7c0.3-2.3,1-5,2-7
	c7,8.7,17.4,14.1,29.2,14.8c-0.3-1-0.3-2-0.3-3.4c0-7.7,6.4-14.1,14.1-14.1c4,0,7.7,1.7,10.4,4.4c3.4-0.7,6.4-1.7,9.1-3.4
	c-1,3.4-3.4,6-6,7.7c2.7-0.3,5.7-1,8.1-2.3C-611.6,20.6-614,22.9-616.6,24.9z"/>
</svg>
