<?xml version="1.0" encoding="utf-8"?>
<!-- Generator: Adobe Illustrator 18.1.1, SVG Export Plug-In . SVG Version: 6.00 Build 0)  -->
<svg version="1.1" id="Capa_1" xmlns="http://www.w3.org/2000/svg" xmlns:xlink="http://www.w3.org/1999/xlink" x="0px" y="0px"
	 viewBox="0 0 22.3 22.3" enable-background="new 0 0 22.3 22.3" xml:space="preserve">
<path fill="#FFFFFF" d="M0,0v22.3h22.3V0H0z M5.4,20.5h-4V7.8h4V20.5z M3.3,6.2L3.3,6.2c-1.5,0-2.4-1-2.4-2.2c0-1.3,1-2.2,2.4-2.2
	c1.5,0,2.4,1,2.4,2.2C5.8,5.2,4.8,6.2,3.3,6.2z M21.4,20.5h-4.5v-6.6c0-1.7-0.7-2.9-2.3-2.9c-1.2,0-1.8,0.8-2.2,1.6
	c-0.1,0.3-0.1,0.7-0.1,1v6.9H7.9c0,0,0.1-11.7,0-12.7h4.5v2c0.3-0.9,1.7-2.1,4-2.1c2.8,0,5,1.8,5,5.8V20.5z"/>
</svg>
