<?xml version="1.0" encoding="utf-8"?>
<!-- Generator: Adobe Illustrator 18.1.1, SVG Export Plug-In . SVG Version: 6.00 Build 0)  -->
<svg version="1.1" id="Capa_1" xmlns="http://www.w3.org/2000/svg" xmlns:xlink="http://www.w3.org/1999/xlink" x="0px" y="0px"
	 viewBox="0 0 22.3 22.3" enable-background="new 0 0 22.3 22.3" xml:space="preserve">
<path fill="#FFFFFF" d="M0,0v22.3h22.3V0H0z M19.3,7c0,0.2,0,0.4,0,0.5c0,5.5-4.2,11.9-11.9,11.9c-2.4,0-4.6-0.7-6.4-1.9
	c0.3,0,0.7,0.1,1,0.1c2,0,3.8-0.7,5.2-1.8c-1.8,0-3.4-1.2-3.9-2.9C3.5,13,3.7,13,4,13c0.4,0,0.8,0,1.1-0.1c-1.9-0.4-3.4-2.1-3.4-4.1
	V8.7C2.3,9,3,9.2,3.6,9.2c-1.1-0.8-1.9-2-1.9-3.5C1.8,5,2,4.2,2.3,3.6C4.4,6.2,7.5,7.8,11,8c-0.1-0.3-0.1-0.6-0.1-1
	c0-2.3,1.9-4.2,4.2-4.2c1.2,0,2.3,0.5,3.1,1.3c1-0.2,1.9-0.5,2.7-1c-0.3,1-1,1.8-1.8,2.3c0.8-0.1,1.7-0.3,2.4-0.7
	C20.8,5.7,20.1,6.4,19.3,7z"/>
</svg>
