<?xml version="1.0" encoding="utf-8"?>
<!-- Generator: Adobe Illustrator 18.1.1, SVG Export Plug-In . SVG Version: 6.00 Build 0)  -->
<svg version="1.2" baseProfile="tiny" id="Capa_1" xmlns="http://www.w3.org/2000/svg" xmlns:xlink="http://www.w3.org/1999/xlink"
	 x="0px" y="0px" viewBox="-694 90 2000 612" xml:space="preserve">
<path fill="#FFFFFF" d="M-700,90v612h2012V90H-700z M148.2,652.6H38.4V304.1h109.8V652.6z M90.6,260.2L90.6,260.2
	c-41.2,0-65.9-27.4-65.9-60.4c0-35.7,27.4-60.4,65.9-60.4c41.2,0,65.9,27.4,65.9,60.4C159.2,232.7,131.7,260.2,90.6,260.2z
	 M587.3,652.6H463.8V471.5c0-46.7-19.2-79.6-63.1-79.6c-32.9,0-49.4,22-60.4,43.9c-2.7,8.2-2.7,19.2-2.7,27.4v189.4H216.8
	c0,0,2.7-321.1,0-348.5h123.5V359c8.2-24.7,46.7-57.6,109.8-57.6c76.8,0,137.2,49.4,137.2,159.2V652.6z"/>
</svg>
