<?xml version="1.0" encoding="utf-8"?>
<!-- Generator: Adobe Illustrator 18.1.1, SVG Export Plug-In . SVG Version: 6.00 Build 0)  -->
<svg version="1.1" xmlns="http://www.w3.org/2000/svg" xmlns:xlink="http://www.w3.org/1999/xlink" x="0px"
	 y="0px" viewBox="1390 850 100 100" enable-background="new 1390 850 100 100" xml:space="preserve">
<linearGradient id="mobile-first" gradientUnits="userSpaceOnUse" x1="43.376" y1="9.6236" x2="43.4046" y2="9.4617" gradientTransform="matrix(641.5848 0 0 641.5848 -26401.627 -5222.0537)">
	<stop  offset="0" style="stop-color:#6DB33F"/>
	<stop  offset="1" style="stop-color:#72CDF4"/>
</linearGradient>
<path fill="url(#mobile-first)" d="M1462.2,915.2c-1,0-1.6,0.8-1.6,1.6v12.9h-53.4v-59.8h53.2v3.8c0,1,0.8,1.6,1.6,1.6
	c1,0,1.6-0.8,1.6-1.6V860c0-5.6-4.6-9.9-9.9-9.9h-39.8c-5.6,0-9.9,4.6-9.9,9.9v80c0,5.6,4.6,9.9,9.9,9.9h40c5.6,0,9.9-4.6,9.9-9.9
	v-23.1C1463.8,916,1463,915.2,1462.2,915.2z M1414,853.2h40c3.8,0,6.8,3,6.8,6.8v6.8h-53.4V860
	C1407.2,856.2,1410.2,853.2,1414,853.2z M1453.9,946.4h-40c-3.8,0-6.8-3-6.8-6.8v-6.8h53.2v6.8
	C1460.5,943.5,1457.5,946.4,1453.9,946.4z M1420.5,861.6c0-1,0.8-1.6,1.6-1.6h23.3c1,0,1.6,0.8,1.6,1.6s-0.8,1.6-1.6,1.6h-23.1
	C1421.3,863.2,1420.5,862.4,1420.5,861.6z M1433.9,934.8c-2.8,0-5,2.2-5,5c0,2.8,2.2,5,5,5s5-2.2,5-5
	C1438.9,937,1436.7,934.8,1433.9,934.8z M1433.9,941.5c-1,0-1.6-0.8-1.6-1.6s0.8-1.6,1.6-1.6c0.8,0,1.6,0.8,1.6,1.6
	S1434.7,941.5,1433.9,941.5z M1476.1,883.7v22.1c0,3.2-2.6,5.8-5.8,5.8h-29.1l-9.3,6.6c-0.2,0.2-0.6,0.2-1,0.2c-0.6,0-1-0.2-1.4-0.8
	c-0.6-0.8-0.4-1.8,0.4-2.4l9.7-6.8h0.2c0,0,0.2,0,0.4-0.2c0.2,0,0.2,0,0.4,0h0.2h29.5c1.4,0,2.6-1.2,2.6-2.6v-21.9
	c0-1.4-1.2-2.6-2.6-2.6h-35.3c-1.4,0-2.6,1.2-2.6,2.6v22.1c0,1-0.8,1.6-1.6,1.6c-1,0-1.6-0.8-1.6-1.6v-22.1c0-3.2,2.6-5.8,5.8-5.8
	h35.1C1473.6,878,1476.1,880.5,1476.1,883.7z"/>
</svg>
