<?xml version="1.0" encoding="utf-8"?>
<!-- Generator: Adobe Illustrator 18.1.1, SVG Export Plug-In . SVG Version: 6.00 Build 0)  -->
<svg version="1.1" id="future_of_work2" xmlns="http://www.w3.org/2000/svg" xmlns:xlink="http://www.w3.org/1999/xlink" x="0px"
	 y="0px" viewBox="0 0 40.1 53.6" enable-background="new 0 0 40.1 53.6" xml:space="preserve">
<path fill="#6DB33F" d="M20.1,45.8c-1.2,0-2.2,1-2.2,2.2c0,1.2,1,2.2,2.2,2.2c1.2,0,2.2-1,2.2-2.2C22.3,46.8,21.3,45.8,20.1,45.8
	L20.1,45.8z"/>
<path fill="#72CDF4" d="M20.1,3.2c-0.6,0-1.1,0.5-1.1,1.1c0,0.6,0.5,1.1,1.1,1.1c0.6,0,1.1-0.5,1.1-1.1C21.2,3.7,20.7,3.2,20.1,3.2
	L20.1,3.2z"/>
<linearGradient id="latest-thinking" gradientUnits="userSpaceOnUse" x1="15.0227" y1="55.333" x2="25.091" y2="-1.7673">
	<stop  offset="0" style="stop-color:#6DB33F"/>
	<stop  offset="1" style="stop-color:#72CDF4"/>
</linearGradient>
<path fill="none" stroke="url(#latest-thinking)" stroke-width="2" stroke-linejoin="round" stroke-miterlimit="10" d="M39.1,48.1
	c0,2.5-2,4.5-4.5,4.5H5.5c-2.5,0-4.5-2-4.5-4.5V5.5C1,3,3,1,5.5,1h29.1c2.5,0,4.5,2,4.5,4.5V48.1z M34.6,7.7H5.5v35.9h29.1V7.7z
	 M29,13.6H10.8v6H29V13.6z M28.8,24.8H10.6 M28.8,30.8H10.6 M28.8,37.4H10.6"/>
</svg>
