<?xml version="1.0" encoding="utf-8"?>
<!-- Generator: Adobe Illustrator 18.1.1, SVG Export Plug-In . SVG Version: 6.00 Build 0)  -->
<svg version="1.1" xmlns="http://www.w3.org/2000/svg" xmlns:xlink="http://www.w3.org/1999/xlink" x="0px" y="0px"
	 viewBox="0 0 100 100" enable-background="new 0 0 100 100" xml:space="preserve">
<g>
	
	<linearGradient id="icon_pdf" gradientUnits="userSpaceOnUse" x1="-296.751" y1="298.1598" x2="-293.6956" y2="315.4879" gradientTransform="matrix(6.12 0 0 -6.12 1856.3999 1929.84)">
		<stop  offset="9.266387e-02" style="stop-color:#72CDF4"/>
		<stop  offset="0.8975" style="stop-color:#6DB33F"/>
	</linearGradient>
	<linearGradient id="icon_pdf2" gradientUnits="userSpaceOnUse" x1="-295.7137" y1="301.4092" x2="-293.9622" y2="311.3427" gradientTransform="matrix(6.12 0 0 -6.12 1856.3999 1929.84)">
		<stop  offset="9.266387e-02" style="stop-color:#72CDF4"/>
		<stop  offset="0.8975" style="stop-color:#6DB33F"/>
	</linearGradient>
	<path fill="url(#icon_pdf)" d="M64.3,0h-53v100h77.3V24.3L64.3,0z M65.9,22.7V9l13.7,13.7H65.9z M83.4,28v66.7H16.6V5.3h44V28H83.4
		z"/>
	<path fill="url(#icon_pdf2)" d="M50,24.1c-0.7-0.9-1.7-1.4-2.9-1.4c-0.5,0-1,0.1-1.5,0.3c-1.3,0.4-2.3,1.3-2.8,2.7
		c-1.6,3.7,0.6,10.1,2.8,15c-1.9,7.6-5.1,16.8-8.5,24.2c-8.5,3.9-13.1,7.7-13.5,11.4c-0.1,1.3,0.2,3.3,2.5,5
		c0.6,0.5,1.4,0.7,2.2,0.7l0,0c2,0,4-1.5,6.3-4.7c1.7-2.4,3.5-5.6,5.4-9.6c6-2.6,13.5-5,19.9-6.4c3.6,3.4,6.7,5.1,9.5,5.1
		c2,0,3.7-0.9,5-2.7s1.6-3.5,0.9-4.9c-0.9-1.7-3-2.5-6.5-2.5c-2.1,0-4.6,0.3-7.6,0.8c-4.1-4.4-8.4-10.8-11.5-17
		C52.7,27.5,50.7,24.9,50,24.1z M28.4,78.1c-1.1-0.8-1-1.4-1-1.6c0.1-1.3,2.1-3.5,6.9-6.2C30.6,77.1,28.8,78,28.4,78.1z M68.7,60.1
		c2,0,2.8,0.3,3.1,0.4c-0.1,0.2-0.2,0.5-0.5,0.9c-0.7,1-1.4,1.1-1.9,1.1c-1.2,0-2.8-0.8-4.7-2.2C66.2,60.2,67.6,60.1,68.7,60.1z
		 M46.2,27.1c0.2-0.4,0.3-0.5,0.5-0.5c0.1,0,0.2,0,0.2-0.1c0.3,0.5,0.7,2.5,0,7.3C46.2,31,45.8,28.4,46.2,27.1z M56.8,58.1
		c-4.8,1.1-9.9,2.7-14.6,4.5c2.3-5.4,4.4-11.5,6-17C50.8,50.1,53.8,54.5,56.8,58.1z"/>
</g>
</svg>
