<?xml version="1.0" encoding="utf-8"?>
<!-- Generator: Adobe Illustrator 18.1.1, SVG Export Plug-In . SVG Version: 6.00 Build 0)  -->
<svg version="1.1" id="data_science" xmlns="http://www.w3.org/2000/svg" xmlns:xlink="http://www.w3.org/1999/xlink" x="0px"
	 y="0px" viewBox="20.7 -14.8 45.8 50.2" enable-background="new 20.7 -14.8 45.8 50.2" xml:space="preserve">
<linearGradient id="mass-empowerment" gradientUnits="userSpaceOnUse" x1="39.425" y1="35.4654" x2="48.1644" y2="-14.0984">
	<stop  offset="0" style="stop-color:#6DB33F"/>
	<stop  offset="1" style="stop-color:#72CDF4"/>
</linearGradient>
<path fill="url(#mass-empowerment)" d="M33.3,19.3c-0.3,0.2-0.5,0.3-0.9,0.4v11.1h-9.3V19.7c-1.6-0.4-2.4-2-2.4-4.6V6.8H32v2.1h-9.3v6.3
	c0,2.6,0.8,2.6,1.4,2.6h1v10.9h5.2V17.7h1c0.3,0,0.7,0,1-0.4C32.6,18,32.9,18.7,33.3,19.3z M48.3,20.7c2.8-0.5,4.9-2.9,4.9-5.8V1.7
	H34v13.2c0,2.9,2.1,5.3,4.9,5.8v14.7h9.3V20.7z M41,18.7h-1c-2.1,0-3.8-1.7-3.8-3.8V3.8h15v11.1c0,2.1-1.7,3.8-3.8,3.8h-1v14.6H41
	V18.7z M50.2-8.2c0-3.6-3-6.6-6.6-6.6s-6.6,3-6.6,6.6s3,6.6,6.6,6.6S50.2-4.6,50.2-8.2z M48.1-8.2c0,2.5-2,4.5-4.5,4.5
	S39-5.7,39-8.2s2-4.5,4.5-4.5S48.1-10.7,48.1-8.2z M64.4-0.7c0-2.7-2.2-5-5-5s-5,2.2-5,5s2.2,5,5,5S64.4,2.1,64.4-0.7z M62.3-0.7
	c0,1.6-1.3,2.9-2.9,2.9s-2.9-1.3-2.9-2.9s1.3-2.9,2.9-2.9S62.3-2.3,62.3-0.7z M32.7-0.7c0-2.7-2.2-5-5-5s-5,2.2-5,5s2.2,5,5,5
	S32.7,2.1,32.7-0.7z M30.7-0.7c0,1.6-1.3,2.9-2.9,2.9s-2.9-1.3-2.9-2.9s1.3-2.9,2.9-2.9S30.7-2.3,30.7-0.7z M55.2,6.8v2.1h9.3v6.3
	c0,2.6-0.8,2.6-1.4,2.6h-1v10.9h-5.2V17.7h-1c-0.3,0-0.7,0-1-0.4c-0.2,0.7-0.5,1.3-0.9,1.9c0.3,0.2,0.5,0.3,0.9,0.4v11.1h9.3V19.7
	c1.6-0.4,2.4-2,2.4-4.6V6.8H55.2z"/>
</svg>
