<svg xmlns="http://www.w3.org/2000/svg" viewBox="20.7 -14.8 45.8 50.2"><linearGradient id="a" gradientUnits="userSpaceOnUse" x1="39.425" y1="35.465" x2="48.164" y2="-14.098"><stop offset="0" stop-color="#6DB33F"/><stop offset="1" stop-color="#72CDF4"/></linearGradient><path fill="url(#a)" d="M33.3 19.3c-.3.2-.5.3-.9.4v11.1h-9.3V19.7c-1.6-.4-2.4-2-2.4-4.6V6.8H32v2.1h-9.3v6.3c0 2.6.8 2.6 1.4 2.6h1v10.9h5.2v-11h1c.3 0 .7 0 1-.4.3.7.6 1.4 1 2zm15 1.4c2.8-.5 4.9-2.9 4.9-5.8V1.7H34v13.2c0 2.9 2.1 5.3 4.9 5.8v14.7h9.3V20.7zm-7.3-2h-1c-2.1 0-3.8-1.7-3.8-3.8V3.8h15v11.1c0 2.1-1.7 3.8-3.8 3.8h-1v14.6H41V18.7zm9.2-26.9c0-3.6-3-6.6-6.6-6.6s-6.6 3-6.6 6.6 3 6.6 6.6 6.6 6.6-3 6.6-6.6zm-2.1 0c0 2.5-2 4.5-4.5 4.5S39-5.7 39-8.2s2-4.5 4.5-4.5 4.6 2 4.6 4.5zM64.4-.7c0-2.7-2.2-5-5-5s-5 2.2-5 5 2.2 5 5 5 5-2.2 5-5zm-2.1 0c0 1.6-1.3 2.9-2.9 2.9S56.5.9 56.5-.7s1.3-2.9 2.9-2.9 2.9 1.3 2.9 2.9zm-29.6 0c0-2.7-2.2-5-5-5s-5 2.2-5 5 2.2 5 5 5 5-2.2 5-5zm-2 0c0 1.6-1.3 2.9-2.9 2.9S24.9.9 24.9-.7s1.3-2.9 2.9-2.9 2.9 1.3 2.9 2.9zm24.5 7.5v2.1h9.3v6.3c0 2.6-.8 2.6-1.4 2.6h-1v10.9h-5.2v-11h-1c-.3 0-.7 0-1-.4-.2.7-.5 1.3-.9 1.9.3.2.5.3.9.4v11.1h9.3v-11c1.6-.4 2.4-2 2.4-4.6V6.8H55.2z"/></svg>