<svg xmlns="http://www.w3.org/2000/svg" viewBox="28.1 -14.8 36.5 50.5"><linearGradient id="a" gradientUnits="userSpaceOnUse" x1="40.166" y1="36.966" x2="49.43" y2="-15.576"><stop offset="0" stop-color="#6DB33F"/><stop offset="1" stop-color="#72CDF4"/></linearGradient><path fill="url(#a)" d="M57.6 18.2c-.5 0-.8.4-.8.8v6.5h-27V-4.7h26.9v1.9c0 .5.4.8.8.8.5 0 .8-.4.8-.8v-6.9c0-2.8-2.3-5-5-5H33.2c-2.8 0-5 2.3-5 5v40.4c0 2.8 2.3 5 5 5h20.2c2.8 0 5-2.3 5-5V19c0-.4-.4-.8-.8-.8zM33.2-13.1h20.2c1.9 0 3.4 1.5 3.4 3.4v3.4h-27v-3.4c0-1.9 1.5-3.4 3.4-3.4zM53.4 34H33.2c-1.9 0-3.4-1.5-3.4-3.4v-3.4h26.9v3.4c0 1.9-1.5 3.4-3.3 3.4zM36.5-8.9c0-.5.4-.8.8-.8h11.8c.5 0 .8.4.8.8s-.4.8-.8.8H37.4c-.5 0-.9-.4-.9-.8zm6.8 37c-1.4 0-2.5 1.1-2.5 2.5s1.1 2.5 2.5 2.5 2.5-1.1 2.5-2.5-1.1-2.5-2.5-2.5zm0 3.4c-.5 0-.8-.4-.8-.8s.4-.8.8-.8.8.4.8.8-.4.8-.8.8zM64.6 2.3v11.2c0 1.6-1.3 2.9-2.9 2.9H47l-4.7 3.3c-.1.1-.3.1-.5.1-.3 0-.5-.1-.7-.4-.3-.4-.2-.9.2-1.2l4.9-3.4h.1s.1 0 .2-.1H61.7c.7 0 1.3-.6 1.3-1.3V2.3c0-.7-.6-1.3-1.3-1.3H43.9c-.7 0-1.3.6-1.3 1.3v11.2c0 .5-.4.8-.8.8-.5 0-.8-.4-.8-.8V2.3c0-1.6 1.3-2.9 2.9-2.9h17.7c1.7 0 3 1.3 3 2.9z"/></svg>