<svg xmlns="http://www.w3.org/2000/svg" viewBox="7.7 -14.8 71.4 50.4"><linearGradient id="a" gradientUnits="userSpaceOnUse" x1="37.548" y1="37.406" x2="47.477" y2="-18.904"><stop offset="0" stop-color="#6DB33F"/><stop offset="1" stop-color="#72CDF4"/></linearGradient><path fill="url(#a)" d="M70.5-14.8H10.9c-1.7 0-3.1 1.4-3.1 3.1v35.3c0 1.7 1.4 3.1 3.1 3.1h23.4v7h-6.8c-.5 0-.9.4-.9.9s.4.9.9.9H54c.5 0 .9-.4.9-.9s-.4-.9-.9-.9h-6.6v-7h6.4c-.3-.6-.7-1.2-.9-1.8h-42c-.7 0-1.3-.6-1.3-1.3v-35.3c0-.7.6-1.3 1.3-1.3h59.6c.7 0 1.3.6 1.3 1.3V4.9c.6.2 1.3.5 1.8.8v-17.4c0-1.7-1.4-3.1-3.1-3.1zM36.1 33.8v-7h9v7h-9zm30.6-2.3c-6.8 0-12.4-5.5-12.4-12.4 0-6.8 5.5-12.4 12.4-12.4 6.8 0 12.4 5.5 12.4 12.4s-5.5 12.4-12.4 12.4zm0-22.9c-5.8 0-10.5 4.7-10.5 10.5s4.7 10.5 10.5 10.5 10.5-4.7 10.5-10.5S72.5 8.6 66.7 8.6zm.5 9.7v-3.1c.7.2 1.2.8 1.2 1.5 0 .5.4.9.9.9s.9-.4.9-.9c0-1.7-1.3-3.2-3-3.4v-.8c0-.2-.2-.4-.4-.4s-.4.2-.4.4v.8c-1.7.2-3 1.6-3 3.4 0 1.7 1.3 3.2 3 3.4v3.1c-.7-.2-1.2-.8-1.2-1.5 0-.5-.4-.9-.9-.9s-.9.4-.9.9c0 1.7 1.3 3.2 3 3.4v.8c0 .2.2.4.4.4s.4-.2.4-.4V25c1.7-.2 3-1.6 3-3.4 0-1.7-1.4-3.1-3-3.3zm-2-1.6c0-.7.5-1.3 1.2-1.5v3c-.7-.2-1.2-.8-1.2-1.5zm2 6.5v-3c.7.2 1.2.8 1.2 1.5s-.6 1.3-1.2 1.5zM52 22.4H12.1v-32.7h57V4.2c-.6-.1-1.2-.2-1.8-.2V-8.5H14v29.1h37.7c0 .5.1 1.2.3 1.8z"/></svg>