<svg xmlns="http://www.w3.org/2000/svg" viewBox="-29.6 -19.3 78.3 58.7"><linearGradient id="a" gradientUnits="userSpaceOnUse" x1="6.465" y1="37.16" x2="16.628" y2="-20.479"><stop offset="0" stop-color="#6DB33F"/><stop offset="1" stop-color="#72CDF4"/></linearGradient><path fill="url(#a)" d="M22.1 26.7L19.3 30c-.2.2-.5.4-.8.4h-.1c-.3 0-.6-.2-.8-.4l-2.4-3.6c-.3-.5-.2-1.1.3-1.4.5-.3 1.1-.2 1.4.3l.2.4c0-2.5.7-5 2-7.2 2.1-3.5 5.5-6 9.3-6.9 5.1-1.2 10.4.5 13.9 4.4.4.4.3 1-.1 1.4-.4.4-1 .3-1.4-.1-3-3.4-7.5-4.8-11.9-3.8-3.3.8-6.2 3-8 6-1.4 2.3-2 5-1.7 7.6l1.3-1.6c.4-.4 1-.5 1.4-.1.5.2.6.9.2 1.3zm26.3-1.1l-2.8-3.3c-.2-.2-.5-.4-.8-.4-.3 0-.6.2-.8.4l-2.4 3.6c-.3.5-.2 1.1.3 1.4.2.1.4.2.6.2.3 0 .6-.2.8-.4l.8-1.1c-.3 5.1-4.2 9.9-9.5 11.2-4.1 1-8.3-.2-11.3-3.2-.4-.4-1-.4-1.4 0-.4.4-.4 1 0 1.4 2.7 2.7 6.2 4.1 9.9 4.1 1.1 0 2.2-.1 3.3-.4 6.3-1.5 10.8-7.1 11-13.2l.8 1c.4.4 1 .5 1.4.1.4-.4.5-1 .1-1.4zm-55.9-6h-2.4c-.6 0-1 .4-1 1s.4 1 1 1h2.4c.6 0 1-.4 1-1s-.4-1-1-1zm-7-4.7h-2.4c-.6 0-1 .4-1 1s.4 1 1 1h2.4c.6 0 1-.4 1-1s-.5-1-1-1zm7 0h-2.4c-.6 0-1 .4-1 1s.4 1 1 1h2.4c.6 0 1-.4 1-1s-.4-1-1-1zm-14.1 4.7H-24c-.6 0-1 .4-1 1s.4 1 1 1h2.4c.6 0 1-.4 1-1s-.4-1-1-1zm0-4.7H-24c-.6 0-1 .4-1 1s.4 1 1 1h2.4c.6 0 1-.4 1-1s-.4-1-1-1zm7.1 4.7h-2.4c-.6 0-1 .4-1 1s.4 1 1 1h2.4c.6 0 1-.4 1-1s-.5-1-1-1zm32.9-30.3H-.4c-.6 0-1 .4-1 1s.4 1 1 1h18.8c.6 0 1-.4 1-1s-.4-1-1-1zm0 7.6H-.4c-.6 0-1 .4-1 1s.4 1 1 1h18.8c.6 0 1-.4 1-1s-.4-1-1-1zM-.4 19.6h-2.4c-.6 0-1 .4-1 1s.4 1 1 1h2.4c.6 0 1-.4 1-1s-.5-1-1-1zM18.4 4.4H-.4c-.6 0-1 .4-1 1s.4 1 1 1h18.8c.6 0 1-.4 1-1s-.4-1-1-1zM-.4 14.9h-2.4c-.6 0-1 .4-1 1s.4 1 1 1h2.4c.6 0 1-.4 1-1s-.5-1-1-1zM13.7 29c.1.7.3 1.3.5 2h-42.8c-.6 0-1-.4-1-1V13.5c0-1.8 1.5-3.4 3.4-3.4h17.8V-16c0-1.8 1.5-3.4 3.4-3.4h28.2c1.8 0 3.4 1.5 3.4 3.4V7.5c-.7.2-1.4.5-2 .8v-24.2c0-.7-.6-1.4-1.4-1.4H-5.1c-.7 0-1.4.6-1.4 1.4v26.1h8.4c1.3 0 2.4.8 3 1.8h13.5c.2 0 .3 0 .4.1-.6.6-1.1 1.2-1.6 1.9H5.3v5.6h9c-.2.7-.4 1.3-.5 2H5.3V29h8.4zm-23.3-2.7h-5.1V29h5.1v-2.7zM3.3 13.5c0-.7-.6-1.4-1.4-1.4h-28.2c-.7 0-1.4.6-1.4 1.4V29h10.9v-3.7c0-.6.4-1 1-1h7.1c.6 0 1 .4 1 1V29h11V13.5z"/></svg>