<svg xmlns="http://www.w3.org/2000/svg" viewBox="-1.5 -14.5 95.8 50.4"><linearGradient id="a" gradientUnits="userSpaceOnUse" x1="41.749" y1="36.887" x2="50.998" y2="-15.57"><stop offset="0" stop-color="#6DB33F"/><stop offset="1" stop-color="#72CDF4"/></linearGradient><path fill="url(#a)" d="M46.7 10.9v-3c.4.3.6.7.6 1.2 0 .6.4 1 1 1s1-.4 1-1c0-1.6-1.1-3-2.6-3.4v-.9c0-.6-.4-1-1-1s-1 .4-1 1v.9c-1.5.4-2.6 1.8-2.6 3.4s1.1 3 2.6 3.4v3c-.4-.3-.6-.7-.6-1.2 0-.6-.4-1-1-1s-1 .4-1 1c0 1.6 1.1 3 2.6 3.4v.9c0 .6.4 1 1 1s1-.4 1-1v-.9c1.5-.4 2.6-1.8 2.6-3.4s-1.1-3-2.6-3.4zm-2.6-1.8c0-.5.2-1 .6-1.2v2.5c-.4-.3-.6-.8-.6-1.3zm2.6 6.5v-2.5c.4.3.6.7.6 1.2s-.3 1-.6 1.3zM46 .2c.4-.5.7-1.1.9-1.8.2 0 .4.1.6.1h1c6.1 1.3 10.7 6.7 10.8 13.2l-.6.4-1.2.9c-.1.1-.2.1-.3.2.1-.5.1-.9.1-1.4C57.3 5.4 52.2.3 46 .2zM32.1 11.7c0-.4 0-.7.1-1.1.2-.1.4-.3.5-.4.2-.2.4-.3.6-.5l.8-.5c.1-.1.2-.2.3-.2-.2.9-.3 1.8-.3 2.7 0 5.3 3.6 9.8 8.4 11.1h-4.6c-3.5-2.4-5.8-6.5-5.8-11.1zm4.4 24.1c-1.1 0-2.2-.3-3.1-.7-.8-.5-1.5-1.2-2-2.1-.3-.7-.8-1.8-.7-3 .1-1 .4-1.9.9-2.6.3-.5.7-.8 1.1-1.1l.2-.2c.7-.7 1.6-1 2.8-1h9.6c.6 0 1 .4 1 1s-.4 1-1 1h-9.5c-.7 0-1.1.2-1.5.5l-.3.1c-.3.3-.6.5-.7.8-.3.4-.5 1-.6 1.7-.1.6.1 1.2.5 2 .2.4.6 1 1.1 1.3.6.3 1.3.5 2.1.5h18.4c1 0 2.1 0 3.2-.2 1-.2 1.9-.6 2.7-1 1.1-.6 2.2-1.3 3.3-2 1.1-.7 2.2-1.5 3.3-2.2l.2-.1 1.2-.9c.5-.4 1-.7 1.5-1 .8-.6 1.7-1.1 2.4-1.5.6-.3 1.3-.7 2.3-.8h7V10.8h-7.8c-.6 0-1.2 0-1.9-.1-.3 0-.6-.1-.9-.1-.4-.1-.7-.1-1-.1-.9 0-1.8.1-2.7.5-.5.2-1 .5-1.6.8l-.4.2c-.2.1-.4.3-.6.4-.1.1-.2.2-.4.3l-2.2 1.6c-.2.2-.5.3-.7.5-.3.2-.5.4-.8.6-.4.3-.8.5-1.1.8-.3.2-.5.4-.8.6-.3.2-.5.4-.8.6-.3.3-.7.5-1 .7l-.6.5c-.2.1-.4.3-.6.4-.2.2-.4.3-.6.5l-1 .7c-.5.4-1 .7-1.5 1.1-.4.3-.7.5-1.1.8-.5.4-1 .8-1.6 1.2-.4.3-.6.6-.7.9-.2.9-.1 1.8.3 2.5.5.8 1 1.3 1.5 1.5.6.3 1.2.3 1.8.1.4-.1.7-.4 1.1-.7.1-.1.3-.2.4-.3.4-.2.7-.5 1.1-.8.4-.3.7-.5 1.1-.8 1.1-.7 2.2-1.5 3.3-2.2.7-.5 1.5-.9 2.6-.6.2.1.4.1.5.2l.2.1c.5.2.7.8.5 1.3-.2.5-.8.7-1.3.5-.1 0-.2-.1-.2-.1s-.1 0-.1-.1c-.2-.1-.5 0-1 .4-1.1.7-2.2 1.5-3.3 2.2-.4.2-.7.5-1.1.8-.4.3-.7.5-1.1.8-.1.1-.3.2-.4.3-.5.3-1 .7-1.6.9-1.1.4-2.3.4-3.4-.1-1.2-.6-2-1.6-2.4-2.3-.7-1.1-.9-2.5-.5-4 .2-.8.7-1.5 1.5-2 .5-.4 1-.8 1.5-1.1.4-.3.7-.5 1.1-.8.5-.4 1-.7 1.5-1.1l1-.7c.2-.1.4-.3.6-.4.2-.2.4-.3.6-.5l.7-.5c.3-.2.7-.5 1-.7.2-.2.5-.4.7-.6.3-.2.5-.4.8-.6.4-.3.8-.6 1.2-.8l.8-.6c.2-.2.4-.3.7-.5l2.3-1.6c.1-.1.2-.2.3-.2.3-.2.5-.4.8-.6l.4-.5c.6-.3 1.2-.7 1.9-1 1.2-.4 2.3-.6 3.5-.6.4 0 .9.1 1.3.1.2 0 .5.1.7.1.6.1 1.1.1 1.7.1h8.3c1.1 0 1.5.4 1.5 1.5v14.1c0 1-.5 1.6-1.6 1.6L76 26h-.9c-.5 0-.9.2-1.4.5-.7.4-1.5.9-2.3 1.5-.5.3-1 .7-1.4 1-.4.3-.8.6-1.3.9l-.2.1c-1.1.7-2.2 1.5-3.3 2.2-1.1.7-2.3 1.5-3.5 2.1-.9.4-1.9.9-3.2 1.2-1.3.3-2.5.3-3.6.3H36.5zm56.8-4.5H82.8c-.6 0-1-.4-1-1v-23c0-.6.4-1 1-1h10.5c.6 0 1 .4 1 1v23c0 .5-.5 1-1 1zm-9.5-2h8.5v-21h-8.5v21zm4.3-13.5c-1.6 0-2.8-1.3-2.8-2.8s1.3-2.8 2.8-2.8 2.8 1.3 2.8 2.8-1.3 2.8-2.8 2.8zm0-3.7c-.5 0-.8.4-.8.8s.4.8.8.8.8-.4.8-.8-.4-.8-.8-.8zm-65.5.7h-.3c-.4 0-.9-.1-1.3-.1-.2 0-.5-.1-.7-.1-.6-.1-1.1-.1-1.7-.1h-8.3c-1.1 0-1.5-.4-1.5-1.5V-3.1c0-1 .5-1.6 1.6-1.6h7.2c.5 0 .9-.2 1.4-.5.7-.4 1.5-.9 2.3-1.4.5-.3 1-.7 1.4-1 .4-.3.8-.6 1.3-.9l.2-.1c1.1-.7 2.2-1.5 3.3-2.2 1.1-.7 2.3-1.5 3.5-2.1.9-.4 1.9-.9 3.2-1.2 1.3-.3 2.5-.3 3.6-.3h18.4c1.1 0 2.2.3 3.1.7.8.5 1.5 1.2 2 2.2.3.7.8 1.8.7 3-.1 1-.4 1.9-.9 2.6-.3.5-.7.8-1.1 1.1l-.2.2c-.7.7-1.6 1-2.8 1h-9.6c-.6 0-1-.4-1-1s.4-1 1-1h9.4c.7 0 1.1-.2 1.5-.5l.2-.2c.3-.3.6-.5.7-.8.3-.4.5-1 .6-1.7.1-.6-.1-1.2-.5-2-.2-.4-.6-1-1.1-1.3-.6-.3-1.3-.5-2.1-.5H37.7c-1 0-2.1 0-3.2.2-1 .2-1.9.6-2.7 1-1.1.6-2.2 1.3-3.3 2-1.1.7-2.2 1.5-3.3 2.2l.1.2-1.2.9c-.5.4-1 .7-1.5 1-.8.6-1.7 1.1-2.4 1.5-.6.3-1.3.8-2.3.8h-7v13.2h7.8c.6 0 1.2 0 1.9.1.3 0 .6.1.9.1.4.1.7.1 1 .1.9 0 1.8-.1 2.7-.5.5-.2 1-.5 1.6-.8l.3-.2c.2-.1.4-.3.6-.4.1-.1.2-.2.4-.3L30.3 7c.2-.2.5-.3.7-.5.3-.2.5-.4.8-.6.4-.3.8-.5 1.1-.8.3-.2.5-.4.8-.6.2-.2.5-.4.7-.6.3-.3.7-.5 1-.7l.6-.5c.2-.1.4-.3.6-.4.2-.2.4-.3.6-.5l1-.7c.5-.4 1-.7 1.5-1.1.4-.3.7-.5 1.1-.8.5-.4 1-.8 1.6-1.2.4-.3.6-.6.7-.9.2-.9.1-1.8-.3-2.5-.5-.8-1-1.3-1.5-1.5-.6-.3-1.2-.3-1.8-.1-.4.1-.7.4-1.1.7-.2.2-.4.3-.5.4-.4.3-.7.5-1.1.8-.4.3-.7.5-1.1.8-1.1.7-2.2 1.5-3.3 2.2-.7.5-1.5.9-2.6.6-.2-.1-.4-.1-.5-.2l-.2-.1c-.5-.2-.7-.8-.5-1.3s.8-.7 1.3-.5c.1 0 .2.1.2.1s.1 0 .1.1c.2.1.5 0 1-.4 1.1-.7 2.2-1.5 3.3-2.2.4-.2.7-.5 1.1-.8.4-.2.8-.5 1.2-.7.1-.1.3-.2.4-.3.5-.3 1-.7 1.6-.9 1.1-.4 2.3-.4 3.4.1 1.2.6 2 1.6 2.4 2.3.7 1.1.9 2.5.5 4-.2.8-.7 1.5-1.5 2-.5.4-1 .8-1.5 1.1-.4.3-.7.5-1.1.8-.5.4-1 .7-1.5 1.1l-1 .7c-.2.1-.4.3-.6.4-.2.2-.4.3-.6.5l-.7.5c-.3.2-.7.5-1 .7-.2.2-.5.4-.7.5-.3.2-.5.4-.8.6-.4.3-.8.6-1.2.8l-.8.6c-.2.2-.4.3-.7.5l-2.3 1.6c-.1.1-.2.2-.3.2-.3.2-.5.4-.8.6l-.3.2c-.6.3-1.2.7-1.9 1-1 .5-2.1.7-3.2.7zM9.9 15.1H-.5c-.6 0-1-.4-1-1v-23c0-.6.4-1 1-1H9.9c.6 0 1 .4 1 1v23c0 .6-.4 1-1 1zm-9.4-2H9v-21H.5v21zm4.2-1.9c-1.6 0-2.8-1.3-2.8-2.8s1.3-2.8 2.8-2.8 2.8 1.3 2.8 2.8-1.2 2.8-2.8 2.8zm0-3.7c-.5 0-.8.4-.8.8s.4.8.8.8.8-.4.8-.8-.3-.8-.8-.8z"/></svg>