<svg xmlns="http://www.w3.org/2000/svg" viewBox="-17.2 -10.8 54.9 35.6"><linearGradient id="a" gradientUnits="userSpaceOnUse" x1="7.599" y1="29.002" x2="14.777" y2="-11.709"><stop offset="0" stop-color="#6DB33F"/><stop offset="1" stop-color="#72CDF4"/></linearGradient><path fill="url(#a)" d="M36.6 24.8H17.4c-.6 0-1-.4-1-1V4.6c0-.6.4-1 1-1h19.2c.6 0 1 .4 1 1v19.2c0 .5-.4 1-1 1zm-18.2-2h17.2V5.6H18.4v17.2zM32.8 9.4c0-.6-.4-1-1-1h-9.6c-.6 0-1 .4-1 1s.4 1 1 1h9.6c.6 0 1-.5 1-1zM3 24.8h-19.2c-.6 0-1-.4-1-1V4.6c0-.6.4-1 1-1H3c.6 0 1 .4 1 1v19.2c0 .5-.4 1-1 1zm-18.2-2H2V5.6h-17.2v17.2zM-.8 9.4c0-.6-.4-1-1-1h-9.6c-.6 0-1 .4-1 1s.4 1 1 1h9.6c.6 0 1-.5 1-1zM-2.4-6.9h-4.2c-.6 0-1 .4-1 1v7.5h2v-6.5h3.2v-2zm29.4 0h-4.2v2H26v6.5h2v-7.5c0-.6-.4-1-1-1zM14.4 8.4H6v2h8.4v-2zm4.4-6.8h2V-9.8c0-.6-.4-1-1-1H.6c-.6 0-1 .4-1 1V1.6h2V-8.8h17.2V1.6zM16-5c0-.6-.4-1-1-1H5.3c-.6 0-1 .4-1 1s.4 1 1 1H15c.5 0 1-.4 1-1z"/></svg>