<svg xmlns="http://www.w3.org/2000/svg"><symbol id="icon_change-centers" viewBox="-29.6 -19.3 78.3 58.7"><linearGradient id="a" gradientUnits="userSpaceOnUse" x1="6.465" y1="37.16" x2="16.628" y2="-20.479"><stop offset="0" stop-color="#6DB33F"/><stop offset="1" stop-color="#72CDF4"/></linearGradient><path fill="url(#a)" d="M22.1 26.7L19.3 30c-.2.2-.5.4-.8.4h-.1c-.3 0-.6-.2-.8-.4l-2.4-3.6c-.3-.5-.2-1.1.3-1.4.5-.3 1.1-.2 1.4.3l.2.4c0-2.5.7-5 2-7.2 2.1-3.5 5.5-6 9.3-6.9 5.1-1.2 10.4.5 13.9 4.4.4.4.3 1-.1 1.4-.4.4-1 .3-1.4-.1-3-3.4-7.5-4.8-11.9-3.8-3.3.8-6.2 3-8 6-1.4 2.3-2 5-1.7 7.6l1.3-1.6c.4-.4 1-.5 1.4-.1.5.2.6.9.2 1.3zm26.3-1.1l-2.8-3.3c-.2-.2-.5-.4-.8-.4-.3 0-.6.2-.8.4l-2.4 3.6c-.3.5-.2 1.1.3 1.4.2.1.4.2.6.2.3 0 .6-.2.8-.4l.8-1.1c-.3 5.1-4.2 9.9-9.5 11.2-4.1 1-8.3-.2-11.3-3.2-.4-.4-1-.4-1.4 0-.4.4-.4 1 0 1.4 2.7 2.7 6.2 4.1 9.9 4.1 1.1 0 2.2-.1 3.3-.4 6.3-1.5 10.8-7.1 11-13.2l.8 1c.4.4 1 .5 1.4.1.4-.4.5-1 .1-1.4zm-55.9-6h-2.4c-.6 0-1 .4-1 1s.4 1 1 1h2.4c.6 0 1-.4 1-1s-.4-1-1-1zm-7-4.7h-2.4c-.6 0-1 .4-1 1s.4 1 1 1h2.4c.6 0 1-.4 1-1s-.5-1-1-1zm7 0h-2.4c-.6 0-1 .4-1 1s.4 1 1 1h2.4c.6 0 1-.4 1-1s-.4-1-1-1zm-14.1 4.7H-24c-.6 0-1 .4-1 1s.4 1 1 1h2.4c.6 0 1-.4 1-1s-.4-1-1-1zm0-4.7H-24c-.6 0-1 .4-1 1s.4 1 1 1h2.4c.6 0 1-.4 1-1s-.4-1-1-1zm7.1 4.7h-2.4c-.6 0-1 .4-1 1s.4 1 1 1h2.4c.6 0 1-.4 1-1s-.5-1-1-1zm32.9-30.3H-.4c-.6 0-1 .4-1 1s.4 1 1 1h18.8c.6 0 1-.4 1-1s-.4-1-1-1zm0 7.6H-.4c-.6 0-1 .4-1 1s.4 1 1 1h18.8c.6 0 1-.4 1-1s-.4-1-1-1zM-.4 19.6h-2.4c-.6 0-1 .4-1 1s.4 1 1 1h2.4c.6 0 1-.4 1-1s-.5-1-1-1zM18.4 4.4H-.4c-.6 0-1 .4-1 1s.4 1 1 1h18.8c.6 0 1-.4 1-1s-.4-1-1-1zM-.4 14.9h-2.4c-.6 0-1 .4-1 1s.4 1 1 1h2.4c.6 0 1-.4 1-1s-.5-1-1-1zM13.7 29c.1.7.3 1.3.5 2h-42.8c-.6 0-1-.4-1-1V13.5c0-1.8 1.5-3.4 3.4-3.4h17.8V-16c0-1.8 1.5-3.4 3.4-3.4h28.2c1.8 0 3.4 1.5 3.4 3.4V7.5c-.7.2-1.4.5-2 .8v-24.2c0-.7-.6-1.4-1.4-1.4H-5.1c-.7 0-1.4.6-1.4 1.4v26.1h8.4c1.3 0 2.4.8 3 1.8h13.5c.2 0 .3 0 .4.1-.6.6-1.1 1.2-1.6 1.9H5.3v5.6h9c-.2.7-.4 1.3-.5 2H5.3V29h8.4zm-23.3-2.7h-5.1V29h5.1v-2.7zM3.3 13.5c0-.7-.6-1.4-1.4-1.4h-28.2c-.7 0-1.4.6-1.4 1.4V29h10.9v-3.7c0-.6.4-1 1-1h7.1c.6 0 1 .4 1 1V29h11V13.5z"/></symbol><symbol id="icon_data-science" viewBox="8.8 -14.6 75.4 50.4"><linearGradient id="a" gradientUnits="userSpaceOnUse" x1="76.168" y1="-74.456" x2="95.128" y2="33.071" gradientTransform="matrix(.563 0 0 -.563 2.31 .145)"><stop offset="0" stop-color="#6DB33F"/><stop offset="1" stop-color="#72CDF4"/></linearGradient><path fill="url(#a)" d="M82.9 33.2h-3.7v-46.5c0-.7-.7-1.3-1.3-1.3h-10c-.7 0-1.3.7-1.3 1.3v46.5h-5V9.3c0-.7-.7-1.3-1.3-1.3h-10c-.7 0-1.3.7-1.3 1.3v23.9h-5V1.7C44 1 43.3.4 42.7.4h-10c-.7 0-1.3.7-1.3 1.3v31.5h-5V19.3c0-.7-.7-1.3-1.3-1.3h-10c-.7 0-1.3.7-1.3 1.3v13.9h-3.7c-.7 0-1.3.7-1.3 1.3 0 .7.7 1.3 1.3 1.3H82.9c.7 0 1.3-.7 1.3-1.3 0-.8-.4-1.3-1.3-1.3zm-66.5 0V20.6H24v12.6h-7.6zm17.6 0V3h7.6v30.2H34zm17.6 0V10.6h7.6v22.6h-7.6zm17.6 0V-12h7.6v45.2h-7.6z"/></symbol><symbol id="icon_decisive-infrastructure" viewBox="-17.2 -10.8 54.9 35.6"><linearGradient id="a" gradientUnits="userSpaceOnUse" x1="7.599" y1="29.002" x2="14.777" y2="-11.709"><stop offset="0" stop-color="#6DB33F"/><stop offset="1" stop-color="#72CDF4"/></linearGradient><path fill="url(#a)" d="M36.6 24.8H17.4c-.6 0-1-.4-1-1V4.6c0-.6.4-1 1-1h19.2c.6 0 1 .4 1 1v19.2c0 .5-.4 1-1 1zm-18.2-2h17.2V5.6H18.4v17.2zM32.8 9.4c0-.6-.4-1-1-1h-9.6c-.6 0-1 .4-1 1s.4 1 1 1h9.6c.6 0 1-.5 1-1zM3 24.8h-19.2c-.6 0-1-.4-1-1V4.6c0-.6.4-1 1-1H3c.6 0 1 .4 1 1v19.2c0 .5-.4 1-1 1zm-18.2-2H2V5.6h-17.2v17.2zM-.8 9.4c0-.6-.4-1-1-1h-9.6c-.6 0-1 .4-1 1s.4 1 1 1h9.6c.6 0 1-.5 1-1zM-2.4-6.9h-4.2c-.6 0-1 .4-1 1v7.5h2v-6.5h3.2v-2zm29.4 0h-4.2v2H26v6.5h2v-7.5c0-.6-.4-1-1-1zM14.4 8.4H6v2h8.4v-2zm4.4-6.8h2V-9.8c0-.6-.4-1-1-1H.6c-.6 0-1 .4-1 1V1.6h2V-8.8h17.2V1.6zM16-5c0-.6-.4-1-1-1H5.3c-.6 0-1 .4-1 1s.4 1 1 1H15c.5 0 1-.4 1-1z"/></symbol><symbol id="icon_global-sourcing" viewBox="-27.4 -25.8 75 67.4"><linearGradient id="a" gradientUnits="userSpaceOnUse" x1="5.653" y1="47.184" x2="18.642" y2="-26.483"><stop offset="0" stop-color="#6DB33F"/><stop offset="1" stop-color="#72CDF4"/></linearGradient><path fill="url(#a)" d="M9.9 41.5h-36.2c-.6 0-1.1-.5-1.1-1.1 0-.1 0-3.5 1.7-6.9 1.2-2.4 5.2-3.9 10.8-5.9.6-.2 1.1-.4 1.7-.6v-3.4c-.8-.7-2.1-2.2-2.3-4.6-.4-.4-.6-.9-.8-1.6-.3-1.2-.1-2.5.6-3.4v-.1c-.6-1.8-1.6-5.2-.1-7.2.4-.5 1.1-1.1 2.2-1.3 1.1-1.7 4-2.3 6.6-2.3 3.3 0 7.3 1 7.9 4 .5 2.3-.7 5.2-1.3 6.8 0 .1 0 .1-.1.2.7.9.9 2.2.6 3.4-.2.7-.4 1.2-.8 1.6-.2 2.4-1.6 3.9-2.3 4.6v3.4c.6.2 1.1.4 1.7.6 5.5 2 9.5 3.5 10.8 5.9 1.7 3.3 1.7 6.8 1.7 6.9-.1.5-.6 1-1.3 1zM-25 39.3H8.7c-.1-1.1-.5-3-1.4-4.7-.8-1.6-4.8-3.1-9.5-4.8-.8-.3-1.6-.6-2.5-.9-.4-.2-.7-.6-.7-1.1V23c0-.4.2-.7.5-.9.1 0 1.9-1.3 1.9-3.8 0-.5.3-.9.7-1 .1-.3.3-.9.2-1.4 0-.2-.1-.4-.2-.4-.4-.2-.6-.6-.6-1 0-.3.1-.6.4-1.4.5-1.2 1.5-3.8 1.2-5.5C-1.5 6.4-4 5.5-7 5.5c-2.8 0-4.6.8-4.7 1.4-.1.5-.6.9-1.1.9-.9-.2-1.2.1-1.2.2-.8 1.1.1 4 .5 5.2.2.6.3.9.3 1.1 0 .4-.2.8-.6 1-.1.1-.2.2-.2.4-.1.5 0 1.2.2 1.4.4.2.7.6.7 1 0 2.5 1.8 3.8 1.9 3.8.3.2.5.6.5.9v4.7c0 .5-.3.9-.7 1.1-.8.3-1.7.6-2.5.9-4.7 1.7-8.7 3.2-9.5 4.8-1.1 2-1.5 3.8-1.6 5zm44.8-65.1h-1.2C3.6-25.2-7.7-13.8-8 .8h2C-6-2.7-5.2-6-3.9-9H8.5c-1 3.6-1.4 7.2-1.3 11H-1c1.1.5 2.1 1.2 2.8 2h5.6c.3 3.6 1.1 7.3 2.5 11H2.3c.1.6.2 1.3.1 2h8.1c1.5 3.6 3.5 7.2 6 10.8-5.9-.9-11.1-3.7-15.1-7.8-.1.8-.4 1.5-.7 2.1 5 4.8 11.6 7.7 19 7.7 15.4 0 27.9-12.5 27.9-27.9 0-15.3-12.5-27.7-27.8-27.7zM42.1-11H30.5c-1.5-4.4-3.9-8.6-7.1-12.6 7.9 1.1 14.8 5.9 18.7 12.6zm-23-12.8h1.4c3.6 4 6.3 8.3 7.9 12.8H11.1c1.7-4.5 4.3-8.8 8-12.8zM-2.8-11c3.8-6.8 10.7-11.6 19-12.6-3.2 3.9-5.6 8.1-7.1 12.6H-2.8zm13.3 2h18.6c1.1 3.6 1.5 7.2 1.4 11H9.1c-.1-3.8.3-7.5 1.4-11zM9.2 3.9h21.1c-.3 3.6-1.2 7.3-2.6 11H11.9c-1.5-3.7-2.4-7.4-2.7-11zm10.5 23.9h-.6c-2.7-3.6-4.8-7.3-6.4-10.9h14.2c-1.6 3.6-3.8 7.3-6.4 10.9h-.8zm3.4-.2c2.5-3.5 4.5-7.1 6-10.7h11.8c-4.1 5.7-10.5 9.8-17.8 10.7zm19-12.7H29.8c1.3-3.7 2.2-7.3 2.5-11h13.3c-.4 4-1.6 7.7-3.5 11zm-9.7-13c.1-3.7-.3-7.4-1.3-11h12.1c1.6 3.3 2.5 7 2.5 10.9H32.4z"/></symbol><symbol id="icon_mass-empowerment" viewBox="20.7 -14.8 45.8 50.2"><linearGradient id="a" gradientUnits="userSpaceOnUse" x1="39.425" y1="35.465" x2="48.164" y2="-14.098"><stop offset="0" stop-color="#6DB33F"/><stop offset="1" stop-color="#72CDF4"/></linearGradient><path fill="url(#a)" d="M33.3 19.3c-.3.2-.5.3-.9.4v11.1h-9.3V19.7c-1.6-.4-2.4-2-2.4-4.6V6.8H32v2.1h-9.3v6.3c0 2.6.8 2.6 1.4 2.6h1v10.9h5.2v-11h1c.3 0 .7 0 1-.4.3.7.6 1.4 1 2zm15 1.4c2.8-.5 4.9-2.9 4.9-5.8V1.7H34v13.2c0 2.9 2.1 5.3 4.9 5.8v14.7h9.3V20.7zm-7.3-2h-1c-2.1 0-3.8-1.7-3.8-3.8V3.8h15v11.1c0 2.1-1.7 3.8-3.8 3.8h-1v14.6H41V18.7zm9.2-26.9c0-3.6-3-6.6-6.6-6.6s-6.6 3-6.6 6.6 3 6.6 6.6 6.6 6.6-3 6.6-6.6zm-2.1 0c0 2.5-2 4.5-4.5 4.5S39-5.7 39-8.2s2-4.5 4.5-4.5 4.6 2 4.6 4.5zM64.4-.7c0-2.7-2.2-5-5-5s-5 2.2-5 5 2.2 5 5 5 5-2.2 5-5zm-2.1 0c0 1.6-1.3 2.9-2.9 2.9S56.5.9 56.5-.7s1.3-2.9 2.9-2.9 2.9 1.3 2.9 2.9zm-29.6 0c0-2.7-2.2-5-5-5s-5 2.2-5 5 2.2 5 5 5 5-2.2 5-5zm-2 0c0 1.6-1.3 2.9-2.9 2.9S24.9.9 24.9-.7s1.3-2.9 2.9-2.9 2.9 1.3 2.9 2.9zm24.5 7.5v2.1h9.3v6.3c0 2.6-.8 2.6-1.4 2.6h-1v10.9h-5.2v-11h-1c-.3 0-.7 0-1-.4-.2.7-.5 1.3-.9 1.9.3.2.5.3.9.4v11.1h9.3v-11c1.6-.4 2.4-2 2.4-4.6V6.8H55.2z"/></symbol><symbol id="icon_mobile-first" viewBox="28.1 -14.8 36.5 50.5"><linearGradient id="a" gradientUnits="userSpaceOnUse" x1="40.166" y1="36.966" x2="49.43" y2="-15.576"><stop offset="0" stop-color="#6DB33F"/><stop offset="1" stop-color="#72CDF4"/></linearGradient><path fill="url(#a)" d="M57.6 18.2c-.5 0-.8.4-.8.8v6.5h-27V-4.7h26.9v1.9c0 .5.4.8.8.8.5 0 .8-.4.8-.8v-6.9c0-2.8-2.3-5-5-5H33.2c-2.8 0-5 2.3-5 5v40.4c0 2.8 2.3 5 5 5h20.2c2.8 0 5-2.3 5-5V19c0-.4-.4-.8-.8-.8zM33.2-13.1h20.2c1.9 0 3.4 1.5 3.4 3.4v3.4h-27v-3.4c0-1.9 1.5-3.4 3.4-3.4zM53.4 34H33.2c-1.9 0-3.4-1.5-3.4-3.4v-3.4h26.9v3.4c0 1.9-1.5 3.4-3.3 3.4zM36.5-8.9c0-.5.4-.8.8-.8h11.8c.5 0 .8.4.8.8s-.4.8-.8.8H37.4c-.5 0-.9-.4-.9-.8zm6.8 37c-1.4 0-2.5 1.1-2.5 2.5s1.1 2.5 2.5 2.5 2.5-1.1 2.5-2.5-1.1-2.5-2.5-2.5zm0 3.4c-.5 0-.8-.4-.8-.8s.4-.8.8-.8.8.4.8.8-.4.8-.8.8zM64.6 2.3v11.2c0 1.6-1.3 2.9-2.9 2.9H47l-4.7 3.3c-.1.1-.3.1-.5.1-.3 0-.5-.1-.7-.4-.3-.4-.2-.9.2-1.2l4.9-3.4h.1s.1 0 .2-.1H61.7c.7 0 1.3-.6 1.3-1.3V2.3c0-.7-.6-1.3-1.3-1.3H43.9c-.7 0-1.3.6-1.3 1.3v11.2c0 .5-.4.8-.8.8-.5 0-.8-.4-.8-.8V2.3c0-1.6 1.3-2.9 2.9-2.9h17.7c1.7 0 3 1.3 3 2.9z"/></symbol><symbol id="icon_smart-sourcing" viewBox="19.7 -14.9 53.5 50.6"><linearGradient id="a" gradientUnits="userSpaceOnUse" x1="423.211" y1="614.75" x2="538.251" y2="-37.674" gradientTransform="matrix(.082 0 0 .082 7.235 -12.037)"><stop offset="0" stop-color="#6DB33F"/><stop offset="1" stop-color="#72CDF4"/></linearGradient><path fill="url(#a)" d="M50.8-14.9h-.9c-11.1.5-19.7 8.4-21.3 18.8.3 0 .6-.2.8-.2s.6 0 .8.2c.3-1.8.8-3.5 1.5-5.1h10c-.8 2.9-1.1 5.8-1.1 8.9h-2.9c.5.5.9 1.1 1.2 1.5h1.8c.3 2.9.9 5.8 2 8.9h-2.6c-.2.6-.3 1.1-.6 1.5h3.8c1.2 2.9 2.8 5.8 4.8 8.8-4.3-.6-8-2.5-11.1-5.1l-.3.3c-.3.3-.6.6-.6 1.1 4 3.5 9.1 5.7 14.6 5.7 12.5 0 22.5-10 22.5-22.5 0-12.8-10.1-22.8-22.4-22.8zm18 12h-9.4c-1.2-3.5-3.1-6.9-5.7-10.2 6.3 1 11.8 4.9 15.1 10.2zM50.2-13.2h1.2c2.9 3.2 5.1 6.6 6.3 10.3H43.8c1.4-3.6 3.4-7 6.4-10.3zM32.5-2.9c3.1-5.5 8.6-9.2 15.4-10.2-2.6 3.1-4.5 6.6-5.7 10.2h-9.7zm10.7 1.6h14.9c.9 2.9 1.2 5.8 1.1 8.9h-17c-.2-3.1.3-6 1-8.9zm-.9 10.4h16.9c-.3 2.9-.9 5.8-2.2 8.9H44.3c-1.1-3-1.8-5.9-2-8.9zm8.5 19.3h-.5c-2.2-2.9-3.8-5.8-5.1-8.8h11.4c-1.2 2.9-3.1 5.8-5.1 8.8h-.7zm2.6-.2c2-2.8 3.7-5.7 4.8-8.6h9.5c-3.2 4.6-8.5 7.9-14.3 8.6zm15.4-10.3h-10c1.1-2.9 1.8-5.8 2-8.9h10.8c-.4 3.4-1.3 6.5-2.8 8.9zM60.9 7.6c.2-2.9-.3-6-1.1-8.9h9.7c1.2 2.6 2 5.7 2 8.8l-10.6.1zM25.2 26.2c-.5 0-.8-.5-.8-.8 0 0 0-1.8-1.4-3.1-2.2-1.8-3.4-4.6-3.4-7.4 0-5.4 4.3-9.7 9.7-9.7S39 9.5 39 14.9c0 2.8-1.2 5.5-3.2 7.2-1.4 1.2-1.4 3.1-1.4 3.1 0 .5-.3.8-.8.8s-.8-.3-.8-.8c0-.2 0-2.6 2-4.3 1.8-1.5 2.8-3.8 2.8-6.2 0-4.5-3.7-8-8-8s-8.3 3.7-8.3 8.2c0 2.3 1.1 4.5 2.8 6 2 1.8 2 4.3 2 4.3-.1.7-.4 1-.9 1zm-2.1-10.7c-.5 0-.8-.3-.8-.8 0-4 3.2-7.2 7.2-7.2.5 0 .8.3.8.8 0 .4-.3.7-.8.7-3.1 0-5.5 2.5-5.5 5.5-.2.5-.6 1-.9 1zm2.1 15.6c-.3 0-.6-.2-.8-.5-.2-.5.2-.9.5-1.1l3.5-1.1h-3.2c-.5-.2-.8-.5-.8-.9 0-.5.3-.8.8-.8h8.3c.5 0 .8.3.8.6s-.2.8-.6.9L25.5 31c-.1.1-.1.1-.3.1zm8.3 2.2h-8.3c-.5 0-.8-.3-.8-.6-.2-.3.2-.8.6-.9l8.3-2.6c.3-.2.8 0 1.1.5.2.5-.2.9-.5 1.1l-3.5 1.1h3.2c.5 0 .8.3.8.8.1.3-.4.6-.9.6zm-2.9 2.5h-2.8c-.5 0-.8-.3-.8-.8s.2-.8.8-.8h2.8c.5 0 .8.3.8.8s-.3.8-.8.8z"/></symbol><symbol id="icon_value-webs" viewBox="-1.5 -14.5 95.8 50.4"><linearGradient id="a" gradientUnits="userSpaceOnUse" x1="41.749" y1="36.887" x2="50.998" y2="-15.57"><stop offset="0" stop-color="#6DB33F"/><stop offset="1" stop-color="#72CDF4"/></linearGradient><path fill="url(#a)" d="M46.7 10.9v-3c.4.3.6.7.6 1.2 0 .6.4 1 1 1s1-.4 1-1c0-1.6-1.1-3-2.6-3.4v-.9c0-.6-.4-1-1-1s-1 .4-1 1v.9c-1.5.4-2.6 1.8-2.6 3.4s1.1 3 2.6 3.4v3c-.4-.3-.6-.7-.6-1.2 0-.6-.4-1-1-1s-1 .4-1 1c0 1.6 1.1 3 2.6 3.4v.9c0 .6.4 1 1 1s1-.4 1-1v-.9c1.5-.4 2.6-1.8 2.6-3.4s-1.1-3-2.6-3.4zm-2.6-1.8c0-.5.2-1 .6-1.2v2.5c-.4-.3-.6-.8-.6-1.3zm2.6 6.5v-2.5c.4.3.6.7.6 1.2s-.3 1-.6 1.3zM46 .2c.4-.5.7-1.1.9-1.8.2 0 .4.1.6.1h1c6.1 1.3 10.7 6.7 10.8 13.2l-.6.4-1.2.9c-.1.1-.2.1-.3.2.1-.5.1-.9.1-1.4C57.3 5.4 52.2.3 46 .2zM32.1 11.7c0-.4 0-.7.1-1.1.2-.1.4-.3.5-.4.2-.2.4-.3.6-.5l.8-.5c.1-.1.2-.2.3-.2-.2.9-.3 1.8-.3 2.7 0 5.3 3.6 9.8 8.4 11.1h-4.6c-3.5-2.4-5.8-6.5-5.8-11.1zm4.4 24.1c-1.1 0-2.2-.3-3.1-.7-.8-.5-1.5-1.2-2-2.1-.3-.7-.8-1.8-.7-3 .1-1 .4-1.9.9-2.6.3-.5.7-.8 1.1-1.1l.2-.2c.7-.7 1.6-1 2.8-1h9.6c.6 0 1 .4 1 1s-.4 1-1 1h-9.5c-.7 0-1.1.2-1.5.5l-.3.1c-.3.3-.6.5-.7.8-.3.4-.5 1-.6 1.7-.1.6.1 1.2.5 2 .2.4.6 1 1.1 1.3.6.3 1.3.5 2.1.5h18.4c1 0 2.1 0 3.2-.2 1-.2 1.9-.6 2.7-1 1.1-.6 2.2-1.3 3.3-2 1.1-.7 2.2-1.5 3.3-2.2l.2-.1 1.2-.9c.5-.4 1-.7 1.5-1 .8-.6 1.7-1.1 2.4-1.5.6-.3 1.3-.7 2.3-.8h7V10.8h-7.8c-.6 0-1.2 0-1.9-.1-.3 0-.6-.1-.9-.1-.4-.1-.7-.1-1-.1-.9 0-1.8.1-2.7.5-.5.2-1 .5-1.6.8l-.4.2c-.2.1-.4.3-.6.4-.1.1-.2.2-.4.3l-2.2 1.6c-.2.2-.5.3-.7.5-.3.2-.5.4-.8.6-.4.3-.8.5-1.1.8-.3.2-.5.4-.8.6-.3.2-.5.4-.8.6-.3.3-.7.5-1 .7l-.6.5c-.2.1-.4.3-.6.4-.2.2-.4.3-.6.5l-1 .7c-.5.4-1 .7-1.5 1.1-.4.3-.7.5-1.1.8-.5.4-1 .8-1.6 1.2-.4.3-.6.6-.7.9-.2.9-.1 1.8.3 2.5.5.8 1 1.3 1.5 1.5.6.3 1.2.3 1.8.1.4-.1.7-.4 1.1-.7.1-.1.3-.2.4-.3.4-.2.7-.5 1.1-.8.4-.3.7-.5 1.1-.8 1.1-.7 2.2-1.5 3.3-2.2.7-.5 1.5-.9 2.6-.6.2.1.4.1.5.2l.2.1c.5.2.7.8.5 1.3-.2.5-.8.7-1.3.5-.1 0-.2-.1-.2-.1s-.1 0-.1-.1c-.2-.1-.5 0-1 .4-1.1.7-2.2 1.5-3.3 2.2-.4.2-.7.5-1.1.8-.4.3-.7.5-1.1.8-.1.1-.3.2-.4.3-.5.3-1 .7-1.6.9-1.1.4-2.3.4-3.4-.1-1.2-.6-2-1.6-2.4-2.3-.7-1.1-.9-2.5-.5-4 .2-.8.7-1.5 1.5-2 .5-.4 1-.8 1.5-1.1.4-.3.7-.5 1.1-.8.5-.4 1-.7 1.5-1.1l1-.7c.2-.1.4-.3.6-.4.2-.2.4-.3.6-.5l.7-.5c.3-.2.7-.5 1-.7.2-.2.5-.4.7-.6.3-.2.5-.4.8-.6.4-.3.8-.6 1.2-.8l.8-.6c.2-.2.4-.3.7-.5l2.3-1.6c.1-.1.2-.2.3-.2.3-.2.5-.4.8-.6l.4-.5c.6-.3 1.2-.7 1.9-1 1.2-.4 2.3-.6 3.5-.6.4 0 .9.1 1.3.1.2 0 .5.1.7.1.6.1 1.1.1 1.7.1h8.3c1.1 0 1.5.4 1.5 1.5v14.1c0 1-.5 1.6-1.6 1.6L76 26h-.9c-.5 0-.9.2-1.4.5-.7.4-1.5.9-2.3 1.5-.5.3-1 .7-1.4 1-.4.3-.8.6-1.3.9l-.2.1c-1.1.7-2.2 1.5-3.3 2.2-1.1.7-2.3 1.5-3.5 2.1-.9.4-1.9.9-3.2 1.2-1.3.3-2.5.3-3.6.3H36.5zm56.8-4.5H82.8c-.6 0-1-.4-1-1v-23c0-.6.4-1 1-1h10.5c.6 0 1 .4 1 1v23c0 .5-.5 1-1 1zm-9.5-2h8.5v-21h-8.5v21zm4.3-13.5c-1.6 0-2.8-1.3-2.8-2.8s1.3-2.8 2.8-2.8 2.8 1.3 2.8 2.8-1.3 2.8-2.8 2.8zm0-3.7c-.5 0-.8.4-.8.8s.4.8.8.8.8-.4.8-.8-.4-.8-.8-.8zm-65.5.7h-.3c-.4 0-.9-.1-1.3-.1-.2 0-.5-.1-.7-.1-.6-.1-1.1-.1-1.7-.1h-8.3c-1.1 0-1.5-.4-1.5-1.5V-3.1c0-1 .5-1.6 1.6-1.6h7.2c.5 0 .9-.2 1.4-.5.7-.4 1.5-.9 2.3-1.4.5-.3 1-.7 1.4-1 .4-.3.8-.6 1.3-.9l.2-.1c1.1-.7 2.2-1.5 3.3-2.2 1.1-.7 2.3-1.5 3.5-2.1.9-.4 1.9-.9 3.2-1.2 1.3-.3 2.5-.3 3.6-.3h18.4c1.1 0 2.2.3 3.1.7.8.5 1.5 1.2 2 2.2.3.7.8 1.8.7 3-.1 1-.4 1.9-.9 2.6-.3.5-.7.8-1.1 1.1l-.2.2c-.7.7-1.6 1-2.8 1h-9.6c-.6 0-1-.4-1-1s.4-1 1-1h9.4c.7 0 1.1-.2 1.5-.5l.2-.2c.3-.3.6-.5.7-.8.3-.4.5-1 .6-1.7.1-.6-.1-1.2-.5-2-.2-.4-.6-1-1.1-1.3-.6-.3-1.3-.5-2.1-.5H37.7c-1 0-2.1 0-3.2.2-1 .2-1.9.6-2.7 1-1.1.6-2.2 1.3-3.3 2-1.1.7-2.2 1.5-3.3 2.2l.1.2-1.2.9c-.5.4-1 .7-1.5 1-.8.6-1.7 1.1-2.4 1.5-.6.3-1.3.8-2.3.8h-7v13.2h7.8c.6 0 1.2 0 1.9.1.3 0 .6.1.9.1.4.1.7.1 1 .1.9 0 1.8-.1 2.7-.5.5-.2 1-.5 1.6-.8l.3-.2c.2-.1.4-.3.6-.4.1-.1.2-.2.4-.3L30.3 7c.2-.2.5-.3.7-.5.3-.2.5-.4.8-.6.4-.3.8-.5 1.1-.8.3-.2.5-.4.8-.6.2-.2.5-.4.7-.6.3-.3.7-.5 1-.7l.6-.5c.2-.1.4-.3.6-.4.2-.2.4-.3.6-.5l1-.7c.5-.4 1-.7 1.5-1.1.4-.3.7-.5 1.1-.8.5-.4 1-.8 1.6-1.2.4-.3.6-.6.7-.9.2-.9.1-1.8-.3-2.5-.5-.8-1-1.3-1.5-1.5-.6-.3-1.2-.3-1.8-.1-.4.1-.7.4-1.1.7-.2.2-.4.3-.5.4-.4.3-.7.5-1.1.8-.4.3-.7.5-1.1.8-1.1.7-2.2 1.5-3.3 2.2-.7.5-1.5.9-2.6.6-.2-.1-.4-.1-.5-.2l-.2-.1c-.5-.2-.7-.8-.5-1.3s.8-.7 1.3-.5c.1 0 .2.1.2.1s.1 0 .1.1c.2.1.5 0 1-.4 1.1-.7 2.2-1.5 3.3-2.2.4-.2.7-.5 1.1-.8.4-.2.8-.5 1.2-.7.1-.1.3-.2.4-.3.5-.3 1-.7 1.6-.9 1.1-.4 2.3-.4 3.4.1 1.2.6 2 1.6 2.4 2.3.7 1.1.9 2.5.5 4-.2.8-.7 1.5-1.5 2-.5.4-1 .8-1.5 1.1-.4.3-.7.5-1.1.8-.5.4-1 .7-1.5 1.1l-1 .7c-.2.1-.4.3-.6.4-.2.2-.4.3-.6.5l-.7.5c-.3.2-.7.5-1 .7-.2.2-.5.4-.7.5-.3.2-.5.4-.8.6-.4.3-.8.6-1.2.8l-.8.6c-.2.2-.4.3-.7.5l-2.3 1.6c-.1.1-.2.2-.3.2-.3.2-.5.4-.8.6l-.3.2c-.6.3-1.2.7-1.9 1-1 .5-2.1.7-3.2.7zM9.9 15.1H-.5c-.6 0-1-.4-1-1v-23c0-.6.4-1 1-1H9.9c.6 0 1 .4 1 1v23c0 .6-.4 1-1 1zm-9.4-2H9v-21H.5v21zm4.2-1.9c-1.6 0-2.8-1.3-2.8-2.8s1.3-2.8 2.8-2.8 2.8 1.3 2.8 2.8-1.2 2.8-2.8 2.8zm0-3.7c-.5 0-.8.4-.8.8s.4.8.8.8.8-.4.8-.8-.3-.8-.8-.8z"/></symbol><symbol id="icon_virtual-capital" viewBox="7.7 -14.8 71.4 50.4"><linearGradient id="a" gradientUnits="userSpaceOnUse" x1="37.548" y1="37.406" x2="47.477" y2="-18.904"><stop offset="0" stop-color="#6DB33F"/><stop offset="1" stop-color="#72CDF4"/></linearGradient><path fill="url(#a)" d="M70.5-14.8H10.9c-1.7 0-3.1 1.4-3.1 3.1v35.3c0 1.7 1.4 3.1 3.1 3.1h23.4v7h-6.8c-.5 0-.9.4-.9.9s.4.9.9.9H54c.5 0 .9-.4.9-.9s-.4-.9-.9-.9h-6.6v-7h6.4c-.3-.6-.7-1.2-.9-1.8h-42c-.7 0-1.3-.6-1.3-1.3v-35.3c0-.7.6-1.3 1.3-1.3h59.6c.7 0 1.3.6 1.3 1.3V4.9c.6.2 1.3.5 1.8.8v-17.4c0-1.7-1.4-3.1-3.1-3.1zM36.1 33.8v-7h9v7h-9zm30.6-2.3c-6.8 0-12.4-5.5-12.4-12.4 0-6.8 5.5-12.4 12.4-12.4 6.8 0 12.4 5.5 12.4 12.4s-5.5 12.4-12.4 12.4zm0-22.9c-5.8 0-10.5 4.7-10.5 10.5s4.7 10.5 10.5 10.5 10.5-4.7 10.5-10.5S72.5 8.6 66.7 8.6zm.5 9.7v-3.1c.7.2 1.2.8 1.2 1.5 0 .5.4.9.9.9s.9-.4.9-.9c0-1.7-1.3-3.2-3-3.4v-.8c0-.2-.2-.4-.4-.4s-.4.2-.4.4v.8c-1.7.2-3 1.6-3 3.4 0 1.7 1.3 3.2 3 3.4v3.1c-.7-.2-1.2-.8-1.2-1.5 0-.5-.4-.9-.9-.9s-.9.4-.9.9c0 1.7 1.3 3.2 3 3.4v.8c0 .2.2.4.4.4s.4-.2.4-.4V25c1.7-.2 3-1.6 3-3.4 0-1.7-1.4-3.1-3-3.3zm-2-1.6c0-.7.5-1.3 1.2-1.5v3c-.7-.2-1.2-.8-1.2-1.5zm2 6.5v-3c.7.2 1.2.8 1.2 1.5s-.6 1.3-1.2 1.5zM52 22.4H12.1v-32.7h57V4.2c-.6-.1-1.2-.2-1.8-.2V-8.5H14v29.1h37.7c0 .5.1 1.2.3 1.8z"/></symbol></svg>