<svg xmlns="http://www.w3.org/2000/svg"><symbol id="icon_Imported Layers" viewBox="0 0 23 17"><title>Imported Layers</title><path d="M17.692 6.07V1.82h-10.3L6.158 0H0v17h18.17l4.324-10.93h-4.802zM1.18 1.215h4.308l1.234 1.822h9.79V6.07H4.948L1.18 14.234V1.213zM17.41 15.786H2.05l3.618-8.5h14.987l-3.243 8.5z" fill="currentColor" fill-rule="evenodd"/></symbol><symbol id="icon_add" viewBox="0 0 46 46"><title>add</title><g fill="currentColor" fill-rule="evenodd"><path d="M23.45 12.11c-6.198 0-11.242 5.133-11.242 11.44 0 6.308 5.044 11.44 11.242 11.44 6.2 0 11.243-5.132 11.243-11.44 0-6.307-5.044-11.44-11.243-11.44zm0 21.79c-5.608 0-10.17-4.642-10.17-10.35 0-5.707 4.562-10.35 10.17-10.35 5.61 0 10.172 4.643 10.172 10.35 0 5.708-4.563 10.35-10.172 10.35z"/><path d="M23.986 19.465h-1.07v3.465h-3.407v1.09h3.405v3.465h1.07V24.02h3.406v-1.09h-3.404v-3.465"/></g></symbol><symbol id="icon_carrot" viewBox="0 0 46 46"><title>carrot</title><path d="M18.86 31.914l-.86-.807 8.148-7.65L18 15.807l.86-.807 9.008 8.457-9.008 8.457" fill="currentColor" fill-rule="evenodd"/></symbol><symbol id="icon_change-centers" viewBox="0 0 46 46"><title>Change Centers</title><g fill="currentColor" fill-rule="evenodd"><path d="M27.058 31.198h-.02c-.124-.007-.237-.073-.306-.177l-.95-1.443c-.12-.183-.073-.432.107-.555.18-.124.423-.074.544.11l.658 1 .758-.925c.138-.17.386-.193.552-.05.167.14.19.393.05.563l-1.093 1.334c-.076.09-.186.144-.302.144M36.438 30.042c-.075 0-.15-.02-.22-.067-.178-.123-.226-.372-.105-.555l.95-1.444c.068-.104.182-.17.305-.176.122-.01.242.046.322.143l1.093 1.334c.14.17.116.422-.05.564-.167.143-.414.12-.553-.05l-.757-.925-.66 1c-.075.115-.2.177-.325.177"/><path d="M32.236 34.812c-1.44 0-2.833-.573-3.89-1.636-.156-.155-.157-.408-.005-.566.153-.156.4-.158.556-.003 1.178 1.184 2.842 1.66 4.45 1.272 2.433-.588 4.108-3.133 3.657-5.56-.04-.217.1-.426.312-.467.217-.04.42.1.46.318.535 2.884-1.37 5.794-4.248 6.488-.43.103-.863.154-1.29.154M27.09 31.083c-.173 0-.33-.117-.38-.296-.39-1.488-.173-3.05.616-4.398.81-1.387 2.14-2.39 3.644-2.752 1.997-.48 4.08.193 5.44 1.76.144.164.13.417-.034.564-.162.146-.41.13-.554-.035-1.168-1.345-2.958-1.925-4.67-1.51-1.3.312-2.45 1.18-3.152 2.382-.68 1.16-.868 2.502-.53 3.78.056.212-.07.432-.278.49-.034.01-.07.013-.102.013M16.847 26.867h-.923c-.216 0-.392.18-.392.4 0 .22.176.4.392.4h.923c.217 0 .392-.18.392-.4 0-.22-.176-.4-.393-.4M14.08 24.986h-.923c-.217 0-.392.18-.392.4 0 .222.175.4.392.4h.922c.216 0 .392-.178.392-.4 0-.22-.176-.4-.393-.4M16.847 24.986h-.923c-.216 0-.392.18-.392.4 0 .222.176.4.392.4h.923c.217 0 .392-.178.392-.4 0-.22-.176-.4-.393-.4M11.312 26.867h-.922c-.217 0-.393.18-.393.4 0 .22.176.4.393.4h.922c.217 0 .392-.18.392-.4 0-.22-.175-.4-.392-.4M11.312 24.986h-.922c-.217 0-.393.18-.393.4 0 .222.176.4.393.4h.922c.217 0 .392-.178.392-.4 0-.22-.175-.4-.392-.4M14.08 26.867h-.923c-.217 0-.392.18-.392.4 0 .22.175.4.392.4h.922c.216 0 .392-.18.392-.4 0-.22-.176-.4-.393-.4M19.614 15.56h7.38c.217 0 .392-.178.392-.4 0-.22-.175-.4-.392-.4h-7.38c-.217 0-.392.18-.392.4 0 .222.175.4.392.4M19.614 18.587h7.38c.217 0 .392-.18.392-.4 0-.22-.175-.4-.392-.4h-7.38c-.217 0-.392.18-.392.4 0 .22.175.4.392.4M19.614 26.867h-.923c-.216 0-.39.18-.39.4 0 .22.174.4.39.4h.924c.217 0 .392-.18.392-.4 0-.22-.175-.4-.392-.4M19.614 21.614h7.38c.217 0 .392-.18.392-.4 0-.222-.175-.4-.392-.4h-7.38c-.217 0-.392.178-.392.4 0 .22.175.4.392.4M19.614 24.986h-.923c-.216 0-.39.18-.39.4 0 .222.174.4.39.4h.924c.217 0 .392-.178.392-.4 0-.22-.175-.4-.392-.4"/><path d="M25.157 30.628h-3.305v-2.96h3.305c.054-.274.126-.54.208-.8h-3.513V24.64h4.665c.2-.266.412-.522.645-.758-.05-.025-.108-.042-.168-.042h-5.29c-.22-.434-.657-.734-1.168-.734H17.24V12.67c0-.297.237-.54.53-.54h11.068c.293 0 .53.243.53.54v9.682c.255-.114.516-.217.785-.3v-9.38c0-.74-.59-1.342-1.315-1.342h-11.07c-.724 0-1.314.602-1.314 1.34v10.436H9.467c-.725 0-1.315.6-1.315 1.34v6.582c0 .22.176.4.393.4h16.82c-.082-.26-.154-.527-.208-.8zm-11.147-1.08h1.983v1.08H14.01v-1.08zm7.057 1.08h-4.29v-1.48c0-.222-.175-.4-.392-.4h-2.767c-.217 0-.392.178-.392.4v1.48h-4.29v-6.182c0-.298.238-.54.53-.54h11.07c.293 0 .53.242.53.54v6.182z"/></g></symbol><symbol id="icon_cognizanti" viewBox="0 0 46 46"><title>cognizanti</title><g fill="currentColor" fill-rule="evenodd"><path d="M23.5 35c-.076 0-.153-.017-.224-.053l-10-5c-.17-.085-.276-.257-.276-.447V14c0-.173.09-.334.237-.425.147-.09.33-.1.487-.022L23.5 18.44l9.776-4.887c.156-.078.34-.07.487.022.147.09.237.252.237.425v15.5c0 .19-.107.362-.276.447l-10 5c-.07.036-.148.053-.224.053zM14 29.19l9.5 4.75 9.5-4.75V14.81l-9.276 4.637c-.14.07-.307.07-.448 0L14 14.81v14.38z"/><path d="M23.5 17.024c-.078 0-.156-.018-.227-.054l-8-4.048c-.246-.125-.345-.426-.22-.672.124-.247.426-.345.672-.22l7.774 3.934 7.773-3.935c.246-.125.547-.027.672.22.125.246.026.547-.22.672l-8 4.048c-.07.036-.15.054-.226.054M23.5 35c-.276 0-.5-.224-.5-.5V19c0-.276.224-.5.5-.5s.5.224.5.5v15.5c0 .276-.224.5-.5.5"/></g></symbol><symbol id="icon_collaborators" viewBox="0 0 46 46"><title>collaborators</title><g fill="currentColor" fill-rule="evenodd"><path d="M32.376 26.93l-.085-.02c-1.225-.284-2.617-.604-2.856-1.128-.076-.168-.027-.42.146-.745 1.62-3.05 1.915-5.425.834-7.22-.745-1.24-2.1-1.948-3.714-1.948-1.628 0-2.99.72-3.74 1.976-1.082 1.818-.776 4.185.86 7.196.177.324.228.57.153.738-.237.524-1.668.853-2.818 1.117l-.132.03c-2.485.574-2.477 2.108-2.467 3.884l.002 1.018h1.217v-1.216h-.004c-.006-1.643.045-2.158 1.526-2.5l.133-.03c1.628-.375 3.167-.73 3.652-1.803.24-.53.175-1.143-.192-1.817-1.425-2.62-1.74-4.56-.884-5.995.532-.892 1.487-1.384 2.693-1.384 1.195 0 2.144.484 2.672 1.36.853 1.416.545 3.366-.866 6.024-.36.677-.42 1.29-.177 1.82.488 1.068 2.042 1.426 3.69 1.806l.084.02c1.48.34 1.53.855 1.523 2.498v1.216h1.214V30.81c.013-1.775.02-3.308-2.464-3.88"/><path d="M21.375 13.085c-1.628 0-2.99.72-3.738 1.977-1.084 1.818-.777 4.184.86 7.196.175.323.227.57.15.738-.235.523-1.666.853-2.816 1.117l-.132.03c-2.485.574-2.476 2.108-2.466 3.884l.002 1.017h1.217v-1.216h-.003c-.007-1.643.044-2.158 1.525-2.5l.132-.03c1.63-.375 3.17-.73 3.653-1.803.24-.53.175-1.142-.19-1.816-1.426-2.622-1.74-4.562-.885-5.996.53-.892 1.487-1.384 2.693-1.384.99 0 1.806.335 2.358.946.358-.213.754-.374 1.18-.478-.77-1.074-2.042-1.683-3.538-1.683"/></g></symbol><symbol id="icon_create-folder" viewBox="0 0 46 46"><title>create-folder</title><g fill="currentColor" fill-rule="evenodd"><path d="M29.386 21.876c-3.577 0-6.49 2.853-6.49 6.36 0 3.51 2.913 6.363 6.49 6.363 3.58 0 6.49-2.855 6.49-6.363 0-3.508-2.91-6.36-6.49-6.36zm0 11.604c-2.948 0-5.347-2.353-5.347-5.243s2.398-5.242 5.346-5.242c2.95 0 5.348 2.35 5.348 5.242 0 2.89-2.398 5.243-5.348 5.243z"/><path d="M29.958 25.75h-1.142v1.927H26.85v1.12h1.966v1.926h1.142v-1.927h1.965v-1.12h-1.965V25.75M16.17 19.346h16.236l-.687 1.664 1.057.42 1.322-3.203h-5.192v-4.404h-11.11l-1.216-1.657h-6.52v17.177h11.405v-1.12H11.8l4.37-8.877zm-.174-6.06l1.215 1.656h10.557v3.285H15.455l-4.25 8.63V13.285h4.79z"/></g></symbol><symbol id="icon_data-science" viewBox="0 0 46 46"><title>Data Science</title><g fill="currentColor" fill-rule="evenodd"><path d="M35.567 31.89H10.433c-.24 0-.433-.196-.433-.44 0-.242.194-.438.433-.438h25.134c.24 0 .433.196.433.44 0 .242-.194.438-.433.438"/><path d="M15.633 31.89h-3.466c-.24 0-.434-.196-.434-.44v-5.268c0-.242.194-.44.434-.44h3.466c.24 0 .434.198.434.44v5.27c0 .242-.194.438-.434.438zm-3.033-.878h2.6v-4.39h-2.6v4.39zM21.7 31.89h-3.467c-.24 0-.433-.196-.433-.44V20.037c0-.242.194-.44.433-.44H21.7c.24 0 .433.198.433.44V31.45c0 .244-.194.44-.433.44zm-3.033-.878h2.6V20.475h-2.6v10.537zM27.767 31.89H24.3c-.24 0-.433-.196-.433-.44v-8.78c0-.242.194-.44.433-.44h3.467c.24 0 .433.198.433.44v8.78c0 .244-.194.44-.433.44zm-3.034-.878h2.6V23.11h-2.6v7.902zM33.833 31.89h-3.466c-.24 0-.434-.196-.434-.44V14.77c0-.242.194-.44.434-.44h3.466c.24 0 .434.198.434.44V31.45c0 .244-.194.44-.434.44zm-3.033-.878h2.6V15.207h-2.6v15.805z"/></g></symbol><symbol id="icon_decisive-infrastructure" viewBox="0 0 46 46"><title>Decisive Infrastructure</title><g fill="currentColor" fill-rule="evenodd"><path d="M36.343 31.952h-9.266c-.267 0-.482-.21-.482-.472v-9.075c0-.26.215-.472.482-.472h9.266c.266 0 .482.21.482.472v9.075c0 .26-.216.472-.482.472zm-8.784-.945h8.3v-8.13h-8.3v8.13z"/><path d="M34.027 25.146h-4.633c-.267 0-.482-.21-.482-.473 0-.26.215-.472.482-.472h4.633c.266 0 .482.213.482.473 0 .262-.217.473-.483.473M20.127 31.952h-9.265c-.267 0-.483-.21-.483-.472v-9.075c0-.26.215-.472.482-.472h9.265c.267 0 .483.21.483.472v9.075c0 .26-.216.472-.483.472zm-8.783-.945h8.3v-8.13h-8.3v8.13z"/><path d="M17.81 25.146H13.18c-.266 0-.482-.21-.482-.473 0-.26.216-.472.482-.472h4.633c.267 0 .483.213.483.473 0 .262-.216.473-.482.473M17.523 16.978h-2.03c-.265 0-.48.212-.48.472v3.538h.964v-3.065h1.546v-.945M31.71 16.978h-2.028v.945h1.546v3.065h.964V17.45c0-.26-.215-.472-.482-.472M21.574 24.22h4.057v.944h-4.056v-.944zM27.753 20.988h.964v-5.37c0-.262-.215-.473-.482-.473H18.97c-.267 0-.482.21-.482.472v5.37h.963V16.09h8.303v4.898"/><path d="M25.89 18.366h-4.634c-.267 0-.482-.212-.482-.473 0-.26.215-.472.482-.472h4.633c.265 0 .48.212.48.473 0 .26-.215.473-.48.473"/></g></symbol><symbol id="icon_download" viewBox="0 0 46 46"><title>download</title><g fill="currentColor" fill-rule="evenodd"><path d="M28.586 24.414l-.806-.794-4.143 4.253V13.105H22.51v14.768l-4.143-4.253-.806.794 5.513 5.66 5.513-5.66zm-5.505 4.03l-.007.008-.008-.008h.016z"/><path d="M29.017 20.207v1.135h3.485v11.494H13.645V21.342h3.338v-1.135h-4.466v13.765H33.63V20.207h-4.613"/></g></symbol><symbol id="icon_edit" viewBox="0 0 46 46"><title>edit</title><g fill="currentColor" fill-rule="evenodd"><path d="M30.45 34.91H12.353V16.446h11.115v-1.042H11.326v20.55h20.15v-12.16H30.45V34.91"/><path d="M32.25 11.153l-13.737 13.91-2.7 6.33 6.218-2.735.155-.17 13.53-13.683.066-.067-3.53-3.585zm0 1.474l2.08 2.11-1.3 1.32-2.08-2.112 1.3-1.318zm-2.024 2.054l2.08 2.112-10.745 10.87-.156.16-2.077-2.112 10.9-11.03zm-9.86 13.575l-2.58 1.135 1.117-2.618 1.462 1.483z"/></g></symbol><symbol id="icon_exit" viewBox="0 0 46 46"><title>exit</title><g fill="currentColor" fill-rule="evenodd"><path d="M30.273 32.75h-8.91c-.26 0-.472-.208-.472-.464v-4.25c0-.257.213-.465.474-.465.26 0 .472.21.472.466v3.785H29.8V14.18h-7.964v3.64c0 .258-.21.466-.472.466-.26 0-.473-.208-.473-.465v-4.106c0-.256.213-.464.474-.464h8.91c.26 0 .47.208.47.464v18.572c0 .256-.21.464-.47.464"/><path d="M27.364 23.473h-10.91c-.26 0-.472-.208-.472-.464 0-.257.21-.465.473-.465h10.91c.26 0 .47.208.47.464 0 .255-.21.463-.47.463"/><path d="M17.782 26.348c-.143 0-.284-.063-.377-.183l-2.236-2.893c-.13-.165-.13-.394-.003-.56l2.182-2.857c.156-.205.452-.246.66-.092.21.153.252.444.095.65l-1.968 2.576 2.02 2.613c.16.205.12.496-.09.65-.085.064-.185.095-.285.095"/></g></symbol><symbol id="icon_files" viewBox="0 0 46 46"><title>files</title><g fill="currentColor" fill-rule="evenodd"><path d="M19.29 17.732H33v13.164H19.29V17.732zm1.08 12.128h11.55V18.768H20.37V29.86z"/><path d="M14.108 14v13.165h3.257v-1.037h-2.177v-11.09h11.55v1.104h1.08V14h-13.71"/></g></symbol><symbol id="icon_folders" viewBox="0 0 46 46"><title>folders</title><path d="M31.692 21.07v-4.25h-10.3L20.158 15H14v17h18.17l4.324-10.93h-4.802zM15.18 16.215h4.308l1.234 1.822h9.79v3.035H18.948l-3.768 8.163v-13.02zM31.41 30.786H16.05l3.618-8.5h14.987l-3.243 8.5z" fill="currentColor" fill-rule="evenodd"/></symbol><symbol id="icon_future-of-work" viewBox="0 0 46 46"><title>future-of-work</title><g fill="currentColor" fill-rule="evenodd"><path d="M30.072 35.89h-8.718c-.143 0-.278-.072-.36-.192L16.43 29c-.377-.584-.574-1.567-.208-2.256.23-.43.64-.67 1.152-.67 1.17 0 1.944.273 3.575 2.608l-.03-10.497c0-1.14 1.06-2.214 2.18-2.214 1.16 0 2.18 1.035 2.18 2.214V24.5l4.88 1.596c1.354.44 1.658 2.025 1.367 3.31L30.5 35.522c-.034.213-.216.37-.428.37zm-8.49-.886h8.12l.967-5.77c.21-.93.05-2.024-.78-2.295l-5.183-1.695c-.18-.06-.302-.23-.302-.422v-6.64c0-.682-.636-1.327-1.308-1.327-.648 0-1.307.67-1.307 1.328l.033 11.95c0 .196-.127.37-.312.425-.185.055-.384-.02-.49-.184-2.182-3.416-2.797-3.416-3.648-3.416-.244 0-.334.11-.385.206-.168.317-.092.943.164 1.34l4.432 6.498zM28.593 23.555c-.11 0-.223-.044-.308-.13-.17-.173-.17-.453 0-.626 1.37-1.393 2.127-3.244 2.127-5.213 0-1.968-.756-3.82-2.127-5.212-1.37-1.392-3.194-2.158-5.132-2.158-1.94 0-3.762.766-5.133 2.158-1.37 1.392-2.126 3.244-2.126 5.212 0 1.97.755 3.82 2.126 5.212.17.172.17.452 0 .625s-.446.173-.616 0c-1.537-1.56-2.382-3.632-2.382-5.838 0-2.205.845-4.278 2.382-5.837 1.535-1.56 3.577-2.418 5.748-2.418 2.172 0 4.214.86 5.75 2.418 1.535 1.56 2.38 3.632 2.38 5.837 0 2.206-.845 4.28-2.38 5.838-.086.086-.197.13-.31.13"/><path d="M28.593 23.555c-.11 0-.223-.044-.308-.13-.17-.173-.17-.453 0-.626 1.37-1.393 2.127-3.244 2.127-5.213 0-1.968-.756-3.82-2.127-5.212-1.37-1.392-3.194-2.158-5.132-2.158-1.94 0-3.762.766-5.133 2.158-1.37 1.392-2.126 3.244-2.126 5.212 0 1.97.755 3.82 2.126 5.212.17.172.17.452 0 .625s-.446.173-.616 0c-1.537-1.56-2.382-3.632-2.382-5.838 0-2.205.845-4.278 2.382-5.837 1.535-1.56 3.577-2.418 5.748-2.418 2.172 0 4.214.86 5.75 2.418 1.535 1.56 2.38 3.632 2.38 5.837 0 2.206-.845 4.28-2.38 5.838-.086.086-.197.13-.31.13"/><path d="M19.32 21.922c-.112 0-.223-.043-.308-.13-1.107-1.123-1.716-2.616-1.716-4.205 0-1.588.61-3.082 1.716-4.205 2.282-2.318 5.998-2.318 8.282 0C28.4 14.506 29.01 16 29.01 17.587c0 1.59-.61 3.082-1.716 4.205-.17.173-.446.173-.617 0-.17-.173-.17-.453 0-.626.942-.956 1.46-2.226 1.46-3.58 0-1.35-.518-2.622-1.46-3.578-1.943-1.973-5.106-1.973-7.05 0-.94.956-1.46 2.228-1.46 3.58 0 1.352.52 2.622 1.46 3.578.17.173.17.453 0 .626-.084.087-.196.13-.307.13"/></g></symbol><symbol id="icon_global-sourcing" viewBox="0 0 46 46"><title>global sourcing</title><g fill="currentColor" fill-rule="evenodd"><path d="M22.98 35.872H9.645c-.232 0-.42-.188-.42-.42 0-.052.007-1.302.624-2.534.448-.896 1.922-1.437 3.963-2.186l.63-.232v-1.245c-.28-.25-.78-.813-.86-1.695-.132-.13-.235-.332-.295-.588-.1-.426-.054-.93.23-1.254 0-.007-.003-.016-.006-.024-.203-.67-.58-1.913-.038-2.643.138-.185.388-.4.82-.468.396-.625 1.464-.856 2.416-.856 1.21 0 2.697.383 2.913 1.46.17.856-.252 1.92-.48 2.49-.007.022-.015.04-.023.06.272.325.316.818.217 1.236-.06.256-.164.457-.296.588-.08.882-.58 1.445-.86 1.695V30.5l.63.232c2.04.75 3.516 1.29 3.966 2.186.617 1.232.624 2.482.624 2.535 0 .23-.188.42-.42.42zm-12.884-.838h12.432c-.05-.418-.177-1.09-.503-1.74-.3-.6-1.786-1.145-3.505-1.776-.293-.107-.595-.218-.906-.335-.164-.06-.272-.217-.272-.392v-1.735c0-.14.07-.27.187-.348.024-.018.682-.48.682-1.387 0-.173.105-.322.255-.386.05-.1.107-.334.065-.53-.018-.083-.047-.136-.088-.156-.142-.07-.232-.216-.232-.375 0-.124.044-.235.15-.505.183-.456.56-1.405.438-2.016-.09-.442-1.007-.788-2.09-.788-1.03 0-1.677.306-1.73.518-.046.186-.215.317-.407.317-.313 0-.397.113-.425.15-.29.392.042 1.49.168 1.9.066.22.097.322.097.423 0 .16-.09.304-.232.375-.04.02-.07.073-.087.155-.043.197.016.432.065.53.15.065.255.214.255.387 0 .922.676 1.382.683 1.387.116.077.187.208.187.348v1.736c0 .176-.11.332-.273.393-.31.117-.614.228-.907.336-1.72.63-3.203 1.174-3.503 1.773-.326.65-.454 1.323-.504 1.74z" fill="currentColor"/><path d="M26.605 11.097c-.15 0-.296.003-.445.008-5.523.223-9.703 4.417-9.814 9.796.12-.006.24-.012.364-.012.127 0 .252.004.374.01.03-1.297.313-2.52.81-3.62h4.552c-.363 1.308-.522 2.657-.477 4.03h-3.035c.42.188.766.436 1.024.735h2.052c.113 1.33.415 2.68.907 4.03h-2.747c.05.232.063.48.038.735h2.996c.55 1.325 1.282 2.648 2.198 3.953-2.167-.273-4.11-1.296-5.572-2.807-.054.294-.142.557-.25.79 1.83 1.753 4.29 2.83 6.99 2.83 5.673 0 10.288-4.61 10.288-10.275 0-5.625-4.6-10.2-10.255-10.2zm8.225 5.445h-4.292c-.553-1.623-1.427-3.175-2.624-4.618 2.952.405 5.474 2.16 6.916 4.618zm-8.487-4.705c.087-.002.174-.005.262-.005.088 0 .175.004.262.007 1.335 1.468 2.308 3.048 2.918 4.702h-6.36c.61-1.655 1.582-3.235 2.918-4.705zm-8.077 4.705c1.407-2.49 3.953-4.236 7.035-4.627-1.198 1.446-2.075 3-2.63 4.627h-4.404zm4.91.736h6.857c.392 1.306.56 2.655.512 4.03h-7.88c-.05-1.375.12-2.724.51-4.03zm-.467 4.765h7.79c-.122 1.326-.448 2.674-.976 4.03h-5.84c-.527-1.356-.853-2.704-.975-4.03zm3.863 8.794c-.07 0-.14-.003-.208-.005-.99-1.336-1.78-2.682-2.375-4.024h5.228c-.594 1.34-1.384 2.686-2.374 4.023-.09.003-.18.007-.27.007zm1.235-.082c.914-1.304 1.645-2.624 2.195-3.947h4.36c-1.507 2.118-3.855 3.597-6.555 3.947zm7.028-4.683H30.29c.49-1.35.794-2.698.907-4.03h4.894c-.112 1.46-.555 2.828-1.254 4.03zm-3.597-4.765c.045-1.372-.115-2.72-.477-4.03h4.457c.578 1.222.903 2.584.903 4.02v.01H31.24z" fill="currentColor"/></g></symbol><symbol id="icon_industry" viewBox="0 0 46 46"><title>industry</title><path d="M33.57 18.15c0-.678-.512-1.23-1.14-1.23h-4.61v-1.116c0-.995-.8-1.804-1.783-1.804h-6.505c-.983 0-1.784.81-1.784 1.804v1.117h-4.61c-.627 0-1.138.552-1.138 1.23v12.43c0 .68.51 1.23 1.138 1.23H32.43c.628 0 1.14-.55 1.14-1.23V19.983l-.006.007.005-1.84zm-14.59-2.346c0-.308.247-.56.552-.56h6.505c.305 0 .553.25.553.56v1.117h-7.61v-1.116zm-5.745 2.362h19.103l-.008 3.262c0 .57-.583 1.09-1.223 1.09h-5.724c-.164-.58-.693-1.005-1.318-1.005h-2.483c-.625 0-1.155.425-1.32 1.005h-5.8c-.56 0-1.12-.426-1.23-.922l.003-3.43zm8.205 5.597V22.9c0-.078.064-.142.142-.142h2.483c.078 0 .14.064.14.143v1.103c0 .08-.062.143-.14.143h-2.483c-.078 0-.142-.064-.142-.143v-.24zm10.894 6.802H13.23v-7.09c.25.12.517.202.79.247h.003c.06.01.12.02.18.025.085.01.17.016.258.016h5.75v.24c0 .765.615 1.387 1.372 1.387h2.483c.756 0 1.37-.622 1.37-1.388l.002-.24h5.67c.093 0 .184-.006.274-.016.064-.006.126-.017.187-.028l.04-.007c.253-.046.5-.125.73-.24l-.003 7.095z" fill="currentColor" fill-rule="evenodd"/></symbol><symbol id="icon_infographic" viewBox="0 0 46 46"><title>infographic</title><g fill="currentColor" fill-rule="evenodd"><path d="M33.203 32.878H12.478c-.264 0-.478-.22-.478-.488 0-.27.214-.488.478-.488h20.725c.264 0 .478.218.478.488s-.213.488-.477.488"/><path d="M18.217 32.878H14.39c-.263 0-.477-.22-.477-.488v-5.854c0-.27.214-.488.478-.488h3.827c.264 0 .48.22.48.488v5.854c0 .27-.216.488-.48.488zm-3.347-.976h2.87v-4.878h-2.87v4.878zM24.913 32.878h-3.826c-.264 0-.478-.22-.478-.488V19.707c0-.27.213-.488.477-.488h3.826c.264 0 .478.218.478.487V32.39c0 .27-.213.488-.477.488zm-3.348-.976h2.87V20.195h-2.87v11.707zM31.61 32.878h-3.827c-.264 0-.48-.22-.48-.488V13.65c0-.27.216-.487.48-.487h3.826c.263 0 .477.218.477.488v18.74c0 .27-.214.488-.478.488zm-3.35-.976h2.87V14.138h-2.87v17.764z"/></g></symbol><symbol id="icon_location" viewBox="0 0 46 46"><title>location</title><g fill="currentColor" fill-rule="evenodd"><path d="M23.617 17.88c-1.283 0-2.323 1.086-2.323 2.424 0 1.34 1.04 2.424 2.323 2.424s2.323-1.085 2.323-2.424c0-1.338-1.04-2.423-2.323-2.423"/><path d="M23.617 13.275c-4.06 0-7.352 3.433-7.352 7.668 0 4.236 7.352 12.782 7.352 12.782s7.352-8.546 7.352-12.782c0-4.235-3.293-7.668-7.353-7.668zm-6.126 7.748c0-3.573 2.744-6.47 6.127-6.47 3.383 0 6.126 2.897 6.126 6.47 0 3.574-6.126 10.784-6.126 10.784s-6.126-7.21-6.126-10.784z"/></g></symbol><symbol id="icon_mass-empowerment" viewBox="0 0 46 46"><title>Mass Empowerment</title><g fill="currentColor" fill-rule="evenodd"><path d="M18.26 25.906c-.12.163-.276.164-.407.164h-.435v4.686H15.2V26.07h-.434c-.25 0-.594 0-.594-1.122v-2.684h3.92v-.88h-4.79v3.564c0 1.114.346 1.766 1.03 1.95v4.738h3.955v-4.74c.136-.035.256-.096.365-.17-.165-.25-.297-.527-.392-.82M24.976 33.622H21.02v-6.286c-1.168-.208-2.058-1.243-2.058-2.484v-5.647h8.072v5.647c0 1.24-.89 2.276-2.058 2.484v6.286zm-3.087-.88h2.217v-6.248h.434c.897 0 1.624-.736 1.624-1.642v-4.767H19.83v4.767c0 .906.73 1.642 1.624 1.642h.435v6.248zM22.998 17.786c-1.54 0-2.795-1.268-2.795-2.827 0-1.56 1.254-2.83 2.795-2.83 1.54 0 2.794 1.27 2.794 2.83 0 1.558-1.253 2.826-2.794 2.826zm0-4.775c-1.06 0-1.925.875-1.925 1.95 0 1.073.864 1.946 1.925 1.946 1.062 0 1.925-.873 1.925-1.947 0-1.075-.863-1.95-1.925-1.95zM29.686 20.306c-1.16 0-2.1-.954-2.1-2.127 0-1.173.94-2.128 2.1-2.128 1.16 0 2.102.955 2.102 2.127 0 1.172-.943 2.126-2.102 2.126zm0-3.374c-.68 0-1.232.56-1.232 1.247s.553 1.246 1.232 1.246c.68 0 1.232-.56 1.232-1.247 0-.688-.553-1.248-1.232-1.248zM16.31 20.306c-1.16 0-2.102-.954-2.102-2.127 0-1.173.942-2.128 2.1-2.128 1.16 0 2.103.955 2.103 2.127 0 1.172-.942 2.126-2.1 2.126zm0-3.374c-.68 0-1.233.56-1.233 1.247s.553 1.246 1.232 1.246c.68 0 1.23-.56 1.23-1.247 0-.688-.55-1.248-1.23-1.248zM27.904 21.384v.88h3.92v2.684c0 1.122-.344 1.122-.594 1.122h-.435v4.686h-2.218V26.07h-.434c-.132 0-.288 0-.408-.164-.094.293-.226.568-.392.82.11.074.23.135.365.17v4.74h3.957v-4.74c.683-.182 1.028-.834 1.028-1.948v-3.564h-4.79"/></g></symbol><symbol id="icon_mobile-first" viewBox="0 0 46 46"><title>Mobile First</title><g fill="currentColor" fill-rule="evenodd"><path d="M26.43 35.897h-9.817c-1.353 0-2.455-1.103-2.455-2.46v-19.67c0-1.357 1.102-2.46 2.455-2.46h9.818c1.355 0 2.456 1.103 2.456 2.46v3.38c0 .227-.184.41-.41.41-.225 0-.41-.183-.41-.41v-3.38c0-.905-.732-1.64-1.635-1.64h-9.817c-.902 0-1.636.735-1.636 1.64v19.67c0 .905.734 1.64 1.636 1.64h9.818c.904 0 1.637-.735 1.637-1.64v-5.634c0-.226.184-.41.41-.41.225 0 .41.184.41.41v5.635c0 1.356-1.102 2.46-2.456 2.46"/><path d="M28.477 16.225h-13.91c-.225 0-.41-.184-.41-.41 0-.226.185-.41.41-.41h13.91c.225 0 .41.184.41.41 0 .226-.185.41-.41.41M28.477 31.8h-13.91c-.225 0-.41-.185-.41-.41 0-.227.185-.41.41-.41h13.91c.225 0 .41.183.41.41 0 .225-.185.41-.41.41M24.386 14.586h-5.728c-.225 0-.41-.184-.41-.41 0-.226.185-.41.41-.41h5.728c.226 0 .41.184.41.41 0 .226-.184.41-.41.41M21.522 34.668c-.677 0-1.227-.552-1.227-1.23 0-.678.55-1.23 1.227-1.23s1.227.552 1.227 1.23c0 .678-.55 1.23-1.228 1.23zm0-1.64c-.225 0-.41.184-.41.41 0 .226.185.41.41.41.225 0 .41-.184.41-.41 0-.226-.185-.41-.41-.41zM30.467 18.233h-8.624c-.787 0-1.428.642-1.428 1.43v5.442c0 .227.183.41.41.41.225 0 .408-.183.408-.41v-5.44c0-.338.274-.613.61-.613h8.624c.336 0 .61.275.61.612v5.44c0 .338-.274.612-.61.612h-7.24c-.013 0-.025.007-.04.008-.027.003-.053.008-.08.017-.027.01-.05.02-.076.033-.01.007-.024.008-.036.016l-2.403 1.67c-.185.128-.23.383-.102.57.08.114.207.175.336.175.08 0 .162-.023.233-.073l2.298-1.596h7.112c.787 0 1.428-.642 1.428-1.43v-5.442c0-.79-.64-1.43-1.428-1.43"/></g></symbol><symbol id="icon_our-latest-thinking" viewBox="0 0 46 46"><title>our-latest-thinking</title><g fill="currentColor" fill-rule="evenodd"><path d="M29.605 34.892h-12.16c-1.29 0-2.338-1.06-2.338-2.365V14.555c0-1.304 1.05-2.365 2.338-2.365h12.16c1.29 0 2.338 1.06 2.338 2.365v17.972c0 1.304-1.048 2.365-2.338 2.365zm-12.16-21.756c-.773 0-1.403.636-1.403 1.42v17.97c0 .784.63 1.42 1.403 1.42h12.16c.774 0 1.403-.636 1.403-1.42v-17.97c0-.784-.63-1.42-1.403-1.42h-12.16z"/><path d="M23.525 31.58c-.517 0-.935.424-.935.947 0 .522.418.946.935.946.516 0 .936-.424.936-.946 0-.523-.42-.946-.935-.946M29.605 31.108h-12.16c-.258 0-.467-.21-.467-.473V15.5c0-.26.21-.472.467-.472h12.16c.258 0 .468.21.468.472v15.135c0 .262-.21.473-.468.473zm-11.692-.945h11.224v-14.19H17.913v14.19zM23.525 13.61c-.258 0-.467.21-.467.472 0 .26.21.473.467.473.258 0 .468-.212.468-.473 0-.262-.21-.473-.468-.473"/><path d="M27.26 20.99h-7.596c-.258 0-.467-.21-.467-.47v-2.547c0-.262.21-.473.467-.473h7.595c.257 0 .467.21.467.473v2.546c0 .26-.21.47-.468.47zm-7.128-.944h6.66v-1.6h-6.66v1.6zM27.176 23.152h-7.58c-.255 0-.46-.208-.46-.465s.205-.465.46-.465h7.58c.254 0 .46.208.46.465s-.206.465-.46.465M27.176 25.707h-7.58c-.255 0-.46-.208-.46-.465 0-.256.205-.464.46-.464h7.58c.254 0 .46.208.46.464 0 .257-.206.465-.46.465M27.176 28.495h-7.58c-.255 0-.46-.208-.46-.465 0-.256.205-.464.46-.464h7.58c.254 0 .46.208.46.464 0 .257-.206.465-.46.465"/></g></symbol><symbol id="icon_pdf" viewBox="0 0 46 46"><title>pdf</title><g fill="currentColor" fill-rule="evenodd"><path d="M26.417 13.31H15.784v20.136h15.51V18.19l-4.877-4.88zm.254 4.625v-3.138l3.14 3.138h-3.14zm3.755.87v13.77h-13.77V14.182H25.8v4.625h4.625z"/><path d="M19.127 29.873c-.16 0-.312-.052-.443-.15-.476-.357-.54-.755-.51-1.026.083-.745 1.005-1.526 2.74-2.32.688-1.51 1.343-3.368 1.733-4.92-.456-.995-.9-2.285-.577-3.042.114-.265.313-.45.577-.54.104-.034.206-.052.303-.052.23 0 .437.1.58.284.136.173.543.69-.07 3.267.618 1.274 1.492 2.572 2.33 3.46.6-.107 1.116-.162 1.537-.162.716 0 1.15.167 1.328.51.147.286.086.618-.18.99-.254.356-.605.545-1.015.545-.557 0-1.205-.352-1.928-1.046-1.3.272-2.815.756-4.04 1.292-.383.812-.75 1.467-1.09 1.946-.47.658-.874.965-1.275.965zm1.218-2.346c-.978.55-1.377 1-1.405 1.255-.005.043-.017.153.197.317.068-.022.467-.204 1.208-1.573zm6.168-2.025c.373.287.703.444.947.444.107 0 .248-.025.39-.223.068-.095.094-.157.105-.19-.057-.03-.22-.09-.628-.09-.23 0-.506.02-.814.06zm-3.345-3.022c-.327 1.133-.76 2.355-1.224 3.463.957-.372 1.997-.696 2.974-.925-.618-.718-1.236-1.614-1.75-2.538zm-.233-3.884c-.01 0-.025.005-.044.01-.044.016-.08.04-.11.113-.12.274-.026.797.154 1.36.15-.97.07-1.38 0-1.484z"/></g></symbol><symbol id="icon_question-mark" viewBox="0 0 46 46"><title>question-mark</title><g fill="currentColor" fill-rule="evenodd"><path d="M22.948 33.486c-5.42 0-9.828-4.475-9.828-9.975s4.408-9.974 9.828-9.974c5.418 0 9.827 4.475 9.827 9.975s-4.41 9.976-9.827 9.976zm0-18.9c-4.85 0-8.794 4.004-8.794 8.925 0 4.922 3.945 8.926 8.794 8.926 4.848 0 8.793-4.004 8.793-8.925 0-4.92-3.944-8.924-8.792-8.924z"/><path d="M21.663 24.2c0-2 2.42-2.237 2.42-3.398 0-.52-.382-.96-1.293-.96-.83 0-1.524.422-2.038 1.044l-1.344-1.53c.88-1.044 2.206-1.632 3.63-1.632 2.14 0 3.448 1.093 3.448 2.658 0 2.456-2.768 2.64-2.768 4.054 0 .27.133.555.3.706l-1.808.54c-.348-.388-.547-.893-.547-1.482zm0 3.735c0-.74.613-1.363 1.343-1.363s1.342.623 1.342 1.363-.613 1.362-1.342 1.362c-.73 0-1.343-.622-1.343-1.362z"/></g></symbol><symbol id="icon_save-article" viewBox="0 0 46 46"><title>save-article</title><g fill="currentColor" fill-rule="evenodd"><path d="M34.692 26.87c-.118-.34-.438-.567-.795-.567h-3.815l-1.357-3.853c-.117-.34-.438-.567-.796-.567-.36 0-.68.228-.796.564l-1.36 3.856h-3.813c-.358 0-.678.23-.796.57-.117.34-.006.717.277.94l3.166 2.492-1.367 4.112c-.12.35 0 .733.298.952.286.212.69.22.998 0l3.393-2.494 3.398 2.5c.145.103.315.157.493.157.182 0 .355-.056.497-.162.298-.216.42-.597.304-.948l-1.37-4.117 3.17-2.493c.28-.222.39-.6.272-.943zm-4.808 3.024l1.307 3.93-3.26-2.4-3.264 2.4 1.307-3.93-3.074-2.42h3.7l1.33-3.77 1.326 3.77h3.702l-3.074 2.42z"/><path d="M12.178 29.51V11.29h15.167v9.273h1.168V10.12H11.01v20.56H22.25l-1.796-1.17h-8.274"/><path d="M14.243 13.315H25.27v1.17H14.243v-1.17zM14.243 17.215H25.27v1.17H14.243v-1.17zM14.243 21.115h8.23v1.17h-8.23v-1.17z"/></g></symbol><symbol id="icon_search-article" viewBox="0 0 46 46"><title>search-article</title><g fill="currentColor" fill-rule="evenodd"><path d="M35.3 35.868l-4.746-4.84c.757-.964 1.212-2.182 1.212-3.508 0-3.116-2.5-5.65-5.57-5.65-3.073 0-5.573 2.534-5.573 5.65 0 3.116 2.5 5.65 5.572 5.65 1.32 0 2.53-.47 3.487-1.25l4.74 4.834c.12.123.28.184.44.184.157 0 .315-.06.436-.182.243-.245.243-.643.002-.888zm-9.105-3.953c-2.39 0-4.333-1.97-4.333-4.395 0-2.424 1.943-4.395 4.333-4.395s4.333 1.97 4.333 4.395c0 2.424-1.944 4.395-4.333 4.395z"/><path d="M11.177 29.093V11.49h14.475v8.96h1.114V10.36H10.063v19.864h9.17l-.058-1.13h-7.998"/><path d="M13.148 13.448h10.524v1.13H13.148v-1.13zM13.148 17.216h10.524v1.13H13.148v-1.13zM13.148 20.983h7.854v1.13h-7.854v-1.13z"/></g></symbol><symbol id="icon_search-folders" viewBox="0 0 46 46"><title>search-folders</title><g fill="currentColor" fill-rule="evenodd"><path d="M35.654 33.99l-4.487-4.488c.716-.895 1.146-2.025 1.146-3.255 0-2.89-2.362-5.24-5.267-5.24-2.904 0-5.267 2.35-5.267 5.24s2.362 5.242 5.266 5.242c1.248 0 2.393-.437 3.297-1.16l4.48 4.482c.116.114.266.17.417.17.15 0 .298-.055.412-.168.23-.227.23-.595.002-.824zm-8.608-3.666c-2.26 0-4.096-1.828-4.096-4.077 0-2.248 1.837-4.076 4.096-4.076 2.26 0 4.097 1.83 4.097 4.077 0 2.25-1.838 4.077-4.097 4.077z"/><path d="M15.833 19.082h14.79l-.312.77.966.39.89-2.195h-4.728v-4.073H17.314l-1.108-1.533h-5.938v15.89h8.657v-1.036H11.85l3.983-8.212zm-.16-5.607l1.108 1.534H26.4v3.037H15.18l-3.872 7.984V13.476h4.365z"/></g></symbol><symbol id="icon_search" viewBox="0 0 46 46"><title>search</title><path d="M20.76 26.52c1.364 0 2.617-.48 3.605-1.274l4.9 4.925c.126.127.29.19.455.19.163 0 .326-.062.45-.186.252-.25.253-.655.004-.905l-4.907-4.933c.782-.984 1.253-2.225 1.253-3.577 0-3.176-2.584-5.76-5.76-5.76-3.176 0-5.76 2.584-5.76 5.76 0 3.176 2.584 5.76 5.76 5.76zm0-10.24c2.47 0 4.48 2.01 4.48 4.48 0 2.47-2.01 4.48-4.48 4.48-2.47 0-4.48-2.01-4.48-4.48 0-2.47 2.01-4.48 4.48-4.48z" fill="currentColor" fill-rule="evenodd"/></symbol><symbol id="icon_settings" viewBox="0 0 46 46"><title>settings</title><path d="M33.242 21.17l-1.816-.402c-.142-.452-.327-.885-.54-1.3l.983-1.637c.366-.585.55-1.446 0-2l-1.003-1c-.27-.27-.633-.384-.998-.384-.38 0-.764.123-1.05.322l-1.594 1.015c-.413-.215-.845-.398-1.295-.543l-.407-1.836c-.12-.675-.71-1.404-1.492-1.404h-1.414c-.782 0-1.26.74-1.416 1.415l-.454 1.814c-.48.152-.94.347-1.38.578l-1.63-1.04c-.288-.2-.672-.322-1.05-.322-.367 0-.73.114-1 .385l-1 1c-.554.553-.37 1.415 0 2l1.033 1.723c-.195.39-.367.793-.5 1.215l-1.816.402c-.674.122-1.404.71-1.404 1.492v1.414c0 .78.74 1.26 1.415 1.414l1.84.46c.127.388.285.763.465 1.126L14.686 28.8c-.368.584-.553 1.445 0 1.998l1 1c.27.27.633.384 1 .384.378 0 .762-.123 1.05-.322l1.636-1.042c.44.233.904.43 1.386.583l.453 1.81c.156.674.635 1.414 1.416 1.414h1.416c.782 0 1.37-.73 1.492-1.403l.41-1.84c.444-.143.87-.325 1.28-.537l1.595 1.017c.286.2.67.322 1.05.322.364 0 .727-.114.997-.384l1.002-1c.55-.553.366-1.414 0-2l-.985-1.638c.198-.388.37-.792.507-1.21l1.84-.46c.673-.154 1.414-.634 1.414-1.414V22.66c0-.778-.73-1.367-1.404-1.49zm.272 2.907c0 .055-.21.236-.558.316l-1.84.46-.605.15-.194.594c-.115.35-.263.703-.44 1.05l-.286.56 1.32 2.19c.178.287.197.563.16.6L30.064 31c-.048.048-.163.053-.197.053-.14 0-.3-.048-.405-.122l-.017-.01-.02-.013-2.145-1.367-.578.3c-.365.188-.737.344-1.107.464l-.617.2-.55 2.473-.004.022-.004.02c-.042.236-.256.473-.378.473h-1.416c-.055 0-.237-.208-.317-.556l-.454-1.81-.154-.614-.603-.19c-.404-.127-.807-.297-1.2-.504l-.582-.308-.555.353-1.637 1.043-.018.01-.018.014c-.107.073-.265.12-.405.12-.034 0-.15-.003-.198-.053l-1-1c-.04-.04-.02-.315.17-.618l1.353-2.254-.276-.555c-.167-.334-.298-.653-.403-.973l-.193-.596-.608-.15-1.862-.465c-.327-.076-.536-.256-.536-.312v-1.415c0-.12.238-.335.473-.378l.022-.004.022-.003 1.816-.403.638-.142.196-.623c.105-.333.246-.678.432-1.053l.277-.554-.32-.53-1.046-1.742c-.178-.284-.198-.56-.158-.598l1-1c.048-.048.156-.053.198-.053.14 0 .3.046.404.12l.02.012.018.012 1.633 1.04.554.352.58-.306c.388-.204.79-.372 1.196-.502l.602-.192.61-2.447c.077-.33.258-.537.314-.537h1.415c.123 0 .337.238.38.472l.003.023.005.022.548 2.47.617.197c.376.122.754.28 1.122.47l.58.302.55-.35 1.593-1.016.018-.012.018-.012c.105-.074.265-.12.404-.12.035 0 .15.003.2.053l1 1c.04.038.02.313-.17.617l-1.306 2.173.285.56c.2.39.353.76.467 1.124l.197.625.64.142 1.816.403.022.005.024.004c.233.042.472.255.472.377v1.414zm-10.18-5.296c-2.505 0-4.542 2.032-4.542 4.53 0 2.497 2.037 4.528 4.54 4.528 2.505 0 4.54-2.03 4.54-4.528 0-2.498-2.035-4.53-4.54-4.53zm.008 7.953c-1.887 0-3.423-1.53-3.423-3.41 0-1.88 1.535-3.41 3.422-3.41 1.888 0 3.425 1.53 3.425 3.41 0 1.88-1.537 3.41-3.425 3.41z" fill="currentColor" fill-rule="evenodd"/></symbol><symbol id="icon_share" viewBox="0 0 46 46"><title>share</title><path d="M29.008 26.007c-1.005 0-1.89.485-2.465 1.223l-6.41-3.24c.08-.273.134-.556.134-.853 0-.296-.055-.58-.133-.85l6.41-3.242c.573.74 1.46 1.223 2.464 1.223 1.73 0 3.134-1.406 3.134-3.134S30.737 14 29.008 14c-1.728 0-3.133 1.406-3.133 3.134 0 .297.055.58.132.852l-6.408 3.24c-.575-.738-1.46-1.222-2.467-1.222-1.728 0-3.133 1.405-3.133 3.133 0 1.73 1.405 3.135 3.133 3.135 1.006 0 1.892-.485 2.466-1.223l6.407 3.24c-.077.272-.132.554-.132.85 0 1.73 1.405 3.135 3.133 3.135 1.73 0 3.134-1.406 3.134-3.134 0-1.727-1.405-3.133-3.134-3.133zm0-10.82c1.073 0 1.946.874 1.946 1.947s-.873 1.946-1.946 1.946-1.945-.873-1.945-1.946.872-1.947 1.945-1.947zm-11.875 9.897c-1.073 0-1.945-.874-1.945-1.947 0-1.072.872-1.945 1.945-1.945s1.946.873 1.946 1.945c0 1.073-.874 1.947-1.947 1.947zm11.875 6.003c-1.073 0-1.945-.873-1.945-1.946 0-1.072.872-1.945 1.945-1.945s1.946.873 1.946 1.946c0 1.074-.873 1.947-1.946 1.947z" fill="currentColor" fill-rule="evenodd"/></symbol><symbol id="icon_smart-search" viewBox="0 0 46 46"><title>smart-search</title><g fill="currentColor" fill-rule="evenodd"><path d="M10.46 14.563h19.015v1.75h1.274v-3.01H9.19V26.23h10.72v-1.26h-9.45V14.563"/><path d="M37.387 32.56l-4.978-4.877c.983-1.144 1.582-2.624 1.582-4.242 0-3.614-2.973-6.555-6.626-6.555-3.652 0-6.625 2.94-6.625 6.556s2.974 6.557 6.626 6.557c1.56 0 2.995-.54 4.13-1.437l4.995 4.896.897-.896zm-15.372-9.12c0-2.92 2.4-5.295 5.35-5.295 2.952 0 5.353 2.376 5.353 5.296 0 2.922-2.4 5.297-5.352 5.297-2.95 0-5.35-2.375-5.35-5.296z"/></g></symbol><symbol id="icon_smart-sourcing" viewBox="0 0 46 46"><title>Smart Sourcing</title><g fill="currentColor" fill-rule="evenodd"><path d="M24.874 12.07c-.145 0-.288.002-.432.007-4.945.204-8.784 3.752-9.446 8.482.122-.01.243-.02.366-.02.122 0 .24.01.36.02.126-.83.358-1.618.682-2.353h4.426c-.352 1.3-.507 2.64-.463 4h-1.333c.2.227.382.47.54.732h.834c.11 1.32.404 2.66.883 4h-1.153c-.068.25-.148.495-.252.73h1.684c.534 1.316 1.246 2.63 2.136 3.926-1.882-.243-3.588-1.08-4.944-2.327-.045.042-.086.088-.132.13-.145.14-.236.31-.293.464 1.746 1.58 4.02 2.538 6.506 2.538 5.515 0 10.002-4.577 10.002-10.203 0-5.587-4.473-10.13-9.97-10.13zm7.997 5.407H28.7c-.537-1.613-1.388-3.154-2.55-4.587 2.87.403 5.32 2.146 6.723 4.587zm-8.25-4.673c.084-.002.17-.005.254-.005.085 0 .17.003.255.006 1.298 1.46 2.243 3.028 2.836 4.67H21.78c.594-1.643 1.54-3.21 2.84-4.672zm-7.854 4.673c1.368-2.472 3.843-4.207 6.84-4.595-1.166 1.436-2.018 2.98-2.556 4.595h-4.284zm4.774.73h6.667c.38 1.297.546 2.636.498 4h-7.663c-.048-1.364.117-2.703.498-4zm-.454 4.732h7.575c-.117 1.316-.435 2.654-.948 4h-5.678c-.512-1.346-.83-2.684-.948-4zm3.757 8.732c-.068 0-.135-.004-.203-.006-.962-1.327-1.73-2.663-2.308-3.996h5.083c-.578 1.332-1.346 2.668-2.308 3.995-.088.003-.176.007-.264.007zm1.2-.082c.89-1.294 1.6-2.606 2.135-3.92h4.238c-1.464 2.104-3.747 3.572-6.372 3.92zm6.834-4.65h-4.42c.478-1.34.772-2.68.882-4h4.757c-.11 1.448-.54 2.806-1.22 4zm-3.497-4.732c.044-1.362-.11-2.702-.463-4h4.333c.563 1.21.878 2.564.878 3.99v.01H29.38z" fill="currentColor"/><path d="M13.51 30.69h-.004c-.197-.002-.355-.167-.353-.367 0-.016-.007-.852-.617-1.434-.93-.824-1.467-2.028-1.467-3.294 0-2.413 1.925-4.376 4.292-4.376 2.368 0 4.293 1.963 4.293 4.376 0 1.266-.538 2.47-1.476 3.302-.605.575-.61 1.417-.61 1.425.002.2-.157.365-.354.367h-.003c-.195 0-.355-.16-.358-.36 0-.046-.005-1.165.845-1.974.79-.702 1.24-1.705 1.24-2.76 0-2.01-1.605-3.646-3.578-3.646-1.972 0-3.576 1.636-3.576 3.646 0 1.055.448 2.058 1.23 2.75.86.82.854 1.938.853 1.985-.003.2-.163.36-.36.36" fill="currentColor"/><path d="M12.537 25.782c-.198 0-.358-.163-.358-.365 0-1.79 1.427-3.245 3.182-3.245.198 0 .358.164.358.365 0 .202-.16.365-.358.365-1.36 0-2.467 1.128-2.467 2.515 0 .202-.16.365-.358.365" fill="currentColor"/><path d="M13.53 32.92c-.15 0-.29-.1-.34-.253-.06-.192.042-.398.23-.46l1.536-.507H13.53c-.197 0-.357-.164-.357-.365 0-.202.16-.365.358-.365h3.69c.178 0 .328.13.355.308.028.177-.076.348-.243.404l-3.69 1.22c-.037.012-.074.017-.11.017M17.22 33.858h-3.69c-.175 0-.326-.13-.353-.308-.027-.177.076-.35.243-.404l3.69-1.22c.19-.062.39.043.452.235.06.193-.042.4-.23.46l-1.535.508h1.424c.2 0 .36.163.36.365 0 .202-.16.365-.36.365M15.895 35h-1.253c-.198 0-.36-.163-.36-.365 0-.202.162-.365.36-.365h1.253c.198 0 .36.163.36.365 0 .202-.162.365-.36.365" fill="currentColor"/></g></symbol><symbol id="icon_star" viewBox="0 0 46 46"><title>star</title><path d="M22.6 15.203l1.976 5.597h5.49l-4.568 3.59 1.937 5.812-4.835-3.545-4.834 3.545 1.937-5.812-4.568-3.59h5.49l1.975-5.597m0-2.203c-.17 0-.32.107-.377.267L19.917 19.8H13.4c-.17 0-.322.11-.378.27-.055.16-.003.34.13.445l5.38 4.226-2.31 6.934c-.056.165.002.347.143.45.07.05.152.076.235.076.083 0 .166-.025.237-.077l5.763-4.227 5.764 4.227c.07.052.153.078.236.078.083 0 .166-.025.236-.076.14-.103.2-.285.144-.45l-2.31-6.933 5.377-4.225c.135-.106.187-.284.13-.445-.054-.16-.206-.27-.377-.27h-6.517l-2.305-6.533c-.057-.16-.208-.267-.378-.267" fill="currentColor" fill-rule="evenodd"/></symbol><symbol id="icon_value-webs" viewBox="0 0 46 46"><title>Value Webs</title><g fill="currentColor" fill-rule="evenodd"><path d="M22.824 26.54c-.216 0-.39-.173-.39-.385V20.81c0-.213.174-.385.39-.385.217 0 .392.172.392.385v5.345c0 .212-.175.384-.392.384"/><path d="M22.824 25.872c-.78 0-1.412-.623-1.412-1.388 0-.212.175-.384.392-.384.216 0 .39.172.39.384 0 .34.283.618.63.618.348 0 .63-.277.63-.618 0-.34-.282-.617-.63-.617-.78 0-1.412-.622-1.412-1.387s.633-1.387 1.412-1.387c.78 0 1.413.622 1.413 1.387 0 .213-.175.385-.392.385-.216 0-.392-.172-.392-.385 0-.34-.28-.618-.63-.618-.346 0-.628.278-.628.618 0 .34.282.618.63.618.778 0 1.412.622 1.412 1.386 0 .765-.634 1.388-1.413 1.388M27.367 23.482c0 .187-.016.37-.04.55.036-.025.07-.053.106-.08.157-.113.317-.225.478-.336l.24-.166c-.017-2.497-1.823-4.583-4.22-5.082-.123 0-.25 0-.386.002-.07.002-.16-.007-.235-.022-.075.244-.202.473-.367.68 2.45.063 4.424 2.034 4.424 4.454M19.787 27.77h1.804c-1.905-.53-3.308-2.25-3.308-4.288 0-.364.05-.717.134-1.056l-.135.095-.296.21-.25.18c-.07.053-.142.105-.214.157-.01.137-.02.275-.02.415 0 1.775.906 3.343 2.287 4.29M19.228 32.757c-.448 0-.857-.097-1.213-.287-.325-.173-.594-.46-.777-.826-.135-.272-.31-.69-.257-1.172.043-.394.16-.732.347-1.006.12-.176.275-.313.412-.433l.078-.07c.282-.256.644-.382 1.11-.388.115 0 .23-.008.345-.016.14-.01.277-.02.416-.02h1.398c.47 0 .933 0 1.564-.003h.002c.216 0 .39.17.39.383.002.212-.172.385-.39.386-.63.002-1.094.002-1.566.002-.42 0-.84 0-1.396.002-.123 0-.245.01-.368.017-.13.008-.26.016-.39.017-.268.003-.448.06-.586.184l-.085.077c-.114.1-.22.194-.286.29-.115.168-.188.39-.217.658-.024.216.034.456.182.753.077.155.218.366.447.488.24.128.522.193.838.193h.002c1.698-.002 3.396-.003 5.092-.002h2.097c.405 0 .837-.007 1.26-.093.39-.08.746-.24 1.042-.387.442-.22.878-.494 1.3-.758.43-.27.862-.564 1.28-.847l.07-.048c.163-.11.324-.226.485-.34.19-.137.382-.272.577-.402.318-.214.647-.413.927-.58.224-.133.528-.288.905-.31.153-.01.29-.017.425-.017h2.294v-5.064h-.667c-.798 0-1.596 0-2.394-.002-.23 0-.474-.013-.727-.037-.11-.01-.222-.026-.334-.043-.138-.022-.27-.042-.39-.045-.355-.01-.71.05-1.073.178-.207.074-.41.188-.623.31l-.132.073c-.08.045-.156.103-.23.16-.046.034-.092.068-.14.1l-.877.625c-.09.066-.18.132-.272.197-.104.074-.208.147-.312.218-.15.105-.302.21-.45.317-.1.073-.2.15-.297.227-.098.076-.196.153-.297.226-.13.097-.265.19-.4.285l-.252.178c-.076.054-.15.11-.227.166-.077.058-.157.117-.236.174l-.4.283c-.19.134-.38.27-.57.407-.14.1-.277.203-.414.306-.205.153-.41.307-.62.454-.14.098-.236.22-.267.343-.093.364-.058.682.104.942.192.31.377.49.6.592.242.11.486.12.725.032.14-.05.286-.154.44-.263.056-.04.112-.08.17-.117.142-.096.282-.196.423-.296.144-.102.288-.204.434-.303.427-.288.86-.57 1.292-.853.272-.177.606-.344 1.03-.24.077.02.137.05.19.078l.06.03c.197.09.283.317.192.51-.09.193-.322.278-.52.188l-.09-.043c-.014-.008-.027-.015-.04-.02-.09-.022-.197.012-.388.138-.43.28-.86.56-1.284.847-.14.095-.28.193-.418.29-.146.105-.292.21-.44.31-.052.033-.103.07-.154.105-.18.128-.386.273-.625.36-.434.16-.892.14-1.324-.054-.483-.218-.77-.612-.942-.89-.272-.437-.34-.966-.195-1.53.078-.305.275-.574.57-.782.204-.142.403-.29.602-.44l.422-.312c.192-.14.387-.276.58-.413l.395-.28c.076-.055.152-.11.228-.167.078-.058.157-.117.237-.174l.26-.183c.128-.09.257-.18.384-.272.095-.07.188-.142.28-.213.105-.082.21-.165.318-.243.153-.11.308-.22.464-.327l.305-.213c.088-.062.175-.127.262-.19l.888-.633c.04-.03.08-.06.12-.088.098-.075.2-.15.32-.22l.128-.07c.234-.132.476-.27.747-.365.455-.162.917-.236 1.36-.225.174.006.335.03.49.055.096.015.192.03.287.038.23.022.45.033.655.033.797.003 1.595.002 2.392.002h.855c.417 0 .595.173.595.577v5.428c0 .4-.2.596-.607.596l-2.468.002c-.12 0-.242.008-.363.015-.18.01-.343.07-.562.2-.27.162-.59.355-.892.558-.19.126-.374.258-.56.39-.165.117-.33.235-.5.35l-.07.047c-.422.287-.858.584-1.302.862-.438.276-.89.56-1.368.797-.342.172-.758.36-1.238.456-.495.1-.973.108-1.42.108h-2.096c-1.697 0-3.394 0-5.09.003h-.004"/><path d="M41.473 30.99h-4.098c-.216 0-.39-.173-.39-.386v-8.862c0-.213.174-.385.39-.385h4.098c.216 0 .39.172.39.385v8.862c0 .213-.174.385-.39.385zm-3.706-.77h3.314v-8.093h-3.313v8.093z"/><path d="M39.424 25.04c-.614 0-1.113-.49-1.113-1.093s.5-1.093 1.114-1.093c.614 0 1.113.49 1.113 1.093 0 .602-.5 1.092-1.113 1.092zm0-1.417c-.182 0-.33.145-.33.324 0 .178.148.323.33.323.182 0 .33-.145.33-.323 0-.18-.148-.324-.33-.324zM13.797 23.896H13.7c-.174-.006-.336-.03-.492-.056-.095-.015-.19-.03-.285-.038-.23-.022-.45-.033-.655-.034H9.02c-.416 0-.594-.173-.594-.578v-5.427c0-.402.2-.597.608-.597H11.5c.122 0 .243-.008.364-.016.18-.01.34-.07.56-.2.272-.162.59-.354.893-.558.19-.126.375-.258.56-.39.166-.117.33-.235.5-.35l.07-.047c.42-.287.858-.584 1.302-.862.437-.276.89-.56 1.367-.796.342-.17.757-.36 1.238-.456.495-.1.972-.107 1.42-.107h2.096c1.698 0 3.394 0 5.09-.003h.005c.448 0 .857.097 1.213.287.326.174.594.46.777.827.135.272.31.69.257 1.172-.042.393-.16.73-.346 1.005-.12.177-.275.313-.412.435l-.08.07c-.28.255-.644.382-1.107.387-.115 0-.23.01-.344.016-.14.01-.28.018-.42.018-.57.002-1.004.002-1.43.002-.46 0-.915 0-1.532.002-.217 0-.392-.17-.393-.383 0-.212.174-.385.39-.386.618 0 1.072-.002 1.537 0 .423 0 .857 0 1.427-.003.125 0 .248-.01.372-.017.128-.007.257-.016.385-.017.27-.003.45-.06.587-.184l.086-.077c.113-.1.22-.195.285-.29.116-.17.19-.39.218-.658.024-.218-.034-.457-.182-.753-.077-.156-.217-.366-.446-.49-.24-.127-.523-.192-.84-.192-1.7.002-3.397.003-5.093.002h-2.096c-.406 0-.838.007-1.26.093-.39.078-.747.24-1.043.387-.44.22-.877.494-1.298.758-.432.272-.864.565-1.28.848l-.07.047c-.163.11-.324.226-.485.34-.19.136-.383.272-.578.403-.32.213-.65.413-.93.58-.222.132-.527.288-.902.31-.152.008-.29.016-.425.016H9.21V23h3.06c.23.002.474.014.727.038.11.01.222.027.333.044.138.022.27.042.392.045.344.012.71-.05 1.072-.178.206-.074.41-.188.622-.31l.132-.073c.08-.045.156-.102.23-.16.046-.034.092-.068.138-.1l.88-.625.27-.198c.105-.074.21-.146.313-.22.15-.103.3-.207.45-.315.1-.074.2-.15.3-.23.096-.075.193-.15.292-.224.132-.096.266-.19.4-.284l.253-.18c.076-.053.15-.11.227-.165.08-.058.157-.117.237-.174l.38-.27c.198-.14.395-.278.59-.42.14-.1.277-.204.415-.307.205-.153.41-.306.618-.453.14-.098.236-.22.267-.343.093-.364.058-.682-.104-.942-.192-.308-.378-.49-.6-.592-.243-.108-.486-.12-.725-.032-.14.052-.286.155-.44.265-.056.04-.112.08-.168.116-.144.098-.286.2-.428.3-.142.1-.285.202-.43.3-.428.288-.86.57-1.293.853-.27.177-.605.344-1.028.24-.08-.02-.14-.05-.192-.078l-.06-.03c-.196-.09-.282-.317-.19-.51.09-.192.322-.277.518-.188.034.015.063.03.09.043l.04.02c.09.022.198-.012.39-.138.43-.28.858-.56 1.283-.847.14-.094.278-.19.415-.288.148-.105.295-.21.445-.31l.15-.105c.182-.13.388-.274.628-.362.435-.158.892-.14 1.323.054.486.218.772.612.945.89.272.437.34.967.194 1.53-.078.305-.276.574-.57.782-.203.142-.402.29-.6.44-.14.104-.282.21-.424.312-.198.144-.398.285-.597.427l-.38.268c-.076.054-.15.11-.226.166l-.238.173-.26.183c-.128.09-.257.18-.384.273-.094.068-.184.14-.275.21-.107.083-.213.166-.322.245-.153.112-.308.22-.463.327l-.307.213-.26.19-.89.633-.12.087c-.1.075-.2.152-.32.218l-.128.072c-.234.132-.476.27-.747.365-.423.15-.847.226-1.263.226"/><path d="M8.817 24.78H4.72c-.217 0-.392-.172-.392-.384v-8.863c0-.213.175-.385.392-.385h4.097c.217 0 .392.172.392.385v8.863c0 .212-.176.384-.393.384zm-3.705-.77h3.314v-8.093H5.112v8.094z"/><path d="M6.77 23.283c-.615 0-1.114-.49-1.114-1.092 0-.602.5-1.092 1.113-1.092.612 0 1.11.49 1.11 1.093s-.498 1.093-1.11 1.093zm0-1.416c-.183 0-.33.145-.33.324 0 .18.147.324.33.324.18 0 .328-.145.328-.323 0-.178-.148-.323-.33-.323z"/></g></symbol><symbol id="icon_virtual-capital" viewBox="0 0 46 46"><title>Virtual Capital</title><g fill="currentColor" fill-rule="evenodd"><path d="M34.815 12.223H8.673c-.757 0-1.373.625-1.373 1.393v15.707c0 .768.616 1.392 1.373 1.392h10.245v3.106h-2.983c-.224 0-.405.184-.405.412 0 .227.18.41.405.41h11.618c.224 0 .405-.183.405-.41 0-.228-.18-.41-.405-.41H24.65v-3.107h2.813c-.153-.263-.292-.536-.41-.82H8.674c-.31 0-.563-.257-.563-.572V13.616c0-.315.253-.57.563-.57h26.142c.31 0 .563.255.563.57v7.37c.28.1.55.215.81.35v-7.72c0-.768-.616-1.393-1.373-1.393zM19.728 30.715h3.952v3.105h-3.952v-3.105zM33.183 32.82c-2.987 0-5.42-2.465-5.42-5.495 0-3.03 2.433-5.494 5.42-5.494 2.988 0 5.42 2.466 5.42 5.495 0 3.03-2.432 5.495-5.42 5.495zm0-10.167c-2.54 0-4.61 2.096-4.61 4.672 0 2.577 2.07 4.673 4.61 4.673 2.542 0 4.61-2.096 4.61-4.673 0-2.576-2.068-4.672-4.61-4.672z"/><path d="M33.366 26.934V25.54c.292.082.51.352.51.674 0 .227.18.41.404.41.223 0 .405-.183.405-.41 0-.777-.578-1.412-1.32-1.504v-.35c0-.102-.08-.185-.182-.185-.1 0-.182.083-.182.185v.35c-.74.092-1.318.727-1.318 1.504 0 .776.577 1.41 1.32 1.504v1.392c-.294-.08-.51-.35-.51-.673 0-.227-.182-.41-.405-.41-.224 0-.405.183-.405.41 0 .776.577 1.41 1.32 1.504v.35c0 .103.08.186.18.186.102 0 .184-.083.184-.186v-.35c.74-.092 1.32-.727 1.32-1.503 0-.776-.58-1.41-1.32-1.503zm-.874-.72c0-.322.216-.592.51-.674v1.347c-.294-.082-.51-.35-.51-.673zm.874 2.896v-1.346c.292.082.51.35.51.673 0 .323-.218.592-.51.673zM26.58 27.93H10.046V15.008H33.44v5.604c.276.01.546.038.81.082v-6.507H9.237v14.565h17.467c-.057-.268-.1-.542-.123-.822"/></g></symbol><symbol id="icon_workplace" viewBox="0 0 46 46"><title>workplace</title><g fill="currentColor" fill-rule="evenodd"><path d="M24.552 19.564v-8.547H11.43v22.877h25.14v-14.33H24.553zm-12.02-7.47H23.45v20.722H12.533v-20.72zm12.02 8.548h10.915v12.174H24.552V20.642z"/><path d="M16.763 27.65h2.405v5.152h-2.405v-5.15zM28.695 27.65h2.63v5.152h-2.63v-5.15zM27.423 23.653h1.762v1.722h-1.762v-1.722zM30.834 23.653h1.762v1.722h-1.762v-1.722zM15.38 23.653h1.76v1.722h-1.76v-1.722zM18.79 23.653h1.763v1.722H18.79v-1.722zM15.38 19.243h1.76v1.72h-1.76v-1.72zM18.79 19.243h1.763v1.72H18.79v-1.72zM15.38 14.736h1.76v1.72h-1.76v-1.72zM18.79 14.736h1.763v1.72H18.79v-1.72z"/></g></symbol><symbol id="icon_x" viewBox="0 0 46 46"><title>x</title><g fill="currentColor" fill-rule="evenodd"><path d="M15.5 15.462c-4.382 4.46-4.382 11.717 0 16.177 4.384 4.46 11.517 4.46 15.9 0 4.383-4.46 4.383-11.718 0-16.18-4.383-4.46-11.516-4.46-15.9.002zM30.644 30.87c-3.966 4.035-10.42 4.034-14.385 0-3.966-4.037-3.966-10.603 0-14.638 3.966-4.036 10.42-4.035 14.385 0 3.966 4.035 3.966 10.602 0 14.637z"/><path d="M20.99 20.276l-.757.77 2.408 2.45-2.407 2.45.757.772 2.408-2.45 2.408 2.45.757-.77-2.408-2.45 2.408-2.45-.757-.772-2.408 2.45-2.408-2.45"/></g></symbol><symbol id="social_carrot" viewBox="0 0 21 12.2"><path d="M21 0h-1.3l-9.2 10.6L1.3 0H0l10.5 12.2"/><path fill="currentColor" d="M19.7 0H1.3l9.2 10.6"/></symbol><symbol id="social__facebook" viewBox="-767 97 246 82"><path fill="currentColor" d="M-767 97v82h246V97h-246zm138.3 30.7l-.7 10.9h-10.4v37.3h-13.4v-37.6h-7.4v-10.5h7v-7.4c0-3.2 0-8.1 2.3-11.2s5.4-5.3 11.1-5.3c9.1 0 12.8 1.4 12.8 1.4l-1.7 10.9s-3-1.1-5.7-1.1-5.4 1.1-5.4 3.9v8.4h11.4l.1.3z"/></symbol><symbol id="social__linkedin" viewBox="-767 -118.8 246 82"><path fill="currentColor" d="M-767-119.2v82.8h246v-82.8h-246zm103.7 72.8h-13.4V-89h13.4v42.6zm-7-48c-5 0-8.1-3.4-8.1-7.4 0-4.4 3.4-7.4 8.1-7.4 5 0 8.1 3.4 8.1 7.4.3 4-3.1 7.4-8.1 7.4zm60.7 48h-15.1v-22.1c0-5.7-2.3-9.7-7.7-9.7-4 0-6 2.7-7.4 5.4-.3 1-.3 2.3-.3 3.4v23.2h-14.8s.3-39.3 0-42.6h15.1v6.7c1-3 5.7-7 13.4-7 9.4 0 16.8 6 16.8 19.5v23.2z"/></symbol><symbol id="social__twitter" viewBox="-767 -2.2 246 82"><path fill="currentColor" d="M-767-2.2v82h246v-82h-246zm150.4 27.1v1.7c0 18.5-14.1 39.9-39.9 39.9-8.1 0-15.4-2.3-21.5-6.4 1 0 2.3.3 3.4.3 6.7 0 12.8-2.3 17.4-6-6 0-11.4-4-13.1-9.7.7.3 1.3.3 2.3.3 1.3 0 2.7 0 3.7-.3-6.4-1.3-11.4-7-11.4-13.8v-.3c2 1 4.4 1.7 6.4 1.7-3.7-2.7-6.4-6.7-6.4-11.7.3-2.3 1-5 2-7 7 8.7 17.4 14.1 29.2 14.8-.3-1-.3-2-.3-3.4 0-7.7 6.4-14.1 14.1-14.1 4 0 7.7 1.7 10.4 4.4 3.4-.7 6.4-1.7 9.1-3.4-1 3.4-3.4 6-6 7.7 2.7-.3 5.7-1 8.1-2.3-2.5 3.3-4.9 5.6-7.5 7.6z"/></symbol></svg>