<svg width="46" height="46" viewBox="0 0 46 46" xmlns="http://www.w3.org/2000/svg"><title>edit</title><g fill="#000" fill-rule="evenodd"><path d="M35.787 43.996H2.49V10.02h20.45V8.1H.6v37.81h37.075V23.538h-1.888v20.46"/><path d="M39.1.282L13.824 25.877 8.855 37.523l11.443-5.033.283-.31L45.475 7l.122-.123L39.1.282zm0 2.71l3.826 3.884-2.39 2.426L36.71 5.42l2.39-2.427zm-3.725 3.782l3.826 3.883L19.434 30.66l-.29.294-3.822-3.888L35.376 6.774zM17.23 31.75l-4.743 2.087 2.055-4.817 2.69 2.73z"/></g></svg>