<svg width="46" height="46" viewBox="0 0 46 46" xmlns="http://www.w3.org/2000/svg"><title>x</title><g fill="#000" fill-rule="evenodd"><path d="M7.002 6.923c-8.767 8.92-8.767 23.435 0 32.355 8.766 8.92 23.03 8.92 31.797 0 8.766-8.92 8.766-23.435 0-32.355-8.767-8.92-23.032-8.92-31.798 0zM37.286 37.74c-7.932 8.07-20.838 8.07-28.77-.002-7.93-8.07-7.932-21.204 0-29.275 7.93-8.07 20.838-8.07 28.77 0 7.93 8.072 7.932 21.205 0 29.276z"/><path d="M17.98 16.553l-1.514 1.54 4.815 4.9-4.814 4.902 1.514 1.54 4.815-4.9 4.817 4.9 1.514-1.54-4.817-4.9 4.816-4.902-1.514-1.54-4.816 4.9-4.816-4.9"/></g></svg>