<svg width="46" height="46" viewBox="0 0 46 46" xmlns="http://www.w3.org/2000/svg"><title>infographic</title><g fill="#000" fill-rule="evenodd"><path d="M44.333 43.743H1c-.552 0-1-.46-1-1.025s.448-1.024 1-1.024h43.333c.553 0 1 .46 1 1.024 0 .566-.447 1.025-1 1.025"/><path d="M13 43.743H5c-.552 0-1-.46-1-1.025V30.426c0-.566.448-1.025 1-1.025h8c.552 0 1 .46 1 1.026v12.292c0 .566-.448 1.025-1 1.025zm-7-2.05h6V31.45H6v10.244zM27 43.743h-8c-.552 0-1-.46-1-1.025V16.084c0-.565.448-1.024 1-1.024h8c.552 0 1 .46 1 1.024v26.634c0 .566-.448 1.025-1 1.025zm-7-2.05h6V17.11h-6v24.584zM41 43.743h-8c-.552 0-1-.46-1-1.025V3.368c0-.568.448-1.026 1-1.026h8c.552 0 1 .458 1 1.025v39.35c0 .567-.448 1.026-1 1.026zm-7-2.05h6V4.39h-6v37.304z"/></g></svg>