<svg width="46" height="46" viewBox="0 0 46 46" xmlns="http://www.w3.org/2000/svg"><title>share</title><path d="M29.008 26.007c-1.005 0-1.89.485-2.465 1.223l-6.41-3.24c.08-.273.134-.556.134-.853 0-.296-.055-.58-.133-.85l6.41-3.242c.573.74 1.46 1.223 2.464 1.223 1.73 0 3.134-1.406 3.134-3.134S30.737 14 29.008 14c-1.728 0-3.133 1.406-3.133 3.134 0 .297.055.58.132.852l-6.408 3.24c-.575-.738-1.46-1.222-2.467-1.222-1.728 0-3.133 1.405-3.133 3.133 0 1.73 1.405 3.135 3.133 3.135 1.006 0 1.892-.485 2.466-1.223l6.407 3.24c-.077.272-.132.554-.132.85 0 1.73 1.405 3.135 3.133 3.135 1.73 0 3.134-1.406 3.134-3.134 0-1.727-1.405-3.133-3.134-3.133zm0-10.82c1.073 0 1.946.874 1.946 1.947s-.873 1.946-1.946 1.946-1.945-.873-1.945-1.946.872-1.947 1.945-1.947zm-11.875 9.897c-1.073 0-1.945-.874-1.945-1.947 0-1.072.872-1.945 1.945-1.945s1.946.873 1.946 1.945c0 1.073-.874 1.947-1.947 1.947zm11.875 6.003c-1.073 0-1.945-.873-1.945-1.946 0-1.072.872-1.945 1.945-1.945s1.946.873 1.946 1.946c0 1.074-.873 1.947-1.946 1.947z" fill="#000" fill-rule="evenodd"/></svg>