<svg width="46" height="46" viewBox="0 0 46 46" xmlns="http://www.w3.org/2000/svg"><title>search-folders</title><g fill="#000" fill-rule="evenodd"><path d="M45.39 43.2l-7.94-8c1.266-1.596 2.027-3.61 2.027-5.803 0-5.152-4.18-9.343-9.318-9.343-5.14 0-9.32 4.19-9.32 9.343s4.18 9.344 9.32 9.344c2.206 0 4.233-.776 5.83-2.066l7.93 7.99c.202.205.468.306.735.306.263 0 .527-.1.73-.3.404-.406.406-1.063.004-1.47zm-15.23-6.535c-3.998 0-7.25-3.26-7.25-7.268 0-4.007 3.252-7.267 7.25-7.267 3.996 0 7.246 3.26 7.246 7.267 0 4.008-3.25 7.268-7.247 7.268z"/><path d="M10.32 16.624h26.17L35.934 18l1.706.69 1.578-3.91h-8.366V7.52H12.94l-1.96-2.734H.475V33.11H15.79v-1.846H3.273l7.047-14.64zm-.283-9.994l1.96 2.734h17.015v5.416H9.165l-6.85 14.23V6.63h7.722z"/></g></svg>