<svg width="46" height="46" viewBox="0 0 46 46" xmlns="http://www.w3.org/2000/svg"><title>save-article</title><g fill="#231F1F" fill-rule="evenodd"><path d="M34.692 26.87c-.118-.34-.438-.567-.795-.567h-3.815l-1.357-3.853c-.117-.34-.438-.567-.796-.567-.36 0-.68.228-.796.564l-1.36 3.856h-3.813c-.358 0-.678.23-.796.57-.117.34-.006.717.277.94l3.166 2.492-1.367 4.112c-.12.35 0 .733.298.952.286.212.69.22.998 0l3.393-2.494 3.398 2.5c.145.103.315.157.493.157.182 0 .355-.056.497-.162.298-.216.42-.597.304-.948l-1.37-4.117 3.17-2.493c.28-.222.39-.6.272-.943zm-4.808 3.024l1.307 3.93-3.26-2.4-3.264 2.4 1.307-3.93-3.074-2.42h3.7l1.33-3.77 1.326 3.77h3.702l-3.074 2.42z"/><path d="M12.178 29.51V11.29h15.167v9.273h1.168V10.12H11.01v20.56H22.25l-1.796-1.17h-8.274"/><path d="M14.243 13.315H25.27v1.17H14.243v-1.17zM14.243 17.215H25.27v1.17H14.243v-1.17zM14.243 21.115h8.23v1.17h-8.23v-1.17z"/></g></svg>