<svg width="46" height="46" viewBox="0 0 46 46" xmlns="http://www.w3.org/2000/svg"><title>search</title><path d="M20.76 26.52c1.364 0 2.617-.48 3.605-1.274l4.9 4.925c.126.127.29.19.455.19.163 0 .326-.062.45-.186.252-.25.253-.655.004-.905l-4.907-4.933c.782-.984 1.253-2.225 1.253-3.577 0-3.176-2.584-5.76-5.76-5.76-3.176 0-5.76 2.584-5.76 5.76 0 3.176 2.584 5.76 5.76 5.76zm0-10.24c2.47 0 4.48 2.01 4.48 4.48 0 2.47-2.01 4.48-4.48 4.48-2.47 0-4.48-2.01-4.48-4.48 0-2.47 2.01-4.48 4.48-4.48z" fill="#000" fill-rule="evenodd"/></svg>