<svg width="46" height="46" viewBox="0 0 46 46" xmlns="http://www.w3.org/2000/svg"><title>save-article</title><g fill="#231F1F" fill-rule="evenodd"><path d="M43.46 29.845c-.206-.598-.765-1-1.39-1h-6.677l-2.374-6.818c-.207-.6-.768-1.003-1.394-1.003-.628 0-1.187.403-1.392.997l-2.378 6.824h-6.674c-.628 0-1.19.405-1.394 1.007-.206.602-.012 1.27.483 1.665l5.54 4.41L23.42 43.2c-.21.62 0 1.296.523 1.684.502.377 1.21.392 1.748.002l5.938-4.413 5.948 4.422c.254.183.552.28.863.28.316 0 .62-.1.868-.287.52-.385.736-1.06.53-1.68l-2.395-7.283 5.543-4.412c.49-.393.686-1.06.478-1.668zm-8.413 5.352l2.287 6.952-5.708-4.244-5.71 4.243 2.286-6.953-5.378-4.282h6.478l2.324-6.667 2.32 6.667h6.48l-5.38 4.282z"/><path d="M4.06 34.52V2.28h26.543v16.407h2.045V.212H2.018V36.59h19.666l-3.143-2.07H4.06"/><path d="M7.676 5.865h19.297v2.07H7.676v-2.07zM7.676 12.765h19.297v2.07H7.676v-2.07zM7.676 19.665h14.4v2.07h-14.4v-2.07z"/></g></svg>