<svg width="46" height="46" viewBox="0 0 46 46" xmlns="http://www.w3.org/2000/svg"><title>our-latest-thinking</title><g fill="#231F1F" fill-rule="evenodd"><path d="M29.605 34.892h-12.16c-1.29 0-2.338-1.06-2.338-2.365V14.555c0-1.304 1.05-2.365 2.338-2.365h12.16c1.29 0 2.338 1.06 2.338 2.365v17.972c0 1.304-1.048 2.365-2.338 2.365zm-12.16-21.756c-.773 0-1.403.636-1.403 1.42v17.97c0 .784.63 1.42 1.403 1.42h12.16c.774 0 1.403-.636 1.403-1.42v-17.97c0-.784-.63-1.42-1.403-1.42h-12.16z"/><path d="M23.525 31.58c-.517 0-.935.424-.935.947 0 .522.418.946.935.946.516 0 .936-.424.936-.946 0-.523-.42-.946-.935-.946M29.605 31.108h-12.16c-.258 0-.467-.21-.467-.473V15.5c0-.26.21-.472.467-.472h12.16c.258 0 .468.21.468.472v15.135c0 .262-.21.473-.468.473zm-11.692-.945h11.224v-14.19H17.913v14.19zM23.525 13.61c-.258 0-.467.21-.467.472 0 .26.21.473.467.473.258 0 .468-.212.468-.473 0-.262-.21-.473-.468-.473"/><path d="M27.26 20.99h-7.596c-.258 0-.467-.21-.467-.47v-2.547c0-.262.21-.473.467-.473h7.595c.257 0 .467.21.467.473v2.546c0 .26-.21.47-.468.47zm-7.128-.944h6.66v-1.6h-6.66v1.6zM27.176 23.152h-7.58c-.255 0-.46-.208-.46-.465s.205-.465.46-.465h7.58c.254 0 .46.208.46.465s-.206.465-.46.465M27.176 25.707h-7.58c-.255 0-.46-.208-.46-.465 0-.256.205-.464.46-.464h7.58c.254 0 .46.208.46.464 0 .257-.206.465-.46.465M27.176 28.495h-7.58c-.255 0-.46-.208-.46-.465 0-.256.205-.464.46-.464h7.58c.254 0 .46.208.46.464 0 .257-.206.465-.46.465"/></g></svg>