<svg width="46" height="46" viewBox="0 0 46 46" xmlns="http://www.w3.org/2000/svg"><title>exit</title><g fill="#231F1F" fill-rule="evenodd"><path d="M30.273 32.75h-8.91c-.26 0-.472-.208-.472-.464v-4.25c0-.257.213-.465.474-.465.26 0 .472.21.472.466v3.785H29.8V14.18h-7.964v3.64c0 .258-.21.466-.472.466-.26 0-.473-.208-.473-.465v-4.106c0-.256.213-.464.474-.464h8.91c.26 0 .47.208.47.464v18.572c0 .256-.21.464-.47.464"/><path d="M27.364 23.473h-10.91c-.26 0-.472-.208-.472-.464 0-.257.21-.465.473-.465h10.91c.26 0 .47.208.47.464 0 .255-.21.463-.47.463"/><path d="M17.782 26.348c-.143 0-.284-.063-.377-.183l-2.236-2.893c-.13-.165-.13-.394-.003-.56l2.182-2.857c.156-.205.452-.246.66-.092.21.153.252.444.095.65l-1.968 2.576 2.02 2.613c.16.205.12.496-.09.65-.085.064-.185.095-.285.095"/></g></svg>