<svg width="46" height="46" viewBox="0 0 46 46" xmlns="http://www.w3.org/2000/svg"><title>exit</title><g fill="#231F1F" fill-rule="evenodd"><path d="M39.364 45.425H19.318c-.587 0-1.063-.478-1.063-1.068v-9.775c0-.59.476-1.068 1.063-1.068.588 0 1.064.478 1.064 1.068v8.707H38.3V2.71H20.382v8.38c0 .59-.476 1.067-1.064 1.067-.587 0-1.063-.478-1.063-1.068V1.642c0-.59.476-1.068 1.063-1.068h20.046c.587 0 1.063.478 1.063 1.068v42.714c0 .59-.476 1.068-1.063 1.068"/><path d="M32.818 24.088H8.273c-.588 0-1.064-.478-1.064-1.067 0-.59.475-1.067 1.063-1.067h24.545c.588 0 1.064.478 1.064 1.068 0 .59-.476 1.068-1.064 1.068"/><path d="M11.26 30.7c-.322 0-.64-.145-.848-.42L5.38 23.624c-.288-.38-.288-.905-.004-1.286l4.91-6.573c.353-.472 1.02-.567 1.49-.213.468.354.564 1.022.21 1.495L7.56 22.974l4.546 6.012c.356.47.264 1.14-.204 1.496-.192.146-.418.218-.642.218"/></g></svg>