<svg width="46" height="46" viewBox="0 0 46 46" xmlns="http://www.w3.org/2000/svg"><title>location</title><g fill="#000" fill-rule="evenodd"><path d="M23.617 17.88c-1.283 0-2.323 1.086-2.323 2.424 0 1.34 1.04 2.424 2.323 2.424s2.323-1.085 2.323-2.424c0-1.338-1.04-2.423-2.323-2.423"/><path d="M23.617 13.275c-4.06 0-7.352 3.433-7.352 7.668 0 4.236 7.352 12.782 7.352 12.782s7.352-8.546 7.352-12.782c0-4.235-3.293-7.668-7.353-7.668zm-6.126 7.748c0-3.573 2.744-6.47 6.127-6.47 3.383 0 6.126 2.897 6.126 6.47 0 3.574-6.126 10.784-6.126 10.784s-6.126-7.21-6.126-10.784z"/></g></svg>