<svg width="46" height="46" viewBox="0 0 46 46" xmlns="http://www.w3.org/2000/svg"><title>edit</title><g fill="#000" fill-rule="evenodd"><path d="M30.45 34.91H12.353V16.446h11.115v-1.042H11.326v20.55h20.15v-12.16H30.45V34.91"/><path d="M32.25 11.153l-13.737 13.91-2.7 6.33 6.218-2.735.155-.17 13.53-13.683.066-.067-3.53-3.585zm0 1.474l2.08 2.11-1.3 1.32-2.08-2.112 1.3-1.318zm-2.024 2.054l2.08 2.112-10.745 10.87-.156.16-2.077-2.112 10.9-11.03zm-9.86 13.575l-2.58 1.135 1.117-2.618 1.462 1.483z"/></g></svg>