<svg width="46" height="46" viewBox="0 0 46 46" xmlns="http://www.w3.org/2000/svg"><title>search-folders</title><g fill="#000" fill-rule="evenodd"><path d="M35.654 33.99l-4.487-4.488c.716-.895 1.146-2.025 1.146-3.255 0-2.89-2.362-5.24-5.267-5.24-2.904 0-5.267 2.35-5.267 5.24s2.362 5.242 5.266 5.242c1.248 0 2.393-.437 3.297-1.16l4.48 4.482c.116.114.266.17.417.17.15 0 .298-.055.412-.168.23-.227.23-.595.002-.824zm-8.608-3.666c-2.26 0-4.096-1.828-4.096-4.077 0-2.248 1.837-4.076 4.096-4.076 2.26 0 4.097 1.83 4.097 4.077 0 2.25-1.838 4.077-4.097 4.077z"/><path d="M15.833 19.082h14.79l-.312.77.966.39.89-2.195h-4.728v-4.073H17.314l-1.108-1.533h-5.938v15.89h8.657v-1.036H11.85l3.983-8.212zm-.16-5.607l1.108 1.534H26.4v3.037H15.18l-3.872 7.984V13.476h4.365z"/></g></svg>