<svg width="46" height="46" viewBox="0 0 46 46" xmlns="http://www.w3.org/2000/svg"><title>Value Webs</title><g fill="#000" fill-rule="evenodd"><path d="M22.824 26.54c-.216 0-.39-.173-.39-.385V20.81c0-.213.174-.385.39-.385.217 0 .392.172.392.385v5.345c0 .212-.175.384-.392.384"/><path d="M22.824 25.872c-.78 0-1.412-.623-1.412-1.388 0-.212.175-.384.392-.384.216 0 .39.172.39.384 0 .34.283.618.63.618.348 0 .63-.277.63-.618 0-.34-.282-.617-.63-.617-.78 0-1.412-.622-1.412-1.387s.633-1.387 1.412-1.387c.78 0 1.413.622 1.413 1.387 0 .213-.175.385-.392.385-.216 0-.392-.172-.392-.385 0-.34-.28-.618-.63-.618-.346 0-.628.278-.628.618 0 .34.282.618.63.618.778 0 1.412.622 1.412 1.386 0 .765-.634 1.388-1.413 1.388M27.367 23.482c0 .187-.016.37-.04.55.036-.025.07-.053.106-.08.157-.113.317-.225.478-.336l.24-.166c-.017-2.497-1.823-4.583-4.22-5.082-.123 0-.25 0-.386.002-.07.002-.16-.007-.235-.022-.075.244-.202.473-.367.68 2.45.063 4.424 2.034 4.424 4.454M19.787 27.77h1.804c-1.905-.53-3.308-2.25-3.308-4.288 0-.364.05-.717.134-1.056l-.135.095-.296.21-.25.18c-.07.053-.142.105-.214.157-.01.137-.02.275-.02.415 0 1.775.906 3.343 2.287 4.29M19.228 32.757c-.448 0-.857-.097-1.213-.287-.325-.173-.594-.46-.777-.826-.135-.272-.31-.69-.257-1.172.043-.394.16-.732.347-1.006.12-.176.275-.313.412-.433l.078-.07c.282-.256.644-.382 1.11-.388.115 0 .23-.008.345-.016.14-.01.277-.02.416-.02h1.398c.47 0 .933 0 1.564-.003h.002c.216 0 .39.17.39.383.002.212-.172.385-.39.386-.63.002-1.094.002-1.566.002-.42 0-.84 0-1.396.002-.123 0-.245.01-.368.017-.13.008-.26.016-.39.017-.268.003-.448.06-.586.184l-.085.077c-.114.1-.22.194-.286.29-.115.168-.188.39-.217.658-.024.216.034.456.182.753.077.155.218.366.447.488.24.128.522.193.838.193h.002c1.698-.002 3.396-.003 5.092-.002h2.097c.405 0 .837-.007 1.26-.093.39-.08.746-.24 1.042-.387.442-.22.878-.494 1.3-.758.43-.27.862-.564 1.28-.847l.07-.048c.163-.11.324-.226.485-.34.19-.137.382-.272.577-.402.318-.214.647-.413.927-.58.224-.133.528-.288.905-.31.153-.01.29-.017.425-.017h2.294v-5.064h-.667c-.798 0-1.596 0-2.394-.002-.23 0-.474-.013-.727-.037-.11-.01-.222-.026-.334-.043-.138-.022-.27-.042-.39-.045-.355-.01-.71.05-1.073.178-.207.074-.41.188-.623.31l-.132.073c-.08.045-.156.103-.23.16-.046.034-.092.068-.14.1l-.877.625c-.09.066-.18.132-.272.197-.104.074-.208.147-.312.218-.15.105-.302.21-.45.317-.1.073-.2.15-.297.227-.098.076-.196.153-.297.226-.13.097-.265.19-.4.285l-.252.178c-.076.054-.15.11-.227.166-.077.058-.157.117-.236.174l-.4.283c-.19.134-.38.27-.57.407-.14.1-.277.203-.414.306-.205.153-.41.307-.62.454-.14.098-.236.22-.267.343-.093.364-.058.682.104.942.192.31.377.49.6.592.242.11.486.12.725.032.14-.05.286-.154.44-.263.056-.04.112-.08.17-.117.142-.096.282-.196.423-.296.144-.102.288-.204.434-.303.427-.288.86-.57 1.292-.853.272-.177.606-.344 1.03-.24.077.02.137.05.19.078l.06.03c.197.09.283.317.192.51-.09.193-.322.278-.52.188l-.09-.043c-.014-.008-.027-.015-.04-.02-.09-.022-.197.012-.388.138-.43.28-.86.56-1.284.847-.14.095-.28.193-.418.29-.146.105-.292.21-.44.31-.052.033-.103.07-.154.105-.18.128-.386.273-.625.36-.434.16-.892.14-1.324-.054-.483-.218-.77-.612-.942-.89-.272-.437-.34-.966-.195-1.53.078-.305.275-.574.57-.782.204-.142.403-.29.602-.44l.422-.312c.192-.14.387-.276.58-.413l.395-.28c.076-.055.152-.11.228-.167.078-.058.157-.117.237-.174l.26-.183c.128-.09.257-.18.384-.272.095-.07.188-.142.28-.213.105-.082.21-.165.318-.243.153-.11.308-.22.464-.327l.305-.213c.088-.062.175-.127.262-.19l.888-.633c.04-.03.08-.06.12-.088.098-.075.2-.15.32-.22l.128-.07c.234-.132.476-.27.747-.365.455-.162.917-.236 1.36-.225.174.006.335.03.49.055.096.015.192.03.287.038.23.022.45.033.655.033.797.003 1.595.002 2.392.002h.855c.417 0 .595.173.595.577v5.428c0 .4-.2.596-.607.596l-2.468.002c-.12 0-.242.008-.363.015-.18.01-.343.07-.562.2-.27.162-.59.355-.892.558-.19.126-.374.258-.56.39-.165.117-.33.235-.5.35l-.07.047c-.422.287-.858.584-1.302.862-.438.276-.89.56-1.368.797-.342.172-.758.36-1.238.456-.495.1-.973.108-1.42.108h-2.096c-1.697 0-3.394 0-5.09.003h-.004"/><path d="M41.473 30.99h-4.098c-.216 0-.39-.173-.39-.386v-8.862c0-.213.174-.385.39-.385h4.098c.216 0 .39.172.39.385v8.862c0 .213-.174.385-.39.385zm-3.706-.77h3.314v-8.093h-3.313v8.093z"/><path d="M39.424 25.04c-.614 0-1.113-.49-1.113-1.093s.5-1.093 1.114-1.093c.614 0 1.113.49 1.113 1.093 0 .602-.5 1.092-1.113 1.092zm0-1.417c-.182 0-.33.145-.33.324 0 .178.148.323.33.323.182 0 .33-.145.33-.323 0-.18-.148-.324-.33-.324zM13.797 23.896H13.7c-.174-.006-.336-.03-.492-.056-.095-.015-.19-.03-.285-.038-.23-.022-.45-.033-.655-.034H9.02c-.416 0-.594-.173-.594-.578v-5.427c0-.402.2-.597.608-.597H11.5c.122 0 .243-.008.364-.016.18-.01.34-.07.56-.2.272-.162.59-.354.893-.558.19-.126.375-.258.56-.39.166-.117.33-.235.5-.35l.07-.047c.42-.287.858-.584 1.302-.862.437-.276.89-.56 1.367-.796.342-.17.757-.36 1.238-.456.495-.1.972-.107 1.42-.107h2.096c1.698 0 3.394 0 5.09-.003h.005c.448 0 .857.097 1.213.287.326.174.594.46.777.827.135.272.31.69.257 1.172-.042.393-.16.73-.346 1.005-.12.177-.275.313-.412.435l-.08.07c-.28.255-.644.382-1.107.387-.115 0-.23.01-.344.016-.14.01-.28.018-.42.018-.57.002-1.004.002-1.43.002-.46 0-.915 0-1.532.002-.217 0-.392-.17-.393-.383 0-.212.174-.385.39-.386.618 0 1.072-.002 1.537 0 .423 0 .857 0 1.427-.003.125 0 .248-.01.372-.017.128-.007.257-.016.385-.017.27-.003.45-.06.587-.184l.086-.077c.113-.1.22-.195.285-.29.116-.17.19-.39.218-.658.024-.218-.034-.457-.182-.753-.077-.156-.217-.366-.446-.49-.24-.127-.523-.192-.84-.192-1.7.002-3.397.003-5.093.002h-2.096c-.406 0-.838.007-1.26.093-.39.078-.747.24-1.043.387-.44.22-.877.494-1.298.758-.432.272-.864.565-1.28.848l-.07.047c-.163.11-.324.226-.485.34-.19.136-.383.272-.578.403-.32.213-.65.413-.93.58-.222.132-.527.288-.902.31-.152.008-.29.016-.425.016H9.21V23h3.06c.23.002.474.014.727.038.11.01.222.027.333.044.138.022.27.042.392.045.344.012.71-.05 1.072-.178.206-.074.41-.188.622-.31l.132-.073c.08-.045.156-.102.23-.16.046-.034.092-.068.138-.1l.88-.625.27-.198c.105-.074.21-.146.313-.22.15-.103.3-.207.45-.315.1-.074.2-.15.3-.23.096-.075.193-.15.292-.224.132-.096.266-.19.4-.284l.253-.18c.076-.053.15-.11.227-.165.08-.058.157-.117.237-.174l.38-.27c.198-.14.395-.278.59-.42.14-.1.277-.204.415-.307.205-.153.41-.306.618-.453.14-.098.236-.22.267-.343.093-.364.058-.682-.104-.942-.192-.308-.378-.49-.6-.592-.243-.108-.486-.12-.725-.032-.14.052-.286.155-.44.265-.056.04-.112.08-.168.116-.144.098-.286.2-.428.3-.142.1-.285.202-.43.3-.428.288-.86.57-1.293.853-.27.177-.605.344-1.028.24-.08-.02-.14-.05-.192-.078l-.06-.03c-.196-.09-.282-.317-.19-.51.09-.192.322-.277.518-.188.034.015.063.03.09.043l.04.02c.09.022.198-.012.39-.138.43-.28.858-.56 1.283-.847.14-.094.278-.19.415-.288.148-.105.295-.21.445-.31l.15-.105c.182-.13.388-.274.628-.362.435-.158.892-.14 1.323.054.486.218.772.612.945.89.272.437.34.967.194 1.53-.078.305-.276.574-.57.782-.203.142-.402.29-.6.44-.14.104-.282.21-.424.312-.198.144-.398.285-.597.427l-.38.268c-.076.054-.15.11-.226.166l-.238.173-.26.183c-.128.09-.257.18-.384.273-.094.068-.184.14-.275.21-.107.083-.213.166-.322.245-.153.112-.308.22-.463.327l-.307.213-.26.19-.89.633-.12.087c-.1.075-.2.152-.32.218l-.128.072c-.234.132-.476.27-.747.365-.423.15-.847.226-1.263.226"/><path d="M8.817 24.78H4.72c-.217 0-.392-.172-.392-.384v-8.863c0-.213.175-.385.392-.385h4.097c.217 0 .392.172.392.385v8.863c0 .212-.176.384-.393.384zm-3.705-.77h3.314v-8.093H5.112v8.094z"/><path d="M6.77 23.283c-.615 0-1.114-.49-1.114-1.092 0-.602.5-1.092 1.113-1.092.612 0 1.11.49 1.11 1.093s-.498 1.093-1.11 1.093zm0-1.416c-.183 0-.33.145-.33.324 0 .18.147.324.33.324.18 0 .328-.145.328-.323 0-.178-.148-.323-.33-.323z"/></g></svg>