<svg width="46" height="46" viewBox="0 0 46 46" xmlns="http://www.w3.org/2000/svg"><title>collaborators</title><g fill="#000" fill-rule="evenodd"><path d="M40.514 33.325l-.18-.042c-2.562-.596-5.472-1.27-5.972-2.374-.16-.354-.057-.883.306-1.57 3.384-6.42 4.003-11.42 1.744-15.198-1.56-2.61-4.39-4.102-7.767-4.102-3.404 0-6.253 1.517-7.817 4.162-2.266 3.827-1.624 8.81 1.798 15.15.367.68.475 1.202.317 1.553-.494 1.102-3.486 1.797-5.89 2.353l-.278.065c-5.196 1.206-5.178 4.434-5.157 8.175l.003 2.14h2.546v-2.56h-.008c-.015-3.46.092-4.543 3.187-5.262l.28-.065c3.406-.788 6.624-1.532 7.636-3.794.502-1.115.368-2.405-.398-3.824-2.98-5.517-3.637-9.6-1.85-12.62 1.112-1.878 3.11-2.913 5.632-2.913 2.5 0 4.485 1.016 5.59 2.862 1.78 2.98 1.138 7.086-1.81 12.68-.753 1.427-.88 2.717-.373 3.83 1.023 2.25 4.274 3.005 7.717 3.805l.177.04c3.095.717 3.2 1.8 3.186 5.262v2.558h2.537v-2.14c.025-3.74.04-6.967-5.153-8.173"/><path d="M17.512 4.178c-3.404 0-6.253 1.517-7.817 4.162-2.265 3.827-1.624 8.81 1.8 15.15.366.68.473 1.203.315 1.553-.494 1.103-3.485 1.798-5.89 2.353l-.278.066C.446 28.668.464 31.896.486 35.636l.002 2.14h2.545v-2.558h-.007c-.015-3.46.092-4.544 3.187-5.263l.278-.065c3.408-.79 6.626-1.534 7.64-3.795.5-1.116.365-2.405-.4-3.824-2.98-5.516-3.637-9.6-1.85-12.62 1.11-1.877 3.11-2.913 5.632-2.913 2.068 0 3.775.706 4.93 1.992.75-.45 1.576-.79 2.468-1.01-1.614-2.26-4.27-3.542-7.398-3.542"/></g></svg>