<svg width="46" height="46" viewBox="0 0 46 46" xmlns="http://www.w3.org/2000/svg"><title>Virtual Capital</title><g fill="#000" fill-rule="evenodd"><path d="M34.815 12.223H8.673c-.757 0-1.373.625-1.373 1.393v15.707c0 .768.616 1.392 1.373 1.392h10.245v3.106h-2.983c-.224 0-.405.184-.405.412 0 .227.18.41.405.41h11.618c.224 0 .405-.183.405-.41 0-.228-.18-.41-.405-.41H24.65v-3.107h2.813c-.153-.263-.292-.536-.41-.82H8.674c-.31 0-.563-.257-.563-.572V13.616c0-.315.253-.57.563-.57h26.142c.31 0 .563.255.563.57v7.37c.28.1.55.215.81.35v-7.72c0-.768-.616-1.393-1.373-1.393zM19.728 30.715h3.952v3.105h-3.952v-3.105zM33.183 32.82c-2.987 0-5.42-2.465-5.42-5.495 0-3.03 2.433-5.494 5.42-5.494 2.988 0 5.42 2.466 5.42 5.495 0 3.03-2.432 5.495-5.42 5.495zm0-10.167c-2.54 0-4.61 2.096-4.61 4.672 0 2.577 2.07 4.673 4.61 4.673 2.542 0 4.61-2.096 4.61-4.673 0-2.576-2.068-4.672-4.61-4.672z"/><path d="M33.366 26.934V25.54c.292.082.51.352.51.674 0 .227.18.41.404.41.223 0 .405-.183.405-.41 0-.777-.578-1.412-1.32-1.504v-.35c0-.102-.08-.185-.182-.185-.1 0-.182.083-.182.185v.35c-.74.092-1.318.727-1.318 1.504 0 .776.577 1.41 1.32 1.504v1.392c-.294-.08-.51-.35-.51-.673 0-.227-.182-.41-.405-.41-.224 0-.405.183-.405.41 0 .776.577 1.41 1.32 1.504v.35c0 .103.08.186.18.186.102 0 .184-.083.184-.186v-.35c.74-.092 1.32-.727 1.32-1.503 0-.776-.58-1.41-1.32-1.503zm-.874-.72c0-.322.216-.592.51-.674v1.347c-.294-.082-.51-.35-.51-.673zm.874 2.896v-1.346c.292.082.51.35.51.673 0 .323-.218.592-.51.673zM26.58 27.93H10.046V15.008H33.44v5.604c.276.01.546.038.81.082v-6.507H9.237v14.565h17.467c-.057-.268-.1-.542-.123-.822"/></g></svg>