<svg width="46" height="46" viewBox="0 0 46 46" xmlns="http://www.w3.org/2000/svg"><title>create-folder</title><g fill="#000" fill-rule="evenodd"><path d="M34.3 20.605c-6.33 0-11.482 5.086-11.482 11.34 0 6.252 5.15 11.34 11.48 11.34 6.332 0 11.483-5.088 11.483-11.34 0-6.254-5.15-11.34-11.48-11.34zm0 20.685c-5.218 0-9.46-4.194-9.46-9.346 0-5.153 4.242-9.344 9.46-9.344 5.217 0 9.46 4.19 9.46 9.344 0 5.152-4.243 9.346-9.46 9.346z"/><path d="M35.31 27.51h-2.02v3.436h-3.48v1.995h3.48v3.436h2.02V32.94h3.477v-1.994H35.31V27.51M10.918 16.095H39.64l-1.214 2.967 1.87.75 2.34-5.712h-9.183V6.25h-19.66l-2.148-2.954H.112v30.62h20.176V31.92H3.184l7.734-15.825zm-.31-10.805l2.15 2.955h18.676V14.1H9.65L2.133 29.484V5.29h8.476z"/></g></svg>