<svg width="46" height="46" viewBox="0 0 46 46" xmlns="http://www.w3.org/2000/svg"><title>industry</title><path d="M45.098 12.76c0-1.43-1.067-2.593-2.38-2.593h-9.64v-2.36C33.08 5.708 31.407 4 29.35 4H15.748c-2.056 0-3.73 1.708-3.73 3.808v2.36H2.38C1.067 10.167 0 11.33 0 12.76v26.244c0 1.43 1.067 2.595 2.38 2.595h40.338c1.313 0 2.38-1.165 2.38-2.596V16.628l-.01.016.01-3.883zM14.592 7.81c0-.65.518-1.18 1.156-1.18H29.35c.638 0 1.156.53 1.156 1.18v2.36H14.592v-2.36zm-12.01 4.987h39.943l-.018 6.887c0 1.204-1.218 2.3-2.555 2.3H27.984c-.344-1.224-1.45-2.12-2.757-2.12h-5.192c-1.308 0-2.414.897-2.76 2.12H5.146c-1.166 0-2.342-.9-2.572-1.947l.01-7.24zM19.738 24.61v-1.82c0-.167.134-.3.297-.3h5.192c.163 0 .295.133.295.3v2.327c0 .166-.133.302-.295.302h-5.192c-.163 0-.297-.137-.297-.303v-.506zm22.778 14.36H2.573V24.002c.52.256 1.08.428 1.653.523h.005c.125.02.25.04.375.052.178.02.36.033.54.033h12.02v.506c0 1.616 1.287 2.93 2.87 2.93h5.19c1.584 0 2.87-1.314 2.87-2.93v-.506H39.95c.193 0 .384-.013.573-.035.13-.013.26-.036.39-.058.025-.006.052-.01.078-.015.53-.1 1.048-.268 1.53-.51l-.007 14.978z" fill="#000" fill-rule="evenodd"/></svg>