<svg width="46" height="46" viewBox="0 0 46 46" xmlns="http://www.w3.org/2000/svg"><title>settings</title><path d="M42.484 18.342l-3.633-.805c-.282-.905-.652-1.77-1.078-2.603l1.966-3.273c.734-1.17 1.104-2.893 0-3.998l-2.004-2c-.54-.54-1.266-.77-1.996-.77-.76 0-1.527.247-2.1.644l-3.186 2.03c-.827-.43-1.69-.795-2.59-1.086l-.815-3.673C26.804 1.457 25.625 0 24.06 0h-2.828C19.668 0 18.71 1.48 18.4 2.83l-.907 3.628c-.96.305-1.88.696-2.76 1.158l-3.264-2.08c-.574-.398-1.342-.644-2.1-.644-.73 0-1.456.228-1.998.77l-2 2c-1.107 1.104-.738 2.827 0 4l2.067 3.443c-.39.78-.733 1.587-1 2.43l-3.63.806C1.46 18.586 0 19.763 0 21.324v2.83c0 1.56 1.482 2.518 2.83 2.828l3.68.918c.254.778.57 1.528.93 2.253L5.37 33.6c-.734 1.17-1.103 2.893 0 3.998l2.003 2c.54.54 1.266.77 1.998.77.76 0 1.526-.247 2.1-.645l3.274-2.083c.882.465 1.808.858 2.773 1.164l.906 3.62c.308 1.348 1.266 2.83 2.83 2.83h2.83c1.564 0 2.744-1.46 2.986-2.808l.817-3.682c.888-.287 1.74-.65 2.56-1.073l3.19 2.034c.574.398 1.34.644 2.1.644.73 0 1.457-.227 1.997-.768l2.004-2c1.104-1.106.734-2.828 0-3.998L37.77 30.32c.396-.775.738-1.584 1.013-2.423l3.68-.917c1.348-.31 2.83-1.267 2.83-2.827v-2.83c0-1.56-1.46-2.737-2.81-2.98zm.544 5.812c0 .11-.418.472-1.115.632l-3.678.917-1.214.303-.388 1.19c-.23.696-.526 1.403-.88 2.1l-.57 1.117 2.636 4.384c.358.572.395 1.123.32 1.198L36.13 38c-.097.096-.327.105-.394.105-.28 0-.598-.095-.81-.243l-.034-.024-.037-.023-4.293-2.736-1.16.6c-.728.376-1.472.688-2.213.928l-1.234.4-1.098 4.945-.01.044-.008.045c-.084.47-.512.945-.757.945h-2.83c-.112 0-.475-.416-.635-1.114l-.905-3.62-.31-1.226-1.205-.38c-.806-.255-1.612-.594-2.4-1.01l-1.162-.613-1.11.707-3.274 2.086-.037.022-.036.026c-.213.146-.53.242-.81.242-.07 0-.297-.01-.397-.108L6.97 36c-.077-.08-.038-.63.34-1.236l2.71-4.508-.552-1.11c-.334-.67-.597-1.307-.806-1.946l-.388-1.19-1.216-.304-3.722-.928c-.655-.15-1.073-.51-1.073-.622v-2.83c0-.243.477-.67.947-.755l.044-.007.045-.01 3.632-.806 1.276-.283.392-1.246c.21-.664.492-1.354.865-2.104l.552-1.11-.638-1.06-2.092-3.482c-.356-.57-.396-1.12-.316-1.198l2-2c.097-.096.31-.106.397-.106.28 0 .596.094.807.24l.037.026.038.024 3.266 2.08 1.11.704 1.163-.612c.774-.407 1.578-.745 2.39-1.005l1.203-.383 1.224-4.894c.152-.656.513-1.07.625-1.07h2.83c.244 0 .672.474.757.943l.006.045.01.045 1.097 4.937 1.233.398c.752.244 1.507.56 2.243.942l1.158.602 1.1-.703 3.187-2.03.037-.022.036-.025c.21-.148.53-.242.81-.242.067 0 .296.008.396.107l2 1.998c.08.078.042.63-.338 1.237l-2.613 4.347.572 1.118c.4.783.705 1.518.933 2.248l.393 1.25 1.28.285 3.632.806.044.01.047.007c.468.086.945.512.945.757v2.827zM22.665 13.562c-5.007 0-9.08 4.063-9.08 9.057 0 4.994 4.073 9.057 9.08 9.057 5.008 0 9.08-4.063 9.08-9.058s-4.072-9.058-9.08-9.058zm.02 15.904c-3.776 0-6.847-3.06-6.847-6.82 0-3.76 3.07-6.823 6.846-6.823 3.777 0 6.85 3.062 6.85 6.822 0 3.76-3.073 6.82-6.85 6.82z" fill="#000" fill-rule="evenodd"/></svg>