<svg width="46" height="46" viewBox="0 0 46 46" xmlns="http://www.w3.org/2000/svg"><title>cognizanti</title><g fill="currentColor" fill-rule="evenodd"><path d="M23.5 35c-.076 0-.153-.017-.224-.053l-10-5c-.17-.085-.276-.257-.276-.447V14c0-.173.09-.334.237-.425.147-.09.33-.1.487-.022L23.5 18.44l9.776-4.887c.156-.078.34-.07.487.022.147.09.237.252.237.425v15.5c0 .19-.107.362-.276.447l-10 5c-.07.036-.148.053-.224.053zM14 29.19l9.5 4.75 9.5-4.75V14.81l-9.276 4.637c-.14.07-.307.07-.448 0L14 14.81v14.38z"/><path d="M23.5 17.024c-.078 0-.156-.018-.227-.054l-8-4.048c-.246-.125-.345-.426-.22-.672.124-.247.426-.345.672-.22l7.774 3.934 7.773-3.935c.246-.125.547-.027.672.22.125.246.026.547-.22.672l-8 4.048c-.07.036-.15.054-.226.054M23.5 35c-.276 0-.5-.224-.5-.5V19c0-.276.224-.5.5-.5s.5.224.5.5v15.5c0 .276-.224.5-.5.5"/></g></svg>