<svg width="46" height="46" viewBox="0 0 46 46" xmlns="http://www.w3.org/2000/svg"><title>infographic</title><g fill="#000" fill-rule="evenodd"><path d="M33.203 32.878H12.478c-.264 0-.478-.22-.478-.488 0-.27.214-.488.478-.488h20.725c.264 0 .478.218.478.488s-.213.488-.477.488"/><path d="M18.217 32.878H14.39c-.263 0-.477-.22-.477-.488v-5.854c0-.27.214-.488.478-.488h3.827c.264 0 .48.22.48.488v5.854c0 .27-.216.488-.48.488zm-3.347-.976h2.87v-4.878h-2.87v4.878zM24.913 32.878h-3.826c-.264 0-.478-.22-.478-.488V19.707c0-.27.213-.488.477-.488h3.826c.264 0 .478.218.478.487V32.39c0 .27-.213.488-.477.488zm-3.348-.976h2.87V20.195h-2.87v11.707zM31.61 32.878h-3.827c-.264 0-.48-.22-.48-.488V13.65c0-.27.216-.487.48-.487h3.826c.263 0 .477.218.477.488v18.74c0 .27-.214.488-.478.488zm-3.35-.976h2.87V14.138h-2.87v17.764z"/></g></svg>