<svg width="46" height="46" viewBox="0 0 46 46" xmlns="http://www.w3.org/2000/svg"><title>smart-search</title><g fill="#000" fill-rule="evenodd"><path d="M2.368 9.53h30.815v2.834h2.065V7.492H.306V28.42h17.377v-2.04H2.368V9.53"/><path d="M46.006 38.67l-8.068-7.897c1.596-1.853 2.566-4.25 2.566-6.868 0-5.853-4.817-10.615-10.738-10.615-5.92 0-10.737 4.762-10.737 10.615 0 5.852 4.816 10.615 10.736 10.615 2.53 0 4.854-.875 6.69-2.327l8.1 7.926 1.45-1.45zM21.093 23.904c0-4.728 3.89-8.575 8.673-8.575 4.782 0 8.673 3.847 8.673 8.575s-3.892 8.573-8.674 8.573c-4.783 0-8.673-3.845-8.673-8.573z"/></g></svg>