<svg width="46" height="46" viewBox="0 0 46 46" xmlns="http://www.w3.org/2000/svg"><title>create-folder</title><g fill="#000" fill-rule="evenodd"><path d="M29.386 21.876c-3.577 0-6.49 2.853-6.49 6.36 0 3.51 2.913 6.363 6.49 6.363 3.58 0 6.49-2.855 6.49-6.363 0-3.508-2.91-6.36-6.49-6.36zm0 11.604c-2.948 0-5.347-2.353-5.347-5.243s2.398-5.242 5.346-5.242c2.95 0 5.348 2.35 5.348 5.242 0 2.89-2.398 5.243-5.348 5.243z"/><path d="M29.958 25.75h-1.142v1.927H26.85v1.12h1.966v1.926h1.142v-1.927h1.965v-1.12h-1.965V25.75M16.17 19.346h16.236l-.687 1.664 1.057.42 1.322-3.203h-5.192v-4.404h-11.11l-1.216-1.657h-6.52v17.177h11.405v-1.12H11.8l4.37-8.877zm-.174-6.06l1.215 1.656h10.557v3.285H15.455l-4.25 8.63V13.285h4.79z"/></g></svg>