<svg width="46" height="46" viewBox="0 0 46 46" xmlns="http://www.w3.org/2000/svg"><title>collaborators</title><g fill="#000" fill-rule="evenodd"><path d="M32.376 26.93l-.085-.02c-1.225-.284-2.617-.604-2.856-1.128-.076-.168-.027-.42.146-.745 1.62-3.05 1.915-5.425.834-7.22-.745-1.24-2.1-1.948-3.714-1.948-1.628 0-2.99.72-3.74 1.976-1.082 1.818-.776 4.185.86 7.196.177.324.228.57.153.738-.237.524-1.668.853-2.818 1.117l-.132.03c-2.485.574-2.477 2.108-2.467 3.884l.002 1.018h1.217v-1.216h-.004c-.006-1.643.045-2.158 1.526-2.5l.133-.03c1.628-.375 3.167-.73 3.652-1.803.24-.53.175-1.143-.192-1.817-1.425-2.62-1.74-4.56-.884-5.995.532-.892 1.487-1.384 2.693-1.384 1.195 0 2.144.484 2.672 1.36.853 1.416.545 3.366-.866 6.024-.36.677-.42 1.29-.177 1.82.488 1.068 2.042 1.426 3.69 1.806l.084.02c1.48.34 1.53.855 1.523 2.498v1.216h1.214V30.81c.013-1.775.02-3.308-2.464-3.88"/><path d="M21.375 13.085c-1.628 0-2.99.72-3.738 1.977-1.084 1.818-.777 4.184.86 7.196.175.323.227.57.15.738-.235.523-1.666.853-2.816 1.117l-.132.03c-2.485.574-2.476 2.108-2.466 3.884l.002 1.017h1.217v-1.216h-.003c-.007-1.643.044-2.158 1.525-2.5l.132-.03c1.63-.375 3.17-.73 3.653-1.803.24-.53.175-1.142-.19-1.816-1.426-2.622-1.74-4.562-.885-5.996.53-.892 1.487-1.384 2.693-1.384.99 0 1.806.335 2.358.946.358-.213.754-.374 1.18-.478-.77-1.074-2.042-1.683-3.538-1.683"/></g></svg>