<svg width="46" height="46" viewBox="0 0 46 46" xmlns="http://www.w3.org/2000/svg"><title>Mass Empowerment</title><g fill="#231F1F" fill-rule="evenodd"><path d="M18.26 25.906c-.12.163-.276.164-.407.164h-.435v4.686H15.2V26.07h-.434c-.25 0-.594 0-.594-1.122v-2.684h3.92v-.88h-4.79v3.564c0 1.114.346 1.766 1.03 1.95v4.738h3.955v-4.74c.136-.035.256-.096.365-.17-.165-.25-.297-.527-.392-.82M24.976 33.622H21.02v-6.286c-1.168-.208-2.058-1.243-2.058-2.484v-5.647h8.072v5.647c0 1.24-.89 2.276-2.058 2.484v6.286zm-3.087-.88h2.217v-6.248h.434c.897 0 1.624-.736 1.624-1.642v-4.767H19.83v4.767c0 .906.73 1.642 1.624 1.642h.435v6.248zM22.998 17.786c-1.54 0-2.795-1.268-2.795-2.827 0-1.56 1.254-2.83 2.795-2.83 1.54 0 2.794 1.27 2.794 2.83 0 1.558-1.253 2.826-2.794 2.826zm0-4.775c-1.06 0-1.925.875-1.925 1.95 0 1.073.864 1.946 1.925 1.946 1.062 0 1.925-.873 1.925-1.947 0-1.075-.863-1.95-1.925-1.95zM29.686 20.306c-1.16 0-2.1-.954-2.1-2.127 0-1.173.94-2.128 2.1-2.128 1.16 0 2.102.955 2.102 2.127 0 1.172-.943 2.126-2.102 2.126zm0-3.374c-.68 0-1.232.56-1.232 1.247s.553 1.246 1.232 1.246c.68 0 1.232-.56 1.232-1.247 0-.688-.553-1.248-1.232-1.248zM16.31 20.306c-1.16 0-2.102-.954-2.102-2.127 0-1.173.942-2.128 2.1-2.128 1.16 0 2.103.955 2.103 2.127 0 1.172-.942 2.126-2.1 2.126zm0-3.374c-.68 0-1.233.56-1.233 1.247s.553 1.246 1.232 1.246c.68 0 1.23-.56 1.23-1.247 0-.688-.55-1.248-1.23-1.248zM27.904 21.384v.88h3.92v2.684c0 1.122-.344 1.122-.594 1.122h-.435v4.686h-2.218V26.07h-.434c-.132 0-.288 0-.408-.164-.094.293-.226.568-.392.82.11.074.23.135.365.17v4.74h3.957v-4.74c.683-.182 1.028-.834 1.028-1.948v-3.564h-4.79"/></g></svg>