<svg width="46" height="46" viewBox="0 0 46 46" xmlns="http://www.w3.org/2000/svg"><title>future-of-work</title><g fill="currentColor" fill-rule="evenodd"><path d="M30.072 35.89h-8.718c-.143 0-.278-.072-.36-.192L16.43 29c-.377-.584-.574-1.567-.208-2.256.23-.43.64-.67 1.152-.67 1.17 0 1.944.273 3.575 2.608l-.03-10.497c0-1.14 1.06-2.214 2.18-2.214 1.16 0 2.18 1.035 2.18 2.214V24.5l4.88 1.596c1.354.44 1.658 2.025 1.367 3.31L30.5 35.522c-.034.213-.216.37-.428.37zm-8.49-.886h8.12l.967-5.77c.21-.93.05-2.024-.78-2.295l-5.183-1.695c-.18-.06-.302-.23-.302-.422v-6.64c0-.682-.636-1.327-1.308-1.327-.648 0-1.307.67-1.307 1.328l.033 11.95c0 .196-.127.37-.312.425-.185.055-.384-.02-.49-.184-2.182-3.416-2.797-3.416-3.648-3.416-.244 0-.334.11-.385.206-.168.317-.092.943.164 1.34l4.432 6.498zM28.593 23.555c-.11 0-.223-.044-.308-.13-.17-.173-.17-.453 0-.626 1.37-1.393 2.127-3.244 2.127-5.213 0-1.968-.756-3.82-2.127-5.212-1.37-1.392-3.194-2.158-5.132-2.158-1.94 0-3.762.766-5.133 2.158-1.37 1.392-2.126 3.244-2.126 5.212 0 1.97.755 3.82 2.126 5.212.17.172.17.452 0 .625s-.446.173-.616 0c-1.537-1.56-2.382-3.632-2.382-5.838 0-2.205.845-4.278 2.382-5.837 1.535-1.56 3.577-2.418 5.748-2.418 2.172 0 4.214.86 5.75 2.418 1.535 1.56 2.38 3.632 2.38 5.837 0 2.206-.845 4.28-2.38 5.838-.086.086-.197.13-.31.13"/><path d="M28.593 23.555c-.11 0-.223-.044-.308-.13-.17-.173-.17-.453 0-.626 1.37-1.393 2.127-3.244 2.127-5.213 0-1.968-.756-3.82-2.127-5.212-1.37-1.392-3.194-2.158-5.132-2.158-1.94 0-3.762.766-5.133 2.158-1.37 1.392-2.126 3.244-2.126 5.212 0 1.97.755 3.82 2.126 5.212.17.172.17.452 0 .625s-.446.173-.616 0c-1.537-1.56-2.382-3.632-2.382-5.838 0-2.205.845-4.278 2.382-5.837 1.535-1.56 3.577-2.418 5.748-2.418 2.172 0 4.214.86 5.75 2.418 1.535 1.56 2.38 3.632 2.38 5.837 0 2.206-.845 4.28-2.38 5.838-.086.086-.197.13-.31.13"/><path d="M19.32 21.922c-.112 0-.223-.043-.308-.13-1.107-1.123-1.716-2.616-1.716-4.205 0-1.588.61-3.082 1.716-4.205 2.282-2.318 5.998-2.318 8.282 0C28.4 14.506 29.01 16 29.01 17.587c0 1.59-.61 3.082-1.716 4.205-.17.173-.446.173-.617 0-.17-.173-.17-.453 0-.626.942-.956 1.46-2.226 1.46-3.58 0-1.35-.518-2.622-1.46-3.578-1.943-1.973-5.106-1.973-7.05 0-.94.956-1.46 2.228-1.46 3.58 0 1.352.52 2.622 1.46 3.578.17.173.17.453 0 .626-.084.087-.196.13-.307.13"/></g></svg>