<svg width="46" height="46" viewBox="0 0 46 46" xmlns="http://www.w3.org/2000/svg"><title>Mobile First</title><g fill="#000" fill-rule="evenodd"><path d="M26.43 35.897h-9.817c-1.353 0-2.455-1.103-2.455-2.46v-19.67c0-1.357 1.102-2.46 2.455-2.46h9.818c1.355 0 2.456 1.103 2.456 2.46v3.38c0 .227-.184.41-.41.41-.225 0-.41-.183-.41-.41v-3.38c0-.905-.732-1.64-1.635-1.64h-9.817c-.902 0-1.636.735-1.636 1.64v19.67c0 .905.734 1.64 1.636 1.64h9.818c.904 0 1.637-.735 1.637-1.64v-5.634c0-.226.184-.41.41-.41.225 0 .41.184.41.41v5.635c0 1.356-1.102 2.46-2.456 2.46"/><path d="M28.477 16.225h-13.91c-.225 0-.41-.184-.41-.41 0-.226.185-.41.41-.41h13.91c.225 0 .41.184.41.41 0 .226-.185.41-.41.41M28.477 31.8h-13.91c-.225 0-.41-.185-.41-.41 0-.227.185-.41.41-.41h13.91c.225 0 .41.183.41.41 0 .225-.185.41-.41.41M24.386 14.586h-5.728c-.225 0-.41-.184-.41-.41 0-.226.185-.41.41-.41h5.728c.226 0 .41.184.41.41 0 .226-.184.41-.41.41M21.522 34.668c-.677 0-1.227-.552-1.227-1.23 0-.678.55-1.23 1.227-1.23s1.227.552 1.227 1.23c0 .678-.55 1.23-1.228 1.23zm0-1.64c-.225 0-.41.184-.41.41 0 .226.185.41.41.41.225 0 .41-.184.41-.41 0-.226-.185-.41-.41-.41zM30.467 18.233h-8.624c-.787 0-1.428.642-1.428 1.43v5.442c0 .227.183.41.41.41.225 0 .408-.183.408-.41v-5.44c0-.338.274-.613.61-.613h8.624c.336 0 .61.275.61.612v5.44c0 .338-.274.612-.61.612h-7.24c-.013 0-.025.007-.04.008-.027.003-.053.008-.08.017-.027.01-.05.02-.076.033-.01.007-.024.008-.036.016l-2.403 1.67c-.185.128-.23.383-.102.57.08.114.207.175.336.175.08 0 .162-.023.233-.073l2.298-1.596h7.112c.787 0 1.428-.642 1.428-1.43v-5.442c0-.79-.64-1.43-1.428-1.43"/></g></svg>