<svg width="46" height="46" viewBox="0 0 46 46" xmlns="http://www.w3.org/2000/svg"><title>star filled</title><path d="M45.04 15.91H29.43L23.904.623C23.768.248 23.407 0 23 0c-.406 0-.767.248-.904.622l-5.525 15.29H.958c-.407 0-.77.254-.905.63-.132.377-.007.794.314 1.042l12.887 9.89-5.537 16.223c-.132.386.007.812.345 1.053.337.24.794.24 1.132-.002L23 34.856l13.81 9.892c.167.122.366.183.564.183.2 0 .398-.06.566-.18.338-.24.477-.667.345-1.053l-5.537-16.224 12.885-9.89c.323-.247.448-.664.314-1.04-.132-.377-.496-.632-.906-.632z" fill="#000" fill-rule="evenodd"/></svg>