<svg width="46" height="46" viewBox="0 0 46 46" xmlns="http://www.w3.org/2000/svg"><title>Data Science</title><g fill="#000" fill-rule="evenodd"><path d="M35.567 31.89H10.433c-.24 0-.433-.196-.433-.44 0-.242.194-.438.433-.438h25.134c.24 0 .433.196.433.44 0 .242-.194.438-.433.438"/><path d="M15.633 31.89h-3.466c-.24 0-.434-.196-.434-.44v-5.268c0-.242.194-.44.434-.44h3.466c.24 0 .434.198.434.44v5.27c0 .242-.194.438-.434.438zm-3.033-.878h2.6v-4.39h-2.6v4.39zM21.7 31.89h-3.467c-.24 0-.433-.196-.433-.44V20.037c0-.242.194-.44.433-.44H21.7c.24 0 .433.198.433.44V31.45c0 .244-.194.44-.433.44zm-3.033-.878h2.6V20.475h-2.6v10.537zM27.767 31.89H24.3c-.24 0-.433-.196-.433-.44v-8.78c0-.242.194-.44.433-.44h3.467c.24 0 .433.198.433.44v8.78c0 .244-.194.44-.433.44zm-3.034-.878h2.6V23.11h-2.6v7.902zM33.833 31.89h-3.466c-.24 0-.434-.196-.434-.44V14.77c0-.242.194-.44.434-.44h3.466c.24 0 .434.198.434.44V31.45c0 .244-.194.44-.434.44zm-3.033-.878h2.6V15.207h-2.6v15.805z"/></g></svg>