<svg width="46" height="46" viewBox="0 0 46 46" xmlns="http://www.w3.org/2000/svg"><title>question-mark</title><g fill="#1A1918" fill-rule="evenodd"><path d="M23.382 45.824c-12.193 0-22.112-10.227-22.112-22.8 0-12.57 9.92-22.8 22.112-22.8 12.192 0 22.112 10.23 22.112 22.8 0 12.573-9.92 22.8-22.112 22.8zm0-43.2c-10.91 0-19.784 9.152-19.784 20.4s8.875 20.4 19.784 20.4c10.91 0 19.785-9.152 19.785-20.4s-8.876-20.4-19.785-20.4z"/><path d="M20.49 24.6c0-4.574 5.446-5.114 5.446-7.766 0-1.192-.858-2.192-2.908-2.192-1.866 0-3.43.96-4.587 2.384l-3.02-3.5c1.977-2.384 4.96-3.73 8.167-3.73 4.81 0 7.757 2.5 7.757 6.076 0 5.614-6.23 6.037-6.23 9.267 0 .615.3 1.268.673 1.614l-4.065 1.23c-.782-.883-1.23-2.037-1.23-3.384zm0 8.538c0-1.693 1.38-3.116 3.022-3.116s3.02 1.423 3.02 3.116c0 1.69-1.378 3.113-3.02 3.113-1.64 0-3.02-1.42-3.02-3.112z"/></g></svg>