<svg width="46" height="46" viewBox="0 0 46 46" xmlns="http://www.w3.org/2000/svg"><title>x</title><g fill="#000" fill-rule="evenodd"><path d="M15.5 15.462c-4.382 4.46-4.382 11.717 0 16.177 4.384 4.46 11.517 4.46 15.9 0 4.383-4.46 4.383-11.718 0-16.18-4.383-4.46-11.516-4.46-15.9.002zM30.644 30.87c-3.966 4.035-10.42 4.034-14.385 0-3.966-4.037-3.966-10.603 0-14.638 3.966-4.036 10.42-4.035 14.385 0 3.966 4.035 3.966 10.602 0 14.637z"/><path d="M20.99 20.276l-.757.77 2.408 2.45-2.407 2.45.757.772 2.408-2.45 2.408 2.45.757-.77-2.408-2.45 2.408-2.45-.757-.772-2.408 2.45-2.408-2.45"/></g></svg>