<svg width="46" height="46" viewBox="0 0 46 46" xmlns="http://www.w3.org/2000/svg"><title>Smart Sourcing</title><g fill="none" fill-rule="evenodd"><path d="M24.874 12.07c-.145 0-.288.002-.432.007-4.945.204-8.784 3.752-9.446 8.482.122-.01.243-.02.366-.02.122 0 .24.01.36.02.126-.83.358-1.618.682-2.353h4.426c-.352 1.3-.507 2.64-.463 4h-1.333c.2.227.382.47.54.732h.834c.11 1.32.404 2.66.883 4h-1.153c-.068.25-.148.495-.252.73h1.684c.534 1.316 1.246 2.63 2.136 3.926-1.882-.243-3.588-1.08-4.944-2.327-.045.042-.086.088-.132.13-.145.14-.236.31-.293.464 1.746 1.58 4.02 2.538 6.506 2.538 5.515 0 10.002-4.577 10.002-10.203 0-5.587-4.473-10.13-9.97-10.13zm7.997 5.407H28.7c-.537-1.613-1.388-3.154-2.55-4.587 2.87.403 5.32 2.146 6.723 4.587zm-8.25-4.673c.084-.002.17-.005.254-.005.085 0 .17.003.255.006 1.298 1.46 2.243 3.028 2.836 4.67H21.78c.594-1.643 1.54-3.21 2.84-4.672zm-7.854 4.673c1.368-2.472 3.843-4.207 6.84-4.595-1.166 1.436-2.018 2.98-2.556 4.595h-4.284zm4.774.73h6.667c.38 1.297.546 2.636.498 4h-7.663c-.048-1.364.117-2.703.498-4zm-.454 4.732h7.575c-.117 1.316-.435 2.654-.948 4h-5.678c-.512-1.346-.83-2.684-.948-4zm3.757 8.732c-.068 0-.135-.004-.203-.006-.962-1.327-1.73-2.663-2.308-3.996h5.083c-.578 1.332-1.346 2.668-2.308 3.995-.088.003-.176.007-.264.007zm1.2-.082c.89-1.294 1.6-2.606 2.135-3.92h4.238c-1.464 2.104-3.747 3.572-6.372 3.92zm6.834-4.65h-4.42c.478-1.34.772-2.68.882-4h4.757c-.11 1.448-.54 2.806-1.22 4zm-3.497-4.732c.044-1.362-.11-2.702-.463-4h4.333c.563 1.21.878 2.564.878 3.99v.01H29.38z" fill="#000"/><path d="M13.51 30.69h-.004c-.197-.002-.355-.167-.353-.367 0-.016-.007-.852-.617-1.434-.93-.824-1.467-2.028-1.467-3.294 0-2.413 1.925-4.376 4.292-4.376 2.368 0 4.293 1.963 4.293 4.376 0 1.266-.538 2.47-1.476 3.302-.605.575-.61 1.417-.61 1.425.002.2-.157.365-.354.367h-.003c-.195 0-.355-.16-.358-.36 0-.046-.005-1.165.845-1.974.79-.702 1.24-1.705 1.24-2.76 0-2.01-1.605-3.646-3.578-3.646-1.972 0-3.576 1.636-3.576 3.646 0 1.055.448 2.058 1.23 2.75.86.82.854 1.938.853 1.985-.003.2-.163.36-.36.36" fill="#231F1F"/><path d="M12.537 25.782c-.198 0-.358-.163-.358-.365 0-1.79 1.427-3.245 3.182-3.245.198 0 .358.164.358.365 0 .202-.16.365-.358.365-1.36 0-2.467 1.128-2.467 2.515 0 .202-.16.365-.358.365" fill="#000"/><path d="M13.53 32.92c-.15 0-.29-.1-.34-.253-.06-.192.042-.398.23-.46l1.536-.507H13.53c-.197 0-.357-.164-.357-.365 0-.202.16-.365.358-.365h3.69c.178 0 .328.13.355.308.028.177-.076.348-.243.404l-3.69 1.22c-.037.012-.074.017-.11.017M17.22 33.858h-3.69c-.175 0-.326-.13-.353-.308-.027-.177.076-.35.243-.404l3.69-1.22c.19-.062.39.043.452.235.06.193-.042.4-.23.46l-1.535.508h1.424c.2 0 .36.163.36.365 0 .202-.16.365-.36.365M15.895 35h-1.253c-.198 0-.36-.163-.36-.365 0-.202.162-.365.36-.365h1.253c.198 0 .36.163.36.365 0 .202-.162.365-.36.365" fill="#231F1F"/></g></svg>