<svg width="46" height="46" viewBox="0 0 46 46" xmlns="http://www.w3.org/2000/svg"><title>workplace</title><g fill="#000" fill-rule="evenodd"><path d="M23.976 18.267V3.03H.76v40.78h44.48V18.268H23.977zM2.712 4.953h19.312V41.89H2.712V4.953zm21.264 15.235h19.312v21.7H23.976v-21.7z"/><path d="M10.196 32.682h4.256v9.183h-4.256v-9.183zM31.306 32.682h4.653v9.183h-4.654v-9.183zM29.056 25.556h3.118v3.07h-3.118v-3.07zM35.09 25.556h3.12v3.07h-3.12v-3.07zM7.747 25.556h3.12v3.07h-3.12v-3.07zM13.783 25.556H16.9v3.07h-3.117v-3.07zM7.747 17.693h3.12v3.07h-3.12v-3.07zM13.783 17.693H16.9v3.07h-3.117v-3.07zM7.747 9.66h3.12v3.068h-3.12v-3.07zM13.783 9.66H16.9v3.068h-3.117v-3.07z"/></g></svg>