<svg width="46" height="46" viewBox="0 0 46 46" xmlns="http://www.w3.org/2000/svg"><title>global sourcing</title><g fill="none" fill-rule="evenodd"><path d="M22.98 35.872H9.645c-.232 0-.42-.188-.42-.42 0-.052.007-1.302.624-2.534.448-.896 1.922-1.437 3.963-2.186l.63-.232v-1.245c-.28-.25-.78-.813-.86-1.695-.132-.13-.235-.332-.295-.588-.1-.426-.054-.93.23-1.254 0-.007-.003-.016-.006-.024-.203-.67-.58-1.913-.038-2.643.138-.185.388-.4.82-.468.396-.625 1.464-.856 2.416-.856 1.21 0 2.697.383 2.913 1.46.17.856-.252 1.92-.48 2.49-.007.022-.015.04-.023.06.272.325.316.818.217 1.236-.06.256-.164.457-.296.588-.08.882-.58 1.445-.86 1.695V30.5l.63.232c2.04.75 3.516 1.29 3.966 2.186.617 1.232.624 2.482.624 2.535 0 .23-.188.42-.42.42zm-12.884-.838h12.432c-.05-.418-.177-1.09-.503-1.74-.3-.6-1.786-1.145-3.505-1.776-.293-.107-.595-.218-.906-.335-.164-.06-.272-.217-.272-.392v-1.735c0-.14.07-.27.187-.348.024-.018.682-.48.682-1.387 0-.173.105-.322.255-.386.05-.1.107-.334.065-.53-.018-.083-.047-.136-.088-.156-.142-.07-.232-.216-.232-.375 0-.124.044-.235.15-.505.183-.456.56-1.405.438-2.016-.09-.442-1.007-.788-2.09-.788-1.03 0-1.677.306-1.73.518-.046.186-.215.317-.407.317-.313 0-.397.113-.425.15-.29.392.042 1.49.168 1.9.066.22.097.322.097.423 0 .16-.09.304-.232.375-.04.02-.07.073-.087.155-.043.197.016.432.065.53.15.065.255.214.255.387 0 .922.676 1.382.683 1.387.116.077.187.208.187.348v1.736c0 .176-.11.332-.273.393-.31.117-.614.228-.907.336-1.72.63-3.203 1.174-3.503 1.773-.326.65-.454 1.323-.504 1.74z" fill="#231F1F"/><path d="M26.605 11.097c-.15 0-.296.003-.445.008-5.523.223-9.703 4.417-9.814 9.796.12-.006.24-.012.364-.012.127 0 .252.004.374.01.03-1.297.313-2.52.81-3.62h4.552c-.363 1.308-.522 2.657-.477 4.03h-3.035c.42.188.766.436 1.024.735h2.052c.113 1.33.415 2.68.907 4.03h-2.747c.05.232.063.48.038.735h2.996c.55 1.325 1.282 2.648 2.198 3.953-2.167-.273-4.11-1.296-5.572-2.807-.054.294-.142.557-.25.79 1.83 1.753 4.29 2.83 6.99 2.83 5.673 0 10.288-4.61 10.288-10.275 0-5.625-4.6-10.2-10.255-10.2zm8.225 5.445h-4.292c-.553-1.623-1.427-3.175-2.624-4.618 2.952.405 5.474 2.16 6.916 4.618zm-8.487-4.705c.087-.002.174-.005.262-.005.088 0 .175.004.262.007 1.335 1.468 2.308 3.048 2.918 4.702h-6.36c.61-1.655 1.582-3.235 2.918-4.705zm-8.077 4.705c1.407-2.49 3.953-4.236 7.035-4.627-1.198 1.446-2.075 3-2.63 4.627h-4.404zm4.91.736h6.857c.392 1.306.56 2.655.512 4.03h-7.88c-.05-1.375.12-2.724.51-4.03zm-.467 4.765h7.79c-.122 1.326-.448 2.674-.976 4.03h-5.84c-.527-1.356-.853-2.704-.975-4.03zm3.863 8.794c-.07 0-.14-.003-.208-.005-.99-1.336-1.78-2.682-2.375-4.024h5.228c-.594 1.34-1.384 2.686-2.374 4.023-.09.003-.18.007-.27.007zm1.235-.082c.914-1.304 1.645-2.624 2.195-3.947h4.36c-1.507 2.118-3.855 3.597-6.555 3.947zm7.028-4.683H30.29c.49-1.35.794-2.698.907-4.03h4.894c-.112 1.46-.555 2.828-1.254 4.03zm-3.597-4.765c.045-1.372-.115-2.72-.477-4.03h4.457c.578 1.222.903 2.584.903 4.02v.01H31.24z" fill="#000"/></g></svg>