<svg width="46" height="46" viewBox="0 0 46 46" xmlns="http://www.w3.org/2000/svg"><title>Twitter</title><path d="M45.847 8.818c-1.703.766-3.535 1.282-5.457 1.513 1.963-1.188 3.468-3.07 4.177-5.318-1.835 1.103-3.868 1.903-6.032 2.334C36.802 5.478 34.333 4.31 31.6 4.31c-5.246 0-9.5 4.304-9.5 9.614 0 .752.084 1.486.247 2.19-7.896-.4-14.897-4.227-19.583-10.044-.818 1.42-1.286 3.07-1.286 4.834 0 3.335 1.677 6.278 4.226 8.002-1.557-.05-3.022-.484-4.303-1.204v.122c0 4.657 3.275 8.542 7.62 9.427-.796.22-1.635.337-2.502.337-.613 0-1.208-.06-1.788-.173 1.21 3.82 4.718 6.6 8.875 6.677-3.252 2.58-7.347 4.117-11.8 4.117-.765 0-1.522-.046-2.265-.135 4.205 2.73 9.198 4.32 14.563 4.32 17.476 0 27.03-14.65 27.03-27.354 0-.417-.008-.832-.026-1.245 1.856-1.353 3.467-3.047 4.74-4.975z" fill="#000" fill-rule="evenodd"/></svg>