<svg width="46" height="46" viewBox="0 0 46 46" xmlns="http://www.w3.org/2000/svg"><title>pdf</title><g fill="#000" fill-rule="evenodd"><path d="M30.192.696H5.8V45.76h35.583V11.616L30.193.696zm.583 10.35V4.02l7.2 7.023h-7.2zm8.612 1.946v30.82H7.794V2.643H28.78v10.35h10.607z"/><path d="M13.468 37.763c-.365 0-.716-.116-1.016-.335-1.092-.8-1.24-1.69-1.17-2.297.19-1.666 2.305-3.414 6.285-5.19 1.58-3.378 3.08-7.54 3.976-11.015-1.046-2.224-2.065-5.11-1.324-6.806.26-.594.717-1.01 1.323-1.207.24-.078.473-.12.695-.12.53 0 1.003.227 1.333.637.31.387 1.245 1.546-.16 7.312 1.416 2.85 3.42 5.756 5.344 7.746 1.376-.242 2.56-.365 3.526-.365 1.642 0 2.64.374 3.046 1.144.337.638.197 1.38-.41 2.21-.585.8-1.39 1.223-2.33 1.223-1.28 0-2.766-.788-4.424-2.34-2.98.605-6.458 1.69-9.27 2.888-.877 1.818-1.72 3.284-2.5 4.356-1.077 1.472-2.004 2.16-2.924 2.16zm2.794-5.25c-2.244 1.23-3.16 2.24-3.223 2.81-.013.095-.04.34.45.708.157-.046 1.072-.453 2.772-3.517zm14.15-4.532c.856.643 1.613.994 2.173.994.245 0 .57-.056.892-.5.158-.21.218-.35.243-.422-.13-.067-.507-.206-1.44-.206-.53 0-1.16.047-1.868.135zm-7.674-6.763c-.75 2.536-1.74 5.27-2.808 7.75 2.196-.832 4.582-1.557 6.823-2.07-1.418-1.607-2.835-3.612-4.015-5.68zm-.534-8.693c-.023.003-.058.012-.1.025-.104.033-.187.086-.258.25-.27.615-.057 1.786.356 3.043.344-2.168.16-3.088.002-3.32z"/></g></svg>