<svg width="46" height="46" viewBox="0 0 46 46" xmlns="http://www.w3.org/2000/svg"><title>search</title><path d="M16.56 33.12c3.92 0 7.524-1.376 10.365-3.663l14.09 14.16c.36.363.832.543 1.305.543.47 0 .938-.178 1.297-.535.72-.716.723-1.883.008-2.602l-14.108-14.18c2.25-2.827 3.603-6.397 3.603-10.283C33.12 7.43 25.69 0 16.56 0 7.428 0 0 7.43 0 16.56c0 9.132 7.428 16.56 16.56 16.56zm0-29.44c7.102 0 12.88 5.778 12.88 12.88 0 7.102-5.778 12.88-12.88 12.88-7.102 0-12.88-5.778-12.88-12.88 0-7.102 5.778-12.88 12.88-12.88z" fill="#000" fill-rule="evenodd"/></svg>