<svg width="46" height="46" viewBox="0 0 46 46" xmlns="http://www.w3.org/2000/svg"><title>search-article</title><g fill="#231F1F" fill-rule="evenodd"><path d="M35.3 35.868l-4.746-4.84c.757-.964 1.212-2.182 1.212-3.508 0-3.116-2.5-5.65-5.57-5.65-3.073 0-5.573 2.534-5.573 5.65 0 3.116 2.5 5.65 5.572 5.65 1.32 0 2.53-.47 3.487-1.25l4.74 4.834c.12.123.28.184.44.184.157 0 .315-.06.436-.182.243-.245.243-.643.002-.888zm-9.105-3.953c-2.39 0-4.333-1.97-4.333-4.395 0-2.424 1.943-4.395 4.333-4.395s4.333 1.97 4.333 4.395c0 2.424-1.944 4.395-4.333 4.395z"/><path d="M11.177 29.093V11.49h14.475v8.96h1.114V10.36H10.063v19.864h9.17l-.058-1.13h-7.998"/><path d="M13.148 13.448h10.524v1.13H13.148v-1.13zM13.148 17.216h10.524v1.13H13.148v-1.13zM13.148 20.983h7.854v1.13h-7.854v-1.13z"/></g></svg>