<svg width="46" height="46" viewBox="0 0 46 46" xmlns="http://www.w3.org/2000/svg"><title>location</title><g fill="#000" fill-rule="evenodd"><path d="M24.25 10.692c-2.737 0-4.957 2.377-4.957 5.308 0 2.93 2.22 5.308 4.956 5.308 2.737 0 4.956-2.377 4.956-5.308 0-2.93-2.22-5.308-4.957-5.308"/><path d="M24.25.602C15.586.602 8.565 8.122 8.565 17.4c0 9.277 15.683 27.997 15.683 27.997S39.932 26.677 39.932 17.4C39.933 8.122 32.91.602 24.25.602zM11.18 17.574C11.18 9.747 17.032 3.4 24.25 3.4c7.217 0 13.07 6.347 13.07 14.175S24.25 41.197 24.25 41.197 11.18 25.402 11.18 17.574z"/></g></svg>