<svg width="46" height="46" viewBox="0 0 46 46" xmlns="http://www.w3.org/2000/svg"><title>smart-search</title><g fill="#000" fill-rule="evenodd"><path d="M10.46 14.563h19.015v1.75h1.274v-3.01H9.19V26.23h10.72v-1.26h-9.45V14.563"/><path d="M37.387 32.56l-4.978-4.877c.983-1.144 1.582-2.624 1.582-4.242 0-3.614-2.973-6.555-6.626-6.555-3.652 0-6.625 2.94-6.625 6.556s2.974 6.557 6.626 6.557c1.56 0 2.995-.54 4.13-1.437l4.995 4.896.897-.896zm-15.372-9.12c0-2.92 2.4-5.295 5.35-5.295 2.952 0 5.353 2.376 5.353 5.296 0 2.922-2.4 5.297-5.352 5.297-2.95 0-5.35-2.375-5.35-5.296z"/></g></svg>