<svg width="46" height="46" viewBox="0 0 46 46" xmlns="http://www.w3.org/2000/svg"><title>industry</title><path d="M33.57 18.15c0-.678-.512-1.23-1.14-1.23h-4.61v-1.116c0-.995-.8-1.804-1.783-1.804h-6.505c-.983 0-1.784.81-1.784 1.804v1.117h-4.61c-.627 0-1.138.552-1.138 1.23v12.43c0 .68.51 1.23 1.138 1.23H32.43c.628 0 1.14-.55 1.14-1.23V19.983l-.006.007.005-1.84zm-14.59-2.346c0-.308.247-.56.552-.56h6.505c.305 0 .553.25.553.56v1.117h-7.61v-1.116zm-5.745 2.362h19.103l-.008 3.262c0 .57-.583 1.09-1.223 1.09h-5.724c-.164-.58-.693-1.005-1.318-1.005h-2.483c-.625 0-1.155.425-1.32 1.005h-5.8c-.56 0-1.12-.426-1.23-.922l.003-3.43zm8.205 5.597V22.9c0-.078.064-.142.142-.142h2.483c.078 0 .14.064.14.143v1.103c0 .08-.062.143-.14.143h-2.483c-.078 0-.142-.064-.142-.143v-.24zm10.894 6.802H13.23v-7.09c.25.12.517.202.79.247h.003c.06.01.12.02.18.025.085.01.17.016.258.016h5.75v.24c0 .765.615 1.387 1.372 1.387h2.483c.756 0 1.37-.622 1.37-1.388l.002-.24h5.67c.093 0 .184-.006.274-.016.064-.006.126-.017.187-.028l.04-.007c.253-.046.5-.125.73-.24l-.003 7.095z" fill="#000" fill-rule="evenodd"/></svg>