<svg width="46" height="46" viewBox="0 0 46 46" xmlns="http://www.w3.org/2000/svg"><title>search-article</title><g fill="#231F1F" fill-rule="evenodd"><path d="M44.79 44.07l-8.215-8.242c1.31-1.645 2.097-3.72 2.097-5.98 0-5.31-4.326-9.627-9.642-9.627-5.318 0-9.643 4.32-9.643 9.63 0 5.308 4.325 9.627 9.643 9.627 2.283 0 4.38-.8 6.035-2.13l8.205 8.234c.21.21.484.315.76.315.273 0 .546-.104.755-.31.42-.418.42-1.096.004-1.514zm-15.76-6.733c-4.136 0-7.5-3.36-7.5-7.488 0-4.13 3.364-7.49 7.5-7.49 4.135 0 7.5 3.36 7.5 7.49 0 4.128-3.365 7.487-7.5 7.487z"/><path d="M3.038 32.53V2.54H28.09v15.262h1.93V.615H1.11v33.84h15.87l-.1-1.926H3.038"/><path d="M6.448 5.875h18.215V7.8H6.448V5.876zM6.448 12.294h18.215v1.925H6.448v-1.926zM6.448 18.712h13.595v1.926H6.447v-1.926z"/></g></svg>