<svg width="46" height="46" viewBox="0 0 46 46" xmlns="http://www.w3.org/2000/svg"><title>workplace</title><g fill="#000" fill-rule="evenodd"><path d="M24.552 19.564v-8.547H11.43v22.877h25.14v-14.33H24.553zm-12.02-7.47H23.45v20.722H12.533v-20.72zm12.02 8.548h10.915v12.174H24.552V20.642z"/><path d="M16.763 27.65h2.405v5.152h-2.405v-5.15zM28.695 27.65h2.63v5.152h-2.63v-5.15zM27.423 23.653h1.762v1.722h-1.762v-1.722zM30.834 23.653h1.762v1.722h-1.762v-1.722zM15.38 23.653h1.76v1.722h-1.76v-1.722zM18.79 23.653h1.763v1.722H18.79v-1.722zM15.38 19.243h1.76v1.72h-1.76v-1.72zM18.79 19.243h1.763v1.72H18.79v-1.72zM15.38 14.736h1.76v1.72h-1.76v-1.72zM18.79 14.736h1.763v1.72H18.79v-1.72z"/></g></svg>