<svg width="46" height="46" viewBox="0 0 46 46" xmlns="http://www.w3.org/2000/svg"><title>Decisive Infrastructure</title><g fill="#231F1F" fill-rule="evenodd"><path d="M36.343 31.952h-9.266c-.267 0-.482-.21-.482-.472v-9.075c0-.26.215-.472.482-.472h9.266c.266 0 .482.21.482.472v9.075c0 .26-.216.472-.482.472zm-8.784-.945h8.3v-8.13h-8.3v8.13z"/><path d="M34.027 25.146h-4.633c-.267 0-.482-.21-.482-.473 0-.26.215-.472.482-.472h4.633c.266 0 .482.213.482.473 0 .262-.217.473-.483.473M20.127 31.952h-9.265c-.267 0-.483-.21-.483-.472v-9.075c0-.26.215-.472.482-.472h9.265c.267 0 .483.21.483.472v9.075c0 .26-.216.472-.483.472zm-8.783-.945h8.3v-8.13h-8.3v8.13z"/><path d="M17.81 25.146H13.18c-.266 0-.482-.21-.482-.473 0-.26.216-.472.482-.472h4.633c.267 0 .483.213.483.473 0 .262-.216.473-.482.473M17.523 16.978h-2.03c-.265 0-.48.212-.48.472v3.538h.964v-3.065h1.546v-.945M31.71 16.978h-2.028v.945h1.546v3.065h.964V17.45c0-.26-.215-.472-.482-.472M21.574 24.22h4.057v.944h-4.056v-.944zM27.753 20.988h.964v-5.37c0-.262-.215-.473-.482-.473H18.97c-.267 0-.482.21-.482.472v5.37h.963V16.09h8.303v4.898"/><path d="M25.89 18.366h-4.634c-.267 0-.482-.212-.482-.473 0-.26.215-.472.482-.472h4.633c.265 0 .48.212.48.473 0 .26-.215.473-.48.473"/></g></svg>