<svg width="46" height="46" viewBox="0 0 46 46" xmlns="http://www.w3.org/2000/svg"><title>add</title><g fill="#000" fill-rule="evenodd"><path d="M23.45 12.11c-6.198 0-11.242 5.133-11.242 11.44 0 6.308 5.044 11.44 11.242 11.44 6.2 0 11.243-5.132 11.243-11.44 0-6.307-5.044-11.44-11.243-11.44zm0 21.79c-5.608 0-10.17-4.642-10.17-10.35 0-5.707 4.562-10.35 10.17-10.35 5.61 0 10.172 4.643 10.172 10.35 0 5.708-4.563 10.35-10.172 10.35z"/><path d="M23.986 19.465h-1.07v3.465h-3.407v1.09h3.405v3.465h1.07V24.02h3.406v-1.09h-3.404v-3.465"/></g></svg>