<svg width="46" height="46" viewBox="0 0 46 46" xmlns="http://www.w3.org/2000/svg"><title>linkedin</title><path d="M1.145 14.523h8.862v28.65H1.145v-28.65zm4.205-3.585h-.065C2.08 10.938 0 8.748 0 5.975 0 3.142 2.143 1 5.412 1c3.268 0 5.28 2.138 5.343 4.968 0 2.772-2.075 4.97-5.405 4.97zm40.106 32.236H35.41V28.346c0-3.88-1.57-6.527-5.028-6.527-2.644 0-4.11 1.784-4.797 3.51-.254.616-.216 1.475-.216 2.34v15.504h-9.955s.13-26.264 0-28.651h9.954v4.495c.587-1.966 3.767-4.772 8.845-4.772 6.295 0 11.24 4.122 11.24 12.996v15.932z" fill="#1A1918" fill-rule="evenodd"/></svg>