<svg width="46" height="46" viewBox="0 0 46 46" xmlns="http://www.w3.org/2000/svg"><title>pdf</title><g fill="#000" fill-rule="evenodd"><path d="M26.417 13.31H15.784v20.136h15.51V18.19l-4.877-4.88zm.254 4.625v-3.138l3.14 3.138h-3.14zm3.755.87v13.77h-13.77V14.182H25.8v4.625h4.625z"/><path d="M19.127 29.873c-.16 0-.312-.052-.443-.15-.476-.357-.54-.755-.51-1.026.083-.745 1.005-1.526 2.74-2.32.688-1.51 1.343-3.368 1.733-4.92-.456-.995-.9-2.285-.577-3.042.114-.265.313-.45.577-.54.104-.034.206-.052.303-.052.23 0 .437.1.58.284.136.173.543.69-.07 3.267.618 1.274 1.492 2.572 2.33 3.46.6-.107 1.116-.162 1.537-.162.716 0 1.15.167 1.328.51.147.286.086.618-.18.99-.254.356-.605.545-1.015.545-.557 0-1.205-.352-1.928-1.046-1.3.272-2.815.756-4.04 1.292-.383.812-.75 1.467-1.09 1.946-.47.658-.874.965-1.275.965zm1.218-2.346c-.978.55-1.377 1-1.405 1.255-.005.043-.017.153.197.317.068-.022.467-.204 1.208-1.573zm6.168-2.025c.373.287.703.444.947.444.107 0 .248-.025.39-.223.068-.095.094-.157.105-.19-.057-.03-.22-.09-.628-.09-.23 0-.506.02-.814.06zm-3.345-3.022c-.327 1.133-.76 2.355-1.224 3.463.957-.372 1.997-.696 2.974-.925-.618-.718-1.236-1.614-1.75-2.538zm-.233-3.884c-.01 0-.025.005-.044.01-.044.016-.08.04-.11.113-.12.274-.026.797.154 1.36.15-.97.07-1.38 0-1.484z"/></g></svg>