<svg width="46" height="46" viewBox="0 0 46 46" xmlns="http://www.w3.org/2000/svg"><title>add</title><g fill="#000" fill-rule="evenodd"><path d="M22.9.222C10.504.222.417 10.486.417 23.102.416 35.715 10.503 45.98 22.9 45.98c12.4 0 22.485-10.264 22.485-22.88C45.385 10.487 35.3.223 22.9.223zm0 43.58C11.684 43.8 2.56 34.514 2.56 23.1c0-11.416 9.125-20.7 20.343-20.7 11.22 0 20.344 9.284 20.344 20.7 0 11.413-9.125 20.7-20.343 20.7z"/><path d="M23.972 14.93H21.83v6.93h-6.81v2.18h6.81v6.93h2.142v-6.93h6.81v-2.18h-6.81v-6.93"/></g></svg>