<svg width="46" height="46" viewBox="0 0 46 46" xmlns="http://www.w3.org/2000/svg"><title>star</title><path d="M22.6 15.203l1.976 5.597h5.49l-4.568 3.59 1.937 5.812-4.835-3.545-4.834 3.545 1.937-5.812-4.568-3.59h5.49l1.975-5.597m0-2.203c-.17 0-.32.107-.377.267L19.917 19.8H13.4c-.17 0-.322.11-.378.27-.055.16-.003.34.13.445l5.38 4.226-2.31 6.934c-.056.165.002.347.143.45.07.05.152.076.235.076.083 0 .166-.025.237-.077l5.763-4.227 5.764 4.227c.07.052.153.078.236.078.083 0 .166-.025.236-.076.14-.103.2-.285.144-.45l-2.31-6.933 5.377-4.225c.135-.106.187-.284.13-.445-.054-.16-.206-.27-.377-.27h-6.517l-2.305-6.533c-.057-.16-.208-.267-.378-.267" fill="#000" fill-rule="evenodd"/></svg>