<svg width="46" height="46" viewBox="0 0 46 46" xmlns="http://www.w3.org/2000/svg"><title>settings</title><path d="M33.242 21.17l-1.816-.402c-.142-.452-.327-.885-.54-1.3l.983-1.637c.366-.585.55-1.446 0-2l-1.003-1c-.27-.27-.633-.384-.998-.384-.38 0-.764.123-1.05.322l-1.594 1.015c-.413-.215-.845-.398-1.295-.543l-.407-1.836c-.12-.675-.71-1.404-1.492-1.404h-1.414c-.782 0-1.26.74-1.416 1.415l-.454 1.814c-.48.152-.94.347-1.38.578l-1.63-1.04c-.288-.2-.672-.322-1.05-.322-.367 0-.73.114-1 .385l-1 1c-.554.553-.37 1.415 0 2l1.033 1.723c-.195.39-.367.793-.5 1.215l-1.816.402c-.674.122-1.404.71-1.404 1.492v1.414c0 .78.74 1.26 1.415 1.414l1.84.46c.127.388.285.763.465 1.126L14.686 28.8c-.368.584-.553 1.445 0 1.998l1 1c.27.27.633.384 1 .384.378 0 .762-.123 1.05-.322l1.636-1.042c.44.233.904.43 1.386.583l.453 1.81c.156.674.635 1.414 1.416 1.414h1.416c.782 0 1.37-.73 1.492-1.403l.41-1.84c.444-.143.87-.325 1.28-.537l1.595 1.017c.286.2.67.322 1.05.322.364 0 .727-.114.997-.384l1.002-1c.55-.553.366-1.414 0-2l-.985-1.638c.198-.388.37-.792.507-1.21l1.84-.46c.673-.154 1.414-.634 1.414-1.414V22.66c0-.778-.73-1.367-1.404-1.49zm.272 2.907c0 .055-.21.236-.558.316l-1.84.46-.605.15-.194.594c-.115.35-.263.703-.44 1.05l-.286.56 1.32 2.19c.178.287.197.563.16.6L30.064 31c-.048.048-.163.053-.197.053-.14 0-.3-.048-.405-.122l-.017-.01-.02-.013-2.145-1.367-.578.3c-.365.188-.737.344-1.107.464l-.617.2-.55 2.473-.004.022-.004.02c-.042.236-.256.473-.378.473h-1.416c-.055 0-.237-.208-.317-.556l-.454-1.81-.154-.614-.603-.19c-.404-.127-.807-.297-1.2-.504l-.582-.308-.555.353-1.637 1.043-.018.01-.018.014c-.107.073-.265.12-.405.12-.034 0-.15-.003-.198-.053l-1-1c-.04-.04-.02-.315.17-.618l1.353-2.254-.276-.555c-.167-.334-.298-.653-.403-.973l-.193-.596-.608-.15-1.862-.465c-.327-.076-.536-.256-.536-.312v-1.415c0-.12.238-.335.473-.378l.022-.004.022-.003 1.816-.403.638-.142.196-.623c.105-.333.246-.678.432-1.053l.277-.554-.32-.53-1.046-1.742c-.178-.284-.198-.56-.158-.598l1-1c.048-.048.156-.053.198-.053.14 0 .3.046.404.12l.02.012.018.012 1.633 1.04.554.352.58-.306c.388-.204.79-.372 1.196-.502l.602-.192.61-2.447c.077-.33.258-.537.314-.537h1.415c.123 0 .337.238.38.472l.003.023.005.022.548 2.47.617.197c.376.122.754.28 1.122.47l.58.302.55-.35 1.593-1.016.018-.012.018-.012c.105-.074.265-.12.404-.12.035 0 .15.003.2.053l1 1c.04.038.02.313-.17.617l-1.306 2.173.285.56c.2.39.353.76.467 1.124l.197.625.64.142 1.816.403.022.005.024.004c.233.042.472.255.472.377v1.414zm-10.18-5.296c-2.505 0-4.542 2.032-4.542 4.53 0 2.497 2.037 4.528 4.54 4.528 2.505 0 4.54-2.03 4.54-4.528 0-2.498-2.035-4.53-4.54-4.53zm.008 7.953c-1.887 0-3.423-1.53-3.423-3.41 0-1.88 1.535-3.41 3.422-3.41 1.888 0 3.425 1.53 3.425 3.41 0 1.88-1.537 3.41-3.425 3.41z" fill="#000" fill-rule="evenodd"/></svg>