<svg width="46" height="46" viewBox="0 0 46 46" xmlns="http://www.w3.org/2000/svg"><title>Change Centers</title><g fill="#231F1F" fill-rule="evenodd"><path d="M27.058 31.198h-.02c-.124-.007-.237-.073-.306-.177l-.95-1.443c-.12-.183-.073-.432.107-.555.18-.124.423-.074.544.11l.658 1 .758-.925c.138-.17.386-.193.552-.05.167.14.19.393.05.563l-1.093 1.334c-.076.09-.186.144-.302.144M36.438 30.042c-.075 0-.15-.02-.22-.067-.178-.123-.226-.372-.105-.555l.95-1.444c.068-.104.182-.17.305-.176.122-.01.242.046.322.143l1.093 1.334c.14.17.116.422-.05.564-.167.143-.414.12-.553-.05l-.757-.925-.66 1c-.075.115-.2.177-.325.177"/><path d="M32.236 34.812c-1.44 0-2.833-.573-3.89-1.636-.156-.155-.157-.408-.005-.566.153-.156.4-.158.556-.003 1.178 1.184 2.842 1.66 4.45 1.272 2.433-.588 4.108-3.133 3.657-5.56-.04-.217.1-.426.312-.467.217-.04.42.1.46.318.535 2.884-1.37 5.794-4.248 6.488-.43.103-.863.154-1.29.154M27.09 31.083c-.173 0-.33-.117-.38-.296-.39-1.488-.173-3.05.616-4.398.81-1.387 2.14-2.39 3.644-2.752 1.997-.48 4.08.193 5.44 1.76.144.164.13.417-.034.564-.162.146-.41.13-.554-.035-1.168-1.345-2.958-1.925-4.67-1.51-1.3.312-2.45 1.18-3.152 2.382-.68 1.16-.868 2.502-.53 3.78.056.212-.07.432-.278.49-.034.01-.07.013-.102.013M16.847 26.867h-.923c-.216 0-.392.18-.392.4 0 .22.176.4.392.4h.923c.217 0 .392-.18.392-.4 0-.22-.176-.4-.393-.4M14.08 24.986h-.923c-.217 0-.392.18-.392.4 0 .222.175.4.392.4h.922c.216 0 .392-.178.392-.4 0-.22-.176-.4-.393-.4M16.847 24.986h-.923c-.216 0-.392.18-.392.4 0 .222.176.4.392.4h.923c.217 0 .392-.178.392-.4 0-.22-.176-.4-.393-.4M11.312 26.867h-.922c-.217 0-.393.18-.393.4 0 .22.176.4.393.4h.922c.217 0 .392-.18.392-.4 0-.22-.175-.4-.392-.4M11.312 24.986h-.922c-.217 0-.393.18-.393.4 0 .222.176.4.393.4h.922c.217 0 .392-.178.392-.4 0-.22-.175-.4-.392-.4M14.08 26.867h-.923c-.217 0-.392.18-.392.4 0 .22.175.4.392.4h.922c.216 0 .392-.18.392-.4 0-.22-.176-.4-.393-.4M19.614 15.56h7.38c.217 0 .392-.178.392-.4 0-.22-.175-.4-.392-.4h-7.38c-.217 0-.392.18-.392.4 0 .222.175.4.392.4M19.614 18.587h7.38c.217 0 .392-.18.392-.4 0-.22-.175-.4-.392-.4h-7.38c-.217 0-.392.18-.392.4 0 .22.175.4.392.4M19.614 26.867h-.923c-.216 0-.39.18-.39.4 0 .22.174.4.39.4h.924c.217 0 .392-.18.392-.4 0-.22-.175-.4-.392-.4M19.614 21.614h7.38c.217 0 .392-.18.392-.4 0-.222-.175-.4-.392-.4h-7.38c-.217 0-.392.178-.392.4 0 .22.175.4.392.4M19.614 24.986h-.923c-.216 0-.39.18-.39.4 0 .222.174.4.39.4h.924c.217 0 .392-.178.392-.4 0-.22-.175-.4-.392-.4"/><path d="M25.157 30.628h-3.305v-2.96h3.305c.054-.274.126-.54.208-.8h-3.513V24.64h4.665c.2-.266.412-.522.645-.758-.05-.025-.108-.042-.168-.042h-5.29c-.22-.434-.657-.734-1.168-.734H17.24V12.67c0-.297.237-.54.53-.54h11.068c.293 0 .53.243.53.54v9.682c.255-.114.516-.217.785-.3v-9.38c0-.74-.59-1.342-1.315-1.342h-11.07c-.724 0-1.314.602-1.314 1.34v10.436H9.467c-.725 0-1.315.6-1.315 1.34v6.582c0 .22.176.4.393.4h16.82c-.082-.26-.154-.527-.208-.8zm-11.147-1.08h1.983v1.08H14.01v-1.08zm7.057 1.08h-4.29v-1.48c0-.222-.175-.4-.392-.4h-2.767c-.217 0-.392.178-.392.4v1.48h-4.29v-6.182c0-.298.238-.54.53-.54h11.07c.293 0 .53.242.53.54v6.182z"/></g></svg>