<svg width="46" height="46" viewBox="0 0 46 46" xmlns="http://www.w3.org/2000/svg"><title>share filled</title><path d="M14.22 19.716l17.25-8.784-17.25 8.784zm-.32 5.886l17.25 8.784-17.25-8.784zM43.08 8.11c0 3.374-2.735 6.11-6.11 6.11-3.374 0-6.11-2.736-6.11-6.11 0-3.375 2.736-6.11 6.11-6.11 3.375 0 6.11 2.735 6.11 6.11zM14.22 22.677c0 3.375-2.736 6.11-6.11 6.11-3.375 0-6.11-2.735-6.11-6.11 0-3.373 2.735-6.11 6.11-6.11 3.374 0 6.11 2.737 6.11 6.11zM43.08 37.224c0 3.376-2.735 6.11-6.11 6.11-3.374 0-6.11-2.734-6.11-6.11 0-3.373 2.736-6.11 6.11-6.11 3.375 0 6.11 2.737 6.11 6.11z" stroke="#000" stroke-width="2.813" fill="#000" fill-rule="evenodd"/></svg>