<svg version="1.2" baseProfile="tiny" xmlns="http://www.w3.org/2000/svg" viewBox="-694 90 2000 612"><path fill="#FFF" d="M-700 90v612h2012V90H-700zM529.7 282.1v13.7c0 150.9-115.3 326.6-326.6 326.6-65.9 0-126.2-19.2-175.6-52.1 8.2 0 19.2 2.7 27.4 2.7 54.9 0 104.3-19.2 142.7-49.4-49.4 0-93.3-32.9-107-79.6 5.5 2.7 11 2.7 19.2 2.7 11 0 22 0 30.2-2.7-52.1-11-93.3-57.6-93.3-112.5v-2.7c16.5 8.2 35.7 13.7 52.1 13.7-30.2-22-52.1-54.9-52.1-96.1 2.7-19.2 8.2-41.2 16.5-57.6 57.6 71.4 142.7 115.3 238.8 120.8-2.7-8.2-2.7-16.5-2.7-27.4 0-63.1 52.1-115.3 115.3-115.3 32.9 0 63.1 13.7 85.1 35.7 27.4-5.5 52.1-13.7 74.1-27.4-8.2 27.4-27.4 49.4-49.4 63.1 22-2.7 46.7-8.2 65.9-19.2-19.5 27.3-38.7 46.5-60.6 63z"/></svg>