<svg version="1.2" baseProfile="tiny" xmlns="http://www.w3.org/2000/svg" viewBox="-694 90 2000 612"><path fill="#FFF" d="M-700 90v612h2012V90H-700zm848.2 562.6H38.4V304.1h109.8v348.5zM90.6 260.2c-41.2 0-65.9-27.4-65.9-60.4 0-35.7 27.4-60.4 65.9-60.4 41.2 0 65.9 27.4 65.9 60.4 2.7 32.9-24.8 60.4-65.9 60.4zm496.7 392.4H463.8V471.5c0-46.7-19.2-79.6-63.1-79.6-32.9 0-49.4 22-60.4 43.9-2.7 8.2-2.7 19.2-2.7 27.4v189.4H216.8s2.7-321.1 0-348.5h123.5V359c8.2-24.7 46.7-57.6 109.8-57.6 76.8 0 137.2 49.4 137.2 159.2v192z"/></svg>