<?xml version="1.0" encoding="utf-8"?>
<!-- Generator: Adobe Illustrator 18.1.1, SVG Export Plug-In . SVG Version: 6.00 Build 0)  -->
<svg version="1.1" id="data_science" xmlns="http://www.w3.org/2000/svg" xmlns:xlink="http://www.w3.org/1999/xlink" x="0px"
	 y="0px" viewBox="-17.2 -10.8 54.9 35.6" enable-background="new -17.2 -10.8 54.9 35.6" xml:space="preserve">
<linearGradient id="decisive-infrastructure" gradientUnits="userSpaceOnUse" x1="7.5987" y1="29.0017" x2="14.7771" y2="-11.7094">
	<stop  offset="0" style="stop-color:#6DB33F"/>
	<stop  offset="1" style="stop-color:#72CDF4"/>
</linearGradient>
<path fill="url(#decisive-infrastructure)" d="M36.6,24.8H17.4c-0.6,0-1-0.4-1-1V4.6c0-0.6,0.4-1,1-1h19.2c0.6,0,1,0.4,1,1v19.2
	C37.6,24.3,37.2,24.8,36.6,24.8z M18.4,22.8h17.2V5.6H18.4V22.8z M32.8,9.4c0-0.6-0.4-1-1-1h-9.6c-0.6,0-1,0.4-1,1s0.4,1,1,1h9.6
	C32.4,10.4,32.8,9.9,32.8,9.4z M3,24.8h-19.2c-0.6,0-1-0.4-1-1V4.6c0-0.6,0.4-1,1-1H3c0.6,0,1,0.4,1,1v19.2C4,24.3,3.6,24.8,3,24.8z
	 M-15.2,22.8H2V5.6h-17.2V22.8z M-0.8,9.4c0-0.6-0.4-1-1-1h-9.6c-0.6,0-1,0.4-1,1s0.4,1,1,1h9.6C-1.2,10.4-0.8,9.9-0.8,9.4z
	 M-2.4-6.9h-4.2c-0.6,0-1,0.4-1,1v7.5h2v-6.5h3.2V-6.9z M27-6.9h-4.2v2H26v6.5h2v-7.5C28-6.5,27.6-6.9,27-6.9z M14.4,8.4H6v2h8.4
	V8.4z M18.8,1.6h2V-9.8c0-0.6-0.4-1-1-1H0.6c-0.6,0-1,0.4-1,1V1.6h2V-8.8h17.2V1.6z M16-5c0-0.6-0.4-1-1-1H5.3c-0.6,0-1,0.4-1,1
	s0.4,1,1,1H15C15.5-4,16-4.4,16-5z"/>
</svg>
