<svg version="1.1" id="data_science" xmlns="http://www.w3.org/2000/svg" xmlns:xlink="http://www.w3.org/1999/xlink" x="0px"
	 y="0px" viewBox="19.7 -14.9 53.5 50.6" enable-background="new 19.7 -14.9 53.5 50.6" xml:space="preserve">
<linearGradient id="icon_smart-sourcing" gradientUnits="userSpaceOnUse" x1="423.211" y1="614.7505" x2="538.251" y2="-37.6737" gradientTransform="matrix(8.179332e-02 0 0 8.179332e-02 7.2354 -12.0367)">
	<stop  offset="0" style="stop-color:#6DB33F"/>
	<stop  offset="1" style="stop-color:#72CDF4"/>
</linearGradient>
<path fill="url(#icon_smart-sourcing)" d="M50.8-14.9c-0.3,0-0.6,0-0.9,0C38.8-14.4,30.2-6.5,28.6,3.9c0.3,0,0.6-0.2,0.8-0.2s0.6,0,0.8,0.2
	c0.3-1.8,0.8-3.5,1.5-5.1h10c-0.8,2.9-1.1,5.8-1.1,8.9h-2.9c0.5,0.5,0.9,1.1,1.2,1.5h1.8c0.3,2.9,0.9,5.8,2,8.9h-2.6
	c-0.2,0.6-0.3,1.1-0.6,1.5h3.8c1.2,2.9,2.8,5.8,4.8,8.8c-4.3-0.6-8-2.5-11.1-5.1c-0.2,0.2-0.2,0.2-0.3,0.3c-0.3,0.3-0.6,0.6-0.6,1.1
	c4,3.5,9.1,5.7,14.6,5.7c12.5,0,22.5-10,22.5-22.5C73.2-4.9,63.1-14.9,50.8-14.9z M68.8-2.9h-9.4c-1.2-3.5-3.1-6.9-5.7-10.2
	C60-12.1,65.5-8.2,68.8-2.9z M50.2-13.2c0.2,0,0.5,0,0.6,0c0.2,0,0.5,0,0.6,0c2.9,3.2,5.1,6.6,6.3,10.3H43.8
	C45.2-6.5,47.2-9.9,50.2-13.2z M32.5-2.9c3.1-5.5,8.6-9.2,15.4-10.2c-2.6,3.1-4.5,6.6-5.7,10.2H32.5z M43.2-1.3h14.9
	c0.9,2.9,1.2,5.8,1.1,8.9H42.2C42,4.5,42.5,1.6,43.2-1.3z M42.3,9.1h16.9c-0.3,2.9-0.9,5.8-2.2,8.9H44.3C43.2,15,42.5,12.1,42.3,9.1
	z M50.8,28.4c-0.2,0-0.3,0-0.5,0c-2.2-2.9-3.8-5.8-5.1-8.8h11.4c-1.2,2.9-3.1,5.8-5.1,8.8C51.1,28.4,50.9,28.4,50.8,28.4z
	 M53.4,28.2c2-2.8,3.7-5.7,4.8-8.6h9.5C64.5,24.2,59.2,27.5,53.4,28.2z M68.8,17.9h-10c1.1-2.9,1.8-5.8,2-8.9h10.8
	C71.2,12.4,70.3,15.5,68.8,17.9z M60.9,7.6c0.2-2.9-0.3-6-1.1-8.9h9.7c1.2,2.6,2,5.7,2,8.8l0,0L60.9,7.6L60.9,7.6z M25.2,26.2
	L25.2,26.2c-0.5,0-0.8-0.5-0.8-0.8c0,0,0-1.8-1.4-3.1c-2.2-1.8-3.4-4.6-3.4-7.4c0-5.4,4.3-9.7,9.7-9.7s9.7,4.3,9.7,9.7
	c0,2.8-1.2,5.5-3.2,7.2c-1.4,1.2-1.4,3.1-1.4,3.1c0,0.5-0.3,0.8-0.8,0.8l0,0c-0.5,0-0.8-0.3-0.8-0.8c0-0.2,0-2.6,2-4.3
	c1.8-1.5,2.8-3.8,2.8-6.2c0-4.5-3.7-8-8-8s-8.3,3.7-8.3,8.2c0,2.3,1.1,4.5,2.8,6c2,1.8,2,4.3,2,4.3C26,25.9,25.7,26.2,25.2,26.2z
	 M23.1,15.5c-0.5,0-0.8-0.3-0.8-0.8c0-4,3.2-7.2,7.2-7.2c0.5,0,0.8,0.3,0.8,0.8C30.3,8.7,30,9,29.5,9c-3.1,0-5.5,2.5-5.5,5.5
	C23.8,15,23.4,15.5,23.1,15.5z M25.2,31.1c-0.3,0-0.6-0.2-0.8-0.5c-0.2-0.5,0.2-0.9,0.5-1.1l3.5-1.1h-3.2c-0.5-0.2-0.8-0.5-0.8-0.9
	c0-0.5,0.3-0.8,0.8-0.8h8.3c0.5,0,0.8,0.3,0.8,0.6c0,0.3-0.2,0.8-0.6,0.9l-8.2,2.8C25.4,31.1,25.4,31.1,25.2,31.1z M33.5,33.3h-8.3
	c-0.5,0-0.8-0.3-0.8-0.6c-0.2-0.3,0.2-0.8,0.6-0.9l8.3-2.6c0.3-0.2,0.8,0,1.1,0.5c0.2,0.5-0.2,0.9-0.5,1.1l-3.5,1.1h3.2
	c0.5,0,0.8,0.3,0.8,0.8C34.5,33,34,33.3,33.5,33.3z M30.6,35.8h-2.8c-0.5,0-0.8-0.3-0.8-0.8c0-0.5,0.2-0.8,0.8-0.8h2.8
	c0.5,0,0.8,0.3,0.8,0.8C31.4,35.5,31.1,35.8,30.6,35.8z"/>
</svg>
