<?xml version="1.0" encoding="utf-8"?>
<!-- Generator: Adobe Illustrator 18.1.1, SVG Export Plug-In . SVG Version: 6.00 Build 0)  -->
<svg version="1.1" id="data_science" xmlns="http://www.w3.org/2000/svg" xmlns:xlink="http://www.w3.org/1999/xlink" x="0px"
	 y="0px" viewBox="-29.6 -19.3 78.3 58.7" enable-background="new -29.6 -19.3 78.3 58.7" xml:space="preserve">
<linearGradient id="change-centers" gradientUnits="userSpaceOnUse" x1="6.465" y1="37.16" x2="16.6283" y2="-20.4788">
	<stop  offset="0" style="stop-color:#6DB33F"/>
	<stop  offset="1" style="stop-color:#72CDF4"/>
</linearGradient>
<path fill="url(#change-centers)" d="M22.1,26.7L19.3,30c-0.2,0.2-0.5,0.4-0.8,0.4c0,0,0,0-0.1,0c-0.3,0-0.6-0.2-0.8-0.4l-2.4-3.6
	c-0.3-0.5-0.2-1.1,0.3-1.4c0.5-0.3,1.1-0.2,1.4,0.3l0.2,0.4c0-2.5,0.7-5,2-7.2c2.1-3.5,5.5-6,9.3-6.9c5.1-1.2,10.4,0.5,13.9,4.4
	c0.4,0.4,0.3,1-0.1,1.4c-0.4,0.4-1,0.3-1.4-0.1c-3-3.4-7.5-4.8-11.9-3.8c-3.3,0.8-6.2,3-8,6c-1.4,2.3-2,5-1.7,7.6l1.3-1.6
	c0.4-0.4,1-0.5,1.4-0.1C22.4,25.6,22.5,26.3,22.1,26.7z M48.4,25.6l-2.8-3.3c-0.2-0.2-0.5-0.4-0.8-0.4c-0.3,0-0.6,0.2-0.8,0.4
	l-2.4,3.6c-0.3,0.5-0.2,1.1,0.3,1.4c0.2,0.1,0.4,0.2,0.6,0.2c0.3,0,0.6-0.2,0.8-0.4l0.8-1.1c-0.3,5.1-4.2,9.9-9.5,11.2
	c-4.1,1-8.3-0.2-11.3-3.2c-0.4-0.4-1-0.4-1.4,0c-0.4,0.4-0.4,1,0,1.4c2.7,2.7,6.2,4.1,9.9,4.1c1.1,0,2.2-0.1,3.3-0.4
	c6.3-1.5,10.8-7.1,11-13.2l0.8,1c0.4,0.4,1,0.5,1.4,0.1C48.7,26.6,48.8,26,48.4,25.6z M-7.5,19.6h-2.4c-0.6,0-1,0.4-1,1s0.4,1,1,1
	h2.4c0.6,0,1-0.4,1-1S-6.9,19.6-7.5,19.6z M-14.5,14.9h-2.4c-0.6,0-1,0.4-1,1s0.4,1,1,1h2.4c0.6,0,1-0.4,1-1S-14,14.9-14.5,14.9z
	 M-7.5,14.9h-2.4c-0.6,0-1,0.4-1,1s0.4,1,1,1h2.4c0.6,0,1-0.4,1-1S-6.9,14.9-7.5,14.9z M-21.6,19.6h-2.4c-0.6,0-1,0.4-1,1s0.4,1,1,1
	h2.4c0.6,0,1-0.4,1-1S-21,19.6-21.6,19.6z M-21.6,14.9h-2.4c-0.6,0-1,0.4-1,1s0.4,1,1,1h2.4c0.6,0,1-0.4,1-1S-21,14.9-21.6,14.9z
	 M-14.5,19.6h-2.4c-0.6,0-1,0.4-1,1s0.4,1,1,1h2.4c0.6,0,1-0.4,1-1S-14,19.6-14.5,19.6z M18.4-10.7H-0.4c-0.6,0-1,0.4-1,1s0.4,1,1,1
	h18.8c0.6,0,1-0.4,1-1S19-10.7,18.4-10.7z M18.4-3.1H-0.4c-0.6,0-1,0.4-1,1s0.4,1,1,1h18.8c0.6,0,1-0.4,1-1S19-3.1,18.4-3.1z
	 M-0.4,19.6h-2.4c-0.6,0-1,0.4-1,1s0.4,1,1,1h2.4c0.6,0,1-0.4,1-1S0.1,19.6-0.4,19.6z M18.4,4.4H-0.4c-0.6,0-1,0.4-1,1s0.4,1,1,1
	h18.8c0.6,0,1-0.4,1-1S19,4.4,18.4,4.4z M-0.4,14.9h-2.4c-0.6,0-1,0.4-1,1s0.4,1,1,1h2.4c0.6,0,1-0.4,1-1S0.1,14.9-0.4,14.9z
	 M13.7,29c0.1,0.7,0.3,1.3,0.5,2H-8.6h-7.1h-12.9c-0.6,0-1-0.4-1-1V13.5c0-1.8,1.5-3.4,3.4-3.4h17.8v-26.1c0-1.8,1.5-3.4,3.4-3.4
	h28.2c1.8,0,3.4,1.5,3.4,3.4V7.5c-0.7,0.2-1.4,0.5-2,0.8v-24.2c0-0.7-0.6-1.4-1.4-1.4H-5.1c-0.7,0-1.4,0.6-1.4,1.4v26.1h8.4
	c1.3,0,2.4,0.8,3,1.8h13.5c0.2,0,0.3,0,0.4,0.1c-0.6,0.6-1.1,1.2-1.6,1.9H5.3v5.6h9c-0.2,0.7-0.4,1.3-0.5,2H5.3V29H13.7z M-9.6,26.3
	h-5.1V29h5.1V26.3z M3.3,13.5c0-0.7-0.6-1.4-1.4-1.4h-28.2c-0.7,0-1.4,0.6-1.4,1.4V29h10.9v-3.7c0-0.6,0.4-1,1-1h7.1
	c0.6,0,1,0.4,1,1V29H3.3V13.5z"/>
</svg>
