<?xml version="1.0" encoding="utf-8"?>
<!-- Generator: Adobe Illustrator 18.1.1, SVG Export Plug-In . SVG Version: 6.00 Build 0)  -->
<svg version="1.1" xmlns="http://www.w3.org/2000/svg" xmlns:xlink="http://www.w3.org/1999/xlink" x="0px" y="0px"
	 viewBox="0 0 100 100" enable-background="new 0 0 100 100" xml:space="preserve">
<linearGradient id="cognizanti" gradientUnits="userSpaceOnUse" x1="39.4345" y1="97.7621" x2="57.4316" y2="-4.3049">
	<stop  offset="0" style="stop-color:#6DB344"/>
	<stop  offset="1" style="stop-color:#73CCF3"/>
</linearGradient>
<path fill="url(#cognizanti)" d="M93.5,7.3c-0.9-0.4-1.3-0.4-2.2,0L49.2,28.4L7,7.3c-0.9-0.4-1.7-0.4-2.2,0C4.4,7.7,4,8.2,4,9v66.7
	c0,0.4,0.4,1.3,1.3,1.7l42.1,21c0.3,0.4,0.7,0.7,1.2,0.8c0.2,0.1,0.4,0.1,0.7,0.1c0.2,0,0.5,0,0.7-0.1c0.5-0.1,0.9-0.4,1.2-0.8
	l42.1-21c0.9,0,1.3-0.9,1.3-1.7V9C94.4,8.6,94,7.7,93.5,7.3z M8.3,74.5v-62L47,31.6V94L8.3,74.5L8.3,74.5z M90.1,74.5L51.3,94V31.6
	l38.7-19.2V74.5z M13,1.3c0.4-0.9,1.7-1.3,3-0.9l33.6,16.8L83.2,0.4c0.9-0.4,2.2,0,3,0.9c0.4,0.9,0,2.2-0.9,3L50.9,21.5
	c-0.9,0.4-1.3,0.4-1.7,0.4c-0.4,0-0.9,0-0.9-0.4L13.9,4.3C13,3.9,12.6,2.6,13,1.3z"/>
</svg>
