<?xml version="1.0" encoding="utf-8"?>
<!-- Generator: Adobe Illustrator 18.1.1, SVG Export Plug-In . SVG Version: 6.00 Build 0)  -->
<svg version="1.1" id="Layer_1" xmlns="http://www.w3.org/2000/svg" xmlns:xlink="http://www.w3.org/1999/xlink" x="0px" y="0px"
	 viewBox="0 0 100 100" enable-background="new 0 0 100 100" xml:space="preserve">
<linearGradient id="icon_create-folders" gradientUnits="userSpaceOnUse" x1="41.3434" y1="87.8753" x2="55.0617" y2="10.0751">
	<stop  offset="0" style="stop-color:#6DB344"/>
	<stop  offset="1" style="stop-color:#73CCF3"/>
</linearGradient>
<path fill="url(#icon_create-folders)" d="M74.4,44.2c-13.5,0-24.6,11.1-24.6,24.6S61,93.3,74.4,93.3S99,82.3,99,68.8S87.9,44.2,74.4,44.2z
	 M74.4,89.2c-11.3,0-20.2-9.1-20.2-20.2s9.1-20.2,20.2-20.2S94.7,57.9,94.7,69S85.5,89.2,74.4,89.2z M76.6,59.4h-4.3v7.5h-7.5v4.3
	h7.5v7.5h4.3v-7.5h7.5v-4.3h-7.5V59.4z M24.1,34.6h61.6l-2.6,6.5l4.1,1.7l5.1-12.5H72.5V13.2H30.4l-4.6-6.5H1v66.5h43.3v-4.3H7.5
	L24.1,34.6z M23.6,11l4.6,6.5h40v12.8H21.5L5.3,63.5V11H23.6z"/>
</svg>
