<?xml version="1.0" encoding="utf-8"?>
<!-- Generator: Adobe Illustrator 18.1.1, SVG Export Plug-In . SVG Version: 6.00 Build 0)  -->
<svg version="1.0" id="data_science" xmlns="http://www.w3.org/2000/svg" xmlns:xlink="http://www.w3.org/1999/xlink" x="0px"
	 y="0px" viewBox="1390 850 100 100" enable-background="new 1390 850 100 100" xml:space="preserve">
<linearGradient id="SVGID_1_" gradientUnits="userSpaceOnUse" x1="45.2146" y1="1787.6465" x2="45.7326" y2="1790.5841" gradientTransform="matrix(35.6436 0 0 -35.6436 -183.9793 64671.1445)">
	<stop  offset="0" style="stop-color:#6DB33F"/>
	<stop  offset="1" style="stop-color:#72CDF4"/>
</linearGradient>
<path fill="url(#SVGID_1_)" d="M1462.3,915.6c-1,0-1.6,0.8-1.6,1.6v13h-53.8v-60.2h53.6v3.8c0,1,0.8,1.6,1.6,1.6
	c1,0,1.6-0.8,1.6-1.6V860c0-5.6-4.6-10-10-10h-40.1c-5.6,0-10,4.6-10,10v80.5c0,5.6,4.6,10,10,10h40.3c5.6,0,10-4.6,10-10v-23.3
	C1463.9,916.4,1463.1,915.6,1462.3,915.6z M1413.7,853.2h40.3c3.8,0,6.8,3,6.8,6.8v6.8h-53.8V860
	C1406.9,856.2,1409.9,853.2,1413.7,853.2z M1453.9,947h-40.3c-3.8,0-6.8-3-6.8-6.8v-6.8h53.6v6.8
	C1460.5,944.1,1457.5,947,1453.9,947z M1420.3,861.6c0-1,0.8-1.6,1.6-1.6h23.5c1,0,1.6,0.8,1.6,1.6s-0.8,1.6-1.6,1.6h-23.3
	C1421.1,863.2,1420.3,862.4,1420.3,861.6z M1433.8,935.3c-2.8,0-5,2.2-5,5s2.2,5,5,5c2.8,0,5-2.2,5-5S1436.6,935.3,1433.8,935.3z
	 M1433.8,942.1c-1,0-1.6-0.8-1.6-1.6s0.8-1.6,1.6-1.6c0.8,0,1.6,0.8,1.6,1.6S1434.6,942.1,1433.8,942.1z M1476.3,883.9v22.3
	c0,3.2-2.6,5.8-5.8,5.8h-29.3l-9.4,6.6c-0.2,0.2-0.6,0.2-1,0.2c-0.6,0-1-0.2-1.4-0.8c-0.6-0.8-0.4-1.8,0.4-2.4l9.8-6.8h0.2
	c0,0,0.2,0,0.4-0.2c0.2,0,0.2,0,0.4,0h0.2h29.7c1.4,0,2.6-1.2,2.6-2.6v-22.1c0-1.4-1.2-2.6-2.6-2.6H1435c-1.4,0-2.6,1.2-2.6,2.6
	v22.3c0,1-0.8,1.6-1.6,1.6c-1,0-1.6-0.8-1.6-1.6v-22.3c0-3.2,2.6-5.8,5.8-5.8h35.3C1473.7,878.1,1476.3,880.7,1476.3,883.9z"/>
</svg>
