<?xml version="1.0" encoding="utf-8"?>
<!-- Generator: Adobe Illustrator 18.1.1, SVG Export Plug-In . SVG Version: 6.00 Build 0)  -->
<svg version="1.1" id="Layer_1" xmlns="http://www.w3.org/2000/svg" xmlns:xlink="http://www.w3.org/1999/xlink" x="0px" y="0px"
	 viewBox="0 0 100 100" enable-background="new 0 0 100 100" xml:space="preserve">
<linearGradient id="icon_save-articles" gradientUnits="userSpaceOnUse" x1="39.803" y1="97.0586" x2="57.4096" y2="-2.7932">
	<stop  offset="0" style="stop-color:#6DB344"/>
	<stop  offset="1" style="stop-color:#73CCF3"/>
</linearGradient>
<path fill="url(#icon_save-articles)" d="M97.5,66c-0.5-1.3-1.8-2.3-3.1-2.3H79.4L74,48.6c-0.5-1.3-1.8-2.3-3.1-2.3c-1.3,0-2.6,1-3.1,2.3
	l-5.4,15.1H47.4c-1.5,0-2.6,1-3.1,2.3s0,2.8,1,3.6l12.5,9.7l-5.4,16.1c-0.5,1.3,0,2.8,1.3,3.8c1,0.8,2.8,0.8,3.8,0l13.3-9.7
	l13.3,9.7c0.5,0.5,1.3,0.5,2,0.5c0.8,0,1.3-0.3,2-0.5c1.3-0.8,1.5-2.3,1.3-3.8l-5.4-16.1l12.5-9.7C97.5,68.8,98.1,67.3,97.5,66z
	 M78.6,77.7l5.1,15.3l-12.8-9.5l-12.8,9.5l5.1-15.3l-12-9.5h14.3l5.1-14.8l5.1,14.8h14.6L78.6,77.7z M8.8,76.2V4.6h59.8v36.6h4.6V0
	H4.2v80.8h44.2l-6.9-4.6H8.8z M17,12.5h43.5v4.6H17V12.5z M17,27.9h43.5v4.6H17V27.9z M17,43.2h32.5v4.6H17V43.2z"/>
</svg>
