<?xml version="1.0" encoding="utf-8"?>
<!-- Generator: Adobe Illustrator 18.1.1, SVG Export Plug-In . SVG Version: 6.00 Build 0)  -->
<svg version="1.1" id="data_science" xmlns="http://www.w3.org/2000/svg" xmlns:xlink="http://www.w3.org/1999/xlink" x="0px"
	 y="0px" viewBox="-1.5 -14.5 95.8 50.4" enable-background="new -1.5 -14.5 95.8 50.4" xml:space="preserve">
<linearGradient id="value-webs" gradientUnits="userSpaceOnUse" x1="41.7487" y1="36.887" x2="50.9982" y2="-15.5698">
	<stop  offset="0" style="stop-color:#6DB33F"/>
	<stop  offset="1" style="stop-color:#72CDF4"/>
</linearGradient>
<path fill="url(#value-webs)" d="M46.7,10.9v-3c0.4,0.3,0.6,0.7,0.6,1.2c0,0.6,0.4,1,1,1s1-0.4,1-1c0-1.6-1.1-3-2.6-3.4V4.8
	c0-0.6-0.4-1-1-1s-1,0.4-1,1v0.9c-1.5,0.4-2.6,1.8-2.6,3.4s1.1,3,2.6,3.4v3c-0.4-0.3-0.6-0.7-0.6-1.2c0-0.6-0.4-1-1-1s-1,0.4-1,1
	c0,1.6,1.1,3,2.6,3.4v0.9c0,0.6,0.4,1,1,1s1-0.4,1-1v-0.9c1.5-0.4,2.6-1.8,2.6-3.4S48.2,11.3,46.7,10.9z M44.1,9.1
	c0-0.5,0.2-1,0.6-1.2v2.5C44.3,10.1,44.1,9.6,44.1,9.1z M46.7,15.6v-2.5c0.4,0.3,0.6,0.7,0.6,1.2S47,15.3,46.7,15.6z M46,0.2
	c0.4-0.5,0.7-1.1,0.9-1.8c0.2,0,0.4,0.1,0.6,0.1c0.3,0,0.7,0,1,0c6.1,1.3,10.7,6.7,10.8,13.2l-0.6,0.4c-0.4,0.3-0.8,0.6-1.2,0.9
	c-0.1,0.1-0.2,0.1-0.3,0.2c0.1-0.5,0.1-0.9,0.1-1.4C57.3,5.4,52.2,0.3,46,0.2z M32.1,11.7c0-0.4,0-0.7,0.1-1.1
	c0.2-0.1,0.4-0.3,0.5-0.4c0.2-0.2,0.4-0.3,0.6-0.5l0.8-0.5c0.1-0.1,0.2-0.2,0.3-0.2c-0.2,0.9-0.3,1.8-0.3,2.7
	c0,5.3,3.6,9.8,8.4,11.1c-0.4,0-0.9,0-1.3,0c-1,0-2,0-3.3,0C34.4,20.4,32.1,16.3,32.1,11.7z M36.5,35.8c-1.1,0-2.2-0.3-3.1-0.7
	c-0.8-0.5-1.5-1.2-2-2.1c-0.3-0.7-0.8-1.8-0.7-3c0.1-1,0.4-1.9,0.9-2.6c0.3-0.5,0.7-0.8,1.1-1.1l0.2-0.2c0.7-0.7,1.6-1,2.8-1
	c0.3,0,0.6,0,0.9,0c0.4,0,0.7,0,1.1,0c1.4,0,2.5,0,3.6,0c1.2,0,2.4,0,4,0c0,0,0,0,0,0c0.6,0,1,0.4,1,1c0,0.6-0.4,1-1,1
	c-1.6,0-2.8,0-4,0c-1.1,0-2.1,0-3.6,0c-0.3,0-0.6,0-0.9,0c-0.3,0-0.7,0-1,0c-0.7,0-1.1,0.2-1.5,0.5L34,27.7
	c-0.3,0.3-0.6,0.5-0.7,0.8c-0.3,0.4-0.5,1-0.6,1.7c-0.1,0.6,0.1,1.2,0.5,2c0.2,0.4,0.6,1,1.1,1.3c0.6,0.3,1.3,0.5,2.1,0.5
	c0,0,0,0,0,0c4.3,0,8.7,0,13,0h5.4c1,0,2.1,0,3.2-0.2c1-0.2,1.9-0.6,2.7-1c1.1-0.6,2.2-1.3,3.3-2c1.1-0.7,2.2-1.5,3.3-2.2l0.2-0.1
	c0.4-0.3,0.8-0.6,1.2-0.9c0.5-0.4,1-0.7,1.5-1c0.8-0.6,1.7-1.1,2.4-1.5c0.6-0.3,1.3-0.7,2.3-0.8c0.4,0,0.7,0,1.1,0l5.9,0V10.8
	l-1.7,0c-2,0-4.1,0-6.1,0c-0.6,0-1.2,0-1.9-0.1c-0.3,0-0.6-0.1-0.9-0.1c-0.4-0.1-0.7-0.1-1-0.1c-0.9,0-1.8,0.1-2.7,0.5
	c-0.5,0.2-1,0.5-1.6,0.8L65.6,12c-0.2,0.1-0.4,0.3-0.6,0.4c-0.1,0.1-0.2,0.2-0.4,0.3l-2.2,1.6c-0.2,0.2-0.5,0.3-0.7,0.5
	c-0.3,0.2-0.5,0.4-0.8,0.6c-0.4,0.3-0.8,0.5-1.1,0.8c-0.3,0.2-0.5,0.4-0.8,0.6c-0.3,0.2-0.5,0.4-0.8,0.6c-0.3,0.3-0.7,0.5-1,0.7
	l-0.6,0.5c-0.2,0.1-0.4,0.3-0.6,0.4c-0.2,0.2-0.4,0.3-0.6,0.5l-1,0.7c-0.5,0.4-1,0.7-1.5,1.1c-0.4,0.3-0.7,0.5-1.1,0.8
	c-0.5,0.4-1,0.8-1.6,1.2c-0.4,0.3-0.6,0.6-0.7,0.9c-0.2,0.9-0.1,1.8,0.3,2.5c0.5,0.8,1,1.3,1.5,1.5c0.6,0.3,1.2,0.3,1.8,0.1
	c0.4-0.1,0.7-0.4,1.1-0.7c0.1-0.1,0.3-0.2,0.4-0.3c0.4-0.2,0.7-0.5,1.1-0.8c0.4-0.3,0.7-0.5,1.1-0.8c1.1-0.7,2.2-1.5,3.3-2.2
	c0.7-0.5,1.5-0.9,2.6-0.6c0.2,0.1,0.4,0.1,0.5,0.2l0.2,0.1c0.5,0.2,0.7,0.8,0.5,1.3c-0.2,0.5-0.8,0.7-1.3,0.5
	c-0.1,0-0.2-0.1-0.2-0.1c0,0-0.1,0-0.1-0.1c-0.2-0.1-0.5,0-1,0.4c-1.1,0.7-2.2,1.5-3.3,2.2c-0.4,0.2-0.7,0.5-1.1,0.8
	c-0.4,0.3-0.7,0.5-1.1,0.8c-0.1,0.1-0.3,0.2-0.4,0.3c-0.5,0.3-1,0.7-1.6,0.9c-1.1,0.4-2.3,0.4-3.4-0.1c-1.2-0.6-2-1.6-2.4-2.3
	c-0.7-1.1-0.9-2.5-0.5-4c0.2-0.8,0.7-1.5,1.5-2c0.5-0.4,1-0.8,1.5-1.1c0.4-0.3,0.7-0.5,1.1-0.8c0.5-0.4,1-0.7,1.5-1.1l1-0.7
	c0.2-0.1,0.4-0.3,0.6-0.4c0.2-0.2,0.4-0.3,0.6-0.5l0.7-0.5c0.3-0.2,0.7-0.5,1-0.7c0.2-0.2,0.5-0.4,0.7-0.6c0.3-0.2,0.5-0.4,0.8-0.6
	c0.4-0.3,0.8-0.6,1.2-0.8l0.8-0.6c0.2-0.2,0.4-0.3,0.7-0.5l2.3-1.6c0.1-0.1,0.2-0.2,0.3-0.2c0.3-0.2,0.5-0.4,0.8-0.6L65,10
	c0.6-0.3,1.2-0.7,1.9-1c1.2-0.4,2.3-0.6,3.5-0.6c0.4,0,0.9,0.1,1.3,0.1c0.2,0,0.5,0.1,0.7,0.1c0.6,0.1,1.1,0.1,1.7,0.1
	c2,0,4.1,0,6.1,0l2.2,0c1.1,0,1.5,0.4,1.5,1.5v14.1c0,1-0.5,1.6-1.6,1.6L76,26c-0.3,0-0.6,0-0.9,0c-0.5,0-0.9,0.2-1.4,0.5
	c-0.7,0.4-1.5,0.9-2.3,1.5c-0.5,0.3-1,0.7-1.4,1c-0.4,0.3-0.8,0.6-1.3,0.9l-0.2,0.1c-1.1,0.7-2.2,1.5-3.3,2.2
	c-1.1,0.7-2.3,1.5-3.5,2.1c-0.9,0.4-1.9,0.9-3.2,1.2c-1.3,0.3-2.5,0.3-3.6,0.3h-5.4C45.2,35.8,40.8,35.8,36.5,35.8
	C36.5,35.8,36.5,35.8,36.5,35.8z M61.9,24.8 M93.3,31.3H82.8c-0.6,0-1-0.4-1-1v-23c0-0.6,0.4-1,1-1h10.5c0.6,0,1,0.4,1,1v23
	C94.3,30.8,93.8,31.3,93.3,31.3z M83.8,29.3h8.5v-21h-8.5V29.3z M88.1,15.8c-1.6,0-2.8-1.3-2.8-2.8s1.3-2.8,2.8-2.8s2.8,1.3,2.8,2.8
	S89.6,15.8,88.1,15.8z M88.1,12.1c-0.5,0-0.8,0.4-0.8,0.8s0.4,0.8,0.8,0.8s0.8-0.4,0.8-0.8S88.5,12.1,88.1,12.1z M22.6,12.8
	c-0.1,0-0.2,0-0.3,0c-0.4,0-0.9-0.1-1.3-0.1c-0.2,0-0.5-0.1-0.7-0.1c-0.6-0.1-1.1-0.1-1.7-0.1c-2,0-4.1,0-6.1,0l-2.2,0
	c-1.1,0-1.5-0.4-1.5-1.5V-3.1c0-1,0.5-1.6,1.6-1.6l6.3,0c0.3,0,0.6,0,0.9,0c0.5,0,0.9-0.2,1.4-0.5c0.7-0.4,1.5-0.9,2.3-1.4
	c0.5-0.3,1-0.7,1.4-1c0.4-0.3,0.8-0.6,1.3-0.9l0.2-0.1c1.1-0.7,2.2-1.5,3.3-2.2c1.1-0.7,2.3-1.5,3.5-2.1c0.9-0.4,1.9-0.9,3.2-1.2
	c1.3-0.3,2.5-0.3,3.6-0.3h5.4c4.3,0,8.7,0,13,0c0,0,0,0,0,0c1.1,0,2.2,0.3,3.1,0.7c0.8,0.5,1.5,1.2,2,2.2c0.3,0.7,0.8,1.8,0.7,3
	c-0.1,1-0.4,1.9-0.9,2.6c-0.3,0.5-0.7,0.8-1.1,1.1l-0.2,0.2c-0.7,0.7-1.6,1-2.8,1c-0.3,0-0.6,0-0.9,0c-0.4,0-0.7,0-1.1,0
	c-1.5,0-2.6,0-3.7,0c-1.2,0-2.3,0-3.9,0c0,0,0,0,0,0c-0.6,0-1-0.4-1-1c0-0.6,0.4-1,1-1c1.6,0,2.7,0,3.9,0c1.1,0,2.2,0,3.6,0
	c0.3,0,0.6,0,0.9,0c0.3,0,0.7,0,1,0c0.7,0,1.1-0.2,1.5-0.5l0.2-0.2c0.3-0.3,0.6-0.5,0.7-0.8c0.3-0.4,0.5-1,0.6-1.7
	c0.1-0.6-0.1-1.2-0.5-2c-0.2-0.4-0.6-1-1.1-1.3c-0.6-0.3-1.3-0.5-2.1-0.5c0,0,0,0,0,0c-4.3,0-8.7,0-13,0h-5.4c-1,0-2.1,0-3.2,0.2
	c-1,0.2-1.9,0.6-2.7,1c-1.1,0.6-2.2,1.3-3.3,2c-1.1,0.7-2.2,1.5-3.3,2.2L25.3-7c-0.4,0.3-0.8,0.6-1.2,0.9c-0.5,0.4-1,0.7-1.5,1
	c-0.8,0.6-1.7,1.1-2.4,1.5c-0.6,0.3-1.3,0.8-2.3,0.8c-0.4,0-0.7,0-1.1,0l-5.9,0v13.2l1.7,0c2,0,4.1,0,6.1,0c0.6,0,1.2,0,1.9,0.1
	c0.3,0,0.6,0.1,0.9,0.1c0.4,0.1,0.7,0.1,1,0.1c0.9,0,1.8-0.1,2.7-0.5c0.5-0.2,1-0.5,1.6-0.8l0.3-0.2c0.2-0.1,0.4-0.3,0.6-0.4
	c0.1-0.1,0.2-0.2,0.4-0.3L30.3,7c0.2-0.2,0.5-0.3,0.7-0.5c0.3-0.2,0.5-0.4,0.8-0.6c0.4-0.3,0.8-0.5,1.1-0.8c0.3-0.2,0.5-0.4,0.8-0.6
	c0.2-0.2,0.5-0.4,0.7-0.6c0.3-0.3,0.7-0.5,1-0.7l0.6-0.5c0.2-0.1,0.4-0.3,0.6-0.4c0.2-0.2,0.4-0.3,0.6-0.5l1-0.7
	c0.5-0.4,1-0.7,1.5-1.1c0.4-0.3,0.7-0.5,1.1-0.8c0.5-0.4,1-0.8,1.6-1.2c0.4-0.3,0.6-0.6,0.7-0.9c0.2-0.9,0.1-1.8-0.3-2.5
	c-0.5-0.8-1-1.3-1.5-1.5c-0.6-0.3-1.2-0.3-1.8-0.1c-0.4,0.1-0.7,0.4-1.1,0.7C38.2-6.1,38-6,37.9-5.9c-0.4,0.3-0.7,0.5-1.1,0.8
	c-0.4,0.3-0.7,0.5-1.1,0.8c-1.1,0.7-2.2,1.5-3.3,2.2c-0.7,0.5-1.5,0.9-2.6,0.6c-0.2-0.1-0.4-0.1-0.5-0.2l-0.2-0.1
	c-0.5-0.2-0.7-0.8-0.5-1.3s0.8-0.7,1.3-0.5c0.1,0,0.2,0.1,0.2,0.1c0,0,0.1,0,0.1,0.1c0.2,0.1,0.5,0,1-0.4c1.1-0.7,2.2-1.5,3.3-2.2
	c0.4-0.2,0.7-0.5,1.1-0.8C36-7,36.4-7.3,36.8-7.5c0.1-0.1,0.3-0.2,0.4-0.3c0.5-0.3,1-0.7,1.6-0.9c1.1-0.4,2.3-0.4,3.4,0.1
	c1.2,0.6,2,1.6,2.4,2.3c0.7,1.1,0.9,2.5,0.5,4c-0.2,0.8-0.7,1.5-1.5,2c-0.5,0.4-1,0.8-1.5,1.1c-0.4,0.3-0.7,0.5-1.1,0.8
	c-0.5,0.4-1,0.7-1.5,1.1l-1,0.7c-0.2,0.1-0.4,0.3-0.6,0.4c-0.2,0.2-0.4,0.3-0.6,0.5l-0.7,0.5c-0.3,0.2-0.7,0.5-1,0.7
	c-0.2,0.2-0.5,0.4-0.7,0.5c-0.3,0.2-0.5,0.4-0.8,0.6c-0.4,0.3-0.8,0.6-1.2,0.8l-0.8,0.6c-0.2,0.2-0.4,0.3-0.7,0.5l-2.3,1.6
	c-0.1,0.1-0.2,0.2-0.3,0.2c-0.3,0.2-0.5,0.4-0.8,0.6l-0.3,0.2c-0.6,0.3-1.2,0.7-1.9,1C24.8,12.6,23.7,12.8,22.6,12.8z M9.9,15.1
	H-0.5c-0.6,0-1-0.4-1-1v-23c0-0.6,0.4-1,1-1H9.9c0.6,0,1,0.4,1,1v23C10.9,14.7,10.5,15.1,9.9,15.1z M0.5,13.1h8.5v-21H0.5V13.1z
	 M4.7,11.2c-1.6,0-2.8-1.3-2.8-2.8s1.3-2.8,2.8-2.8s2.8,1.3,2.8,2.8S6.3,11.2,4.7,11.2z M4.7,7.5c-0.5,0-0.8,0.4-0.8,0.8
	s0.4,0.8,0.8,0.8s0.8-0.4,0.8-0.8S5.2,7.5,4.7,7.5z"/>
</svg>
