<?xml version="1.0" encoding="utf-8"?>
<!-- Generator: Adobe Illustrator 18.1.1, SVG Export Plug-In . SVG Version: 6.00 Build 0)  -->
<svg version="1.1" id="Layer_1" xmlns="http://www.w3.org/2000/svg" xmlns:xlink="http://www.w3.org/1999/xlink" x="0px" y="0px"
	 viewBox="0 0 100 100" enable-background="new 0 0 100 100" xml:space="preserve">
<linearGradient id="searches" gradientUnits="userSpaceOnUse" x1="45.9805" y1="77.9633" x2="57.7119" y2="11.431">
	<stop  offset="0" style="stop-color:#6DB344"/>
	<stop  offset="1" style="stop-color:#73CCF3"/>
</linearGradient>
<path fill="url(#searches)" d="M5.5,56.8h33.6v4.5H1V14.9h76.4v10.8h-4.5v-6.3H5.5V56.8z M97.7,87.1L79.9,69.5
	c-4,3.3-9,5.3-14.5,5.3c-13,0-23.6-10.5-23.6-23.6s10.5-23.6,23.6-23.6S89,38.2,89,51.3c0,5.8-2,11-5.5,15.3L101,84.1L97.7,87.1z
	 M65.4,70c10.5,0,19-8.5,19-19s-8.5-19-19-19s-19,8.5-19,19S54.9,70,65.4,70z"/>
</svg>
