<?xml version="1.0" encoding="utf-8"?>
<!-- Generator: Adobe Illustrator 18.1.1, SVG Export Plug-In . SVG Version: 6.00 Build 0)  -->
<svg version="1.1" id="data_science" xmlns="http://www.w3.org/2000/svg" xmlns:xlink="http://www.w3.org/1999/xlink" x="0px"
	 y="0px" viewBox="-27.4 -25.8 75 67.4" enable-background="new -27.4 -25.8 75 67.4" xml:space="preserve">
<linearGradient id="icon_global-sourcing" gradientUnits="userSpaceOnUse" x1="5.6529" y1="47.1835" x2="18.6424" y2="-26.4834">
	<stop  offset="0" style="stop-color:#6DB33F"/>
	<stop  offset="1" style="stop-color:#72CDF4"/>
</linearGradient>
<path fill="url(#icon_global-sourcing)" d="M9.9,41.5h-36.2c-0.6,0-1.1-0.5-1.1-1.1c0-0.1,0-3.5,1.7-6.9c1.2-2.4,5.2-3.9,10.8-5.9
	c0.6-0.2,1.1-0.4,1.7-0.6v-3.4c-0.8-0.7-2.1-2.2-2.3-4.6c-0.4-0.4-0.6-0.9-0.8-1.6c-0.3-1.2-0.1-2.5,0.6-3.4c0,0,0,0,0-0.1
	c-0.6-1.8-1.6-5.2-0.1-7.2c0.4-0.5,1.1-1.1,2.2-1.3c1.1-1.7,4-2.3,6.6-2.3c3.3,0,7.3,1,7.9,4c0.5,2.3-0.7,5.2-1.3,6.8
	c0,0.1,0,0.1-0.1,0.2c0.7,0.9,0.9,2.2,0.6,3.4c-0.2,0.7-0.4,1.2-0.8,1.6c-0.2,2.4-1.6,3.9-2.3,4.6v3.4c0.6,0.2,1.1,0.4,1.7,0.6
	c5.5,2,9.5,3.5,10.8,5.9c1.7,3.3,1.7,6.8,1.7,6.9C11.1,41,10.6,41.5,9.9,41.5z M-25,39.3H8.7c-0.1-1.1-0.5-3-1.4-4.7
	c-0.8-1.6-4.8-3.1-9.5-4.8c-0.8-0.3-1.6-0.6-2.5-0.9c-0.4-0.2-0.7-0.6-0.7-1.1V23c0-0.4,0.2-0.7,0.5-0.9c0.1,0,1.9-1.3,1.9-3.8
	c0-0.5,0.3-0.9,0.7-1c0.1-0.3,0.3-0.9,0.2-1.4c0-0.2-0.1-0.4-0.2-0.4c-0.4-0.2-0.6-0.6-0.6-1c0-0.3,0.1-0.6,0.4-1.4
	c0.5-1.2,1.5-3.8,1.2-5.5c-0.2-1.2-2.7-2.1-5.7-2.1c-2.8,0-4.6,0.8-4.7,1.4c-0.1,0.5-0.6,0.9-1.1,0.9C-13.7,7.6-14,7.9-14,8
	c-0.8,1.1,0.1,4,0.5,5.2c0.2,0.6,0.3,0.9,0.3,1.1c0,0.4-0.2,0.8-0.6,1c-0.1,0.1-0.2,0.2-0.2,0.4c-0.1,0.5,0,1.2,0.2,1.4
	c0.4,0.2,0.7,0.6,0.7,1c0,2.5,1.8,3.8,1.9,3.8c0.3,0.2,0.5,0.6,0.5,0.9v4.7c0,0.5-0.3,0.9-0.7,1.1c-0.8,0.3-1.7,0.6-2.5,0.9
	c-4.7,1.7-8.7,3.2-9.5,4.8C-24.5,36.3-24.9,38.1-25,39.3z M19.8-25.8c-0.4,0-0.8,0-1.2,0c-15,0.6-26.3,12-26.6,26.6c0.3,0,0.6,0,1,0
	c0.3,0,0.7,0,1,0C-6-2.7-5.2-6-3.9-9H8.5c-1,3.6-1.4,7.2-1.3,11H-1c1.1,0.5,2.1,1.2,2.8,2h5.6c0.3,3.6,1.1,7.3,2.5,11H2.3
	c0.1,0.6,0.2,1.3,0.1,2h8.1c1.5,3.6,3.5,7.2,6,10.8C10.6,26.9,5.4,24.1,1.4,20c-0.1,0.8-0.4,1.5-0.7,2.1c5,4.8,11.6,7.7,19,7.7
	c15.4,0,27.9-12.5,27.9-27.9C47.6-13.4,35.1-25.8,19.8-25.8z M42.1-11H30.5c-1.5-4.4-3.9-8.6-7.1-12.6C31.3-22.5,38.2-17.7,42.1-11z
	 M19.1-23.8c0.2,0,0.5,0,0.7,0c0.2,0,0.5,0,0.7,0c3.6,4,6.3,8.3,7.9,12.8H11.1C12.8-15.5,15.4-19.8,19.1-23.8z M-2.8-11
	C1-17.8,7.9-22.6,16.2-23.6C13-19.7,10.6-15.5,9.1-11H-2.8z M10.5-9h18.6c1.1,3.6,1.5,7.2,1.4,11H9.1C9-1.8,9.4-5.5,10.5-9z
	 M9.2,3.9h21.1c-0.3,3.6-1.2,7.3-2.6,11H11.9C10.4,11.2,9.5,7.5,9.2,3.9z M19.7,27.8c-0.2,0-0.4,0-0.6,0c-2.7-3.6-4.8-7.3-6.4-10.9
	h14.2c-1.6,3.6-3.8,7.3-6.4,10.9C20.2,27.8,19.9,27.8,19.7,27.8z M23.1,27.6c2.5-3.5,4.5-7.1,6-10.7h11.8
	C36.8,22.6,30.4,26.7,23.1,27.6z M42.1,14.9H29.8c1.3-3.7,2.2-7.3,2.5-11h13.3C45.2,7.9,44,11.6,42.1,14.9z M32.4,1.9
	c0.1-3.7-0.3-7.4-1.3-11h12.1c1.6,3.3,2.5,7,2.5,10.9c0,0,0,0,0,0H32.4z"/>
</svg>
