<?xml version="1.0" encoding="utf-8"?>
<!-- Generator: Adobe Illustrator 18.1.1, SVG Export Plug-In . SVG Version: 6.00 Build 0)  -->
<svg version="1.1" id="data_science" xmlns="http://www.w3.org/2000/svg" xmlns:xlink="http://www.w3.org/1999/xlink" x="0px"
	 y="0px" viewBox="7.7 -14.8 71.4 50.4" enable-background="new 7.7 -14.8 71.4 50.4" xml:space="preserve">
<linearGradient id="icon_virtual-capital" gradientUnits="userSpaceOnUse" x1="37.5482" y1="37.4056" x2="47.4772" y2="-18.9045">
	<stop  offset="0" style="stop-color:#6DB33F"/>
	<stop  offset="1" style="stop-color:#72CDF4"/>
</linearGradient>
<path fill="url(#icon_virtual-capital)" d="M70.5-14.8H10.9c-1.7,0-3.1,1.4-3.1,3.1v35.3c0,1.7,1.4,3.1,3.1,3.1h23.4v7h-6.8
	c-0.5,0-0.9,0.4-0.9,0.9c0,0.5,0.4,0.9,0.9,0.9h26.5c0.5,0,0.9-0.4,0.9-0.9c0-0.5-0.4-0.9-0.9-0.9h-6.6v-7h6.4
	c-0.3-0.6-0.7-1.2-0.9-1.8H10.9c-0.7,0-1.3-0.6-1.3-1.3v-35.3c0-0.7,0.6-1.3,1.3-1.3h59.6c0.7,0,1.3,0.6,1.3,1.3V4.9
	c0.6,0.2,1.3,0.5,1.8,0.8v-17.4C73.6-13.4,72.2-14.8,70.5-14.8z M36.1,33.8v-7h9v7H36.1z M66.7,31.5c-6.8,0-12.4-5.5-12.4-12.4
	c0-6.8,5.5-12.4,12.4-12.4c6.8,0,12.4,5.5,12.4,12.4C79.1,26,73.6,31.5,66.7,31.5z M66.7,8.6c-5.8,0-10.5,4.7-10.5,10.5
	s4.7,10.5,10.5,10.5c5.8,0,10.5-4.7,10.5-10.5S72.5,8.6,66.7,8.6z M67.2,18.3v-3.1c0.7,0.2,1.2,0.8,1.2,1.5c0,0.5,0.4,0.9,0.9,0.9
	c0.5,0,0.9-0.4,0.9-0.9c0-1.7-1.3-3.2-3-3.4v-0.8c0-0.2-0.2-0.4-0.4-0.4s-0.4,0.2-0.4,0.4v0.8c-1.7,0.2-3,1.6-3,3.4
	c0,1.7,1.3,3.2,3,3.4v3.1c-0.7-0.2-1.2-0.8-1.2-1.5c0-0.5-0.4-0.9-0.9-0.9c-0.5,0-0.9,0.4-0.9,0.9c0,1.7,1.3,3.2,3,3.4v0.8
	c0,0.2,0.2,0.4,0.4,0.4s0.4-0.2,0.4-0.4V25c1.7-0.2,3-1.6,3-3.4C70.2,19.9,68.8,18.5,67.2,18.3z M65.2,16.7c0-0.7,0.5-1.3,1.2-1.5v3
	C65.7,18,65.2,17.4,65.2,16.7z M67.2,23.2v-3c0.7,0.2,1.2,0.8,1.2,1.5S67.8,23,67.2,23.2z M52,22.4H12.1v-32.7h57V4.2
	c-0.6-0.1-1.2-0.2-1.8-0.2V-8.5H14v29.1h37.7C51.7,21.1,51.8,21.8,52,22.4z"/>
</svg>
