<?xml version="1.0" encoding="utf-8"?>
<!-- Generator: Adobe Illustrator 18.1.1, SVG Export Plug-In . SVG Version: 6.00 Build 0)  -->
<svg version="1.1" id="future_of_work2" xmlns="http://www.w3.org/2000/svg" xmlns:xlink="http://www.w3.org/1999/xlink" x="0px"
	 y="0px" viewBox="0 0 38.1 60" enable-background="new 0 0 38.1 60" xml:space="preserve">
<linearGradient id="SVGID_1_" gradientUnits="userSpaceOnUse" x1="13.9088" y1="59.9062" x2="24.3459" y2="0.7147">
	<stop  offset="0" style="stop-color:#6DB33F"/>
	<stop  offset="1" style="stop-color:#72CDF4"/>
</linearGradient>
<path fill="none" stroke="url(#SVGID_1_)" stroke-width="2" stroke-linejoin="round" stroke-miterlimit="10" d="M14.5,20
	c0-2.1,2-4,4-4c2.1,0,4,1.9,4,4v15l11.9,3.8c2.5,0.8,3.1,3.8,2.5,6.3L34.5,59h-20L4,43.9c-1.1-1.8-1.2-5,1.3-5
	c2.5,0,4.2,0.4,9.2,8.2L14.5,20z M31.1,31.1c6.9-6.9,6.9-18.1,0-25c-6.9-6.9-18.1-6.9-25,0c-6.9,6.9-6.9,18.1,0,25 M31.1,31.1
	c6.9-6.9,6.9-18.1,0-25c-6.9-6.9-18.1-6.9-25,0c-6.9,6.9-6.9,18.1,0,25 M27.4,27.4c4.9-4.9,4.9-12.7,0-17.6C22.6,5,14.7,5,9.9,9.9
	C5,14.7,5,22.6,9.9,27.4"/>
</svg>
