<svg version="1.2" baseProfile="tiny" xmlns="http://www.w3.org/2000/svg" viewBox="0 0 2560 600"><path fill="#C9E2F6" d="M258.4 118.5L323-4l64.6 122.5"/><path fill="#D1E6F7" d="M452.1-4l-64.5 122.5L323-4"/><path fill="#E7F2FB" d="M387.6 118.5L452.1-4l64.6 122.5"/><path fill="#ECF4FC" d="M581.3-4l-64.6 122.5L452.1-4"/><path fill="#E7F2FB" d="M516.7 118.5L581.3-4l64.6 122.5"/><path fill="#ECF4FC" d="M710.5-4l-64.6 122.5L581.3-4"/><path fill="#F0F7FD" d="M645.9 118.5L710.5-4l64.6 122.5"/><path fill="#F3F9FD" d="M839.7-4l-64.6 122.5L710.5-4"/><path fill="#FCFEFF" d="M775.1 118.5L839.7-4l64.6 122.5"/><path fill="#F3F9FD" d="M968.9-4l-64.6 122.5L839.7-4"/><path fill="#FCFEFF" d="M904.3 118.5L968.9-4l64.6 122.5"/><path fill="#F3F9FD" d="M1098.1-4l-64.6 122.5L968.9-4"/><path fill="#FCFEFF" d="M1033.5 118.5L1098.1-4l64.6 122.5"/><path fill="#F3F9FD" d="M1227.3-4l-64.6 122.5L1098.1-4"/><path fill="#FCFEFF" d="M1162.7 118.5L1227.3-4l64.6 122.5M1356.4-4l-64.5 122.5L1227.3-4"/><path fill="#C5E0F5" d="M387.6 118.5L323 241.1l-64.6-122.6"/><path fill="#CFE5F7" d="M323 241.1l64.6-122.6 64.5 122.6"/><path fill="#E3F0FA" d="M516.7 118.5l-64.6 122.6-64.5-122.6"/><path fill="#EAF4FB" d="M452.1 241.1l64.6-122.6 64.6 122.6"/><path fill="#E3F0FA" d="M645.9 118.5l-64.6 122.6-64.6-122.6"/><path fill="#EAF4FB" d="M581.3 241.1l64.6-122.6 64.6 122.6"/><path fill="#EEF5FC" d="M775.1 118.5l-64.6 122.6-64.6-122.6"/><path fill="#F2F8FD" d="M710.5 241.1l64.6-122.6 64.6 122.6"/><path fill="#F4F9FD" d="M904.3 118.5l-64.6 122.6-64.6-122.6"/><path fill="#FCFEFF" d="M839.7 241.1l64.6-122.6 64.6 122.6"/><path fill="#F2F8FD" d="M1033.5 118.5l-64.6 122.6-64.6-122.6"/><path fill="#FCFEFF" d="M968.9 241.1l64.6-122.6 64.6 122.6"/><path fill="#F2F8FD" d="M1162.7 118.5l-64.6 122.6-64.6-122.6"/><path fill="#FCFEFF" d="M1098.1 241.1l64.6-122.6 64.6 122.6"/><path fill="#F2F8FD" d="M1291.9 118.5l-64.6 122.6-64.6-122.6"/><path fill="#FCFEFF" d="M1227.3 241.1l64.6-122.6 64.5 122.6"/><path fill="#C1DFF5" d="M258.4 363.6L323 241.1l64.6 122.5"/><path fill="#C9E2F6" d="M452.1 241.1l-64.5 122.5L323 241.1"/><path fill="#E0EEF9" d="M387.6 363.6l64.5-122.5 64.6 122.5"/><path fill="#E4F0FA" d="M581.3 241.1l-64.6 122.5-64.6-122.5"/><path fill="#E0EEF9" d="M516.7 363.6l64.6-122.5 64.6 122.5"/><path fill="#E4F0FA" d="M710.5 241.1l-64.6 122.5-64.6-122.5"/><path fill="#EBF4FC" d="M645.9 363.6l64.6-122.5 64.6 122.5"/><path fill="#EEF6FC" d="M839.7 241.1l-64.6 122.5-64.6-122.5"/><path fill="#F2F8FD" d="M775.1 363.6l64.6-122.5 64.6 122.5"/><path fill="#F4F9FD" d="M968.9 241.1l-64.6 122.5-64.6-122.5"/><path fill="#FCFEFF" d="M904.3 363.6l64.6-122.5 64.6 122.5"/><path fill="#F4F9FD" d="M1098.1 241.1l-64.6 122.5-64.6-122.5"/><path fill="#FCFEFF" d="M1033.5 363.6l64.6-122.5 64.6 122.5"/><path fill="#F4F9FD" d="M1227.3 241.1l-64.6 122.5-64.6-122.5"/><path fill="#FCFEFF" d="M1162.7 363.6l64.6-122.5 64.6 122.5M1356.4 241.1l-64.5 122.5-64.6-122.5"/><path fill="#AAD1EE" d="M387.6 363.6L323 486.1l-64.6-122.5"/><path fill="#C2DEF4" d="M323 486.1l64.6-122.5 64.5 122.5"/><path fill="#D2E6F6" d="M516.7 363.6l-64.6 122.5-64.5-122.5"/><path fill="#DFEEF9" d="M452.1 486.1l64.6-122.5 64.6 122.5"/><path fill="#D2E6F6" d="M645.9 363.6l-64.6 122.5-64.6-122.5"/><path fill="#DFEEF9" d="M581.3 486.1l64.6-122.5 64.6 122.5"/><path fill="#DDECF8" d="M775.1 363.6l-64.6 122.5-64.6-122.5"/><path fill="#E9F3FB" d="M710.5 486.1l64.6-122.5 64.6 122.5"/><path fill="#E3F0FA" d="M904.3 363.6l-64.6 122.5-64.6-122.5"/><path fill="#EDF6FC" d="M839.7 486.1l64.6-122.5 64.6 122.5"/><path fill="#E3F0FA" d="M1033.5 363.6l-64.6 122.5-64.6-122.5"/><path fill="#EDF6FC" d="M968.9 486.1l64.6-122.5 64.6 122.5"/><path fill="#E3F0FA" d="M1162.7 363.6l-64.6 122.5-64.6-122.5"/><path fill="#EDF6FC" d="M1098.1 486.1l64.6-122.5 64.6 122.5"/><path fill="#E3F0FA" d="M1291.9 363.6l-64.6 122.5-64.6-122.5"/><path fill="#C6E0F1" d="M1227.3 486.1l64.6-122.5 64.5 122.5"/><path fill="#A2CDEC" d="M258.4 608.6L323 486.1l64.6 122.5"/><path fill="#AED3EE" d="M452.1 486.1l-64.5 122.5L323 486.1"/><path fill="#B5D6F0" d="M387.6 608.6l64.5-122.5 64.6 122.5"/><path fill="#BDDCF2" d="M581.3 486.1l-64.6 122.5-64.6-122.5"/><path fill="#CEE4F5" d="M516.7 608.6l64.6-122.5 64.6 122.5"/><path fill="#C5DFF3" d="M710.5 486.1l-64.6 122.5-64.6-122.5"/><path fill="#CEE4F5" d="M645.9 608.6l64.6-122.5 64.6 122.5"/><path fill="#C1DCF0" d="M839.7 486.1l-64.6 122.5-64.6-122.5"/><path fill="#CCE2F3" d="M775.1 608.6l64.6-122.5 64.6 122.5"/><path fill="#B8D7EC" d="M968.9 486.1l-64.6 122.5-64.6-122.5"/><path fill="#BFDBEE" d="M904.3 608.6l64.6-122.5 64.6 122.5"/><path fill="#B1D3EA" d="M1098.1 486.1l-64.6 122.5-64.6-122.5"/><path fill="#B4D5EB" d="M1033.5 608.6l64.6-122.5 64.6 122.5"/><path fill="#AED2E9" d="M1227.3 486.1l-64.6 122.5-64.6-122.5"/><path fill="#B3D5EA" d="M1162.7 608.6l64.6-122.5 64.6 122.5"/><path fill="#A5CBE5" d="M1356.4 486.1l-64.5 122.5-64.6-122.5"/><path fill="#D1E6F7" d="M258.4-4H323l-64.6 122.5"/><path fill="#C9E2F6" d="M258.4 241.1H323l-64.6 122.5"/><path fill="#CFE5F7" d="M258.4 241.1H323l-64.6-122.6"/><path fill="#85BFE5" d="M258.4 486.1H323l-64.6 122.5"/><path fill="#AAD1EE" d="M258.4 486.1H323l-64.6-122.5"/><path fill="#C9E2F6" d="M0 118.5L64.6-4l64.6 122.5"/><path fill="#D1E6F7" d="M193.8-4l-64.6 122.5L64.6-4"/><path fill="#D9EAF8" d="M129.2 118.5L193.8-4l64.6 122.5"/><path fill="#DFEDF9" d="M323-4l-64.6 122.5L193.8-4"/><path fill="#E7F2FB" d="M258.4 118.5L323-4l64.6 122.5"/><path fill="#ECF4FC" d="M452.1-4l-64.5 122.5L323-4"/><path fill="#C5E0F5" d="M129.2 118.5L64.6 241.1 0 118.5"/><path fill="#CFE5F7" d="M64.6 241.1l64.6-122.6 64.6 122.6"/><path fill="#D5E8F8" d="M258.4 118.5l-64.6 122.6-64.6-122.6"/><path fill="#DDECF9" d="M193.8 241.1l64.6-122.6L323 241.1"/><path fill="#E3F0FA" d="M387.6 118.5L323 241.1l-64.6-122.6"/><path fill="#EAF4FB" d="M323 241.1l64.6-122.6 64.5 122.6"/><path fill="#C1DFF5" d="M0 363.6l64.6-122.5 64.6 122.5"/><path fill="#C9E2F6" d="M193.8 241.1l-64.6 122.5-64.6-122.5"/><path fill="#D2E7F7" d="M129.2 363.6l64.6-122.5 64.6 122.5"/><path fill="#D7E9F8" d="M323 241.1l-64.6 122.5-64.6-122.5"/><path fill="#E0EEF9" d="M258.4 363.6L323 241.1l64.6 122.5"/><path fill="#E4F0FA" d="M452.1 241.1l-64.5 122.5L323 241.1"/><path fill="#AAD1EE" d="M129.2 363.6L64.6 486.1 0 363.6"/><path fill="#C2DEF4" d="M64.6 486.1l64.6-122.5 64.6 122.5"/><path fill="#C1DEF3" d="M258.4 363.6l-64.6 122.5-64.6-122.5"/><path fill="#D3E7F7" d="M193.8 486.1l64.6-122.5L323 486.1"/><path fill="#D2E6F6" d="M387.6 363.6L323 486.1l-64.6-122.5"/><path fill="#DFEEF9" d="M323 486.1l64.6-122.5 64.5 122.5"/><path fill="#A2CDEC" d="M0 608.6l64.6-122.5 64.6 122.5"/><path fill="#AED3EE" d="M193.8 486.1l-64.6 122.5-64.6-122.5"/><path fill="#B5D6F0" d="M129.2 608.6l64.6-122.5 64.6 122.5"/><path fill="#BDDCF2" d="M323 486.1l-64.6 122.5-64.6-122.5"/><path fill="#B5D6F0" d="M258.4 608.6L323 486.1l64.6 122.5"/><path fill="#C5DFF3" d="M452.1 486.1l-64.5 122.5L323 486.1"/><path fill="#D1E6F7" d="M0-4h64.6L0 118.5"/><path fill="#C9E2F6" d="M0 241.1h64.6L0 363.6"/><path fill="#CFE5F7" d="M0 241.1h64.6L0 118.5"/><path fill="#85BFE5" d="M0 486.1h64.6L0 608.6"/><path fill="#AAD1EE" d="M0 486.1h64.6L0 363.6"/><path fill="#C9E2F6" d="M2325.3 118.5L2260.7-4l-64.5 122.5"/><path fill="#D1E6F7" d="M2131.6-4l64.6 122.5L2260.7-4"/><path fill="#E7F2FB" d="M2196.2 118.5L2131.6-4 2067 118.5"/><path fill="#ECF4FC" d="M2002.4-4l64.6 122.5L2131.6-4"/><path fill="#E7F2FB" d="M2067 118.5L2002.4-4l-64.6 122.5"/><path fill="#ECF4FC" d="M1873.2-4l64.6 122.5L2002.4-4"/><path fill="#F0F7FD" d="M1937.8 118.5L1873.2-4l-64.6 122.5"/><path fill="#F3F9FD" d="M1744-4l64.6 122.5L1873.2-4"/><path fill="#FCFEFF" d="M1808.6 118.5L1744-4l-64.6 122.5"/><path fill="#F3F9FD" d="M1614.8-4l64.6 122.5L1744-4"/><path fill="#FCFEFF" d="M1679.4 118.5L1614.8-4l-64.6 122.5"/><path fill="#F3F9FD" d="M1485.6-4l64.6 122.5L1614.8-4"/><path fill="#FCFEFF" d="M1550.2 118.5L1485.6-4 1421 118.5"/><path fill="#F3F9FD" d="M1356.4-4l64.6 122.5L1485.6-4"/><path fill="#FCFEFF" d="M1421 118.5L1356.4-4l-64.5 122.5"/><path fill="#F3F9FD" d="M1227.3-4l64.6 122.5L1356.4-4"/><path fill="#C5E0F5" d="M2196.2 118.5l64.5 122.6 64.6-122.6"/><path fill="#CFE5F7" d="M2260.7 241.1l-64.5-122.6-64.6 122.6"/><path fill="#E3F0FA" d="M2067 118.5l64.6 122.6 64.6-122.6"/><path fill="#EAF4FB" d="M2131.6 241.1L2067 118.5l-64.6 122.6"/><path fill="#E3F0FA" d="M1937.8 118.5l64.6 122.6 64.6-122.6"/><path fill="#EAF4FB" d="M2002.4 241.1l-64.6-122.6-64.6 122.6"/><path fill="#EEF5FC" d="M1808.6 118.5l64.6 122.6 64.6-122.6"/><path fill="#F2F8FD" d="M1873.2 241.1l-64.6-122.6-64.6 122.6"/><path fill="#F4F9FD" d="M1679.4 118.5l64.6 122.6 64.6-122.6"/><path fill="#FCFEFF" d="M1744 241.1l-64.6-122.6-64.6 122.6"/><path fill="#F2F8FD" d="M1550.2 118.5l64.6 122.6 64.6-122.6"/><path fill="#FCFEFF" d="M1614.8 241.1l-64.6-122.6-64.6 122.6"/><path fill="#F2F8FD" d="M1421 118.5l64.6 122.6 64.6-122.6"/><path fill="#FCFEFF" d="M1485.6 241.1L1421 118.5l-64.6 122.6"/><path fill="#F2F8FD" d="M1291.9 118.5l64.5 122.6 64.6-122.6"/><path fill="#FCFEFF" d="M1356.4 241.1l-64.5-122.6-64.6 122.6"/><path fill="#C1DFF5" d="M2325.3 363.6l-64.6-122.5-64.5 122.5"/><path fill="#C9E2F6" d="M2131.6 241.1l64.6 122.5 64.5-122.5"/><path fill="#E0EEF9" d="M2196.2 363.6l-64.6-122.5-64.6 122.5"/><path fill="#E4F0FA" d="M2002.4 241.1l64.6 122.5 64.6-122.5"/><path fill="#E0EEF9" d="M2067 363.6l-64.6-122.5-64.6 122.5"/><path fill="#E4F0FA" d="M1873.2 241.1l64.6 122.5 64.6-122.5"/><path fill="#EBF4FC" d="M1937.8 363.6l-64.6-122.5-64.6 122.5"/><path fill="#EEF6FC" d="M1744 241.1l64.6 122.5 64.6-122.5"/><path fill="#F2F8FD" d="M1808.6 363.6L1744 241.1l-64.6 122.5"/><path fill="#F4F9FD" d="M1614.8 241.1l64.6 122.5 64.6-122.5"/><path fill="#FCFEFF" d="M1679.4 363.6l-64.6-122.5-64.6 122.5"/><path fill="#F4F9FD" d="M1485.6 241.1l64.6 122.5 64.6-122.5"/><path fill="#FCFEFF" d="M1550.2 363.6l-64.6-122.5-64.6 122.5"/><path fill="#F4F9FD" d="M1356.4 241.1l64.6 122.5 64.6-122.5"/><path fill="#FCFEFF" d="M1421 363.6l-64.6-122.5-64.5 122.5"/><path fill="#F4F9FD" d="M1227.3 241.1l64.6 122.5 64.5-122.5"/><path fill="#AAD1EE" d="M2196.2 363.6l64.5 122.5 64.6-122.5"/><path fill="#C2DEF4" d="M2260.7 486.1l-64.5-122.5-64.6 122.5"/><path fill="#D2E6F6" d="M2067 363.6l64.6 122.5 64.6-122.5"/><path fill="#DFEEF9" d="M2131.6 486.1L2067 363.6l-64.6 122.5"/><path fill="#D2E6F6" d="M1937.8 363.6l64.6 122.5 64.6-122.5"/><path fill="#DFEEF9" d="M2002.4 486.1l-64.6-122.5-64.6 122.5"/><path fill="#DDECF8" d="M1808.6 363.6l64.6 122.5 64.6-122.5"/><path fill="#E9F3FB" d="M1873.2 486.1l-64.6-122.5-64.6 122.5"/><path fill="#E3F0FA" d="M1679.4 363.6l64.6 122.5 64.6-122.5"/><path fill="#EDF6FC" d="M1744 486.1l-64.6-122.5-64.6 122.5"/><path fill="#E3F0FA" d="M1550.2 363.6l64.6 122.5 64.6-122.5"/><path fill="#EDF6FC" d="M1614.8 486.1l-64.6-122.5-64.6 122.5"/><path fill="#E3F0FA" d="M1421 363.6l64.6 122.5 64.6-122.5"/><path fill="#EDF6FC" d="M1485.6 486.1L1421 363.6l-64.6 122.5"/><path fill="#E3F0FA" d="M1291.9 363.6l64.5 122.5 64.6-122.5"/><path fill="#EDF6FC" d="M1356.4 486.1l-64.5-122.5-64.6 122.5"/><path fill="#A2CDEC" d="M2325.3 608.6l-64.6-122.5-64.5 122.5"/><path fill="#AED3EE" d="M2131.6 486.1l64.6 122.5 64.5-122.5"/><path fill="#B5D6F0" d="M2196.2 608.6l-64.6-122.5-64.6 122.5"/><path fill="#BDDCF2" d="M2002.4 486.1l64.6 122.5 64.6-122.5"/><path fill="#CEE4F5" d="M2067 608.6l-64.6-122.5-64.6 122.5"/><path fill="#C5DFF3" d="M1873.2 486.1l64.6 122.5 64.6-122.5"/><path fill="#CEE4F5" d="M1937.8 608.6l-64.6-122.5-64.6 122.5"/><path fill="#C1DCF0" d="M1744 486.1l64.6 122.5 64.6-122.5"/><path fill="#CCE2F3" d="M1808.6 608.6L1744 486.1l-64.6 122.5"/><path fill="#B8D7EC" d="M1614.8 486.1l64.6 122.5 64.6-122.5"/><path fill="#BFDBEE" d="M1679.4 608.6l-64.6-122.5-64.6 122.5"/><path fill="#B1D3EA" d="M1485.6 486.1l64.6 122.5 64.6-122.5"/><path fill="#B4D5EB" d="M1550.2 608.6l-64.6-122.5-64.6 122.5"/><path fill="#AED2E9" d="M1356.4 486.1l64.6 122.5 64.6-122.5"/><path fill="#B3D5EA" d="M1421 608.6l-64.6-122.5-64.5 122.5"/><path fill="#A5CBE5" d="M1227.3 486.1l64.6 122.5 64.5-122.5"/><path fill="#D1E6F7" d="M2325.3-4h-64.6l64.6 122.5"/><path fill="#C9E2F6" d="M2325.3 241.1h-64.6l64.6 122.5"/><path fill="#CFE5F7" d="M2325.3 241.1h-64.6l64.6-122.6"/><path fill="#85BFE5" d="M2325.3 486.1h-64.6l64.6 122.5"/><path fill="#AAD1EE" d="M2325.3 486.1h-64.6l64.6-122.5"/><path fill="#C9E2F6" d="M2583.7 118.5L2519.1-4l-64.6 122.5"/><path fill="#D1E6F7" d="M2389.9-4l64.6 122.5L2519.1-4"/><path fill="#D9EAF8" d="M2454.5 118.5L2389.9-4l-64.6 122.5"/><path fill="#DFEDF9" d="M2260.7-4l64.6 122.5L2389.9-4"/><path fill="#E7F2FB" d="M2325.3 118.5L2260.7-4l-64.5 122.5"/><path fill="#ECF4FC" d="M2131.6-4l64.6 122.5L2260.7-4"/><path fill="#C5E0F5" d="M2454.5 118.5l64.6 122.6 64.6-122.6"/><path fill="#CFE5F7" d="M2519.1 241.1l-64.6-122.6-64.6 122.6"/><path fill="#D5E8F8" d="M2325.3 118.5l64.6 122.6 64.6-122.6"/><path fill="#DDECF9" d="M2389.9 241.1l-64.6-122.6-64.6 122.6"/><path fill="#E3F0FA" d="M2196.2 118.5l64.5 122.6 64.6-122.6"/><path fill="#EAF4FB" d="M2260.7 241.1l-64.5-122.6-64.6 122.6"/><path fill="#C1DFF5" d="M2583.7 363.6l-64.6-122.5-64.6 122.5"/><path fill="#C9E2F6" d="M2389.9 241.1l64.6 122.5 64.6-122.5"/><path fill="#D2E7F7" d="M2454.5 363.6l-64.6-122.5-64.6 122.5"/><path fill="#D7E9F8" d="M2260.7 241.1l64.6 122.5 64.6-122.5"/><path fill="#E0EEF9" d="M2325.3 363.6l-64.6-122.5-64.5 122.5"/><path fill="#E4F0FA" d="M2131.6 241.1l64.6 122.5 64.5-122.5"/><path fill="#AAD1EE" d="M2454.5 363.6l64.6 122.5 64.6-122.5"/><path fill="#C2DEF4" d="M2519.1 486.1l-64.6-122.5-64.6 122.5"/><path fill="#C1DEF3" d="M2325.3 363.6l64.6 122.5 64.6-122.5"/><path fill="#D3E7F7" d="M2389.9 486.1l-64.6-122.5-64.6 122.5"/><path fill="#D2E6F6" d="M2196.2 363.6l64.5 122.5 64.6-122.5"/><path fill="#DFEEF9" d="M2260.7 486.1l-64.5-122.5-64.6 122.5"/><path fill="#A2CDEC" d="M2583.7 608.6l-64.6-122.5-64.6 122.5"/><path fill="#AED3EE" d="M2389.9 486.1l64.6 122.5 64.6-122.5"/><path fill="#B5D6F0" d="M2454.5 608.6l-64.6-122.5-64.6 122.5"/><path fill="#BDDCF2" d="M2260.7 486.1l64.6 122.5 64.6-122.5"/><path fill="#B5D6F0" d="M2325.3 608.6l-64.6-122.5-64.5 122.5"/><path fill="#C5DFF3" d="M2131.6 486.1l64.6 122.5 64.5-122.5"/><path fill="#D1E6F7" d="M2583.7-4h-64.6l64.6 122.5"/><g><path fill="#C9E2F6" d="M2583.7 241.1h-64.6l64.6 122.5"/><path fill="#CFE5F7" d="M2583.7 241.1h-64.6l64.6-122.6"/></g><g><path fill="#85BFE5" d="M2583.7 486.1h-64.6l64.6 122.5"/><path fill="#AAD1EE" d="M2583.7 486.1h-64.6l64.6-122.5"/></g></svg>