<svg version="1.2" baseProfile="tiny" xmlns="http://www.w3.org/2000/svg" width="246" height="82" viewBox="-767 -2.2 246 82"><path fill="#FFF" d="M-767-2.2v82h246v-82h-246zm150.4 27.1v1.7c0 18.5-14.1 39.9-39.9 39.9-8.1 0-15.4-2.3-21.5-6.4 1 0 2.3.3 3.4.3 6.7 0 12.8-2.3 17.4-6-6 0-11.4-4-13.1-9.7.7.3 1.3.3 2.3.3 1.3 0 2.7 0 3.7-.3-6.4-1.3-11.4-7-11.4-13.8v-.3c2 1 4.4 1.7 6.4 1.7-3.7-2.7-6.4-6.7-6.4-11.7.3-2.3 1-5 2-7 7 8.7 17.4 14.1 29.2 14.8-.3-1-.3-2-.3-3.4 0-7.7 6.4-14.1 14.1-14.1 4 0 7.7 1.7 10.4 4.4 3.4-.7 6.4-1.7 9.1-3.4-1 3.4-3.4 6-6 7.7 2.7-.3 5.7-1 8.1-2.3-2.5 3.3-4.9 5.6-7.5 7.6z"/></svg>