<?xml version="1.0" encoding="utf-8"?>
<!-- Generator: Adobe Illustrator 18.1.1, SVG Export Plug-In . SVG Version: 6.00 Build 0)  -->
<svg version="1.1" id="data_science" xmlns="http://www.w3.org/2000/svg" xmlns:xlink="http://www.w3.org/1999/xlink" x="0px"
	 y="0px" viewBox="8.8 -14.6 75.4 50.4" enable-background="new 8.8 -14.6 75.4 50.4" xml:space="preserve">
<linearGradient id="SVGID_1_" gradientUnits="userSpaceOnUse" x1="76.1679" y1="-74.4563" x2="95.1278" y2="33.0709" gradientTransform="matrix(0.5628 0 0 -0.5628 2.31 0.1455)">
	<stop  offset="0" style="stop-color:#6DB33F"/>
	<stop  offset="1" style="stop-color:#72CDF4"/>
</linearGradient>
<path fill="url(#SVGID_1_)" d="M82.9,33.2h-3.7v-46.5c0-0.7-0.7-1.3-1.3-1.3h-10c-0.7,0-1.3,0.7-1.3,1.3v46.5h-5V9.3
	c0-0.7-0.7-1.3-1.3-1.3h-10C49.6,8,49,8.7,49,9.3v23.9h-5V1.7c0-0.7-0.7-1.3-1.3-1.3h-10c-0.7,0-1.3,0.7-1.3,1.3v31.5h-5V19.3
	c0-0.7-0.7-1.3-1.3-1.3h-10c-0.7,0-1.3,0.7-1.3,1.3v13.9h-3.7c-0.7,0-1.3,0.7-1.3,1.3c0,0.7,0.7,1.3,1.3,1.3h5h10h7.6h10h7.6h10h7.6
	h10h5c0.7,0,1.3-0.7,1.3-1.3C84.2,33.7,83.8,33.2,82.9,33.2z M16.4,33.2V20.6H24v12.6H16.4z M34,33.2V3h7.6v30.2H34z M51.6,33.2
	V10.6h7.6v22.6H51.6z M69.2,33.2V-12h7.6v45.2H69.2z"/>
</svg>
