<?xml version="1.0" encoding="utf-8"?>
<!-- Generator: Adobe Illustrator 18.1.1, SVG Export Plug-In . SVG Version: 6.00 Build 0)  -->
<svg version="1.1" id="data_science" xmlns="http://www.w3.org/2000/svg" xmlns:xlink="http://www.w3.org/1999/xlink" x="0px"
	 y="0px" viewBox="28.1 -14.8 36.5 50.5" enable-background="new 28.1 -14.8 36.5 50.5" xml:space="preserve">
<linearGradient id="SVGID_1_" gradientUnits="userSpaceOnUse" x1="40.1658" y1="36.9659" x2="49.4304" y2="-15.5762">
	<stop  offset="0" style="stop-color:#6DB33F"/>
	<stop  offset="1" style="stop-color:#72CDF4"/>
</linearGradient>
<path fill="url(#SVGID_1_)" d="M57.6,18.2c-0.5,0-0.8,0.4-0.8,0.8v6.5H29.8V-4.7h26.9v1.9c0,0.5,0.4,0.8,0.8,0.8
	c0.5,0,0.8-0.4,0.8-0.8v-6.9c0-2.8-2.3-5-5-5H33.2c-2.8,0-5,2.3-5,5v40.4c0,2.8,2.3,5,5,5h20.2c2.8,0,5-2.3,5-5V19
	C58.4,18.6,58,18.2,57.6,18.2z M33.2-13.1h20.2c1.9,0,3.4,1.5,3.4,3.4v3.4H29.8v-3.4C29.8-11.6,31.3-13.1,33.2-13.1z M53.4,34H33.2
	c-1.9,0-3.4-1.5-3.4-3.4v-3.4h26.9v3.4C56.7,32.5,55.2,34,53.4,34z M36.5-8.9c0-0.5,0.4-0.8,0.8-0.8h11.8c0.5,0,0.8,0.4,0.8,0.8
	s-0.4,0.8-0.8,0.8H37.4C36.9-8.1,36.5-8.5,36.5-8.9z M43.3,28.1c-1.4,0-2.5,1.1-2.5,2.5c0,1.4,1.1,2.5,2.5,2.5s2.5-1.1,2.5-2.5
	C45.8,29.2,44.7,28.1,43.3,28.1z M43.3,31.5c-0.5,0-0.8-0.4-0.8-0.8s0.4-0.8,0.8-0.8s0.8,0.4,0.8,0.8S43.7,31.5,43.3,31.5z
	 M64.6,2.3v11.2c0,1.6-1.3,2.9-2.9,2.9H47l-4.7,3.3c-0.1,0.1-0.3,0.1-0.5,0.1c-0.3,0-0.5-0.1-0.7-0.4c-0.3-0.4-0.2-0.9,0.2-1.2
	l4.9-3.4c0,0,0.1,0,0.1,0c0,0,0.1,0,0.2-0.1c0.1,0,0.1,0,0.2,0c0,0,0.1,0,0.1,0h14.9c0.7,0,1.3-0.6,1.3-1.3V2.3
	c0-0.7-0.6-1.3-1.3-1.3H43.9c-0.7,0-1.3,0.6-1.3,1.3v11.2c0,0.5-0.4,0.8-0.8,0.8c-0.5,0-0.8-0.4-0.8-0.8V2.3c0-1.6,1.3-2.9,2.9-2.9
	h17.7C63.3-0.6,64.6,0.7,64.6,2.3z"/>
</svg>
