<?xml version="1.0" encoding="utf-8"?>
<!-- Generator: Adobe Illustrator 18.1.1, SVG Export Plug-In . SVG Version: 6.00 Build 0)  -->
<svg version="1.2" baseProfile="tiny" xmlns="http://www.w3.org/2000/svg" xmlns:xlink="http://www.w3.org/1999/xlink" x="0px"
	 y="0px" viewBox="0 0 2560 600" xml:space="preserve">
<g id="Layer_3" display="none">
	<polygon display="inline" fill="#FBFDFF" points="910.4,-88 863.8,-7.6 817.1,-88 	"/>
	<polygon display="inline" fill="#FCFEFF" points="863.8,-7.6 910.4,-88 957,-7.6 	"/>
	<polygon display="inline" fill="#F9FDFE" points="1003.7,-88 957,-7.6 910.4,-88 	"/>
	<polygon display="inline" fill="#FEFFFF" points="957,-7.6 1003.7,-88 1050.3,-7.6 	"/>
	<polygon display="inline" fill="#F1F9FE" points="1096.9,-88 1050.3,-7.6 1003.7,-88 	"/>
	<polygon display="inline" fill="#F9FDFF" points="1050.3,-7.6 1096.9,-88 1143.6,-7.6 	"/>
	<polygon display="inline" fill="#EFF9FE" points="1190.2,-88 1143.6,-7.6 1096.9,-88 	"/>
	<polygon display="inline" fill="#EFF9FE" points="1143.6,-7.6 1190.2,-88 1236.9,-7.6 	"/>
	<polygon display="inline" fill="#E2F1FA" points="1283.5,-88 1236.9,-7.6 1190.2,-88 	"/>
	<polygon display="inline" fill="#F2F9FE" points="1236.9,-7.6 1283.5,-88 1330.1,-7.6 	"/>
	<polygon display="inline" fill="#D4EDF7" points="1376.8,-88 1330.1,-7.6 1283.5,-88 	"/>
	<polygon display="inline" fill="#C1E5F5" points="1330.1,-7.6 1376.8,-88 1423.4,-7.6 	"/>
	<polygon display="inline" fill="#BDE3F3" points="1470.1,-88 1423.4,-7.6 1376.8,-88 	"/>
	<polygon display="inline" fill="#B8DEF2" points="1423.4,-7.6 1470.1,-88 1516.7,-7.6 	"/>
	<polygon display="inline" fill="#ADD8EF" points="1563.3,-88 1516.7,-7.6 1470.1,-88 	"/>
	<polygon display="inline" fill="#73CCF3" points="1516.7,-7.6 1563.3,-88 1610,-7.6 	"/>
	<polygon display="inline" fill="#A8D4ED" points="1656.6,-88 1610,-7.6 1563.3,-88 	"/>
	<polygon display="inline" fill="#A7D3EE" points="1610,-7.6 1656.6,-88 1703.3,-7.6 	"/>
	<polygon display="inline" fill="#AAD6EF" points="1749.9,-88 1703.3,-7.6 1656.6,-88 	"/>
	<polygon display="inline" fill="#73CCF3" points="1703.3,-7.6 1749.9,-88 1796.5,-7.6 	"/>
	<polygon display="inline" fill="#5AAADD" points="1843.2,-88 1796.5,-7.6 1749.9,-88 	"/>
	<polygon display="inline" fill="#FDFEFF" points="817.1,72.7 863.8,-7.6 910.4,72.7 	"/>
	<polygon display="inline" fill="#FEFFFF" points="957,-7.6 910.4,72.7 863.8,-7.6 	"/>
	<polygon display="inline" fill="#FCFEFF" points="910.4,72.7 957,-7.6 1003.7,72.7 	"/>
	<polygon display="inline" fill="#FFFFFF" points="1050.3,-7.6 1003.7,72.7 957,-7.6 	"/>
	<polygon display="inline" fill="#FEFEFF" points="1003.7,72.7 1050.3,-7.6 1096.9,72.7 	"/>
	<polygon display="inline" fill="#F9FDFF" points="1143.6,-7.6 1096.9,72.7 1050.3,-7.6 	"/>
	<polygon display="inline" fill="#F7FBFE" points="1096.9,72.7 1143.6,-7.6 1190.2,72.7 	"/>
	<polygon display="inline" fill="#EFF9FE" points="1236.9,-7.6 1190.2,72.7 1143.6,-7.6 	"/>
	<polygon display="inline" fill="#E8F2FB" points="1190.2,72.7 1236.9,-7.6 1283.5,72.7 	"/>
	<polygon display="inline" fill="#E2F2FB" points="1330.1,-7.6 1283.5,72.7 1236.9,-7.6 	"/>
	<polygon display="inline" fill="#D7EDF8" points="1283.5,72.7 1330.1,-7.6 1376.8,72.7 	"/>
	<polygon display="inline" fill="#F0F9FE" points="1423.4,-7.6 1376.8,72.7 1330.1,-7.6 	"/>
	<polygon display="inline" fill="#BEE4F5" points="1376.8,72.7 1423.4,-7.6 1470.1,72.7 	"/>
	<polygon display="inline" fill="#D7EDF8" points="1516.7,-7.6 1470.1,72.7 1423.4,-7.6 	"/>
	<polygon display="inline" fill="#ACD8EF" points="1470.1,72.7 1516.7,-7.6 1563.3,72.7 	"/>
	<polygon display="inline" fill="#C4E4F5" points="1610,-7.6 1563.3,72.7 1516.7,-7.6 	"/>
	<polygon display="inline" fill="#ADD7EF" points="1563.3,72.7 1610,-7.6 1656.6,72.7 	"/>
	<polygon display="inline" fill="#B4DAF1" points="1703.3,-7.6 1656.6,72.7 1610,-7.6 	"/>
	<polygon display="inline" fill="#73CCF3" points="1656.6,72.7 1703.3,-7.6 1749.9,72.7 	"/>
	<polygon display="inline" fill="#53B1E2" points="1796.5,-7.6 1749.9,72.7 1703.3,-7.6 	"/>
	<polygon display="inline" fill="#50B3CE" points="1749.9,72.7 1796.5,-7.6 1843.2,72.7 	"/>
	<polygon display="inline" fill="#FEFEFF" points="910.4,72.7 863.8,153 817.1,72.7 	"/>
	<polygon display="inline" fill="#FFFFFF" points="863.8,153 910.4,72.7 957,153 	"/>
	<polygon display="inline" fill="#FCFEFF" points="1003.7,72.7 957,153 910.4,72.7 	"/>
	<polygon display="inline" fill="#FFFFFF" points="957,153 1003.7,72.7 1050.3,153 	"/>
	<polygon display="inline" fill="#FFFFFF" points="1096.9,72.7 1050.3,153 1003.7,72.7 	"/>
	<polygon display="inline" fill="#FEFEFF" points="1050.3,153 1096.9,72.7 1143.6,153 	"/>
	<polygon display="inline" fill="#F7FBFE" points="1190.2,72.7 1143.6,153 1096.9,72.7 	"/>
	<polygon display="inline" fill="#EDF5FC" points="1143.6,153 1190.2,72.7 1236.9,153 	"/>
	<polygon display="inline" fill="#E8F2FB" points="1283.5,72.7 1236.9,153 1190.2,72.7 	"/>
	<polygon display="inline" fill="#E2F2FB" points="1236.9,153 1283.5,72.7 1330.1,153 	"/>
	<polygon display="inline" fill="#E8F5FC" points="1376.8,72.7 1330.1,153 1283.5,72.7 	"/>
	<polygon display="inline" fill="#E2F2FB" points="1330.1,153 1376.8,72.7 1423.4,153 	"/>
	<polygon display="inline" fill="#D7EDF8" points="1470.1,72.7 1423.4,153 1376.8,72.7 	"/>
	<polygon display="inline" fill="#B0DCF2" points="1423.4,153 1470.1,72.7 1516.7,153 	"/>
	<polygon display="inline" fill="#C4E4F5" points="1563.3,72.7 1516.7,153 1470.1,72.7 	"/>
	<polygon display="inline" fill="#73CCF3" points="1516.7,153 1563.3,72.7 1610,153 	"/>
	<polygon display="inline" fill="#B9DDF1" points="1656.6,72.7 1610,153 1563.3,72.7 	"/>
	<polygon display="inline" fill="#B2DAF1" points="1610,153 1656.6,72.7 1703.3,153 	"/>
	<polygon display="inline" fill="#74BDE8" points="1749.9,72.7 1703.3,153 1656.6,72.7 	"/>
	<polygon display="inline" fill="#50B3CE" points="1703.3,153 1749.9,72.7 1796.5,153 	"/>
	<polygon display="inline" fill="#24A2DC" points="1843.2,72.7 1796.5,153 1749.9,72.7 	"/>
	<polygon display="inline" fill="#FEFEFF" points="817.1,233.4 863.8,153 910.4,233.4 	"/>
	<polygon display="inline" fill="#FFFFFF" points="957,153 910.4,233.4 863.8,153 	"/>
	<polygon display="inline" fill="#FFFFFF" points="910.4,233.4 957,153 1003.7,233.4 	"/>
	<polygon display="inline" fill="#FCFEFF" points="1050.3,153 1003.7,233.4 957,153 	"/>
	<polygon display="inline" fill="#FEFEFF" points="1003.7,233.4 1050.3,153 1096.9,233.4 	"/>
	<polygon display="inline" fill="#FFFFFF" points="1143.6,153 1096.9,233.4 1050.3,153 	"/>
	<polygon display="inline" fill="#F7FBFE" points="1096.9,233.4 1143.6,153 1190.2,233.4 	"/>
	<polygon display="inline" fill="#EDF5FC" points="1236.9,153 1190.2,233.4 1143.6,153 	"/>
	<polygon display="inline" fill="#E1EFFA" points="1190.2,233.4 1236.9,153 1283.5,233.4 	"/>
	<polygon display="inline" fill="#F3F9FD" points="1330.1,153 1283.5,233.4 1236.9,153 	"/>
	<polygon display="inline" fill="#E2F2FB" points="1283.5,233.4 1330.1,153 1376.8,233.4 	"/>
	<polygon display="inline" fill="#E2F2FB" points="1423.4,153 1376.8,233.4 1330.1,153 	"/>
	<polygon display="inline" fill="#B5DEF3" points="1376.8,233.4 1423.4,153 1470.1,233.4 	"/>
	<polygon display="inline" fill="#D7EDF8" points="1516.7,153 1470.1,233.4 1423.4,153 	"/>
	<polygon display="inline" fill="#B2DAF0" points="1470.1,233.4 1516.7,153 1563.3,233.4 	"/>
	<polygon display="inline" fill="#BBDFF2" points="1610,153 1563.3,233.4 1516.7,153 	"/>
	<polygon display="inline" fill="#73CCF3" points="1563.3,233.4 1610,153 1656.6,233.4 	"/>
	<polygon display="inline" fill="#8AC6EB" points="1703.3,153 1656.6,233.4 1610,153 	"/>
	<polygon display="inline" fill="#50B3CE" points="1656.6,233.4 1703.3,153 1749.9,233.4 	"/>
	<polygon display="inline" fill="#31A9E0" points="1796.5,153 1749.9,233.4 1703.3,153 	"/>
	<polygon display="inline" fill="#24A1DB" points="1749.9,233.4 1796.5,153 1843.2,233.4 	"/>
	<polygon display="inline" fill="#FDFEFF" points="910.4,233.4 863.8,313.7 817.1,233.4 	"/>
	<polygon display="inline" fill="#FFFFFF" points="863.8,313.7 910.4,233.4 957,313.7 	"/>
	<polygon display="inline" fill="#FFFFFF" points="1003.7,233.4 957,313.7 910.4,233.4 	"/>
	<polygon display="inline" fill="#FEFEFF" points="957,313.7 1003.7,233.4 1050.3,313.7 	"/>
	<polygon display="inline" fill="#FEFEFF" points="1096.9,233.4 1050.3,313.7 1003.7,233.4 	"/>
	<polygon display="inline" fill="#FEFEFF" points="1050.3,313.7 1096.9,233.4 1143.6,313.7 	"/>
	<polygon display="inline" fill="#F7FBFE" points="1190.2,233.4 1143.6,313.7 1096.9,233.4 	"/>
	<polygon display="inline" fill="#EDF5FC" points="1143.6,313.7 1190.2,233.4 1236.9,313.7 	"/>
	<polygon display="inline" fill="#E1EFFA" points="1283.5,233.4 1236.9,313.7 1190.2,233.4 	"/>
	<polygon display="inline" fill="#D3EBF8" points="1236.9,313.7 1283.5,233.4 1330.1,313.7 	"/>
	<polygon display="inline" fill="#E2F2FB" points="1376.8,233.4 1330.1,313.7 1283.5,233.4 	"/>
	<polygon display="inline" fill="#B0DCF2" points="1330.1,313.7 1376.8,233.4 1423.4,313.7 	"/>
	<polygon display="inline" fill="#C4E4F5" points="1470.1,233.4 1423.4,313.7 1376.8,233.4 	"/>
	<polygon display="inline" fill="#73CCF3" points="1423.4,313.7 1470.1,233.4 1516.7,313.7 	"/>
	<polygon display="inline" fill="#D7EDF8" points="1563.3,233.4 1516.7,313.7 1470.1,233.4 	"/>
	<polygon display="inline" fill="#ACD7F0" points="1516.7,313.7 1563.3,233.4 1610,313.7 	"/>
	<polygon display="inline" fill="#89C7EB" points="1656.6,233.4 1610,313.7 1563.3,233.4 	"/>
	<polygon display="inline" fill="#50B3CE" points="1610,313.7 1656.6,233.4 1703.3,313.7 	"/>
	<polygon display="inline" fill="#3DACE2" points="1749.9,233.4 1703.3,313.7 1656.6,233.4 	"/>
	<polygon display="inline" fill="#29A6DE" points="1703.3,313.7 1749.9,233.4 1796.5,313.7 	"/>
	<polygon display="inline" fill="#2399D6" points="1843.2,233.4 1796.5,313.7 1749.9,233.4 	"/>
	<polygon display="inline" fill="#FFFFFF" points="817.1,394 863.8,313.7 910.4,394 	"/>
	<polygon display="inline" fill="#FFFFFF" points="957,313.7 910.4,394 863.8,313.7 	"/>
	<polygon display="inline" fill="#FFFFFF" points="910.4,394 957,313.7 1003.7,394 	"/>
	<polygon display="inline" fill="#FFFFFF" points="1050.3,313.7 1003.7,394 957,313.7 	"/>
	<polygon display="inline" fill="#FEFEFF" points="1003.7,394 1050.3,313.7 1096.9,394 	"/>
	<polygon display="inline" fill="#F5FAFE" points="1143.6,313.7 1096.9,394 1050.3,313.7 	"/>
	<polygon display="inline" fill="#EEF7FD" points="1096.9,394 1143.6,313.7 1190.2,394 	"/>
	<polygon display="inline" fill="#EDF5FC" points="1236.9,313.7 1190.2,394 1143.6,313.7 	"/>
	<polygon display="inline" fill="#DAEBF8" points="1190.2,394 1236.9,313.7 1283.5,394 	"/>
	<polygon display="inline" fill="#D3EBF8" points="1330.1,313.7 1283.5,394 1236.9,313.7 	"/>
	<polygon display="inline" fill="#B5DEF2" points="1283.5,394 1330.1,313.7 1376.8,394 	"/>
	<polygon display="inline" fill="#E2F2FB" points="1423.4,313.7 1376.8,394 1330.1,313.7 	"/>
	<polygon display="inline" fill="#BBE0F2" points="1376.8,394 1423.4,313.7 1470.1,394 	"/>
	<polygon display="inline" fill="#B1D9EF" points="1516.7,313.7 1470.1,394 1423.4,313.7 	"/>
	<polygon display="inline" fill="#50B3CE" points="1470.1,394 1516.7,313.7 1563.3,394 	"/>
	<polygon display="inline" fill="#C4E4F5" points="1610,313.7 1563.3,394 1516.7,313.7 	"/>
	<polygon display="inline" fill="#50B3CE" points="1563.3,394 1610,313.7 1656.6,394 	"/>
	<polygon display="inline" fill="#2EA8E0" points="1703.3,313.7 1656.6,394 1610,313.7 	"/>
	<polygon display="inline" fill="#73CCF3" points="1656.6,394 1703.3,313.7 1749.9,394 	"/>
	<polygon display="inline" fill="#229AD6" points="1796.5,313.7 1749.9,394 1703.3,313.7 	"/>
	<polygon display="inline" fill="#50B3CE" points="1749.9,394 1796.5,313.7 1843.2,394 	"/>
	<polygon display="inline" fill="#F3F9FE" points="910.4,394 863.8,474.4 817.1,394 	"/>
	<polygon display="inline" fill="#FEFEFF" points="863.8,474.4 910.4,394 957,474.4 	"/>
	<polygon display="inline" fill="#F7FBFE" points="1003.7,394 957,474.4 910.4,394 	"/>
	<polygon display="inline" fill="#FEFEFF" points="957,474.4 1003.7,394 1050.3,474.4 	"/>
	<polygon display="inline" fill="#EBF4FB" points="1096.9,394 1050.3,474.4 1003.7,394 	"/>
	<polygon display="inline" fill="#F5FAFE" points="1050.3,474.4 1096.9,394 1143.6,474.4 	"/>
	<polygon display="inline" fill="#F3F9FD" points="1190.2,394 1143.6,474.4 1096.9,394 	"/>
	<polygon display="inline" fill="#B2D5EB" points="1143.6,474.4 1190.2,394 1236.9,474.4 	"/>
	<polygon display="inline" fill="#DAEBF8" points="1283.5,394 1236.9,474.4 1190.2,394 	"/>
	<polygon display="inline" fill="#7DB1DB" points="1236.9,474.4 1283.5,394 1330.1,474.4 	"/>
	<polygon display="inline" fill="#B5DEF2" points="1376.8,394 1330.1,474.4 1283.5,394 	"/>
	<polygon display="inline" fill="#73CCF3" points="1330.1,474.4 1376.8,394 1423.4,474.4 	"/>
	<polygon display="inline" fill="#D3EBF8" points="1470.1,394 1423.4,474.4 1376.8,394 	"/>
	<polygon display="inline" fill="#50B3CE" points="1423.4,474.4 1470.1,394 1516.7,474.4 	"/>
	<polygon display="inline" fill="#E2F2FB" points="1563.3,394 1516.7,474.4 1470.1,394 	"/>
	<polygon display="inline" fill="#2CA7DF" points="1516.7,474.4 1563.3,394 1610,474.4 	"/>
	<polygon display="inline" fill="#239ED9" points="1656.6,394 1610,474.4 1563.3,394 	"/>
	<polygon display="inline" fill="#50B3CE" points="1610,474.4 1656.6,394 1703.3,474.4 	"/>
	<polygon display="inline" fill="#249CD8" points="1749.9,394 1703.3,474.4 1656.6,394 	"/>
	<polygon display="inline" fill="#2395D2" points="1703.3,474.4 1749.9,394 1796.5,474.4 	"/>
	<polygon display="inline" fill="#248FCE" points="1843.2,394 1796.5,474.4 1749.9,394 	"/>
	<polygon display="inline" fill="#E5F0F9" points="817.1,554.7 863.8,474.4 910.4,554.7 	"/>
	<polygon display="inline" fill="#D1E5F3" points="957,474.4 910.4,554.7 863.8,474.4 	"/>
	<polygon display="inline" fill="#FEFEFF" points="910.4,554.7 957,474.4 1003.7,554.7 	"/>
	<polygon display="inline" fill="#C1DDEF" points="1050.3,474.4 1003.7,554.7 957,474.4 	"/>
	<polygon display="inline" fill="#D8E9F5" points="1003.7,554.7 1050.3,474.4 1096.9,554.7 	"/>
	<polygon display="inline" fill="#BAD9EE" points="1143.6,474.4 1096.9,554.7 1050.3,474.4 	"/>
	<polygon display="inline" fill="#7DB1DB" points="1096.9,554.7 1143.6,474.4 1190.2,554.7 	"/>
	<polygon display="inline" fill="#B2D5EB" points="1236.9,474.4 1190.2,554.7 1143.6,474.4 	"/>
	<polygon display="inline" fill="#DAEBF8" points="1190.2,554.7 1236.9,474.4 1283.5,554.7 	"/>
	<polygon display="inline" fill="#7DB1DB" points="1330.1,474.4 1283.5,554.7 1236.9,474.4 	"/>
	<polygon display="inline" fill="#85B9E0" points="1283.5,554.7 1330.1,474.4 1376.8,554.7 	"/>
	<polygon display="inline" fill="#BBDEF1" points="1423.4,474.4 1376.8,554.7 1330.1,474.4 	"/>
	<polygon display="inline" fill="#2698D4" points="1376.8,554.7 1423.4,474.4 1470.1,554.7 	"/>
	<polygon display="inline" fill="#B1D9EF" points="1516.7,474.4 1470.1,554.7 1423.4,474.4 	"/>
	<polygon display="inline" fill="#2298D5" points="1470.1,554.7 1516.7,474.4 1563.3,554.7 	"/>
	<polygon display="inline" fill="#B1D9EF" points="1610,474.4 1563.3,554.7 1516.7,474.4 	"/>
	<polygon display="inline" fill="#50B3CE" points="1563.3,554.7 1610,474.4 1656.6,554.7 	"/>
	<polygon display="inline" fill="#3C9BD6" points="1703.3,474.4 1656.6,554.7 1610,474.4 	"/>
	<polygon display="inline" fill="#73CCF3" points="1656.6,554.7 1703.3,474.4 1749.9,554.7 	"/>
	<polygon display="inline" fill="#24A1DB" points="1796.5,474.4 1749.9,554.7 1703.3,474.4 	"/>
	<polygon display="inline" fill="#2297D4" points="1749.9,554.7 1796.5,474.4 1843.2,554.7 	"/>
	<polygon display="inline" fill="#B1D3EA" points="910.4,554.7 863.8,635 817.1,554.7 	"/>
	<polygon display="inline" fill="#B4D5EB" points="863.8,635 910.4,554.7 957,635 	"/>
	<polygon display="inline" fill="#FBFDFF" points="817.1,-88 770.5,-7.6 723.8,-88 	"/>
	<polygon display="inline" fill="#FCFEFF" points="770.5,-7.6 817.1,-88 863.8,-7.6 	"/>
	<polygon display="inline" fill="#FDFEFF" points="723.8,72.7 770.5,-7.6 817.1,72.7 	"/>
	<polygon display="inline" fill="#FEFFFF" points="863.8,-7.6 817.1,72.7 770.5,-7.6 	"/>
	<polygon display="inline" fill="#FEFEFF" points="817.1,72.7 770.5,153 723.8,72.7 	"/>
	<polygon display="inline" fill="#FFFFFF" points="770.5,153 817.1,72.7 863.8,153 	"/>
	<polygon display="inline" fill="#FEFEFF" points="723.8,233.4 770.5,153 817.1,233.4 	"/>
	<polygon display="inline" fill="#FFFFFF" points="863.8,153 817.1,233.4 770.5,153 	"/>
	<polygon display="inline" fill="#FDFEFF" points="817.1,233.4 770.5,313.7 723.8,233.4 	"/>
	<polygon display="inline" fill="#FEFFFF" points="770.5,313.7 817.1,233.4 863.8,313.7 	"/>
	<polygon display="inline" fill="#FCFEFF" points="723.8,394 770.5,313.7 817.1,394 	"/>
	<polygon display="inline" fill="#FFFFFF" points="863.8,313.7 817.1,394 770.5,313.7 	"/>
	<polygon display="inline" fill="#F7FBFE" points="817.1,394 770.5,474.4 723.8,394 	"/>
	<polygon display="inline" fill="#FEFEFF" points="770.5,474.4 817.1,394 863.8,474.4 	"/>
	<polygon display="inline" fill="#E5F0F9" points="723.8,554.7 770.5,474.4 817.1,554.7 	"/>
	<polygon display="inline" fill="#D1E5F3" points="863.8,474.4 817.1,554.7 770.5,474.4 	"/>
	<polygon display="inline" fill="#B1D3EA" points="817.1,554.7 770.5,635 723.8,554.7 	"/>
	<polygon display="inline" fill="#B4D5EB" points="770.5,635 817.1,554.7 863.8,635 	"/>
	<polygon display="inline" fill="#AED2E9" points="1003.7,554.7 957,635 910.4,554.7 	"/>
	<polygon display="inline" fill="#B3D5EA" points="957,635 1003.7,554.7 1050.3,635 	"/>
	<polygon display="inline" fill="#A5CBE5" points="1096.9,554.7 1050.3,635 1003.7,554.7 	"/>
	<polygon display="inline" fill="#A7CDE6" points="1050.3,635 1096.9,554.7 1143.6,635 	"/>
	<polygon display="inline" fill="#7DB1DB" points="1190.2,554.7 1143.6,635 1096.9,554.7 	"/>
	<polygon display="inline" fill="#B2D5EB" points="1143.6,635 1190.2,554.7 1236.9,635 	"/>
	<polygon display="inline" fill="#DAEBF8" points="1283.5,554.7 1236.9,635 1190.2,554.7 	"/>
	<polygon display="inline" fill="#1C80C3" points="1236.9,635 1283.5,554.7 1330.1,635 	"/>
	<polygon display="inline" fill="#85B9E0" points="1376.8,554.7 1330.1,635 1283.5,554.7 	"/>
	<polygon display="inline" fill="#2386C8" points="1330.1,635 1376.8,554.7 1423.4,635 	"/>
	<polygon display="inline" fill="#4691CE" points="1470.1,554.7 1423.4,635 1376.8,554.7 	"/>
	<polygon display="inline" fill="#B6DBEF" points="1423.4,635 1470.1,554.7 1516.7,635 	"/>
	<polygon display="inline" fill="#70ACDC" points="1563.3,554.7 1516.7,635 1470.1,554.7 	"/>
	<polygon display="inline" fill="#50B3CE" points="1516.7,635 1563.3,554.7 1610,635 	"/>
	<polygon display="inline" fill="#78B6E4" points="1656.6,554.7 1610,635 1563.3,554.7 	"/>
	<polygon display="inline" fill="#68B8E6" points="1610,635 1656.6,554.7 1703.3,635 	"/>
	<polygon display="inline" fill="#3EADE2" points="1749.9,554.7 1703.3,635 1656.6,554.7 	"/>
	<polygon display="inline" fill="#24A1DB" points="1703.3,635 1749.9,554.7 1796.5,635 	"/>
	<polygon display="inline" fill="#2298D5" points="1843.2,554.7 1796.5,635 1749.9,554.7 	"/>
	<polygon display="inline" fill="#78B9E3" points="1843.2,-7.6 1796.5,-7.6 1843.2,-88 	"/>
	<polygon display="inline" fill="#53B1E2" points="1843.2,-7.6 1796.5,-7.6 1843.2,72.7 	"/>
	<polygon display="inline" fill="#4FB1E3" points="1843.2,153 1796.5,153 1843.2,72.7 	"/>
	<polygon display="inline" fill="#31A9E0" points="1843.2,153 1796.5,153 1843.2,233.4 	"/>
	<polygon display="inline" fill="#29A6DE" points="1843.2,313.7 1796.5,313.7 1843.2,233.4 	"/>
	<polygon display="inline" fill="#229AD6" points="1843.2,313.7 1796.5,313.7 1843.2,394 	"/>
	<polygon display="inline" fill="#2395D2" points="1843.2,474.4 1796.5,474.4 1843.2,394 	"/>
	<polygon display="inline" fill="#24A1DB" points="1843.2,635 1796.5,635 1843.2,554.7 	"/>
	<polygon display="inline" fill="#24A1DB" points="1843.2,474.4 1796.5,474.4 1843.2,554.7 	"/>
	<polygon display="inline" fill="#EFF9FE" points="2495.3,-88 2542,-7.6 2588.6,-88 	"/>
	<polygon display="inline" fill="#ECF6FC" points="2542,-7.6 2495.3,-88 2448.7,-7.6 	"/>
	<polygon display="inline" fill="#E2F1FA" points="2402.1,-88 2448.7,-7.6 2495.3,-88 	"/>
	<polygon display="inline" fill="#DCEFF9" points="2448.7,-7.6 2402.1,-88 2355.4,-7.6 	"/>
	<polygon display="inline" fill="#D4EDF7" points="2308.8,-88 2355.4,-7.6 2402.1,-88 	"/>
	<polygon display="inline" fill="#C1E5F5" points="2355.4,-7.6 2308.8,-88 2262.1,-7.6 	"/>
	<polygon display="inline" fill="#BDE3F3" points="2215.5,-88 2262.1,-7.6 2308.8,-88 	"/>
	<polygon display="inline" fill="#B8DEF2" points="2262.1,-7.6 2215.5,-88 2168.9,-7.6 	"/>
	<polygon display="inline" fill="#ADD8EF" points="2122.2,-88 2168.9,-7.6 2215.5,-88 	"/>
	<polygon display="inline" fill="#A6D3ED" points="2168.9,-7.6 2122.2,-88 2075.6,-7.6 	"/>
	<polygon display="inline" fill="#A8D4ED" points="2028.9,-88 2075.6,-7.6 2122.2,-88 	"/>
	<polygon display="inline" fill="#A7D3EE" points="2075.6,-7.6 2028.9,-88 1982.3,-7.6 	"/>
	<polygon display="inline" fill="#AAD6EF" points="1935.7,-88 1982.3,-7.6 2028.9,-88 	"/>
	<polygon display="inline" fill="#78B9E3" points="1982.3,-7.6 1935.7,-88 1889,-7.6 	"/>
	<polygon display="inline" fill="#5AAADD" points="1842.4,-88 1889,-7.6 1935.7,-88 	"/>
	<polygon display="inline" fill="#F1F9FE" points="2588.6,72.7 2542,-7.6 2495.3,72.7 	"/>
	<polygon display="inline" fill="#EFF9FE" points="2448.7,-7.6 2495.3,72.7 2542,-7.6 	"/>
	<polygon display="inline" fill="#E5F4FB" points="2495.3,72.7 2448.7,-7.6 2402.1,72.7 	"/>
	<polygon display="inline" fill="#E2F2FB" points="2355.4,-7.6 2402.1,72.7 2448.7,-7.6 	"/>
	<polygon display="inline" fill="#D7EDF8" points="2402.1,72.7 2355.4,-7.6 2308.8,72.7 	"/>
	<polygon display="inline" fill="#C5E6F5" points="2262.1,-7.6 2308.8,72.7 2355.4,-7.6 	"/>
	<polygon display="inline" fill="#BEE4F5" points="2308.8,72.7 2262.1,-7.6 2215.5,72.7 	"/>
	<polygon display="inline" fill="#B5DEF2" points="2168.9,-7.6 2215.5,72.7 2262.1,-7.6 	"/>
	<polygon display="inline" fill="#ACD8EF" points="2215.5,72.7 2168.9,-7.6 2122.2,72.7 	"/>
	<polygon display="inline" fill="#ACD7EF" points="2075.6,-7.6 2122.2,72.7 2168.9,-7.6 	"/>
	<polygon display="inline" fill="#ADD7EF" points="2122.2,72.7 2075.6,-7.6 2028.9,72.7 	"/>
	<polygon display="inline" fill="#B4DAF1" points="1982.3,-7.6 2028.9,72.7 2075.6,-7.6 	"/>
	<polygon display="inline" fill="#A0D1EE" points="2028.9,72.7 1982.3,-7.6 1935.7,72.7 	"/>
	<polygon display="inline" fill="#6CB344" points="1889,-7.6 1935.7,72.7 1982.3,-7.6 	"/>
	<polygon display="inline" fill="#46A5DC" points="1935.7,72.7 1889,-7.6 1842.4,72.7 	"/>
	<polygon display="inline" fill="#F2F9FE" points="2495.3,72.7 2542,153 2588.6,72.7 	"/>
	<polygon display="inline" fill="#F0F9FE" points="2542,153 2495.3,72.7 2448.7,153 	"/>
	<polygon display="inline" fill="#E8F5FC" points="2402.1,72.7 2448.7,153 2495.3,72.7 	"/>
	<polygon display="inline" fill="#E2F2FB" points="2448.7,153 2402.1,72.7 2355.4,153 	"/>
	<polygon display="inline" fill="#D4ECF8" points="2308.8,72.7 2355.4,153 2402.1,72.7 	"/>
	<polygon display="inline" fill="#C7E7F5" points="2355.4,153 2308.8,72.7 2262.1,153 	"/>
	<polygon display="inline" fill="#BCE2F4" points="2215.5,72.7 2262.1,153 2308.8,72.7 	"/>
	<polygon display="inline" fill="#B0DCF2" points="2262.1,153 2215.5,72.7 2168.9,153 	"/>
	<polygon display="inline" fill="#AFD9F0" points="2122.2,72.7 2168.9,153 2215.5,72.7 	"/>
	<polygon display="inline" fill="#B2DAF0" points="2168.9,153 2122.2,72.7 2075.6,153 	"/>
	<polygon display="inline" fill="#B9DDF1" points="2028.9,72.7 2075.6,153 2122.2,72.7 	"/>
	<polygon display="inline" fill="#B2DAF1" points="2075.6,153 2028.9,72.7 1982.3,153 	"/>
	<polygon display="inline" fill="#74BDE8" points="1935.7,72.7 1982.3,153 2028.9,72.7 	"/>
	<polygon display="inline" fill="#6CB344" points="1982.3,153 1935.7,72.7 1889,153 	"/>
	<polygon display="inline" fill="#24A2DC" points="1842.4,72.7 1889,153 1935.7,72.7 	"/>
	<polygon display="inline" fill="#F2FAFE" points="2588.6,233.4 2542,153 2495.3,233.4 	"/>
	<polygon display="inline" fill="#EEF7FD" points="2448.7,153 2495.3,233.4 2542,153 	"/>
	<polygon display="inline" fill="#E6F3FC" points="2495.3,233.4 2448.7,153 2402.1,233.4 	"/>
	<polygon display="inline" fill="#DAEEF9" points="2355.4,153 2402.1,233.4 2448.7,153 	"/>
	<polygon display="inline" fill="#D0EAF8" points="2402.1,233.4 2355.4,153 2308.8,233.4 	"/>
	<polygon display="inline" fill="#C4E4F5" points="2262.1,153 2308.8,233.4 2355.4,153 	"/>
	<polygon display="inline" fill="#B5DEF3" points="2308.8,233.4 2262.1,153 2215.5,233.4 	"/>
	<polygon display="inline" fill="#B1DCF2" points="2168.9,153 2215.5,233.4 2262.1,153 	"/>
	<polygon display="inline" fill="#B5DCF1" points="2215.5,233.4 2168.9,153 2122.2,233.4 	"/>
	<polygon display="inline" fill="#BBDFF2" points="2075.6,153 2122.2,233.4 2168.9,153 	"/>
	<polygon display="inline" fill="#B3DAF1" points="2122.2,233.4 2075.6,153 2028.9,233.4 	"/>
	<polygon display="inline" fill="#8AC6EB" points="1982.3,153 2028.9,233.4 2075.6,153 	"/>
	<polygon display="inline" fill="#6CB344" points="2028.9,233.4 1982.3,153 1935.7,233.4 	"/>
	<polygon display="inline" fill="#31A9E0" points="1889,153 1935.7,233.4 1982.3,153 	"/>
	<polygon display="inline" fill="#24A1DB" points="1935.7,233.4 1889,153 1842.4,233.4 	"/>
	<polygon display="inline" fill="#EEF7FD" points="2495.3,233.4 2542,313.7 2588.6,233.4 	"/>
	<polygon display="inline" fill="#E7F4FB" points="2542,313.7 2495.3,233.4 2448.7,313.7 	"/>
	<polygon display="inline" fill="#DAEFF9" points="2402.1,233.4 2448.7,313.7 2495.3,233.4 	"/>
	<polygon display="inline" fill="#D3EBF8" points="2448.7,313.7 2402.1,233.4 2355.4,313.7 	"/>
	<polygon display="inline" fill="#C4E4F5" points="2308.8,233.4 2355.4,313.7 2402.1,233.4 	"/>
	<polygon display="inline" fill="#B8DEF3" points="2355.4,313.7 2308.8,233.4 2262.1,313.7 	"/>
	<polygon display="inline" fill="#B5DEF2" points="2215.5,233.4 2262.1,313.7 2308.8,233.4 	"/>
	<polygon display="inline" fill="#B8DFF3" points="2262.1,313.7 2215.5,233.4 2168.9,313.7 	"/>
	<polygon display="inline" fill="#B7DDF1" points="2122.2,233.4 2168.9,313.7 2215.5,233.4 	"/>
	<polygon display="inline" fill="#ACD7F0" points="2168.9,313.7 2122.2,233.4 2075.6,313.7 	"/>
	<polygon display="inline" fill="#89C7EB" points="2028.9,233.4 2075.6,313.7 2122.2,233.4 	"/>
	<polygon display="inline" fill="#6FBBE7" points="2075.6,313.7 2028.9,233.4 1982.3,313.7 	"/>
	<polygon display="inline" fill="#3DACE2" points="1935.7,233.4 1982.3,313.7 2028.9,233.4 	"/>
	<polygon display="inline" fill="#29A6DE" points="1982.3,313.7 1935.7,233.4 1889,313.7 	"/>
	<polygon display="inline" fill="#2399D6" points="1842.4,233.4 1889,313.7 1935.7,233.4 	"/>
	<polygon display="inline" fill="#E1F2FA" points="2588.6,394 2542,313.7 2495.3,394 	"/>
	<polygon display="inline" fill="#D8EDF8" points="2448.7,313.7 2495.3,394 2542,313.7 	"/>
	<polygon display="inline" fill="#D3EBF8" points="2495.3,394 2448.7,313.7 2402.1,394 	"/>
	<polygon display="inline" fill="#BADFF2" points="2355.4,313.7 2402.1,394 2448.7,313.7 	"/>
	<polygon display="inline" fill="#B5DEF2" points="2402.1,394 2355.4,313.7 2308.8,394 	"/>
	<polygon display="inline" fill="#BADFF2" points="2262.1,313.7 2308.8,394 2355.4,313.7 	"/>
	<polygon display="inline" fill="#BBE0F2" points="2308.8,394 2262.1,313.7 2215.5,394 	"/>
	<polygon display="inline" fill="#B1D9EF" points="2168.9,313.7 2215.5,394 2262.1,313.7 	"/>
	<polygon display="inline" fill="#A8D6EE" points="2215.5,394 2168.9,313.7 2122.2,394 	"/>
	<polygon display="inline" fill="#5BB4E4" points="2075.6,313.7 2122.2,394 2168.9,313.7 	"/>
	<polygon display="inline" fill="#58B4E4" points="2122.2,394 2075.6,313.7 2028.9,394 	"/>
	<polygon display="inline" fill="#2EA8E0" points="1982.3,313.7 2028.9,394 2075.6,313.7 	"/>
	<polygon display="inline" fill="#29A5DE" points="2028.9,394 1982.3,313.7 1935.7,394 	"/>
	<polygon display="inline" fill="#229AD6" points="1889,313.7 1935.7,394 1982.3,313.7 	"/>
	<polygon display="inline" fill="#2492D1" points="1935.7,394 1889,313.7 1842.4,394 	"/>
	<polygon display="inline" fill="#C7E2F2" points="2495.3,394 2542,474.4 2588.6,394 	"/>
	<polygon display="inline" fill="#C4E2F3" points="2542,474.4 2495.3,394 2448.7,474.4 	"/>
	<polygon display="inline" fill="#BBDDF0" points="2402.1,394 2448.7,474.4 2495.3,394 	"/>
	<polygon display="inline" fill="#BBDEF1" points="2448.7,474.4 2402.1,394 2355.4,474.4 	"/>
	<polygon display="inline" fill="#B7DBEF" points="2308.8,394 2355.4,474.4 2402.1,394 	"/>
	<polygon display="inline" fill="#B6DBEF" points="2355.4,474.4 2308.8,394 2262.1,474.4 	"/>
	<polygon display="inline" fill="#7FBEE4" points="2215.5,394 2262.1,474.4 2308.8,394 	"/>
	<polygon display="inline" fill="#6EBAE4" points="2262.1,474.4 2215.5,394 2168.9,474.4 	"/>
	<polygon display="inline" fill="#27A4DD" points="2122.2,394 2168.9,474.4 2215.5,394 	"/>
	<polygon display="inline" fill="#2CA7DF" points="2168.9,474.4 2122.2,394 2075.6,474.4 	"/>
	<polygon display="inline" fill="#239ED9" points="2028.9,394 2075.6,474.4 2122.2,394 	"/>
	<polygon display="inline" fill="#239ED9" points="2075.6,474.4 2028.9,394 1982.3,474.4 	"/>
	<polygon display="inline" fill="#249CD8" points="1935.7,394 1982.3,474.4 2028.9,394 	"/>
	<polygon display="inline" fill="#2395D2" points="1982.3,474.4 1935.7,394 1889,474.4 	"/>
	<polygon display="inline" fill="#248FCE" points="1842.4,394 1889,474.4 1935.7,394 	"/>
	<polygon display="inline" fill="#BBDBEF" points="2588.6,554.7 2542,474.4 2495.3,554.7 	"/>
	<polygon display="inline" fill="#B2D5EB" points="2448.7,474.4 2495.3,554.7 2542,474.4 	"/>
	<polygon display="inline" fill="#B6D8ED" points="2495.3,554.7 2448.7,474.4 2402.1,554.7 	"/>
	<polygon display="inline" fill="#7DB1DB" points="2355.4,474.4 2402.1,554.7 2448.7,474.4 	"/>
	<polygon display="inline" fill="#85B9E0" points="2402.1,554.7 2355.4,474.4 2308.8,554.7 	"/>
	<polygon display="inline" fill="#2990CE" points="2262.1,474.4 2308.8,554.7 2355.4,474.4 	"/>
	<polygon display="inline" fill="#2698D4" points="2308.8,554.7 2262.1,474.4 2215.5,554.7 	"/>
	<polygon display="inline" fill="#2493D1" points="2168.9,474.4 2215.5,554.7 2262.1,474.4 	"/>
	<polygon display="inline" fill="#2298D5" points="2215.5,554.7 2168.9,474.4 2122.2,554.7 	"/>
	<polygon display="inline" fill="#469FD7" points="2075.6,474.4 2122.2,554.7 2168.9,474.4 	"/>
	<polygon display="inline" fill="#3FA1D9" points="2122.2,554.7 2075.6,474.4 2028.9,554.7 	"/>
	<polygon display="inline" fill="#3C9BD6" points="1982.3,474.4 2028.9,554.7 2075.6,474.4 	"/>
	<polygon display="inline" fill="#2A99D5" points="2028.9,554.7 1982.3,474.4 1935.7,554.7 	"/>
	<polygon display="inline" fill="#24A1DB" points="1889,474.4 1935.7,554.7 1982.3,474.4 	"/>
	<polygon display="inline" fill="#2297D4" points="1935.7,554.7 1889,474.4 1842.4,554.7 	"/>
	<polygon display="inline" fill="#6B9FD1" points="2495.3,554.7 2542,635 2588.6,554.7 	"/>
	<polygon display="inline" fill="#6FA2D3" points="2542,635 2495.3,554.7 2448.7,635 	"/>
	<polygon display="inline" fill="#1D7BBF" points="2402.1,554.7 2448.7,635 2495.3,554.7 	"/>
	<polygon display="inline" fill="#1C80C3" points="2448.7,635 2402.1,554.7 2355.4,635 	"/>
	<polygon display="inline" fill="#1D81C4" points="2308.8,554.7 2355.4,635 2402.1,554.7 	"/>
	<polygon display="inline" fill="#2386C8" points="2355.4,635 2308.8,554.7 2262.1,635 	"/>
	<polygon display="inline" fill="#4691CE" points="2215.5,554.7 2262.1,635 2308.8,554.7 	"/>
	<polygon display="inline" fill="#4B97D2" points="2262.1,635 2215.5,554.7 2168.9,635 	"/>
	<polygon display="inline" fill="#70ACDC" points="2122.2,554.7 2168.9,635 2215.5,554.7 	"/>
	<polygon display="inline" fill="#5EA3D8" points="2168.9,635 2122.2,554.7 2075.6,635 	"/>
	<polygon display="inline" fill="#78B6E4" points="2028.9,554.7 2075.6,635 2122.2,554.7 	"/>
	<polygon display="inline" fill="#68B8E6" points="2075.6,635 2028.9,554.7 1982.3,635 	"/>
	<polygon display="inline" fill="#3EADE2" points="1935.7,554.7 1982.3,635 2028.9,554.7 	"/>
	<polygon display="inline" fill="#24A1DB" points="1982.3,635 1935.7,554.7 1889,635 	"/>
	<polygon display="inline" fill="#2298D5" points="1842.4,554.7 1889,635 1935.7,554.7 	"/>
	<polygon display="inline" fill="#78B9E3" points="1842.4,-7.6 1889,-7.6 1842.4,-88 	"/>
	<polygon display="inline" fill="#53B1E2" points="1842.4,-7.6 1889,-7.6 1842.4,72.7 	"/>
	<polygon display="inline" fill="#4FB1E3" points="1842.4,153 1889,153 1842.4,72.7 	"/>
	<polygon display="inline" fill="#31A9E0" points="1842.4,153 1889,153 1842.4,233.4 	"/>
	<polygon display="inline" fill="#29A6DE" points="1842.4,313.7 1889,313.7 1842.4,233.4 	"/>
	<polygon display="inline" fill="#229AD6" points="1842.4,313.7 1889,313.7 1842.4,394 	"/>
	<polygon display="inline" fill="#2395D2" points="1842.4,474.4 1889,474.4 1842.4,394 	"/>
	<polygon display="inline" fill="#24A1DB" points="1842.4,635 1889,635 1842.4,554.7 	"/>
	<polygon display="inline" fill="#24A1DB" points="1842.4,474.4 1889,474.4 1842.4,554.7 	"/>
	<polygon display="inline" fill="#C4E0F5" points="211.4,-7.6 258,-88 304.7,-7.6 	"/>
	<polygon display="inline" fill="#CEE5F7" points="351.3,-88 304.7,-7.6 258,-88 	"/>
	<polygon display="inline" fill="#D4E8F8" points="304.7,-7.6 351.3,-88 398,-7.6 	"/>
	<polygon display="inline" fill="#DCECF9" points="444.6,-88 398,-7.6 351.3,-88 	"/>
	<polygon display="inline" fill="#E2EFFA" points="398,-7.6 444.6,-88 491.2,-7.6 	"/>
	<polygon display="inline" fill="#E9F3FB" points="537.9,-88 491.2,-7.6 444.6,-88 	"/>
	<polygon display="inline" fill="#EDF5FC" points="491.2,-7.6 537.9,-88 584.5,-7.6 	"/>
	<polygon display="inline" fill="#F1F8FD" points="631.2,-88 584.5,-7.6 537.9,-88 	"/>
	<polygon display="inline" fill="#F3F9FD" points="584.5,-7.6 631.2,-88 677.8,-7.6 	"/>
	<polygon display="inline" fill="#F7FBFE" points="724.4,-88 677.8,-7.6 631.2,-88 	"/>
	<polygon display="inline" fill="#F8FCFE" points="677.8,-7.6 724.4,-88 771.1,-7.6 	"/>
	<polygon display="inline" fill="#C9E2F6" points="304.7,-7.6 258,72.7 211.4,-7.6 	"/>
	<polygon display="inline" fill="#D0E6F7" points="258,72.7 304.7,-7.6 351.3,72.7 	"/>
	<polygon display="inline" fill="#D9EAF8" points="398,-7.6 351.3,72.7 304.7,-7.6 	"/>
	<polygon display="inline" fill="#DEEDF9" points="351.3,72.7 398,-7.6 444.6,72.7 	"/>
	<polygon display="inline" fill="#E7F2FB" points="491.2,-7.6 444.6,72.7 398,-7.6 	"/>
	<polygon display="inline" fill="#EBF4FC" points="444.6,72.7 491.2,-7.6 537.9,72.7 	"/>
	<polygon display="inline" fill="#F0F7FD" points="584.5,-7.6 537.9,72.7 491.2,-7.6 	"/>
	<polygon display="inline" fill="#F3F9FD" points="537.9,72.7 584.5,-7.6 631.2,72.7 	"/>
	<polygon display="inline" fill="#F6FBFE" points="677.8,-7.6 631.2,72.7 584.5,-7.6 	"/>
	<polygon display="inline" fill="#F8FCFE" points="631.2,72.7 677.8,-7.6 724.4,72.7 	"/>
	<polygon display="inline" fill="#FBFEFF" points="771.1,-7.6 724.4,72.7 677.8,-7.6 	"/>
	<polygon display="inline" fill="#CAE3F6" points="211.4,153 258,72.7 304.7,153 	"/>
	<polygon display="inline" fill="#D2E7F7" points="351.3,72.7 304.7,153 258,72.7 	"/>
	<polygon display="inline" fill="#DAEAF8" points="304.7,153 351.3,72.7 398,153 	"/>
	<polygon display="inline" fill="#E1EFFA" points="444.6,72.7 398,153 351.3,72.7 	"/>
	<polygon display="inline" fill="#E8F2FB" points="398,153 444.6,72.7 491.2,153 	"/>
	<polygon display="inline" fill="#EDF5FC" points="537.9,72.7 491.2,153 444.6,72.7 	"/>
	<polygon display="inline" fill="#F1F8FD" points="491.2,153 537.9,72.7 584.5,153 	"/>
	<polygon display="inline" fill="#FFFFFF" points="631.2,72.7 584.5,153 537.9,72.7 	"/>
	<polygon display="inline" fill="#F7FBFE" points="584.5,153 631.2,72.7 677.8,153 	"/>
	<polygon display="inline" fill="#F9FDFF" points="724.4,72.7 677.8,153 631.2,72.7 	"/>
	<polygon display="inline" fill="#FCFEFF" points="677.8,153 724.4,72.7 771.1,153 	"/>
	<polygon display="inline" fill="#CAE3F6" points="304.7,153 258,233.4 211.4,153 	"/>
	<polygon display="inline" fill="#D2E7F7" points="258,233.4 304.7,153 351.3,233.4 	"/>
	<polygon display="inline" fill="#DAEBF8" points="398,153 351.3,233.4 304.7,153 	"/>
	<polygon display="inline" fill="#E1EFFA" points="351.3,233.4 398,153 444.6,233.4 	"/>
	<polygon display="inline" fill="#E8F2FB" points="491.2,153 444.6,233.4 398,153 	"/>
	<polygon display="inline" fill="#EDF5FC" points="444.6,233.4 491.2,153 537.9,233.4 	"/>
	<polygon display="inline" fill="#F1F8FD" points="584.5,153 537.9,233.4 491.2,153 	"/>
	<polygon display="inline" fill="#F5FAFD" points="537.9,233.4 584.5,153 631.2,233.4 	"/>
	<polygon display="inline" fill="#F7FBFE" points="677.8,153 631.2,233.4 584.5,153 	"/>
	<polygon display="inline" fill="#F9FDFF" points="631.2,233.4 677.8,153 724.4,233.4 	"/>
	<polygon display="inline" fill="#FCFEFF" points="771.1,153 724.4,233.4 677.8,153 	"/>
	<polygon display="inline" fill="#C9E2F6" points="211.4,313.7 258,233.4 304.7,313.7 	"/>
	<polygon display="inline" fill="#D1E6F7" points="351.3,233.4 304.7,313.7 258,233.4 	"/>
	<polygon display="inline" fill="#D9EAF8" points="304.7,313.7 351.3,233.4 398,313.7 	"/>
	<polygon display="inline" fill="#DFEDF9" points="444.6,233.4 398,313.7 351.3,233.4 	"/>
	<polygon display="inline" fill="#E7F2FB" points="398,313.7 444.6,233.4 491.2,313.7 	"/>
	<polygon display="inline" fill="#ECF4FC" points="537.9,233.4 491.2,313.7 444.6,233.4 	"/>
	<polygon display="inline" fill="#F0F7FD" points="491.2,313.7 537.9,233.4 584.5,313.7 	"/>
	<polygon display="inline" fill="#F3F9FD" points="631.2,233.4 584.5,313.7 537.9,233.4 	"/>
	<polygon display="inline" fill="#F7FBFE" points="584.5,313.7 631.2,233.4 677.8,313.7 	"/>
	<polygon display="inline" fill="#FFFFFF" points="724.4,233.4 677.8,313.7 631.2,233.4 	"/>
	<polygon display="inline" fill="#FCFEFF" points="677.8,313.7 724.4,233.4 771.1,313.7 	"/>
	<polygon display="inline" fill="#C5E0F5" points="304.7,313.7 258,394 211.4,313.7 	"/>
	<polygon display="inline" fill="#CFE5F7" points="258,394 304.7,313.7 351.3,394 	"/>
	<polygon display="inline" fill="#D5E8F8" points="398,313.7 351.3,394 304.7,313.7 	"/>
	<polygon display="inline" fill="#DDECF9" points="351.3,394 398,313.7 444.6,394 	"/>
	<polygon display="inline" fill="#E3F0FA" points="491.2,313.7 444.6,394 398,313.7 	"/>
	<polygon display="inline" fill="#EAF4FB" points="444.6,394 491.2,313.7 537.9,394 	"/>
	<polygon display="inline" fill="#EEF5FC" points="584.5,313.7 537.9,394 491.2,313.7 	"/>
	<polygon display="inline" fill="#F2F8FD" points="537.9,394 584.5,313.7 631.2,394 	"/>
	<polygon display="inline" fill="#FFFFFF" points="677.8,313.7 631.2,394 584.5,313.7 	"/>
	<polygon display="inline" fill="#F7FCFE" points="631.2,394 677.8,313.7 724.4,394 	"/>
	<polygon display="inline" fill="#FEFEFF" points="771.1,313.7 724.4,394 677.8,313.7 	"/>
	<polygon display="inline" fill="#C1DFF5" points="211.4,474.4 258,394 304.7,474.4 	"/>
	<polygon display="inline" fill="#C9E2F6" points="351.3,394 304.7,474.4 258,394 	"/>
	<polygon display="inline" fill="#D2E7F7" points="304.7,474.4 351.3,394 398,474.4 	"/>
	<polygon display="inline" fill="#D7E9F8" points="444.6,394 398,474.4 351.3,394 	"/>
	<polygon display="inline" fill="#E0EEF9" points="398,474.4 444.6,394 491.2,474.4 	"/>
	<polygon display="inline" fill="#E4F0FA" points="537.9,394 491.2,474.4 444.6,394 	"/>
	<polygon display="inline" fill="#EBF4FC" points="491.2,474.4 537.9,394 584.5,474.4 	"/>
	<polygon display="inline" fill="#EEF6FC" points="631.2,394 584.5,474.4 537.9,394 	"/>
	<polygon display="inline" fill="#F2F8FD" points="584.5,474.4 631.2,394 677.8,474.4 	"/>
	<polygon display="inline" fill="#F4F9FD" points="724.4,394 677.8,474.4 631.2,394 	"/>
	<polygon display="inline" fill="#F7FBFE" points="677.8,474.4 724.4,394 771.1,474.4 	"/>
	<polygon display="inline" fill="#AAD1EE" points="304.7,474.4 258,554.7 211.4,474.4 	"/>
	<polygon display="inline" fill="#C2DEF4" points="258,554.7 304.7,474.4 351.3,554.7 	"/>
	<polygon display="inline" fill="#C1DEF3" points="398,474.4 351.3,554.7 304.7,474.4 	"/>
	<polygon display="inline" fill="#D3E7F7" points="351.3,554.7 398,474.4 444.6,554.7 	"/>
	<polygon display="inline" fill="#D2E6F6" points="491.2,474.4 444.6,554.7 398,474.4 	"/>
	<polygon display="inline" fill="#E9F3FB" points="444.6,554.7 491.2,474.4 537.9,554.7 	"/>
	<polygon display="inline" fill="#DDECF8" points="584.5,474.4 537.9,554.7 491.2,474.4 	"/>
	<polygon display="inline" fill="#E9F3FB" points="537.9,554.7 584.5,474.4 631.2,554.7 	"/>
	<polygon display="inline" fill="#E3F0FA" points="677.8,474.4 631.2,554.7 584.5,474.4 	"/>
	<polygon display="inline" fill="#EDF6FC" points="631.2,554.7 677.8,474.4 724.4,554.7 	"/>
	<polygon display="inline" fill="#DDECF8" points="771.1,474.4 724.4,554.7 677.8,474.4 	"/>
	<polygon display="inline" fill="#A2CDEC" points="211.4,635 258,554.7 304.7,635 	"/>
	<polygon display="inline" fill="#AED3EE" points="351.3,554.7 304.7,635 258,554.7 	"/>
	<polygon display="inline" fill="#B5D6F0" points="304.7,635 351.3,554.7 398,635 	"/>
	<polygon display="inline" fill="#BDDCF2" points="444.6,554.7 398,635 351.3,554.7 	"/>
	<polygon display="inline" fill="#C3DEF3" points="398,635 444.6,554.7 491.2,635 	"/>
	<polygon display="inline" fill="#C5DFF3" points="537.9,554.7 491.2,635 444.6,554.7 	"/>
	<polygon display="inline" fill="#CEE4F5" points="491.2,635 537.9,554.7 584.5,635 	"/>
	<polygon display="inline" fill="#C1DCF0" points="631.2,554.7 584.5,635 537.9,554.7 	"/>
	<polygon display="inline" fill="#CCE2F3" points="584.5,635 631.2,554.7 677.8,635 	"/>
	<polygon display="inline" fill="#B8D7EC" points="724.4,554.7 677.8,635 631.2,554.7 	"/>
	<polygon display="inline" fill="#BFDBEE" points="677.8,635 724.4,554.7 771.1,635 	"/>
	<polygon display="inline" fill="#D2E7F7" points="211.4,72.7 258,72.7 211.4,153 	"/>
	<polygon display="inline" fill="#D0E6F7" points="211.4,72.7 258,72.7 211.4,-7.6 	"/>
	<polygon display="inline" fill="#CEE5F7" points="211.4,-88 258,-88 211.4,-7.6 	"/>
	<polygon display="inline" fill="#D1E6F7" points="211.4,233.4 258,233.4 211.4,313.7 	"/>
	<polygon display="inline" fill="#D2E7F7" points="211.4,233.4 258,233.4 211.4,153 	"/>
	<g display="inline">
		<polygon fill="#C9E2F6" points="211.4,394 258,394 211.4,474.4 		"/>
		<polygon fill="#CFE5F7" points="211.4,394 258,394 211.4,313.7 		"/>
	</g>
	<g display="inline">
		<polygon fill="#85BFE5" points="211.4,554.7 258,554.7 211.4,635 		"/>
		<polygon fill="#AAD1EE" points="211.4,554.7 258,554.7 211.4,474.4 		"/>
	</g>
	<polygon display="inline" fill="#D4E8F8" points="211.4,-7.6 258,-88 304.7,-7.6 	"/>
	<polygon display="inline" fill="#CEE5F7" points="351.3,-88 304.7,-7.6 258,-88 	"/>
	<polygon display="inline" fill="#D4E8F8" points="304.7,-7.6 351.3,-88 398,-7.6 	"/>
	<polygon display="inline" fill="#DCECF9" points="444.6,-88 398,-7.6 351.3,-88 	"/>
	<polygon display="inline" fill="#D9EAF8" points="304.7,-7.6 258,72.7 211.4,-7.6 	"/>
	<polygon display="inline" fill="#D0E6F7" points="258,72.7 304.7,-7.6 351.3,72.7 	"/>
	<polygon display="inline" fill="#D9EAF8" points="398,-7.6 351.3,72.7 304.7,-7.6 	"/>
	<polygon display="inline" fill="#DEEDF9" points="351.3,72.7 398,-7.6 444.6,72.7 	"/>
	<polygon display="inline" fill="#DAEBF8" points="211.4,153 258,72.7 304.7,153 	"/>
	<polygon display="inline" fill="#D2E7F7" points="351.3,72.7 304.7,153 258,72.7 	"/>
	<polygon display="inline" fill="#DAEAF8" points="304.7,153 351.3,72.7 398,153 	"/>
	<polygon display="inline" fill="#E1EFFA" points="444.6,72.7 398,153 351.3,72.7 	"/>
	<polygon display="inline" fill="#DAEBF8" points="304.7,153 258,233.4 211.4,153 	"/>
	<polygon display="inline" fill="#D2E7F7" points="258,233.4 304.7,153 351.3,233.4 	"/>
	<polygon display="inline" fill="#DAEBF8" points="398,153 351.3,233.4 304.7,153 	"/>
	<polygon display="inline" fill="#E1EFFA" points="351.3,233.4 398,153 444.6,233.4 	"/>
	<polygon display="inline" fill="#D9EAF8" points="211.4,313.7 258,233.4 304.7,313.7 	"/>
	<polygon display="inline" fill="#D1E6F7" points="351.3,233.4 304.7,313.7 258,233.4 	"/>
	<polygon display="inline" fill="#D9EAF8" points="304.7,313.7 351.3,233.4 398,313.7 	"/>
	<polygon display="inline" fill="#DFEDF9" points="444.6,233.4 398,313.7 351.3,233.4 	"/>
	<polygon display="inline" fill="#D5E8F8" points="304.7,313.7 258,394 211.4,313.7 	"/>
	<polygon display="inline" fill="#CFE5F7" points="258,394 304.7,313.7 351.3,394 	"/>
	<polygon display="inline" fill="#D5E8F8" points="398,313.7 351.3,394 304.7,313.7 	"/>
	<polygon display="inline" fill="#DDECF9" points="351.3,394 398,313.7 444.6,394 	"/>
	<polygon display="inline" fill="#E0EEF9" points="211.4,474.4 258,394 304.7,474.4 	"/>
	<polygon display="inline" fill="#C9E2F6" points="351.3,394 304.7,474.4 258,394 	"/>
	<polygon display="inline" fill="#E0EEF9" points="304.7,474.4 351.3,394 398,474.4 	"/>
	<polygon display="inline" fill="#D7E9F8" points="444.6,394 398,474.4 351.3,394 	"/>
	<polygon display="inline" fill="#D2E6F6" points="304.7,474.4 258,554.7 211.4,474.4 	"/>
	<polygon display="inline" fill="#E0EEF9" points="258,554.7 304.7,474.4 351.3,554.7 	"/>
	<polygon display="inline" fill="#D2E6F6" points="398,474.4 351.3,554.7 304.7,474.4 	"/>
	<polygon display="inline" fill="#E0EEF9" points="351.3,554.7 398,474.4 444.6,554.7 	"/>
	<polygon display="inline" fill="#A2CDEC" points="211.4,635 258,554.7 304.7,635 	"/>
	<polygon display="inline" fill="#AED3EE" points="351.3,554.7 304.7,635 258,554.7 	"/>
	<polygon display="inline" fill="#B5D6F0" points="304.7,635 351.3,554.7 398,635 	"/>
	<polygon display="inline" fill="#BDDCF2" points="444.6,554.7 398,635 351.3,554.7 	"/>
	<polygon display="inline" fill="#D2E7F7" points="211.4,72.7 258,72.7 211.4,153 	"/>
	<polygon display="inline" fill="#D0E6F7" points="211.4,72.7 258,72.7 211.4,-7.6 	"/>
	<polygon display="inline" fill="#CEE5F7" points="211.4,-88 258,-88 211.4,-7.6 	"/>
	<polygon display="inline" fill="#D1E6F7" points="211.4,233.4 258,233.4 211.4,313.7 	"/>
	<polygon display="inline" fill="#D2E7F7" points="211.4,233.4 258,233.4 211.4,153 	"/>
	<polygon display="inline" fill="#C9E2F6" points="211.4,394 258,394 211.4,474.4 	"/>
	<polygon display="inline" fill="#CFE5F7" points="211.4,394 258,394 211.4,313.7 	"/>
	<polygon display="inline" fill="#AED3EE" points="211.4,554.7 258,554.7 211.4,635 	"/>
	<polygon display="inline" fill="#C2DEF4" points="211.4,554.7 258,554.7 211.4,474.4 	"/>
	<polygon display="inline" fill="#D4E8F8" points="211.4,-7.6 164.8,-88 118.1,-7.6 	"/>
	<polygon display="inline" fill="#CEE5F7" points="71.5,-88 118.1,-7.6 164.8,-88 	"/>
	<polygon display="inline" fill="#D4E8F8" points="118.1,-7.6 71.5,-88 24.9,-7.6 	"/>
	<polygon display="inline" fill="#DCECF9" points="-21.8,-88 24.9,-7.6 71.5,-88 	"/>
	<polygon display="inline" fill="#D9EAF8" points="118.1,-7.6 164.8,72.7 211.4,-7.6 	"/>
	<polygon display="inline" fill="#D0E6F7" points="164.8,72.7 118.1,-7.6 71.5,72.7 	"/>
	<polygon display="inline" fill="#D9EAF8" points="24.9,-7.6 71.5,72.7 118.1,-7.6 	"/>
	<polygon display="inline" fill="#DEEDF9" points="71.5,72.7 24.9,-7.6 -21.8,72.7 	"/>
	<polygon display="inline" fill="#DAEBF8" points="211.4,153 164.8,72.7 118.1,153 	"/>
	<polygon display="inline" fill="#D2E7F7" points="71.5,72.7 118.1,153 164.8,72.7 	"/>
	<polygon display="inline" fill="#DAEAF8" points="118.1,153 71.5,72.7 24.9,153 	"/>
	<polygon display="inline" fill="#E1EFFA" points="-21.8,72.7 24.9,153 71.5,72.7 	"/>
	<polygon display="inline" fill="#DAEBF8" points="118.1,153 164.8,233.4 211.4,153 	"/>
	<polygon display="inline" fill="#D2E7F7" points="164.8,233.4 118.1,153 71.5,233.4 	"/>
	<polygon display="inline" fill="#DAEBF8" points="24.9,153 71.5,233.4 118.1,153 	"/>
	<polygon display="inline" fill="#E1EFFA" points="71.5,233.4 24.9,153 -21.8,233.4 	"/>
	<polygon display="inline" fill="#D9EAF8" points="211.4,313.7 164.8,233.4 118.1,313.7 	"/>
	<polygon display="inline" fill="#D1E6F7" points="71.5,233.4 118.1,313.7 164.8,233.4 	"/>
	<polygon display="inline" fill="#D9EAF8" points="118.1,313.7 71.5,233.4 24.9,313.7 	"/>
	<polygon display="inline" fill="#DFEDF9" points="-21.8,233.4 24.9,313.7 71.5,233.4 	"/>
	<polygon display="inline" fill="#D5E8F8" points="118.1,313.7 164.8,394 211.4,313.7 	"/>
	<polygon display="inline" fill="#CFE5F7" points="164.8,394 118.1,313.7 71.5,394 	"/>
	<polygon display="inline" fill="#D5E8F8" points="24.9,313.7 71.5,394 118.1,313.7 	"/>
	<polygon display="inline" fill="#DDECF9" points="71.5,394 24.9,313.7 -21.8,394 	"/>
	<polygon display="inline" fill="#E0EEF9" points="211.4,474.4 164.8,394 118.1,474.4 	"/>
	<polygon display="inline" fill="#C9E2F6" points="71.5,394 118.1,474.4 164.8,394 	"/>
	<polygon display="inline" fill="#E0EEF9" points="118.1,474.4 71.5,394 24.9,474.4 	"/>
	<polygon display="inline" fill="#D7E9F8" points="-21.8,394 24.9,474.4 71.5,394 	"/>
	<polygon display="inline" fill="#D2E6F6" points="118.1,474.4 164.8,554.7 211.4,474.4 	"/>
	<polygon display="inline" fill="#C2DEF4" points="164.8,554.7 118.1,474.4 71.5,554.7 	"/>
	<polygon display="inline" fill="#D2E6F6" points="24.9,474.4 71.5,554.7 118.1,474.4 	"/>
	<polygon display="inline" fill="#D3E7F7" points="71.5,554.7 24.9,474.4 -21.8,554.7 	"/>
	<polygon display="inline" fill="#A2CDEC" points="211.4,635 164.8,554.7 118.1,635 	"/>
	<polygon display="inline" fill="#AED3EE" points="71.5,554.7 118.1,635 164.8,554.7 	"/>
	<polygon display="inline" fill="#B5D6F0" points="118.1,635 71.5,554.7 24.9,635 	"/>
	<polygon display="inline" fill="#BDDCF2" points="-21.8,554.7 24.9,635 71.5,554.7 	"/>
	<polygon display="inline" fill="#D2E7F7" points="211.4,72.7 164.8,72.7 211.4,153 	"/>
	<polygon display="inline" fill="#D0E6F7" points="211.4,72.7 164.8,72.7 211.4,-7.6 	"/>
	<polygon display="inline" fill="#CEE5F7" points="211.4,-88 164.8,-88 211.4,-7.6 	"/>
	<polygon display="inline" fill="#D1E6F7" points="211.4,233.4 164.8,233.4 211.4,313.7 	"/>
	<polygon display="inline" fill="#D2E7F7" points="211.4,233.4 164.8,233.4 211.4,153 	"/>
	<polygon display="inline" fill="#C9E2F6" points="211.4,394 164.8,394 211.4,474.4 	"/>
	<polygon display="inline" fill="#CFE5F7" points="211.4,394 164.8,394 211.4,313.7 	"/>
	<polygon display="inline" fill="#AED3EE" points="211.4,554.7 164.8,554.7 211.4,635 	"/>
	<polygon display="inline" fill="#C2DEF4" points="211.4,554.7 164.8,554.7 211.4,474.4 	"/>
</g>
<g id="Layer_2">
	<polygon fill="#C9E2F6" points="258.4,118.5 323,-4 387.6,118.5 	"/>
	<polygon fill="#D1E6F7" points="452.1,-4 387.6,118.5 323,-4 	"/>
	<polygon fill="#E7F2FB" points="387.6,118.5 452.1,-4 516.7,118.5 	"/>
	<polygon fill="#ECF4FC" points="581.3,-4 516.7,118.5 452.1,-4 	"/>
	<polygon fill="#E7F2FB" points="516.7,118.5 581.3,-4 645.9,118.5 	"/>
	<polygon fill="#ECF4FC" points="710.5,-4 645.9,118.5 581.3,-4 	"/>
	<polygon fill="#F0F7FD" points="645.9,118.5 710.5,-4 775.1,118.5 	"/>
	<polygon fill="#F3F9FD" points="839.7,-4 775.1,118.5 710.5,-4 	"/>
	<polygon fill="#FCFEFF" points="775.1,118.5 839.7,-4 904.3,118.5 	"/>
	<polygon fill="#F3F9FD" points="968.9,-4 904.3,118.5 839.7,-4 	"/>
	<polygon fill="#FCFEFF" points="904.3,118.5 968.9,-4 1033.5,118.5 	"/>
	<polygon fill="#F3F9FD" points="1098.1,-4 1033.5,118.5 968.9,-4 	"/>
	<polygon fill="#FCFEFF" points="1033.5,118.5 1098.1,-4 1162.7,118.5 	"/>
	<polygon fill="#F3F9FD" points="1227.3,-4 1162.7,118.5 1098.1,-4 	"/>
	<polygon fill="#FCFEFF" points="1162.7,118.5 1227.3,-4 1291.9,118.5 	"/>
	<polygon fill="#FCFEFF" points="1356.4,-4 1291.9,118.5 1227.3,-4 	"/>
	<polygon fill="#C5E0F5" points="387.6,118.5 323,241.1 258.4,118.5 	"/>
	<polygon fill="#CFE5F7" points="323,241.1 387.6,118.5 452.1,241.1 	"/>
	<polygon fill="#E3F0FA" points="516.7,118.5 452.1,241.1 387.6,118.5 	"/>
	<polygon fill="#EAF4FB" points="452.1,241.1 516.7,118.5 581.3,241.1 	"/>
	<polygon fill="#E3F0FA" points="645.9,118.5 581.3,241.1 516.7,118.5 	"/>
	<polygon fill="#EAF4FB" points="581.3,241.1 645.9,118.5 710.5,241.1 	"/>
	<polygon fill="#EEF5FC" points="775.1,118.5 710.5,241.1 645.9,118.5 	"/>
	<polygon fill="#F2F8FD" points="710.5,241.1 775.1,118.5 839.7,241.1 	"/>
	<polygon fill="#F4F9FD" points="904.3,118.5 839.7,241.1 775.1,118.5 	"/>
	<polygon fill="#FCFEFF" points="839.7,241.1 904.3,118.5 968.9,241.1 	"/>
	<polygon fill="#F2F8FD" points="1033.5,118.5 968.9,241.1 904.3,118.5 	"/>
	<polygon fill="#FCFEFF" points="968.9,241.1 1033.5,118.5 1098.1,241.1 	"/>
	<polygon fill="#F2F8FD" points="1162.7,118.5 1098.1,241.1 1033.5,118.5 	"/>
	<polygon fill="#FCFEFF" points="1098.1,241.1 1162.7,118.5 1227.3,241.1 	"/>
	<polygon fill="#F2F8FD" points="1291.9,118.5 1227.3,241.1 1162.7,118.5 	"/>
	<polygon fill="#FCFEFF" points="1227.3,241.1 1291.9,118.5 1356.4,241.1 	"/>
	<polygon fill="#C1DFF5" points="258.4,363.6 323,241.1 387.6,363.6 	"/>
	<polygon fill="#C9E2F6" points="452.1,241.1 387.6,363.6 323,241.1 	"/>
	<polygon fill="#E0EEF9" points="387.6,363.6 452.1,241.1 516.7,363.6 	"/>
	<polygon fill="#E4F0FA" points="581.3,241.1 516.7,363.6 452.1,241.1 	"/>
	<polygon fill="#E0EEF9" points="516.7,363.6 581.3,241.1 645.9,363.6 	"/>
	<polygon fill="#E4F0FA" points="710.5,241.1 645.9,363.6 581.3,241.1 	"/>
	<polygon fill="#EBF4FC" points="645.9,363.6 710.5,241.1 775.1,363.6 	"/>
	<polygon fill="#EEF6FC" points="839.7,241.1 775.1,363.6 710.5,241.1 	"/>
	<polygon fill="#F2F8FD" points="775.1,363.6 839.7,241.1 904.3,363.6 	"/>
	<polygon fill="#F4F9FD" points="968.9,241.1 904.3,363.6 839.7,241.1 	"/>
	<polygon fill="#FCFEFF" points="904.3,363.6 968.9,241.1 1033.5,363.6 	"/>
	<polygon fill="#F4F9FD" points="1098.1,241.1 1033.5,363.6 968.9,241.1 	"/>
	<polygon fill="#FCFEFF" points="1033.5,363.6 1098.1,241.1 1162.7,363.6 	"/>
	<polygon fill="#F4F9FD" points="1227.3,241.1 1162.7,363.6 1098.1,241.1 	"/>
	<polygon fill="#FCFEFF" points="1162.7,363.6 1227.3,241.1 1291.9,363.6 	"/>
	<polygon fill="#FCFEFF" points="1356.4,241.1 1291.9,363.6 1227.3,241.1 	"/>
	<polygon fill="#AAD1EE" points="387.6,363.6 323,486.1 258.4,363.6 	"/>
	<polygon fill="#C2DEF4" points="323,486.1 387.6,363.6 452.1,486.1 	"/>
	<polygon fill="#D2E6F6" points="516.7,363.6 452.1,486.1 387.6,363.6 	"/>
	<polygon fill="#DFEEF9" points="452.1,486.1 516.7,363.6 581.3,486.1 	"/>
	<polygon fill="#D2E6F6" points="645.9,363.6 581.3,486.1 516.7,363.6 	"/>
	<polygon fill="#DFEEF9" points="581.3,486.1 645.9,363.6 710.5,486.1 	"/>
	<polygon fill="#DDECF8" points="775.1,363.6 710.5,486.1 645.9,363.6 	"/>
	<polygon fill="#E9F3FB" points="710.5,486.1 775.1,363.6 839.7,486.1 	"/>
	<polygon fill="#E3F0FA" points="904.3,363.6 839.7,486.1 775.1,363.6 	"/>
	<polygon fill="#EDF6FC" points="839.7,486.1 904.3,363.6 968.9,486.1 	"/>
	<polygon fill="#E3F0FA" points="1033.5,363.6 968.9,486.1 904.3,363.6 	"/>
	<polygon fill="#EDF6FC" points="968.9,486.1 1033.5,363.6 1098.1,486.1 	"/>
	<polygon fill="#E3F0FA" points="1162.7,363.6 1098.1,486.1 1033.5,363.6 	"/>
	<polygon fill="#EDF6FC" points="1098.1,486.1 1162.7,363.6 1227.3,486.1 	"/>
	<polygon fill="#E3F0FA" points="1291.9,363.6 1227.3,486.1 1162.7,363.6 	"/>
	<polygon fill="#C6E0F1" points="1227.3,486.1 1291.9,363.6 1356.4,486.1 	"/>
	<polygon fill="#A2CDEC" points="258.4,608.6 323,486.1 387.6,608.6 	"/>
	<polygon fill="#AED3EE" points="452.1,486.1 387.6,608.6 323,486.1 	"/>
	<polygon fill="#B5D6F0" points="387.6,608.6 452.1,486.1 516.7,608.6 	"/>
	<polygon fill="#BDDCF2" points="581.3,486.1 516.7,608.6 452.1,486.1 	"/>
	<polygon fill="#CEE4F5" points="516.7,608.6 581.3,486.1 645.9,608.6 	"/>
	<polygon fill="#C5DFF3" points="710.5,486.1 645.9,608.6 581.3,486.1 	"/>
	<polygon fill="#CEE4F5" points="645.9,608.6 710.5,486.1 775.1,608.6 	"/>
	<polygon fill="#C1DCF0" points="839.7,486.1 775.1,608.6 710.5,486.1 	"/>
	<polygon fill="#CCE2F3" points="775.1,608.6 839.7,486.1 904.3,608.6 	"/>
	<polygon fill="#B8D7EC" points="968.9,486.1 904.3,608.6 839.7,486.1 	"/>
	<polygon fill="#BFDBEE" points="904.3,608.6 968.9,486.1 1033.5,608.6 	"/>
	<polygon fill="#B1D3EA" points="1098.1,486.1 1033.5,608.6 968.9,486.1 	"/>
	<polygon fill="#B4D5EB" points="1033.5,608.6 1098.1,486.1 1162.7,608.6 	"/>
	<polygon fill="#AED2E9" points="1227.3,486.1 1162.7,608.6 1098.1,486.1 	"/>
	<polygon fill="#B3D5EA" points="1162.7,608.6 1227.3,486.1 1291.9,608.6 	"/>
	<polygon fill="#A5CBE5" points="1356.4,486.1 1291.9,608.6 1227.3,486.1 	"/>
	<polygon fill="#D1E6F7" points="258.4,-4 323,-4 258.4,118.5 	"/>
	<g>
		<polygon fill="#C9E2F6" points="258.4,241.1 323,241.1 258.4,363.6 		"/>
		<polygon fill="#CFE5F7" points="258.4,241.1 323,241.1 258.4,118.5 		"/>
	</g>
	<g>
		<polygon fill="#85BFE5" points="258.4,486.1 323,486.1 258.4,608.6 		"/>
		<polygon fill="#AAD1EE" points="258.4,486.1 323,486.1 258.4,363.6 		"/>
	</g>
	<polygon fill="#C9E2F6" points="0,118.5 64.6,-4 129.2,118.5 	"/>
	<polygon fill="#D1E6F7" points="193.8,-4 129.2,118.5 64.6,-4 	"/>
	<polygon fill="#D9EAF8" points="129.2,118.5 193.8,-4 258.4,118.5 	"/>
	<polygon fill="#DFEDF9" points="323,-4 258.4,118.5 193.8,-4 	"/>
	<polygon fill="#E7F2FB" points="258.4,118.5 323,-4 387.6,118.5 	"/>
	<polygon fill="#ECF4FC" points="452.1,-4 387.6,118.5 323,-4 	"/>
	<polygon fill="#C5E0F5" points="129.2,118.5 64.6,241.1 0,118.5 	"/>
	<polygon fill="#CFE5F7" points="64.6,241.1 129.2,118.5 193.8,241.1 	"/>
	<polygon fill="#D5E8F8" points="258.4,118.5 193.8,241.1 129.2,118.5 	"/>
	<polygon fill="#DDECF9" points="193.8,241.1 258.4,118.5 323,241.1 	"/>
	<polygon fill="#E3F0FA" points="387.6,118.5 323,241.1 258.4,118.5 	"/>
	<polygon fill="#EAF4FB" points="323,241.1 387.6,118.5 452.1,241.1 	"/>
	<polygon fill="#C1DFF5" points="0,363.6 64.6,241.1 129.2,363.6 	"/>
	<polygon fill="#C9E2F6" points="193.8,241.1 129.2,363.6 64.6,241.1 	"/>
	<polygon fill="#D2E7F7" points="129.2,363.6 193.8,241.1 258.4,363.6 	"/>
	<polygon fill="#D7E9F8" points="323,241.1 258.4,363.6 193.8,241.1 	"/>
	<polygon fill="#E0EEF9" points="258.4,363.6 323,241.1 387.6,363.6 	"/>
	<polygon fill="#E4F0FA" points="452.1,241.1 387.6,363.6 323,241.1 	"/>
	<polygon fill="#AAD1EE" points="129.2,363.6 64.6,486.1 0,363.6 	"/>
	<polygon fill="#C2DEF4" points="64.6,486.1 129.2,363.6 193.8,486.1 	"/>
	<polygon fill="#C1DEF3" points="258.4,363.6 193.8,486.1 129.2,363.6 	"/>
	<polygon fill="#D3E7F7" points="193.8,486.1 258.4,363.6 323,486.1 	"/>
	<polygon fill="#D2E6F6" points="387.6,363.6 323,486.1 258.4,363.6 	"/>
	<polygon fill="#DFEEF9" points="323,486.1 387.6,363.6 452.1,486.1 	"/>
	<polygon fill="#A2CDEC" points="0,608.6 64.6,486.1 129.2,608.6 	"/>
	<polygon fill="#AED3EE" points="193.8,486.1 129.2,608.6 64.6,486.1 	"/>
	<polygon fill="#B5D6F0" points="129.2,608.6 193.8,486.1 258.4,608.6 	"/>
	<polygon fill="#BDDCF2" points="323,486.1 258.4,608.6 193.8,486.1 	"/>
	<polygon fill="#B5D6F0" points="258.4,608.6 323,486.1 387.6,608.6 	"/>
	<polygon fill="#C5DFF3" points="452.1,486.1 387.6,608.6 323,486.1 	"/>
	<polygon fill="#D1E6F7" points="0,-4 64.6,-4 0,118.5 	"/>
	<g>
		<polygon fill="#C9E2F6" points="0,241.1 64.6,241.1 0,363.6 		"/>
		<polygon fill="#CFE5F7" points="0,241.1 64.6,241.1 0,118.5 		"/>
	</g>
	<g>
		<polygon fill="#85BFE5" points="0,486.1 64.6,486.1 0,608.6 		"/>
		<polygon fill="#AAD1EE" points="0,486.1 64.6,486.1 0,363.6 		"/>
	</g>
	<polygon fill="#C9E2F6" points="2325.3,118.5 2260.7,-4 2196.2,118.5 	"/>
	<polygon fill="#D1E6F7" points="2131.6,-4 2196.2,118.5 2260.7,-4 	"/>
	<polygon fill="#E7F2FB" points="2196.2,118.5 2131.6,-4 2067,118.5 	"/>
	<polygon fill="#ECF4FC" points="2002.4,-4 2067,118.5 2131.6,-4 	"/>
	<polygon fill="#E7F2FB" points="2067,118.5 2002.4,-4 1937.8,118.5 	"/>
	<polygon fill="#ECF4FC" points="1873.2,-4 1937.8,118.5 2002.4,-4 	"/>
	<polygon fill="#F0F7FD" points="1937.8,118.5 1873.2,-4 1808.6,118.5 	"/>
	<polygon fill="#F3F9FD" points="1744,-4 1808.6,118.5 1873.2,-4 	"/>
	<polygon fill="#FCFEFF" points="1808.6,118.5 1744,-4 1679.4,118.5 	"/>
	<polygon fill="#F3F9FD" points="1614.8,-4 1679.4,118.5 1744,-4 	"/>
	<polygon fill="#FCFEFF" points="1679.4,118.5 1614.8,-4 1550.2,118.5 	"/>
	<polygon fill="#F3F9FD" points="1485.6,-4 1550.2,118.5 1614.8,-4 	"/>
	<polygon fill="#FCFEFF" points="1550.2,118.5 1485.6,-4 1421,118.5 	"/>
	<polygon fill="#F3F9FD" points="1356.4,-4 1421,118.5 1485.6,-4 	"/>
	<polygon fill="#FCFEFF" points="1421,118.5 1356.4,-4 1291.9,118.5 	"/>
	<polygon fill="#F3F9FD" points="1227.3,-4 1291.9,118.5 1356.4,-4 	"/>
	<polygon fill="#C5E0F5" points="2196.2,118.5 2260.7,241.1 2325.3,118.5 	"/>
	<polygon fill="#CFE5F7" points="2260.7,241.1 2196.2,118.5 2131.6,241.1 	"/>
	<polygon fill="#E3F0FA" points="2067,118.5 2131.6,241.1 2196.2,118.5 	"/>
	<polygon fill="#EAF4FB" points="2131.6,241.1 2067,118.5 2002.4,241.1 	"/>
	<polygon fill="#E3F0FA" points="1937.8,118.5 2002.4,241.1 2067,118.5 	"/>
	<polygon fill="#EAF4FB" points="2002.4,241.1 1937.8,118.5 1873.2,241.1 	"/>
	<polygon fill="#EEF5FC" points="1808.6,118.5 1873.2,241.1 1937.8,118.5 	"/>
	<polygon fill="#F2F8FD" points="1873.2,241.1 1808.6,118.5 1744,241.1 	"/>
	<polygon fill="#F4F9FD" points="1679.4,118.5 1744,241.1 1808.6,118.5 	"/>
	<polygon fill="#FCFEFF" points="1744,241.1 1679.4,118.5 1614.8,241.1 	"/>
	<polygon fill="#F2F8FD" points="1550.2,118.5 1614.8,241.1 1679.4,118.5 	"/>
	<polygon fill="#FCFEFF" points="1614.8,241.1 1550.2,118.5 1485.6,241.1 	"/>
	<polygon fill="#F2F8FD" points="1421,118.5 1485.6,241.1 1550.2,118.5 	"/>
	<polygon fill="#FCFEFF" points="1485.6,241.1 1421,118.5 1356.4,241.1 	"/>
	<polygon fill="#F2F8FD" points="1291.9,118.5 1356.4,241.1 1421,118.5 	"/>
	<polygon fill="#FCFEFF" points="1356.4,241.1 1291.9,118.5 1227.3,241.1 	"/>
	<polygon fill="#C1DFF5" points="2325.3,363.6 2260.7,241.1 2196.2,363.6 	"/>
	<polygon fill="#C9E2F6" points="2131.6,241.1 2196.2,363.6 2260.7,241.1 	"/>
	<polygon fill="#E0EEF9" points="2196.2,363.6 2131.6,241.1 2067,363.6 	"/>
	<polygon fill="#E4F0FA" points="2002.4,241.1 2067,363.6 2131.6,241.1 	"/>
	<polygon fill="#E0EEF9" points="2067,363.6 2002.4,241.1 1937.8,363.6 	"/>
	<polygon fill="#E4F0FA" points="1873.2,241.1 1937.8,363.6 2002.4,241.1 	"/>
	<polygon fill="#EBF4FC" points="1937.8,363.6 1873.2,241.1 1808.6,363.6 	"/>
	<polygon fill="#EEF6FC" points="1744,241.1 1808.6,363.6 1873.2,241.1 	"/>
	<polygon fill="#F2F8FD" points="1808.6,363.6 1744,241.1 1679.4,363.6 	"/>
	<polygon fill="#F4F9FD" points="1614.8,241.1 1679.4,363.6 1744,241.1 	"/>
	<polygon fill="#FCFEFF" points="1679.4,363.6 1614.8,241.1 1550.2,363.6 	"/>
	<polygon fill="#F4F9FD" points="1485.6,241.1 1550.2,363.6 1614.8,241.1 	"/>
	<polygon fill="#FCFEFF" points="1550.2,363.6 1485.6,241.1 1421,363.6 	"/>
	<polygon fill="#F4F9FD" points="1356.4,241.1 1421,363.6 1485.6,241.1 	"/>
	<polygon fill="#FCFEFF" points="1421,363.6 1356.4,241.1 1291.9,363.6 	"/>
	<polygon fill="#F4F9FD" points="1227.3,241.1 1291.9,363.6 1356.4,241.1 	"/>
	<polygon fill="#AAD1EE" points="2196.2,363.6 2260.7,486.1 2325.3,363.6 	"/>
	<polygon fill="#C2DEF4" points="2260.7,486.1 2196.2,363.6 2131.6,486.1 	"/>
	<polygon fill="#D2E6F6" points="2067,363.6 2131.6,486.1 2196.2,363.6 	"/>
	<polygon fill="#DFEEF9" points="2131.6,486.1 2067,363.6 2002.4,486.1 	"/>
	<polygon fill="#D2E6F6" points="1937.8,363.6 2002.4,486.1 2067,363.6 	"/>
	<polygon fill="#DFEEF9" points="2002.4,486.1 1937.8,363.6 1873.2,486.1 	"/>
	<polygon fill="#DDECF8" points="1808.6,363.6 1873.2,486.1 1937.8,363.6 	"/>
	<polygon fill="#E9F3FB" points="1873.2,486.1 1808.6,363.6 1744,486.1 	"/>
	<polygon fill="#E3F0FA" points="1679.4,363.6 1744,486.1 1808.6,363.6 	"/>
	<polygon fill="#EDF6FC" points="1744,486.1 1679.4,363.6 1614.8,486.1 	"/>
	<polygon fill="#E3F0FA" points="1550.2,363.6 1614.8,486.1 1679.4,363.6 	"/>
	<polygon fill="#EDF6FC" points="1614.8,486.1 1550.2,363.6 1485.6,486.1 	"/>
	<polygon fill="#E3F0FA" points="1421,363.6 1485.6,486.1 1550.2,363.6 	"/>
	<polygon fill="#EDF6FC" points="1485.6,486.1 1421,363.6 1356.4,486.1 	"/>
	<polygon fill="#E3F0FA" points="1291.9,363.6 1356.4,486.1 1421,363.6 	"/>
	<polygon fill="#EDF6FC" points="1356.4,486.1 1291.9,363.6 1227.3,486.1 	"/>
	<polygon fill="#A2CDEC" points="2325.3,608.6 2260.7,486.1 2196.2,608.6 	"/>
	<polygon fill="#AED3EE" points="2131.6,486.1 2196.2,608.6 2260.7,486.1 	"/>
	<polygon fill="#B5D6F0" points="2196.2,608.6 2131.6,486.1 2067,608.6 	"/>
	<polygon fill="#BDDCF2" points="2002.4,486.1 2067,608.6 2131.6,486.1 	"/>
	<polygon fill="#CEE4F5" points="2067,608.6 2002.4,486.1 1937.8,608.6 	"/>
	<polygon fill="#C5DFF3" points="1873.2,486.1 1937.8,608.6 2002.4,486.1 	"/>
	<polygon fill="#CEE4F5" points="1937.8,608.6 1873.2,486.1 1808.6,608.6 	"/>
	<polygon fill="#C1DCF0" points="1744,486.1 1808.6,608.6 1873.2,486.1 	"/>
	<polygon fill="#CCE2F3" points="1808.6,608.6 1744,486.1 1679.4,608.6 	"/>
	<polygon fill="#B8D7EC" points="1614.8,486.1 1679.4,608.6 1744,486.1 	"/>
	<polygon fill="#BFDBEE" points="1679.4,608.6 1614.8,486.1 1550.2,608.6 	"/>
	<polygon fill="#B1D3EA" points="1485.6,486.1 1550.2,608.6 1614.8,486.1 	"/>
	<polygon fill="#B4D5EB" points="1550.2,608.6 1485.6,486.1 1421,608.6 	"/>
	<polygon fill="#AED2E9" points="1356.4,486.1 1421,608.6 1485.6,486.1 	"/>
	<polygon fill="#B3D5EA" points="1421,608.6 1356.4,486.1 1291.9,608.6 	"/>
	<polygon fill="#A5CBE5" points="1227.3,486.1 1291.9,608.6 1356.4,486.1 	"/>
	<polygon fill="#D1E6F7" points="2325.3,-4 2260.7,-4 2325.3,118.5 	"/>
	<g>
		<polygon fill="#C9E2F6" points="2325.3,241.1 2260.7,241.1 2325.3,363.6 		"/>
		<polygon fill="#CFE5F7" points="2325.3,241.1 2260.7,241.1 2325.3,118.5 		"/>
	</g>
	<g>
		<polygon fill="#85BFE5" points="2325.3,486.1 2260.7,486.1 2325.3,608.6 		"/>
		<polygon fill="#AAD1EE" points="2325.3,486.1 2260.7,486.1 2325.3,363.6 		"/>
	</g>
	<polygon fill="#C9E2F6" points="2583.7,118.5 2519.1,-4 2454.5,118.5 	"/>
	<polygon fill="#D1E6F7" points="2389.9,-4 2454.5,118.5 2519.1,-4 	"/>
	<polygon fill="#D9EAF8" points="2454.5,118.5 2389.9,-4 2325.3,118.5 	"/>
	<polygon fill="#DFEDF9" points="2260.7,-4 2325.3,118.5 2389.9,-4 	"/>
	<polygon fill="#E7F2FB" points="2325.3,118.5 2260.7,-4 2196.2,118.5 	"/>
	<polygon fill="#ECF4FC" points="2131.6,-4 2196.2,118.5 2260.7,-4 	"/>
	<polygon fill="#C5E0F5" points="2454.5,118.5 2519.1,241.1 2583.7,118.5 	"/>
	<polygon fill="#CFE5F7" points="2519.1,241.1 2454.5,118.5 2389.9,241.1 	"/>
	<polygon fill="#D5E8F8" points="2325.3,118.5 2389.9,241.1 2454.5,118.5 	"/>
	<polygon fill="#DDECF9" points="2389.9,241.1 2325.3,118.5 2260.7,241.1 	"/>
	<polygon fill="#E3F0FA" points="2196.2,118.5 2260.7,241.1 2325.3,118.5 	"/>
	<polygon fill="#EAF4FB" points="2260.7,241.1 2196.2,118.5 2131.6,241.1 	"/>
	<polygon fill="#C1DFF5" points="2583.7,363.6 2519.1,241.1 2454.5,363.6 	"/>
	<polygon fill="#C9E2F6" points="2389.9,241.1 2454.5,363.6 2519.1,241.1 	"/>
	<polygon fill="#D2E7F7" points="2454.5,363.6 2389.9,241.1 2325.3,363.6 	"/>
	<polygon fill="#D7E9F8" points="2260.7,241.1 2325.3,363.6 2389.9,241.1 	"/>
	<polygon fill="#E0EEF9" points="2325.3,363.6 2260.7,241.1 2196.2,363.6 	"/>
	<polygon fill="#E4F0FA" points="2131.6,241.1 2196.2,363.6 2260.7,241.1 	"/>
	<polygon fill="#AAD1EE" points="2454.5,363.6 2519.1,486.1 2583.7,363.6 	"/>
	<polygon fill="#C2DEF4" points="2519.1,486.1 2454.5,363.6 2389.9,486.1 	"/>
	<polygon fill="#C1DEF3" points="2325.3,363.6 2389.9,486.1 2454.5,363.6 	"/>
	<polygon fill="#D3E7F7" points="2389.9,486.1 2325.3,363.6 2260.7,486.1 	"/>
	<polygon fill="#D2E6F6" points="2196.2,363.6 2260.7,486.1 2325.3,363.6 	"/>
	<polygon fill="#DFEEF9" points="2260.7,486.1 2196.2,363.6 2131.6,486.1 	"/>
	<polygon fill="#A2CDEC" points="2583.7,608.6 2519.1,486.1 2454.5,608.6 	"/>
	<polygon fill="#AED3EE" points="2389.9,486.1 2454.5,608.6 2519.1,486.1 	"/>
	<polygon fill="#B5D6F0" points="2454.5,608.6 2389.9,486.1 2325.3,608.6 	"/>
	<polygon fill="#BDDCF2" points="2260.7,486.1 2325.3,608.6 2389.9,486.1 	"/>
	<polygon fill="#B5D6F0" points="2325.3,608.6 2260.7,486.1 2196.2,608.6 	"/>
	<polygon fill="#C5DFF3" points="2131.6,486.1 2196.2,608.6 2260.7,486.1 	"/>
	<polygon fill="#D1E6F7" points="2583.7,-4 2519.1,-4 2583.7,118.5 	"/>
	<g>
		<polygon fill="#C9E2F6" points="2583.7,241.1 2519.1,241.1 2583.7,363.6 		"/>
		<polygon fill="#CFE5F7" points="2583.7,241.1 2519.1,241.1 2583.7,118.5 		"/>
	</g>
	<g>
		<polygon fill="#85BFE5" points="2583.7,486.1 2519.1,486.1 2583.7,608.6 		"/>
		<polygon fill="#AAD1EE" points="2583.7,486.1 2519.1,486.1 2583.7,363.6 		"/>
	</g>
</g>
</svg>
