<?xml version="1.0" encoding="utf-8"?>
<!-- Generator: Adobe Illustrator 18.1.1, SVG Export Plug-In . SVG Version: 6.00 Build 0)  -->
<svg version="1.1" id="codetule" xmlns="http://www.w3.org/2000/svg" xmlns:xlink="http://www.w3.org/1999/xlink" x="0px" y="0px"
	 viewBox="0 190 960 180" enable-background="new 0 190 960 180" xml:space="preserve">
<linearGradient id="SVGID_1_" gradientUnits="userSpaceOnUse" x1="26.0661" y1="440.7267" x2="171.2817" y2="1264.2853" gradientTransform="matrix(1.3245 0 0 -1.3245 0 934.0397)">
	<stop  offset="3.900534e-02" style="stop-color:#6DB33F"/>
	<stop  offset="0.8683" style="stop-color:#00728F"/>
</linearGradient>
<path fill="url(#SVGID_1_)" d="M1.1,249.7c0-34,24.8-57.4,56.2-57.4c17.6,0,31.1,7.8,40.4,19.6l-7.9,5.2
	c-6.9-9.7-19.1-16.2-32.5-16.2c-26,0-46.2,19.9-46.2,48.7c0,28.6,20.3,48.7,46.2,48.7c13.2,0,25.4-6.5,32.5-16.2l8.2,5
	C87.9,299.5,75,307,57.4,307C25.8,307.2,1.1,283.8,1.1,249.7z"/>
<linearGradient id="SVGID_2_" gradientUnits="userSpaceOnUse" x1="98.1766" y1="360.0641" x2="241.5153" y2="1172.9792" gradientTransform="matrix(1.3245 0 0 -1.3245 0 934.0397)">
	<stop  offset="3.900534e-02" style="stop-color:#6DB33F"/>
	<stop  offset="0.8683" style="stop-color:#00728F"/>
</linearGradient>
<path fill="url(#SVGID_2_)" d="M112.7,249.7c0-32.5,21.2-57.4,53.9-57.4c32.5,0,53.9,24.9,53.9,57.4S199.1,307,166.6,307
	C133.9,307.2,112.7,282.1,112.7,249.7z M210.5,249.7c0-28.1-17.4-48.7-44-48.7c-26.8,0-44,20.7-44,48.7c0,27.9,17.1,48.7,44,48.7
	C193.1,298.4,210.5,277.6,210.5,249.7z"/>
<linearGradient id="SVGID_3_" gradientUnits="userSpaceOnUse" x1="172.2018" y1="271.5615" x2="317.4684" y2="1095.4095" gradientTransform="matrix(1.3245 0 0 -1.3245 0 934.0397)">
	<stop  offset="3.900534e-02" style="stop-color:#6DB33F"/>
	<stop  offset="0.8683" style="stop-color:#00728F"/>
</linearGradient>
<path fill="url(#SVGID_3_)" d="M244,305.2v-111h35.5c34.4,0,56,25.2,56,55.5c0,30.7-21.6,55.4-56,55.4H244V305.2z M325.4,249.7
	c0-26-16.7-46.9-46.1-46.9h-26v93.6h26C308.6,296.4,325.4,275.6,325.4,249.7z"/>
<linearGradient id="SVGID_4_" gradientUnits="userSpaceOnUse" x1="235.8644" y1="166.3464" x2="392.2583" y2="1053.3002" gradientTransform="matrix(1.3245 0 0 -1.3245 0 934.0397)">
	<stop  offset="3.900534e-02" style="stop-color:#6DB33F"/>
	<stop  offset="0.8683" style="stop-color:#00728F"/>
</linearGradient>
<path fill="url(#SVGID_4_)" d="M359.1,305.2v-111h70.3v8.6h-60.9v41.1h59.7v8.6h-59.7v44h60.9v8.6h-70.3V305.2z"/>
<linearGradient id="SVGID_5_" gradientUnits="userSpaceOnUse" x1="321.5728" y1="53.7695" x2="479.5793" y2="949.8686" gradientTransform="matrix(1.3245 0 0 -1.3245 0 934.0397)">
	<stop  offset="3.900534e-02" style="stop-color:#6DB33F"/>
	<stop  offset="0.8683" style="stop-color:#00728F"/>
</linearGradient>
<path fill="url(#SVGID_5_)" d="M560.9,305.2l-31.1-46h-24.5v46h-9.5v-111h41.5c19.1,0,33.8,12.2,33.8,32.5
	c0,20.1-14.2,31.3-30.7,31.9l32.1,46.6H560.9z M561.2,226.6c0-14-9.8-23.8-24.6-23.8h-31.1v47.7h31.1
	C551.3,250.6,561.2,240.5,561.2,226.6z"/>
<linearGradient id="SVGID_6_" gradientUnits="userSpaceOnUse" x1="387.5715" y1="-3.0168" x2="536.6628" y2="842.5222" gradientTransform="matrix(1.3245 0 0 -1.3245 0 934.0397)">
	<stop  offset="3.900534e-02" style="stop-color:#6DB33F"/>
	<stop  offset="0.8683" style="stop-color:#00728F"/>
</linearGradient>
<path fill="url(#SVGID_6_)" d="M594.7,262.5v-68.3h9.7v68.2c0,22.5,11.8,36.2,33.6,36.2c21.9,0,33.5-13.8,33.5-36.2v-68.2h9.7v68.3
	c0,27.4-14.7,44.6-43.3,44.6C609.5,307.2,594.7,289.8,594.7,262.5z"/>
<linearGradient id="SVGID_7_" gradientUnits="userSpaceOnUse" x1="389.5651" y1="-434.8055" x2="634.422" y2="953.8471" gradientTransform="matrix(1.3245 0 0 -1.3245 0 934.0397)">
	<stop  offset="3.900534e-02" style="stop-color:#6DB33F"/>
	<stop  offset="0.8683" style="stop-color:#00728F"/>
</linearGradient>
<path fill="url(#SVGID_7_)" d="M706.5,305.2v-111h9.7v102.3h53.8v8.6h-63.4V305.2z"/>
<linearGradient id="SVGID_8_" gradientUnits="userSpaceOnUse" x1="500.9354" y1="-172.9605" x2="657.3308" y2="714.0017" gradientTransform="matrix(1.3245 0 0 -1.3245 0 934.0397)">
	<stop  offset="3.900534e-02" style="stop-color:#6DB33F"/>
	<stop  offset="0.8683" style="stop-color:#00728F"/>
</linearGradient>
<path fill="url(#SVGID_8_)" d="M789.4,305.2v-111h70.3v8.6h-60.9v41.1h59.7v8.6h-59.7v44h60.9v8.6h-70.3V305.2z"/>
<linearGradient id="SVGID_9_" gradientUnits="userSpaceOnUse" x1="561.2025" y1="-233.856" x2="715.2254" y2="639.6514" gradientTransform="matrix(1.3245 0 0 -1.3245 0 934.0397)">
	<stop  offset="3.900534e-02" style="stop-color:#6DB33F"/>
	<stop  offset="0.8683" style="stop-color:#00728F"/>
</linearGradient>
<path fill="url(#SVGID_9_)" d="M877.1,289.4l6.1-7.2c7.2,8.2,18.8,16.2,34.7,16.2c22.6,0,29.1-12.6,29.1-22.1
	c0-32.6-66.5-15.6-66.5-54.4c0-18,16.3-29.5,36.4-29.5c16.4,0,29.1,5.8,37.6,15.6l-6.4,7c-7.9-9.7-19.3-13.9-31.8-13.9
	c-14.8,0-26,8.5-26,20.4c0,28.5,66.5,12.8,66.5,54.2c0,14.3-9.5,31.4-39.5,31.4C899.3,307.2,885.6,299.6,877.1,289.4z"/>
<g>
	
		<linearGradient id="SVGID_10_" gradientUnits="userSpaceOnUse" x1="11.1648" y1="426.5755" x2="182.457" y2="1398.0221" gradientTransform="matrix(1.3245 0 0 -1.3245 0 934.0397)">
		<stop  offset="3.900534e-02" style="stop-color:#6DB33F"/>
		<stop  offset="0.8683" style="stop-color:#00728F"/>
	</linearGradient>
	<path fill="url(#SVGID_10_)" d="M29.7,355.6l-3.4-8.3h-18l-3.4,8.3H1.3l14-34.2h3.6l14,34.2H29.7z M17.2,324.6l-8.1,20h16.2
		L17.2,324.6z"/>
	
		<linearGradient id="SVGID_11_" gradientUnits="userSpaceOnUse" x1="35.1285" y1="388.5016" x2="193.5771" y2="1287.1079" gradientTransform="matrix(1.3245 0 0 -1.3245 0 934.0397)">
		<stop  offset="3.900534e-02" style="stop-color:#6DB33F"/>
		<stop  offset="0.8683" style="stop-color:#00728F"/>
	</linearGradient>
	<path fill="url(#SVGID_11_)" d="M51.3,355.6v-34.2h12.8c6.6,0,10.3,4.6,10.3,9.9c0,5.4-3.8,9.9-10.3,9.9h-9.9v14.2h-2.9V355.6z
		 M71.4,331.5c0-4.4-2.9-7.3-7.5-7.3h-9.5v14.7h9.5C68.3,338.8,71.4,335.8,71.4,331.5z"/>
	
		<linearGradient id="SVGID_12_" gradientUnits="userSpaceOnUse" x1="35.2612" y1="299.0907" x2="344.3755" y2="2052.165" gradientTransform="matrix(1.3245 0 0 -1.3245 0 934.0397)">
		<stop  offset="3.900534e-02" style="stop-color:#6DB33F"/>
		<stop  offset="0.8683" style="stop-color:#00728F"/>
	</linearGradient>
	<path fill="url(#SVGID_12_)" d="M80.5,355.6v-34.2h2.6v34.2H80.5z"/>
	
		<linearGradient id="SVGID_13_" gradientUnits="userSpaceOnUse" x1="60.5584" y1="357.6435" x2="215.5703" y2="1236.7598" gradientTransform="matrix(1.3245 0 0 -1.3245 0 934.0397)">
		<stop  offset="3.900534e-02" style="stop-color:#6DB33F"/>
		<stop  offset="0.8683" style="stop-color:#00728F"/>
	</linearGradient>
	<path fill="url(#SVGID_13_)" d="M107.2,355.6v-2.9c-2.3,2.4-5,3.6-8.3,3.6c-4.2,0-8.6-2.9-8.6-8.2c0-5.4,4.4-8.2,8.6-8.2
		c3.4,0,6.2,1.2,8.3,3.6v-5c0-3.7-2.9-5.7-6.6-5.7c-3.2,0-5.6,1.1-7.8,3.6l-1.5-1.9c2.5-2.8,5.4-4.1,9.5-4.1c5,0,9,2.4,9,7.9v17.5
		h-2.6V355.6z M107.2,350.9v-5.4c-1.7-2.3-4.5-3.4-7.4-3.4c-4.1,0-6.8,2.6-6.8,6.1c0,3.4,2.8,6.1,6.8,6.1
		C102.6,354.2,105.4,353.1,107.2,350.9z"/>
	
		<linearGradient id="SVGID_14_" gradientUnits="userSpaceOnUse" x1="73.9248" y1="333.5081" x2="230.7223" y2="1222.7512" gradientTransform="matrix(1.3245 0 0 -1.3245 0 934.0397)">
		<stop  offset="3.900534e-02" style="stop-color:#6DB33F"/>
		<stop  offset="0.8683" style="stop-color:#00728F"/>
	</linearGradient>
	<path fill="url(#SVGID_14_)" d="M117,362.9c0.5,0.3,1.6,0.4,2.1,0.4c1.6,0,2.8-0.7,3.8-3l2-4.4L114.4,331h2.9l9,21.6l8.9-21.6h3
		l-12.8,30.2c-1.3,3.2-3.4,4.6-6.4,4.6c-0.9,0-2-0.1-2.6-0.4L117,362.9z"/>
	
		<linearGradient id="SVGID_15_" gradientUnits="userSpaceOnUse" x1="89.5258" y1="302.0989" x2="265.3754" y2="1299.3915" gradientTransform="matrix(1.3245 0 0 -1.3245 0 934.0397)">
		<stop  offset="3.900534e-02" style="stop-color:#6DB33F"/>
		<stop  offset="0.8683" style="stop-color:#00728F"/>
	</linearGradient>
	<path fill="url(#SVGID_15_)" d="M142.8,355.6v-34.2h2.6v13.4c2-2.8,5.2-4.6,8.6-4.6c6.6,0,11.1,5.2,11.1,13c0,7.9-4.5,13-11.1,13
		c-3.7,0-6.9-2-8.6-4.5v4H142.8z M153.6,353.9c5.6,0,8.6-4.5,8.6-10.6c0-6-3.2-10.6-8.6-10.6c-3.4,0-6.8,2.1-8.2,4.5v12.2
		C146.9,351.8,150.2,353.9,153.6,353.9z"/>
	
		<linearGradient id="SVGID_16_" gradientUnits="userSpaceOnUse" x1="112.4173" y1="301.7649" x2="258.8015" y2="1131.9507" gradientTransform="matrix(1.3245 0 0 -1.3245 0 934.0397)">
		<stop  offset="3.900534e-02" style="stop-color:#6DB33F"/>
		<stop  offset="0.8683" style="stop-color:#00728F"/>
	</linearGradient>
	<path fill="url(#SVGID_16_)" d="M170.7,343.3c0-7.3,4.6-13,11.8-13c7.3,0,11.9,5.7,11.9,13c0,7.3-4.6,13-11.9,13
		C175.2,356.3,170.7,350.5,170.7,343.3z M191.7,343.3c0-5.4-3.2-10.6-9-10.6c-5.7,0-9,5-9,10.6c0,5.6,3.3,10.6,9,10.6
		C188.3,353.9,191.7,348.7,191.7,343.3z"/>
	
		<linearGradient id="SVGID_17_" gradientUnits="userSpaceOnUse" x1="130.7087" y1="280.1653" x2="277.0929" y2="1110.3512" gradientTransform="matrix(1.3245 0 0 -1.3245 0 934.0397)">
		<stop  offset="3.900534e-02" style="stop-color:#6DB33F"/>
		<stop  offset="0.8683" style="stop-color:#00728F"/>
	</linearGradient>
	<path fill="url(#SVGID_17_)" d="M200,343.3c0-7.3,4.6-13,11.8-13c7.3,0,11.9,5.7,11.9,13c0,7.3-4.6,13-11.9,13S200,350.5,200,343.3
		z M220.8,343.3c0-5.4-3.2-10.6-9-10.6c-5.7,0-9,5-9,10.6c0,5.6,3.3,10.6,9,10.6C217.6,353.9,220.8,348.7,220.8,343.3z"/>
	
		<linearGradient id="SVGID_18_" gradientUnits="userSpaceOnUse" x1="144.7009" y1="238.3497" x2="308.8168" y2="1169.0973" gradientTransform="matrix(1.3245 0 0 -1.3245 0 934.0397)">
		<stop  offset="3.900534e-02" style="stop-color:#6DB33F"/>
		<stop  offset="0.8683" style="stop-color:#00728F"/>
	</linearGradient>
	<path fill="url(#SVGID_18_)" d="M247.8,355.6l-9.9-11.8l-4.6,4.4v7.4h-2.6v-34.2h2.6V345l14.6-14.2h3.6L239.9,342l11.5,13.6H247.8
		L247.8,355.6z"/>
	
		<linearGradient id="SVGID_19_" gradientUnits="userSpaceOnUse" x1="150.515" y1="137.5902" x2="363.6017" y2="1346.0653" gradientTransform="matrix(1.3245 0 0 -1.3245 0 934.0397)">
		<stop  offset="3.900534e-02" style="stop-color:#6DB33F"/>
		<stop  offset="0.8683" style="stop-color:#00728F"/>
	</linearGradient>
	<path fill="url(#SVGID_19_)" d="M270.6,355.6v-22.4h-4.1v-2.4h4.1v-2.3c0-4.8,2.5-7.7,6.8-7.7c1.7,0,3.2,0.4,4.8,1.7l-1.3,2
		c-0.8-0.8-1.9-1.3-3.2-1.3c-2.8,0-4.2,2-4.2,5.3v2.3h5v2.4h-5v22.4H270.6z"/>
	
		<linearGradient id="SVGID_20_" gradientUnits="userSpaceOnUse" x1="181.9379" y1="219.6481" x2="328.3217" y2="1049.8315" gradientTransform="matrix(1.3245 0 0 -1.3245 0 934.0397)">
		<stop  offset="3.900534e-02" style="stop-color:#6DB33F"/>
		<stop  offset="0.8683" style="stop-color:#00728F"/>
	</linearGradient>
	<path fill="url(#SVGID_20_)" d="M282,343.3c0-7.3,4.6-13,11.8-13c7.3,0,11.9,5.7,11.9,13c0,7.3-4.6,13-11.9,13
		C286.6,356.3,282,350.5,282,343.3z M302.9,343.3c0-5.4-3.2-10.6-9-10.6c-5.7,0-9,5-9,10.6c0,5.6,3.3,10.6,9,10.6
		C299.6,353.9,302.9,348.7,302.9,343.3z"/>
	
		<linearGradient id="SVGID_21_" gradientUnits="userSpaceOnUse" x1="183.5654" y1="133.5928" x2="371.0027" y2="1196.6022" gradientTransform="matrix(1.3245 0 0 -1.3245 0 934.0397)">
		<stop  offset="3.900534e-02" style="stop-color:#6DB33F"/>
		<stop  offset="0.8683" style="stop-color:#00728F"/>
	</linearGradient>
	<path fill="url(#SVGID_21_)" d="M312.6,355.6v-24.8h2.6v4.2c2.1-2.8,4.9-4.8,8.3-4.8v2.9c-0.4-0.1-0.8-0.1-1.3-0.1
		c-2.5,0-5.8,2.3-7,4.4v18h-2.6V355.6z"/>
	
		<linearGradient id="SVGID_22_" gradientUnits="userSpaceOnUse" x1="228.389" y1="211.0605" x2="355.2362" y2="930.4465" gradientTransform="matrix(1.3245 0 0 -1.3245 0 934.0397)">
		<stop  offset="3.900534e-02" style="stop-color:#6DB33F"/>
		<stop  offset="0.8683" style="stop-color:#00728F"/>
	</linearGradient>
	<path fill="url(#SVGID_22_)" d="M371.3,355.6v-30.5l-12.5,30.5h-1.2l-12.5-30.5v30.5h-2.9v-34.2h4.4l11.7,28.5l11.5-28.5h4.4v34.2
		H371.3z"/>
	
		<linearGradient id="SVGID_23_" gradientUnits="userSpaceOnUse" x1="240.333" y1="130.081" x2="395.3449" y2="1009.1972" gradientTransform="matrix(1.3245 0 0 -1.3245 0 934.0397)">
		<stop  offset="3.900534e-02" style="stop-color:#6DB33F"/>
		<stop  offset="0.8683" style="stop-color:#00728F"/>
	</linearGradient>
	<path fill="url(#SVGID_23_)" d="M398.4,355.6v-2.9c-2.3,2.4-5,3.6-8.3,3.6c-4.2,0-8.6-2.9-8.6-8.2c0-5.4,4.4-8.2,8.6-8.2
		c3.4,0,6.2,1.2,8.3,3.6v-5c0-3.7-2.9-5.7-6.6-5.7c-3.2,0-5.6,1.1-7.8,3.6l-1.5-1.9c2.5-2.8,5.4-4.1,9.5-4.1c5,0,9,2.4,9,7.9v17.5
		h-2.6V355.6z M398.4,350.9v-5.4c-1.7-2.3-4.5-3.4-7.4-3.4c-4.1,0-6.8,2.6-6.8,6.1c0,3.4,2.8,6.1,6.8,6.1
		C393.9,354.2,396.6,353.1,398.4,350.9z"/>
	
		<linearGradient id="SVGID_24_" gradientUnits="userSpaceOnUse" x1="259.8943" y1="125.6902" x2="407.2607" y2="961.4465" gradientTransform="matrix(1.3245 0 0 -1.3245 0 934.0397)">
		<stop  offset="3.900534e-02" style="stop-color:#6DB33F"/>
		<stop  offset="0.8683" style="stop-color:#00728F"/>
	</linearGradient>
	<path fill="url(#SVGID_24_)" d="M426.1,355.6v-16.8c0-4.8-2.4-6.2-6-6.2c-3.2,0-6.5,2-8.1,4.2v18.7h-2.6v-24.8h2.6v3.7
		c1.9-2.1,5.3-4.4,8.9-4.4c5,0,7.8,2.5,7.8,8.1v17.4h-2.6V355.6z"/>
	
		<linearGradient id="SVGID_25_" gradientUnits="userSpaceOnUse" x1="273.8412" y1="87.5928" x2="428.8531" y2="966.709" gradientTransform="matrix(1.3245 0 0 -1.3245 0 934.0397)">
		<stop  offset="3.900534e-02" style="stop-color:#6DB33F"/>
		<stop  offset="0.8683" style="stop-color:#00728F"/>
	</linearGradient>
	<path fill="url(#SVGID_25_)" d="M452.7,355.6v-2.9c-2.3,2.4-5,3.6-8.3,3.6c-4.2,0-8.6-2.9-8.6-8.2c0-5.4,4.4-8.2,8.6-8.2
		c3.4,0,6.2,1.2,8.3,3.6v-5c0-3.7-2.9-5.7-6.6-5.7c-3.2,0-5.6,1.1-7.8,3.6l-1.5-1.9c2.5-2.8,5.4-4.1,9.5-4.1c5,0,9,2.4,9,7.9v17.5
		h-2.6V355.6z M452.7,350.9v-5.4c-1.7-2.3-4.5-3.4-7.4-3.4c-4.1,0-6.8,2.6-6.8,6.1c0,3.4,2.8,6.1,6.8,6.1
		C448.2,354.2,451,353.1,452.7,350.9z"/>
	
		<linearGradient id="SVGID_26_" gradientUnits="userSpaceOnUse" x1="287.7032" y1="46.0849" x2="449.676" y2="964.6785" gradientTransform="matrix(1.3245 0 0 -1.3245 0 934.0397)">
		<stop  offset="3.900534e-02" style="stop-color:#6DB33F"/>
		<stop  offset="0.8683" style="stop-color:#00728F"/>
	</linearGradient>
	<path fill="url(#SVGID_26_)" d="M463.7,362l1.6-2.1c2.1,2.5,4.5,3.4,8.2,3.4c4.5,0,8.3-2.3,8.3-7.8v-4c-1.7,2.5-4.9,4.6-8.6,4.6
		c-6.6,0-11-5-11-13c0-7.8,4.5-13,11-13c3.6,0,6.6,1.9,8.6,4.6v-4h2.8v24.5c0,7.5-5.2,10.2-11.1,10.2
		C469.4,365.7,466.6,364.9,463.7,362z M482,349.3v-12.1c-1.5-2.4-4.8-4.5-8.2-4.5c-5.4,0-8.6,4.5-8.6,10.6c0,6,3.2,10.5,8.6,10.5
		C477.2,353.8,480.5,351.7,482,349.3z"/>
	
		<linearGradient id="SVGID_27_" gradientUnits="userSpaceOnUse" x1="235.6563" y1="-330.0244" x2="539.3745" y2="1392.4468" gradientTransform="matrix(1.3245 0 0 -1.3245 0 934.0397)">
		<stop  offset="3.900534e-02" style="stop-color:#6DB33F"/>
		<stop  offset="0.8683" style="stop-color:#00728F"/>
	</linearGradient>
	<path fill="url(#SVGID_27_)" d="M492.2,325c0-1.2,0.9-2,2-2c1.2,0,2,0.9,2,2c0,1.2-0.9,2-2,2C493.1,327,492.2,326.1,492.2,325z
		 M493,355.6v-24.8h2.6v24.8H493z"/>
	
		<linearGradient id="SVGID_28_" gradientUnits="userSpaceOnUse" x1="318.906" y1="55.433" x2="466.2725" y2="891.1894" gradientTransform="matrix(1.3245 0 0 -1.3245 0 934.0397)">
		<stop  offset="3.900534e-02" style="stop-color:#6DB33F"/>
		<stop  offset="0.8683" style="stop-color:#00728F"/>
	</linearGradient>
	<path fill="url(#SVGID_28_)" d="M520.7,355.6v-16.8c0-4.8-2.4-6.2-6-6.2c-3.2,0-6.5,2-8.1,4.2v18.7H504v-24.8h2.6v3.7
		c1.9-2.1,5.3-4.4,8.9-4.4c5,0,7.8,2.5,7.8,8.1v17.4h-2.6V355.6z"/>
	
		<linearGradient id="SVGID_29_" gradientUnits="userSpaceOnUse" x1="329.2302" y1="-9.3402" x2="491.203" y2="909.2532" gradientTransform="matrix(1.3245 0 0 -1.3245 0 934.0397)">
		<stop  offset="3.900534e-02" style="stop-color:#6DB33F"/>
		<stop  offset="0.8683" style="stop-color:#00728F"/>
	</linearGradient>
	<path fill="url(#SVGID_29_)" d="M531.7,362l1.6-2.1c2.1,2.5,4.5,3.4,8.2,3.4c4.5,0,8.3-2.3,8.3-7.8v-4c-1.7,2.5-4.9,4.6-8.6,4.6
		c-6.6,0-11-5-11-13c0-7.8,4.5-13,11-13c3.6,0,6.6,1.9,8.6,4.6v-4h2.8v24.5c0,7.5-5.2,10.2-11.1,10.2
		C537.2,365.7,534.6,364.9,531.7,362z M549.8,349.3v-12.1c-1.5-2.4-4.8-4.5-8.2-4.5c-5.4,0-8.6,4.5-8.6,10.6c0,6,3.2,10.5,8.6,10.5
		C545,353.8,548.3,351.7,549.8,349.3z"/>
	
		<linearGradient id="SVGID_30_" gradientUnits="userSpaceOnUse" x1="358.4547" y1="-19.5177" x2="513.4666" y2="859.5985" gradientTransform="matrix(1.3245 0 0 -1.3245 0 934.0397)">
		<stop  offset="3.900534e-02" style="stop-color:#6DB33F"/>
		<stop  offset="0.8683" style="stop-color:#00728F"/>
	</linearGradient>
	<path fill="url(#SVGID_30_)" d="M589.8,355.6v-2.9c-2.3,2.4-5,3.6-8.3,3.6c-4.2,0-8.6-2.9-8.6-8.2c0-5.4,4.4-8.2,8.6-8.2
		c3.4,0,6.2,1.2,8.3,3.6v-5c0-3.7-2.9-5.7-6.6-5.7c-3.2,0-5.6,1.1-7.8,3.6l-1.5-1.9c2.5-2.8,5.4-4.1,9.5-4.1c5,0,9,2.4,9,7.9v17.5
		h-2.6V355.6z M589.8,350.9v-5.4c-1.7-2.3-4.5-3.4-7.4-3.4c-4.1,0-6.8,2.6-6.8,6.1c0,3.4,2.8,6.1,6.8,6.1
		C585.3,354.2,588.1,353.1,589.8,350.9z"/>
	
		<linearGradient id="SVGID_31_" gradientUnits="userSpaceOnUse" x1="300.315" y1="-435.6826" x2="583.7738" y2="1171.8918" gradientTransform="matrix(1.3245 0 0 -1.3245 0 934.0397)">
		<stop  offset="3.900534e-02" style="stop-color:#6DB33F"/>
		<stop  offset="0.8683" style="stop-color:#00728F"/>
	</linearGradient>
	<path fill="url(#SVGID_31_)" d="M601.3,350.9v-17.6h-4.1v-2.4h4.1v-6.8h2.8v6.8h5v2.4H604v17.2c0,2,0.8,3.4,2.5,3.4
		c1.2,0,2.3-0.5,2.8-1.2l1.1,2c-0.9,0.9-2.1,1.6-4.2,1.6C602.9,356.3,601.3,354.3,601.3,350.9z"/>
	
		<linearGradient id="SVGID_32_" gradientUnits="userSpaceOnUse" x1="314.0695" y1="-474.789" x2="597.5273" y2="1132.7798" gradientTransform="matrix(1.3245 0 0 -1.3245 0 934.0397)">
		<stop  offset="3.900534e-02" style="stop-color:#6DB33F"/>
		<stop  offset="0.8683" style="stop-color:#00728F"/>
	</linearGradient>
	<path fill="url(#SVGID_32_)" d="M628.6,350.9v-17.6h-4.1v-2.4h4.1v-6.8h2.8v6.8h5v2.4h-5v17.2c0,2,0.8,3.4,2.5,3.4
		c1.2,0,2.3-0.5,2.8-1.2l1.1,2c-0.9,0.9-2.1,1.6-4.2,1.6C630.2,356.3,628.6,354.3,628.6,350.9z"/>
	
		<linearGradient id="SVGID_33_" gradientUnits="userSpaceOnUse" x1="383.0119" y1="-169.6364" x2="567.722" y2="877.9068" gradientTransform="matrix(1.3245 0 0 -1.3245 0 934.0397)">
		<stop  offset="3.900534e-02" style="stop-color:#6DB33F"/>
		<stop  offset="0.8683" style="stop-color:#00728F"/>
	</linearGradient>
	<path fill="url(#SVGID_33_)" d="M658.9,355.6v-16.8c0-4.8-2.4-6.1-6-6.1c-3.2,0-6.5,2-8.1,4.2v18.7h-2.6v-34.2h2.6v13.1
		c1.9-2.1,5.3-4.4,8.9-4.4c5,0,7.8,2.4,7.8,7.9v17.5H658.9L658.9,355.6z"/>
	
		<linearGradient id="SVGID_34_" gradientUnits="userSpaceOnUse" x1="422.9053" y1="-68.1611" x2="570.045" y2="766.3099" gradientTransform="matrix(1.3245 0 0 -1.3245 0 934.0397)">
		<stop  offset="3.900534e-02" style="stop-color:#6DB33F"/>
		<stop  offset="0.8683" style="stop-color:#00728F"/>
	</linearGradient>
	<path fill="url(#SVGID_34_)" d="M668.5,343.3c0-7.2,5-13,11.9-13c7.5,0,11.7,6,11.7,13.1v0.7h-20.7c0.3,5.4,3.8,9.8,9.7,9.8
		c3.2,0,6-1.2,8.1-3.4l1.3,1.7c-2.5,2.5-5.6,4-9.7,4C673.6,356.3,668.5,350.9,668.5,343.3z M680.4,332.6c-5.8,0-8.7,5.2-9,9.4h18
		C689.3,337.9,686.6,332.6,680.4,332.6z"/>
	
		<linearGradient id="SVGID_35_" gradientUnits="userSpaceOnUse" x1="452.9113" y1="-93.6315" x2="598.1243" y2="729.9125" gradientTransform="matrix(1.3245 0 0 -1.3245 0 934.0397)">
		<stop  offset="3.900534e-02" style="stop-color:#6DB33F"/>
		<stop  offset="0.8683" style="stop-color:#00728F"/>
	</linearGradient>
	<path fill="url(#SVGID_35_)" d="M711,338.5c0-10.5,7.7-17.6,17.4-17.6c5.4,0,9.5,2.4,12.5,6.1l-2.5,1.6c-2.1-2.9-5.8-5-9.9-5
		c-7.9,0-14.3,6.1-14.3,15s6.2,15,14.3,15c4.1,0,7.8-2,9.9-5l2.5,1.6c-3,3.7-7,6.1-12.5,6.1C718.7,356.3,711,349.1,711,338.5z"/>
	
		<linearGradient id="SVGID_36_" gradientUnits="userSpaceOnUse" x1="438.9473" y1="-276.5435" x2="626.3846" y2="786.4659" gradientTransform="matrix(1.3245 0 0 -1.3245 0 934.0397)">
		<stop  offset="3.900534e-02" style="stop-color:#6DB33F"/>
		<stop  offset="0.8683" style="stop-color:#00728F"/>
	</linearGradient>
	<path fill="url(#SVGID_36_)" d="M746.6,355.6v-24.8h2.6v4.2c2.1-2.8,4.9-4.8,8.3-4.8v2.9c-0.4-0.1-0.8-0.1-1.3-0.1
		c-2.5,0-5.8,2.3-7,4.4v18h-2.6V355.6z"/>
	
		<linearGradient id="SVGID_37_" gradientUnits="userSpaceOnUse" x1="481.5383" y1="-134.2378" x2="627.9225" y2="695.9479" gradientTransform="matrix(1.3245 0 0 -1.3245 0 934.0397)">
		<stop  offset="3.900534e-02" style="stop-color:#6DB33F"/>
		<stop  offset="0.8683" style="stop-color:#00728F"/>
	</linearGradient>
	<path fill="url(#SVGID_37_)" d="M761.5,343.3c0-7.3,4.6-13,11.8-13c7.3,0,11.9,5.7,11.9,13c0,7.3-4.6,13-11.9,13
		C766.1,356.3,761.5,350.5,761.5,343.3z M782.4,343.3c0-5.4-3.2-10.6-9-10.6c-5.7,0-9,5-9,10.6c0,5.6,3.3,10.6,9,10.6
		C779.2,353.9,782.4,348.7,782.4,343.3z"/>
	
		<linearGradient id="SVGID_38_" gradientUnits="userSpaceOnUse" x1="495.2051" y1="-169.3134" x2="645.4996" y2="683.0483" gradientTransform="matrix(1.3245 0 0 -1.3245 0 934.0397)">
		<stop  offset="3.900534e-02" style="stop-color:#6DB33F"/>
		<stop  offset="0.8683" style="stop-color:#00728F"/>
	</linearGradient>
	<path fill="url(#SVGID_38_)" d="M789.9,352.3l1.6-2c1.6,2,4.5,3.6,7.9,3.6c4.1,0,6.6-2.1,6.6-5c0-6.8-15.6-2.9-15.6-11.8
		c0-3.8,3.2-6.9,8.9-6.9c4.2,0,7,1.6,8.9,3.6l-1.5,1.9c-1.5-2-4.1-3.3-7.4-3.3c-3.8,0-6.1,2-6.1,4.5c0,6.2,15.6,2.4,15.6,11.9
		c0,4-3,7.3-9.3,7.3C795.5,356.3,792.5,355.1,789.9,352.3z"/>
	
		<linearGradient id="SVGID_39_" gradientUnits="userSpaceOnUse" x1="509.8608" y1="-187.146" x2="660.1553" y2="665.2158" gradientTransform="matrix(1.3245 0 0 -1.3245 0 934.0397)">
		<stop  offset="3.900534e-02" style="stop-color:#6DB33F"/>
		<stop  offset="0.8683" style="stop-color:#00728F"/>
	</linearGradient>
	<path fill="url(#SVGID_39_)" d="M813.5,352.3l1.6-2c1.6,2,4.5,3.6,7.9,3.6c4.1,0,6.6-2.1,6.6-5c0-6.8-15.6-2.9-15.6-11.8
		c0-3.8,3.2-6.9,8.9-6.9c4.2,0,7,1.6,8.9,3.6l-1.5,1.9c-1.5-2-4.1-3.3-7.4-3.3c-3.8,0-6.1,2-6.1,4.5c0,6.2,15.6,2.4,15.6,11.9
		c0,4-3,7.3-9.3,7.3C819.1,356.3,816,355.1,813.5,352.3z"/>
	
		<linearGradient id="SVGID_40_" gradientUnits="userSpaceOnUse" x1="493.4234" y1="-364.0168" x2="680.8607" y2="698.9928" gradientTransform="matrix(1.3245 0 0 -1.3245 0 934.0397)">
		<stop  offset="3.900534e-02" style="stop-color:#6DB33F"/>
		<stop  offset="0.8683" style="stop-color:#00728F"/>
	</linearGradient>
	<path fill="url(#SVGID_40_)" d="M839.2,355.6v-24.8h2.6v4.2c2.1-2.8,4.9-4.8,8.3-4.8v2.9c-0.4-0.1-0.8-0.1-1.3-0.1
		c-2.5,0-5.8,2.3-7,4.4v18h-2.6V355.6z"/>
	
		<linearGradient id="SVGID_41_" gradientUnits="userSpaceOnUse" x1="539.3925" y1="-202.5529" x2="685.7767" y2="627.633" gradientTransform="matrix(1.3245 0 0 -1.3245 0 934.0397)">
		<stop  offset="3.900534e-02" style="stop-color:#6DB33F"/>
		<stop  offset="0.8683" style="stop-color:#00728F"/>
	</linearGradient>
	<path fill="url(#SVGID_41_)" d="M854,343.3c0-7.3,4.6-13,11.8-13c7.3,0,11.9,5.7,11.9,13c0,7.3-4.6,13-11.9,13
		C858.7,356.3,854,350.5,854,343.3z M875,343.3c0-5.4-3.2-10.6-9-10.6c-5.7,0-9,5-9,10.6c0,5.6,3.3,10.6,9,10.6
		C871.8,353.9,875,348.7,875,343.3z"/>
	
		<linearGradient id="SVGID_42_" gradientUnits="userSpaceOnUse" x1="550.1539" y1="-262.2529" x2="705.1572" y2="616.814" gradientTransform="matrix(1.3245 0 0 -1.3245 0 934.0397)">
		<stop  offset="3.900534e-02" style="stop-color:#6DB33F"/>
		<stop  offset="0.8683" style="stop-color:#00728F"/>
	</linearGradient>
	<path fill="url(#SVGID_42_)" d="M900.4,355.6v-2.9c-2.3,2.4-5,3.6-8.3,3.6c-4.2,0-8.6-2.9-8.6-8.2c0-5.4,4.4-8.2,8.6-8.2
		c3.4,0,6.2,1.2,8.3,3.6v-5c0-3.7-2.9-5.7-6.6-5.7c-3.2,0-5.6,1.1-7.8,3.6l-1.5-1.9c2.5-2.8,5.4-4.1,9.5-4.1c5,0,9,2.4,9,7.9v17.5
		h-2.6V355.6z M900.4,350.9v-5.4c-1.7-2.3-4.5-3.4-7.4-3.4c-4.1,0-6.8,2.6-6.8,6.1c0,3.4,2.8,6.1,6.8,6.1
		C895.9,354.2,898.7,353.1,900.4,350.9z"/>
	
		<linearGradient id="SVGID_43_" gradientUnits="userSpaceOnUse" x1="558.7684" y1="-333.7013" x2="724.4907" y2="606.1565" gradientTransform="matrix(1.3245 0 0 -1.3245 0 934.0397)">
		<stop  offset="3.900534e-02" style="stop-color:#6DB33F"/>
		<stop  offset="0.8683" style="stop-color:#00728F"/>
	</linearGradient>
	<path fill="url(#SVGID_43_)" d="M929.7,355.6v-4c-1.7,2.5-4.9,4.5-8.6,4.5c-6.6,0-11-5-11-13c0-7.8,4.5-13,11-13
		c3.6,0,6.6,1.9,8.6,4.6v-13.4h2.8v34.2H929.7z M929.7,349.4v-12.2c-1.5-2.4-4.6-4.5-8.2-4.5c-5.4,0-8.6,4.6-8.6,10.6
		c0,6,3.2,10.6,8.6,10.6C925,353.9,928.2,351.8,929.7,349.4z"/>
	
		<linearGradient id="SVGID_44_" gradientUnits="userSpaceOnUse" x1="587.5583" y1="-281.8706" x2="737.8527" y2="570.4913" gradientTransform="matrix(1.3245 0 0 -1.3245 0 934.0397)">
		<stop  offset="3.900534e-02" style="stop-color:#6DB33F"/>
		<stop  offset="0.8683" style="stop-color:#00728F"/>
	</linearGradient>
	<path fill="url(#SVGID_44_)" d="M938.5,352.3l1.6-2c1.6,2,4.5,3.6,7.9,3.6c4.1,0,6.6-2.1,6.6-5c0-6.8-15.6-2.9-15.6-11.8
		c0-3.8,3.2-6.9,8.9-6.9c4.2,0,7,1.6,8.9,3.6l-1.5,1.9c-1.5-2-4.1-3.3-7.4-3.3c-3.8,0-6.1,2-6.1,4.5c0,6.2,15.6,2.4,15.6,11.9
		c0,4-3,7.3-9.3,7.3C944.1,356.3,940.9,355.1,938.5,352.3z"/>
</g>
</svg>
