<?xml version="1.0" encoding="utf-8"?>
<!-- Generator: Adobe Illustrator 18.1.1, SVG Export Plug-In . SVG Version: 6.00 Build 0)  -->
<svg version="1.1" id="codetule" xmlns="http://www.w3.org/2000/svg" xmlns:xlink="http://www.w3.org/1999/xlink" x="0px" y="0px"
	 viewBox="0 0 724.8 132.4" enable-background="new 0 0 724.8 132.4" xml:space="preserve">
<linearGradient id="SVGID_1_" gradientUnits="userSpaceOnUse" x1="26.0537" y1="119.2711" x2="171.2693" y2="-704.2874">
	<stop  offset="3.900534e-02" style="stop-color:#6DB33F"/>
	<stop  offset="0.8683" style="stop-color:#00728F"/>
</linearGradient>
<path fill="url(#SVGID_1_)" d="M0.8,43.3C0.8,17.6,19.5,0,43.2,0c13.3,0,23.5,5.9,30.5,14.8l-6,3.9C62.5,11.4,53.3,6.5,43.2,6.5
	C23.6,6.5,8.3,21.5,8.3,43.3c0,21.6,15.3,36.8,34.9,36.8c10,0,19.2-4.9,24.5-12.2l6.2,3.8c-7.5,9.2-17.3,14.9-30.6,14.9
	C19.5,86.7,0.8,69.1,0.8,43.3z"/>
<linearGradient id="SVGID_2_" gradientUnits="userSpaceOnUse" x1="98.1355" y1="199.9286" x2="241.4743" y2="-612.9865">
	<stop  offset="3.900534e-02" style="stop-color:#6DB33F"/>
	<stop  offset="0.8683" style="stop-color:#00728F"/>
</linearGradient>
<path fill="url(#SVGID_2_)" d="M85.1,43.3C85.1,18.8,101.1,0,125.8,0c24.5,0,40.7,18.8,40.7,43.3s-16.2,43.3-40.7,43.3
	C101.1,86.7,85.1,67.8,85.1,43.3z M158.9,43.3c0-21.2-13.1-36.8-33.2-36.8c-20.2,0-33.2,15.6-33.2,36.8c0,21.1,12.9,36.8,33.2,36.8
	C145.8,80.1,158.9,64.4,158.9,43.3z"/>
<linearGradient id="SVGID_3_" gradientUnits="userSpaceOnUse" x1="172.144" y1="288.4283" x2="317.4106" y2="-535.4197">
	<stop  offset="3.900534e-02" style="stop-color:#6DB33F"/>
	<stop  offset="0.8683" style="stop-color:#00728F"/>
</linearGradient>
<path fill="url(#SVGID_3_)" d="M184.2,85.2V1.4h26.8c26,0,42.3,19,42.3,41.9c0,23.2-16.3,41.8-42.3,41.8H184.2z M245.7,43.3
	c0-19.6-12.6-35.4-34.8-35.4h-19.6v70.7h19.6C233,78.6,245.7,62.9,245.7,43.3z"/>
<linearGradient id="SVGID_4_" gradientUnits="userSpaceOnUse" x1="235.8407" y1="393.6494" x2="392.2346" y2="-493.3043">
	<stop  offset="3.900534e-02" style="stop-color:#6DB33F"/>
	<stop  offset="0.8683" style="stop-color:#00728F"/>
</linearGradient>
<path fill="url(#SVGID_4_)" d="M271.1,85.2V1.4h53.1v6.5h-46v31h45.1v6.5h-45.1v33.2h46v6.5H271.1z"/>
<linearGradient id="SVGID_5_" gradientUnits="userSpaceOnUse" x1="321.6714" y1="506.2479" x2="479.6779" y2="-389.8512">
	<stop  offset="3.900534e-02" style="stop-color:#6DB33F"/>
	<stop  offset="0.8683" style="stop-color:#00728F"/>
</linearGradient>
<path fill="url(#SVGID_5_)" d="M423.5,85.2L400,50.5h-18.5v34.7h-7.2V1.4h31.3c14.4,0,25.5,9.2,25.5,24.5
	c0,15.2-10.7,23.6-23.2,24.1l24.2,35.2H423.5z M423.7,25.9c0-10.6-7.4-18-18.6-18h-23.5v36h23.5C416.2,44,423.7,36.4,423.7,25.9z"/>
<linearGradient id="SVGID_6_" gradientUnits="userSpaceOnUse" x1="387.5982" y1="563.0215" x2="536.6896" y2="-282.5175">
	<stop  offset="3.900534e-02" style="stop-color:#6DB33F"/>
	<stop  offset="0.8683" style="stop-color:#00728F"/>
</linearGradient>
<path fill="url(#SVGID_6_)" d="M449,53V1.4h7.3v51.5c0,17,8.9,27.3,25.4,27.3S507,69.8,507,52.9V1.4h7.3V53
	c0,20.7-11.1,33.7-32.7,33.7C460.2,86.7,449,73.6,449,53z"/>
<linearGradient id="SVGID_7_" gradientUnits="userSpaceOnUse" x1="389.5639" y1="994.8053" x2="634.4208" y2="-393.8473">
	<stop  offset="3.900534e-02" style="stop-color:#6DB33F"/>
	<stop  offset="0.8683" style="stop-color:#00728F"/>
</linearGradient>
<path fill="url(#SVGID_7_)" d="M533.4,85.2V1.4h7.3v77.2h40.6v6.5H533.4z"/>
<linearGradient id="SVGID_8_" gradientUnits="userSpaceOnUse" x1="500.9169" y1="732.9572" x2="657.3123" y2="-154.005">
	<stop  offset="3.900534e-02" style="stop-color:#6DB33F"/>
	<stop  offset="0.8683" style="stop-color:#00728F"/>
</linearGradient>
<path fill="url(#SVGID_8_)" d="M596,85.2V1.4h53.1v6.5h-46v31h45.1v6.5h-45.1v33.2h46v6.5H596z"/>
<linearGradient id="SVGID_9_" gradientUnits="userSpaceOnUse" x1="561.2344" y1="793.8616" x2="715.2573" y2="-79.6458">
	<stop  offset="3.900534e-02" style="stop-color:#6DB33F"/>
	<stop  offset="0.8683" style="stop-color:#00728F"/>
</linearGradient>
<path fill="url(#SVGID_9_)" d="M662.2,73.3l4.6-5.4c5.4,6.2,14.2,12.2,26.2,12.2c17.1,0,22-9.5,22-16.7c0-24.6-50.2-11.8-50.2-41.1
	C664.8,8.7,677.1,0,692.3,0c12.4,0,22,4.4,28.4,11.8l-4.8,5.3c-6-7.3-14.6-10.5-24-10.5c-11.2,0-19.6,6.4-19.6,15.4
	c0,21.5,50.2,9.7,50.2,40.9c0,10.8-7.2,23.7-29.8,23.7C679,86.7,668.6,81,662.2,73.3z"/>
<g>
	<linearGradient id="SVGID_10_" gradientUnits="userSpaceOnUse" x1="11.2028" y1="133.4312" x2="182.495" y2="-838.0154">
		<stop  offset="3.900534e-02" style="stop-color:#6DB33F"/>
		<stop  offset="0.8683" style="stop-color:#00728F"/>
	</linearGradient>
	<path fill="url(#SVGID_10_)" d="M22.4,123.3l-2.6-6.3H6.2l-2.6,6.3H1l10.6-25.8h2.7l10.6,25.8H22.4z M13,99.9L6.9,115h12.2L13,99.9
		z"/>
	<linearGradient id="SVGID_11_" gradientUnits="userSpaceOnUse" x1="35.1486" y1="171.5019" x2="193.5972" y2="-727.1043">
		<stop  offset="3.900534e-02" style="stop-color:#6DB33F"/>
		<stop  offset="0.8683" style="stop-color:#00728F"/>
	</linearGradient>
	<path fill="url(#SVGID_11_)" d="M38.7,123.3V97.5h9.7c5,0,7.8,3.5,7.8,7.5c0,4.1-2.9,7.5-7.8,7.5h-7.5v10.7H38.7z M53.9,105.1
		c0-3.3-2.2-5.5-5.7-5.5h-7.2v11.1h7.2C51.6,110.6,53.9,108.3,53.9,105.1z"/>
	<linearGradient id="SVGID_12_" gradientUnits="userSpaceOnUse" x1="35.2295" y1="260.9037" x2="344.3438" y2="-1492.1705">
		<stop  offset="3.900534e-02" style="stop-color:#6DB33F"/>
		<stop  offset="0.8683" style="stop-color:#00728F"/>
	</linearGradient>
	<path fill="url(#SVGID_12_)" d="M60.8,123.3V97.5h2v25.8H60.8z"/>
	<linearGradient id="SVGID_13_" gradientUnits="userSpaceOnUse" x1="60.5778" y1="202.3599" x2="215.5897" y2="-676.7563">
		<stop  offset="3.900534e-02" style="stop-color:#6DB33F"/>
		<stop  offset="0.8683" style="stop-color:#00728F"/>
	</linearGradient>
	<path fill="url(#SVGID_13_)" d="M80.9,123.3v-2.2c-1.7,1.8-3.8,2.7-6.3,2.7c-3.2,0-6.5-2.2-6.5-6.2c0-4.1,3.3-6.2,6.5-6.2
		c2.6,0,4.7,0.9,6.3,2.7v-3.8c0-2.8-2.2-4.3-5-4.3c-2.4,0-4.2,0.8-5.9,2.7l-1.1-1.4c1.9-2.1,4.1-3.1,7.2-3.1c3.8,0,6.8,1.8,6.8,6
		v13.2H80.9z M80.9,119.7v-4.1c-1.3-1.7-3.4-2.6-5.6-2.6c-3.1,0-5.1,2-5.1,4.6c0,2.6,2.1,4.6,5.1,4.6
		C77.5,122.2,79.6,121.4,80.9,119.7z"/>
	<linearGradient id="SVGID_14_" gradientUnits="userSpaceOnUse" x1="73.8862" y1="226.4851" x2="230.6837" y2="-662.7581">
		<stop  offset="3.900534e-02" style="stop-color:#6DB33F"/>
		<stop  offset="0.8683" style="stop-color:#00728F"/>
	</linearGradient>
	<path fill="url(#SVGID_14_)" d="M88.3,128.8c0.4,0.2,1.2,0.3,1.6,0.3c1.2,0,2.1-0.5,2.9-2.3l1.5-3.3l-7.9-18.8h2.2l6.8,16.3
		l6.7-16.3h2.3l-9.7,22.8c-1,2.4-2.6,3.5-4.8,3.5c-0.7,0-1.5-0.1-2-0.3L88.3,128.8z"/>
	<linearGradient id="SVGID_15_" gradientUnits="userSpaceOnUse" x1="89.534" y1="257.9025" x2="265.3836" y2="-739.3901">
		<stop  offset="3.900534e-02" style="stop-color:#6DB33F"/>
		<stop  offset="0.8683" style="stop-color:#00728F"/>
	</linearGradient>
	<path fill="url(#SVGID_15_)" d="M107.8,123.3V97.5h2v10.1c1.5-2.1,3.9-3.5,6.5-3.5c5,0,8.4,3.9,8.4,9.8c0,6-3.4,9.8-8.4,9.8
		c-2.8,0-5.2-1.5-6.5-3.4v3H107.8z M116,122c4.2,0,6.5-3.4,6.5-8c0-4.5-2.4-8-6.5-8c-2.6,0-5.1,1.6-6.2,3.4v9.2
		C110.9,120.4,113.4,122,116,122z"/>
	<linearGradient id="SVGID_16_" gradientUnits="userSpaceOnUse" x1="112.403" y1="258.2326" x2="258.7872" y2="-571.9532">
		<stop  offset="3.900534e-02" style="stop-color:#6DB33F"/>
		<stop  offset="0.8683" style="stop-color:#00728F"/>
	</linearGradient>
	<path fill="url(#SVGID_16_)" d="M128.9,114c0-5.5,3.5-9.8,8.9-9.8c5.5,0,9,4.3,9,9.8c0,5.5-3.5,9.8-9,9.8
		C132.3,123.8,128.9,119.4,128.9,114z M144.7,114c0-4.1-2.4-8-6.8-8c-4.3,0-6.8,3.8-6.8,8c0,4.2,2.5,8,6.8,8
		C142.2,122,144.7,118.1,144.7,114z"/>
	<linearGradient id="SVGID_17_" gradientUnits="userSpaceOnUse" x1="130.6914" y1="279.8317" x2="277.0756" y2="-550.3542">
		<stop  offset="3.900534e-02" style="stop-color:#6DB33F"/>
		<stop  offset="0.8683" style="stop-color:#00728F"/>
	</linearGradient>
	<path fill="url(#SVGID_17_)" d="M151,114c0-5.5,3.5-9.8,8.9-9.8c5.5,0,9,4.3,9,9.8c0,5.5-3.5,9.8-9,9.8
		C154.4,123.8,151,119.4,151,114z M166.7,114c0-4.1-2.4-8-6.8-8c-4.3,0-6.8,3.8-6.8,8c0,4.2,2.5,8,6.8,8
		C164.3,122,166.7,118.1,166.7,114z"/>
	<linearGradient id="SVGID_18_" gradientUnits="userSpaceOnUse" x1="144.6933" y1="321.649" x2="308.8092" y2="-609.0986">
		<stop  offset="3.900534e-02" style="stop-color:#6DB33F"/>
		<stop  offset="0.8683" style="stop-color:#00728F"/>
	</linearGradient>
	<path fill="url(#SVGID_18_)" d="M187.1,123.3l-7.5-8.9l-3.5,3.3v5.6h-2V97.5h2v17.8l11-10.7h2.7l-8.7,8.4l8.7,10.3H187.1z"/>
	<linearGradient id="SVGID_19_" gradientUnits="userSpaceOnUse" x1="150.5141" y1="422.4096" x2="363.6008" y2="-786.0654">
		<stop  offset="3.900534e-02" style="stop-color:#6DB33F"/>
		<stop  offset="0.8683" style="stop-color:#00728F"/>
	</linearGradient>
	<path fill="url(#SVGID_19_)" d="M204.3,123.3v-16.9h-3.1v-1.8h3.1v-1.7c0-3.6,1.9-5.8,5.1-5.8c1.3,0,2.4,0.3,3.6,1.3l-1,1.5
		c-0.6-0.6-1.4-1-2.4-1c-2.1,0-3.2,1.5-3.2,4v1.7h3.8v1.8h-3.8v16.9H204.3z"/>
	<linearGradient id="SVGID_20_" gradientUnits="userSpaceOnUse" x1="181.9357" y1="340.3515" x2="328.3195" y2="-489.8319">
		<stop  offset="3.900534e-02" style="stop-color:#6DB33F"/>
		<stop  offset="0.8683" style="stop-color:#00728F"/>
	</linearGradient>
	<path fill="url(#SVGID_20_)" d="M212.9,114c0-5.5,3.5-9.8,8.9-9.8c5.5,0,9,4.3,9,9.8c0,5.5-3.5,9.8-9,9.8
		C216.4,123.8,212.9,119.4,212.9,114z M228.7,114c0-4.1-2.4-8-6.8-8c-4.3,0-6.8,3.8-6.8,8c0,4.2,2.5,8,6.8,8
		C226.2,122,228.7,118.1,228.7,114z"/>
	<linearGradient id="SVGID_21_" gradientUnits="userSpaceOnUse" x1="183.6005" y1="426.4134" x2="371.0378" y2="-636.596">
		<stop  offset="3.900534e-02" style="stop-color:#6DB33F"/>
		<stop  offset="0.8683" style="stop-color:#00728F"/>
	</linearGradient>
	<path fill="url(#SVGID_21_)" d="M236,123.3v-18.7h2v3.2c1.6-2.1,3.7-3.6,6.3-3.6v2.2c-0.3-0.1-0.6-0.1-1-0.1
		c-1.9,0-4.4,1.7-5.3,3.3v13.6H236z"/>
	<linearGradient id="SVGID_22_" gradientUnits="userSpaceOnUse" x1="228.3996" y1="348.9413" x2="355.2467" y2="-370.4446">
		<stop  offset="3.900534e-02" style="stop-color:#6DB33F"/>
		<stop  offset="0.8683" style="stop-color:#00728F"/>
	</linearGradient>
	<path fill="url(#SVGID_22_)" d="M280.3,123.3v-23l-9.4,23H270l-9.4-23v23h-2.2V97.5h3.3l8.8,21.5l8.7-21.5h3.3v25.8H280.3z"/>
	<linearGradient id="SVGID_23_" gradientUnits="userSpaceOnUse" x1="240.2945" y1="429.9122" x2="395.3064" y2="-449.204">
		<stop  offset="3.900534e-02" style="stop-color:#6DB33F"/>
		<stop  offset="0.8683" style="stop-color:#00728F"/>
	</linearGradient>
	<path fill="url(#SVGID_23_)" d="M300.8,123.3v-2.2c-1.7,1.8-3.8,2.7-6.3,2.7c-3.2,0-6.5-2.2-6.5-6.2c0-4.1,3.3-6.2,6.5-6.2
		c2.6,0,4.7,0.9,6.3,2.7v-3.8c0-2.8-2.2-4.3-5-4.3c-2.4,0-4.2,0.8-5.9,2.7l-1.1-1.4c1.9-2.1,4.1-3.1,7.2-3.1c3.8,0,6.8,1.8,6.8,6
		v13.2H300.8z M300.8,119.7v-4.1c-1.3-1.7-3.4-2.6-5.6-2.6c-3.1,0-5.1,2-5.1,4.6c0,2.6,2.1,4.6,5.1,4.6
		C297.4,122.2,299.4,121.4,300.8,119.7z"/>
	<linearGradient id="SVGID_24_" gradientUnits="userSpaceOnUse" x1="259.8714" y1="434.3058" x2="407.2378" y2="-401.4506">
		<stop  offset="3.900534e-02" style="stop-color:#6DB33F"/>
		<stop  offset="0.8683" style="stop-color:#00728F"/>
	</linearGradient>
	<path fill="url(#SVGID_24_)" d="M321.7,123.3v-12.7c0-3.6-1.8-4.7-4.5-4.7c-2.4,0-4.9,1.5-6.1,3.2v14.1h-2v-18.7h2v2.8
		c1.4-1.6,4-3.3,6.7-3.3c3.8,0,5.9,1.9,5.9,6.1v13.1H321.7z"/>
	<linearGradient id="SVGID_25_" gradientUnits="userSpaceOnUse" x1="273.8587" y1="472.4103" x2="428.8706" y2="-406.7059">
		<stop  offset="3.900534e-02" style="stop-color:#6DB33F"/>
		<stop  offset="0.8683" style="stop-color:#00728F"/>
	</linearGradient>
	<path fill="url(#SVGID_25_)" d="M341.8,123.3v-2.2c-1.7,1.8-3.8,2.7-6.3,2.7c-3.2,0-6.5-2.2-6.5-6.2c0-4.1,3.3-6.2,6.5-6.2
		c2.6,0,4.7,0.9,6.3,2.7v-3.8c0-2.8-2.2-4.3-5-4.3c-2.4,0-4.2,0.8-5.9,2.7l-1.1-1.4c1.9-2.1,4.1-3.1,7.2-3.1c3.8,0,6.8,1.8,6.8,6
		v13.2H341.8z M341.8,119.7v-4.1c-1.3-1.7-3.4-2.6-5.6-2.6c-3.1,0-5.1,2-5.1,4.6c0,2.6,2.1,4.6,5.1,4.6
		C338.4,122.2,340.5,121.4,341.8,119.7z"/>
	<linearGradient id="SVGID_26_" gradientUnits="userSpaceOnUse" x1="287.7512" y1="513.9235" x2="449.724" y2="-404.67">
		<stop  offset="3.900534e-02" style="stop-color:#6DB33F"/>
		<stop  offset="0.8683" style="stop-color:#00728F"/>
	</linearGradient>
	<path fill="url(#SVGID_26_)" d="M350.1,128.1l1.2-1.6c1.6,1.9,3.4,2.6,6.2,2.6c3.4,0,6.3-1.7,6.3-5.9v-3c-1.3,1.9-3.7,3.5-6.5,3.5
		c-5,0-8.3-3.8-8.3-9.8c0-5.9,3.4-9.8,8.3-9.8c2.7,0,5,1.4,6.5,3.5v-3h2.1v18.5c0,5.7-3.9,7.7-8.4,7.7
		C354.4,130.9,352.3,130.3,350.1,128.1z M363.9,118.5v-9.1c-1.1-1.8-3.6-3.4-6.2-3.4c-4.1,0-6.5,3.4-6.5,8c0,4.5,2.4,7.9,6.5,7.9
		C360.3,121.9,362.8,120.3,363.9,118.5z"/>
	<linearGradient id="SVGID_27_" gradientUnits="userSpaceOnUse" x1="235.6472" y1="890.0228" x2="539.3654" y2="-832.4483">
		<stop  offset="3.900534e-02" style="stop-color:#6DB33F"/>
		<stop  offset="0.8683" style="stop-color:#00728F"/>
	</linearGradient>
	<path fill="url(#SVGID_27_)" d="M371.6,100.2c0-0.9,0.7-1.5,1.5-1.5c0.9,0,1.5,0.7,1.5,1.5c0,0.9-0.7,1.5-1.5,1.5
		C372.3,101.7,371.6,101,371.6,100.2z M372.2,123.3v-18.7h2v18.7H372.2z"/>
	<linearGradient id="SVGID_28_" gradientUnits="userSpaceOnUse" x1="318.8802" y1="504.5624" x2="466.2467" y2="-331.194">
		<stop  offset="3.900534e-02" style="stop-color:#6DB33F"/>
		<stop  offset="0.8683" style="stop-color:#00728F"/>
	</linearGradient>
	<path fill="url(#SVGID_28_)" d="M393.1,123.3v-12.7c0-3.6-1.8-4.7-4.5-4.7c-2.4,0-4.9,1.5-6.1,3.2v14.1h-2v-18.7h2v2.8
		c1.4-1.6,4-3.3,6.7-3.3c3.8,0,5.9,1.9,5.9,6.1v13.1H393.1z"/>
	<linearGradient id="SVGID_29_" gradientUnits="userSpaceOnUse" x1="329.2156" y1="569.3376" x2="491.1884" y2="-349.2558">
		<stop  offset="3.900534e-02" style="stop-color:#6DB33F"/>
		<stop  offset="0.8683" style="stop-color:#00728F"/>
	</linearGradient>
	<path fill="url(#SVGID_29_)" d="M401.4,128.1l1.2-1.6c1.6,1.9,3.4,2.6,6.2,2.6c3.4,0,6.3-1.7,6.3-5.9v-3c-1.3,1.9-3.7,3.5-6.5,3.5
		c-5,0-8.3-3.8-8.3-9.8c0-5.9,3.4-9.8,8.3-9.8c2.7,0,5,1.4,6.5,3.5v-3h2.1v18.5c0,5.7-3.9,7.7-8.4,7.7
		C405.6,130.9,403.6,130.3,401.4,128.1z M415.1,118.5v-9.1c-1.1-1.8-3.6-3.4-6.2-3.4c-4.1,0-6.5,3.4-6.5,8c0,4.5,2.4,7.9,6.5,7.9
		C411.5,121.9,414,120.3,415.1,118.5z"/>
	<linearGradient id="SVGID_30_" gradientUnits="userSpaceOnUse" x1="358.4495" y1="579.5168" x2="513.4614" y2="-299.5994">
		<stop  offset="3.900534e-02" style="stop-color:#6DB33F"/>
		<stop  offset="0.8683" style="stop-color:#00728F"/>
	</linearGradient>
	<path fill="url(#SVGID_30_)" d="M445.3,123.3v-2.2c-1.7,1.8-3.8,2.7-6.3,2.7c-3.2,0-6.5-2.2-6.5-6.2c0-4.1,3.3-6.2,6.5-6.2
		c2.6,0,4.7,0.9,6.3,2.7v-3.8c0-2.8-2.2-4.3-5-4.3c-2.4,0-4.2,0.8-5.9,2.7l-1.1-1.4c1.9-2.1,4.1-3.1,7.2-3.1c3.8,0,6.8,1.8,6.8,6
		v13.2H445.3z M445.3,119.7v-4.1c-1.3-1.7-3.4-2.6-5.6-2.6c-3.1,0-5.1,2-5.1,4.6c0,2.6,2.1,4.6,5.1,4.6
		C441.9,122.2,444,121.4,445.3,119.7z"/>
	<linearGradient id="SVGID_31_" gradientUnits="userSpaceOnUse" x1="300.3097" y1="995.6817" x2="583.7684" y2="-611.8928">
		<stop  offset="3.900534e-02" style="stop-color:#6DB33F"/>
		<stop  offset="0.8683" style="stop-color:#00728F"/>
	</linearGradient>
	<path fill="url(#SVGID_31_)" d="M454,119.7v-13.3h-3.1v-1.8h3.1v-5.1h2.1v5.1h3.8v1.8H456v13c0,1.5,0.6,2.6,1.9,2.6
		c0.9,0,1.7-0.4,2.1-0.9l0.8,1.5c-0.7,0.7-1.6,1.2-3.2,1.2C455.2,123.8,454,122.3,454,119.7z"/>
	<linearGradient id="SVGID_32_" gradientUnits="userSpaceOnUse" x1="314.0776" y1="1034.7904" x2="597.5353" y2="-572.7784">
		<stop  offset="3.900534e-02" style="stop-color:#6DB33F"/>
		<stop  offset="0.8683" style="stop-color:#00728F"/>
	</linearGradient>
	<path fill="url(#SVGID_32_)" d="M474.6,119.7v-13.3h-3.1v-1.8h3.1v-5.1h2.1v5.1h3.8v1.8h-3.8v13c0,1.5,0.6,2.6,1.9,2.6
		c0.9,0,1.7-0.4,2.1-0.9l0.8,1.5c-0.7,0.7-1.6,1.2-3.2,1.2C475.8,123.8,474.6,122.3,474.6,119.7z"/>
	<linearGradient id="SVGID_33_" gradientUnits="userSpaceOnUse" x1="383.0095" y1="729.636" x2="567.7196" y2="-317.9072">
		<stop  offset="3.900534e-02" style="stop-color:#6DB33F"/>
		<stop  offset="0.8683" style="stop-color:#00728F"/>
	</linearGradient>
	<path fill="url(#SVGID_33_)" d="M497.5,123.3v-12.7c0-3.6-1.8-4.6-4.5-4.6c-2.4,0-4.9,1.5-6.1,3.2v14.1h-2V97.5h2v9.9
		c1.4-1.6,4-3.3,6.7-3.3c3.8,0,5.9,1.8,5.9,6v13.2H497.5z"/>
	<linearGradient id="SVGID_34_" gradientUnits="userSpaceOnUse" x1="422.9341" y1="628.1662" x2="570.0739" y2="-206.3048">
		<stop  offset="3.900534e-02" style="stop-color:#6DB33F"/>
		<stop  offset="0.8683" style="stop-color:#00728F"/>
	</linearGradient>
	<path fill="url(#SVGID_34_)" d="M504.7,114c0-5.4,3.8-9.8,9-9.8c5.7,0,8.8,4.5,8.8,9.9v0.5h-15.6c0.2,4.1,2.9,7.4,7.3,7.4
		c2.4,0,4.5-0.9,6.1-2.6l1,1.3c-1.9,1.9-4.2,3-7.3,3C508.6,123.8,504.7,119.7,504.7,114z M513.7,105.9c-4.4,0-6.6,3.9-6.8,7.1h13.6
		C520.4,109.9,518.4,105.9,513.7,105.9z"/>
	<linearGradient id="SVGID_35_" gradientUnits="userSpaceOnUse" x1="452.979" y1="653.6435" x2="598.192" y2="-169.9005">
		<stop  offset="3.900534e-02" style="stop-color:#6DB33F"/>
		<stop  offset="0.8683" style="stop-color:#00728F"/>
	</linearGradient>
	<path fill="url(#SVGID_35_)" d="M536.8,110.4c0-7.9,5.8-13.3,13.1-13.3c4.1,0,7.2,1.8,9.4,4.6l-1.9,1.2c-1.6-2.2-4.4-3.8-7.5-3.8
		c-6,0-10.8,4.6-10.8,11.3c0,6.7,4.7,11.3,10.8,11.3c3.1,0,5.9-1.5,7.5-3.8l1.9,1.2c-2.3,2.8-5.3,4.6-9.4,4.6
		C542.6,123.8,536.8,118.4,536.8,110.4z"/>
	<linearGradient id="SVGID_36_" gradientUnits="userSpaceOnUse" x1="438.9714" y1="836.5477" x2="626.4086" y2="-226.4617">
		<stop  offset="3.900534e-02" style="stop-color:#6DB33F"/>
		<stop  offset="0.8683" style="stop-color:#00728F"/>
	</linearGradient>
	<path fill="url(#SVGID_36_)" d="M563.7,123.3v-18.7h2v3.2c1.6-2.1,3.7-3.6,6.3-3.6v2.2c-0.3-0.1-0.6-0.1-1-0.1
		c-1.9,0-4.4,1.7-5.3,3.3v13.6H563.7z"/>
	<linearGradient id="SVGID_37_" gradientUnits="userSpaceOnUse" x1="481.586" y1="694.2462" x2="627.9702" y2="-135.9396">
		<stop  offset="3.900534e-02" style="stop-color:#6DB33F"/>
		<stop  offset="0.8683" style="stop-color:#00728F"/>
	</linearGradient>
	<path fill="url(#SVGID_37_)" d="M574.9,114c0-5.5,3.5-9.8,8.9-9.8c5.5,0,9,4.3,9,9.8c0,5.5-3.5,9.8-9,9.8
		C578.4,123.8,574.9,119.4,574.9,114z M590.7,114c0-4.1-2.4-8-6.8-8c-4.3,0-6.8,3.8-6.8,8c0,4.2,2.5,8,6.8,8
		C588.3,122,590.7,118.1,590.7,114z"/>
	<linearGradient id="SVGID_38_" gradientUnits="userSpaceOnUse" x1="495.2356" y1="729.3188" x2="645.53" y2="-123.0429">
		<stop  offset="3.900534e-02" style="stop-color:#6DB33F"/>
		<stop  offset="0.8683" style="stop-color:#00728F"/>
	</linearGradient>
	<path fill="url(#SVGID_38_)" d="M596.4,120.8l1.2-1.5c1.2,1.5,3.4,2.7,6,2.7c3.1,0,5-1.6,5-3.8c0-5.1-11.8-2.2-11.8-8.9
		c0-2.9,2.4-5.2,6.7-5.2c3.2,0,5.3,1.2,6.7,2.7l-1.1,1.4c-1.1-1.5-3.1-2.5-5.6-2.5c-2.9,0-4.6,1.5-4.6,3.4c0,4.7,11.8,1.8,11.8,9
		c0,3-2.3,5.5-7,5.5C600.6,123.8,598.3,122.9,596.4,120.8z"/>
	<linearGradient id="SVGID_39_" gradientUnits="userSpaceOnUse" x1="509.855" y1="747.145" x2="660.1494" y2="-105.2168">
		<stop  offset="3.900534e-02" style="stop-color:#6DB33F"/>
		<stop  offset="0.8683" style="stop-color:#00728F"/>
	</linearGradient>
	<path fill="url(#SVGID_39_)" d="M614.2,120.8l1.2-1.5c1.2,1.5,3.4,2.7,6,2.7c3.1,0,5-1.6,5-3.8c0-5.1-11.8-2.2-11.8-8.9
		c0-2.9,2.4-5.2,6.7-5.2c3.2,0,5.3,1.2,6.7,2.7l-1.1,1.4c-1.1-1.5-3.1-2.5-5.6-2.5c-2.9,0-4.6,1.5-4.6,3.4c0,4.7,11.8,1.8,11.8,9
		c0,3-2.3,5.5-7,5.5C618.4,123.8,616.1,122.9,614.2,120.8z"/>
	<linearGradient id="SVGID_40_" gradientUnits="userSpaceOnUse" x1="493.4355" y1="924.0189" x2="680.8727" y2="-138.9906">
		<stop  offset="3.900534e-02" style="stop-color:#6DB33F"/>
		<stop  offset="0.8683" style="stop-color:#00728F"/>
	</linearGradient>
	<path fill="url(#SVGID_40_)" d="M633.6,123.3v-18.7h2v3.2c1.6-2.1,3.7-3.6,6.3-3.6v2.2c-0.3-0.1-0.6-0.1-1-0.1
		c-1.9,0-4.4,1.7-5.3,3.3v13.6H633.6z"/>
	<linearGradient id="SVGID_41_" gradientUnits="userSpaceOnUse" x1="539.4282" y1="762.5592" x2="685.8124" y2="-67.6267">
		<stop  offset="3.900534e-02" style="stop-color:#6DB33F"/>
		<stop  offset="0.8683" style="stop-color:#00728F"/>
	</linearGradient>
	<path fill="url(#SVGID_41_)" d="M644.8,114c0-5.5,3.5-9.8,8.9-9.8c5.5,0,9,4.3,9,9.8c0,5.5-3.5,9.8-9,9.8
		C648.3,123.8,644.8,119.4,644.8,114z M660.6,114c0-4.1-2.4-8-6.8-8c-4.3,0-6.8,3.8-6.8,8c0,4.2,2.5,8,6.8,8
		C658.2,122,660.6,118.1,660.6,114z"/>
	<linearGradient id="SVGID_42_" gradientUnits="userSpaceOnUse" x1="550.1923" y1="822.2597" x2="705.1977" y2="-56.8196">
		<stop  offset="3.900534e-02" style="stop-color:#6DB33F"/>
		<stop  offset="0.8683" style="stop-color:#00728F"/>
	</linearGradient>
	<path fill="url(#SVGID_42_)" d="M679.8,123.3v-2.2c-1.7,1.8-3.8,2.7-6.3,2.7c-3.2,0-6.5-2.2-6.5-6.2c0-4.1,3.3-6.2,6.5-6.2
		c2.6,0,4.7,0.9,6.3,2.7v-3.8c0-2.8-2.2-4.3-5-4.3c-2.4,0-4.2,0.8-5.9,2.7l-1.1-1.4c1.9-2.1,4.1-3.1,7.2-3.1c3.8,0,6.8,1.8,6.8,6
		v13.2H679.8z M679.8,119.7v-4.1c-1.3-1.7-3.4-2.6-5.6-2.6c-3.1,0-5.1,2-5.1,4.6c0,2.6,2.1,4.6,5.1,4.6
		C676.4,122.2,678.5,121.4,679.8,119.7z"/>
	<linearGradient id="SVGID_43_" gradientUnits="userSpaceOnUse" x1="558.7382" y1="893.696" x2="724.4605" y2="-46.1618">
		<stop  offset="3.900534e-02" style="stop-color:#6DB33F"/>
		<stop  offset="0.8683" style="stop-color:#00728F"/>
	</linearGradient>
	<path fill="url(#SVGID_43_)" d="M701.9,123.3v-3c-1.3,1.9-3.7,3.4-6.5,3.4c-5,0-8.3-3.8-8.3-9.8c0-5.9,3.4-9.8,8.3-9.8
		c2.7,0,5,1.4,6.5,3.5V97.5h2.1v25.8H701.9z M701.9,118.6v-9.2c-1.1-1.8-3.5-3.4-6.2-3.4c-4.1,0-6.5,3.5-6.5,8c0,4.5,2.4,8,6.5,8
		C698.4,122,700.8,120.4,701.9,118.6z"/>
	<linearGradient id="SVGID_44_" gradientUnits="userSpaceOnUse" x1="587.537" y1="841.8668" x2="737.8314" y2="-10.495">
		<stop  offset="3.900534e-02" style="stop-color:#6DB33F"/>
		<stop  offset="0.8683" style="stop-color:#00728F"/>
	</linearGradient>
	<path fill="url(#SVGID_44_)" d="M708.6,120.8l1.2-1.5c1.2,1.5,3.4,2.7,6,2.7c3.1,0,5-1.6,5-3.8c0-5.1-11.8-2.2-11.8-8.9
		c0-2.9,2.4-5.2,6.7-5.2c3.2,0,5.3,1.2,6.7,2.7l-1.1,1.4c-1.1-1.5-3.1-2.5-5.6-2.5c-2.9,0-4.6,1.5-4.6,3.4c0,4.7,11.8,1.8,11.8,9
		c0,3-2.3,5.5-7,5.5C712.8,123.8,710.4,122.9,708.6,120.8z"/>
</g>
</svg>
