<?xml version="1.0" encoding="utf-8"?>
<!-- Generator: Adobe Illustrator 18.1.1, SVG Export Plug-In . SVG Version: 6.00 Build 0)  -->
<svg version="1.2" baseProfile="tiny" id="Capa_1" xmlns="http://www.w3.org/2000/svg" xmlns:xlink="http://www.w3.org/1999/xlink"
	 x="0px" y="0px" width="246px" height="82px" viewBox="-767 -118.8 246 82" xml:space="preserve">
<path fill="#FFFFFF" d="M-767-119.2v82.8h246v-82.8H-767z M-663.3-46.4h-13.4v-42.6h13.4C-663.3-89.1-663.3-46.4-663.3-46.4z
	 M-670.3-94.4L-670.3-94.4c-5,0-8.1-3.4-8.1-7.4c0-4.4,3.4-7.4,8.1-7.4c5,0,8.1,3.4,8.1,7.4C-661.9-97.8-665.3-94.4-670.3-94.4z
	 M-609.6-46.4h-15.1v-22.1c0-5.7-2.3-9.7-7.7-9.7c-4,0-6,2.7-7.4,5.4c-0.3,1-0.3,2.3-0.3,3.4v23.2h-14.8c0,0,0.3-39.3,0-42.6h15.1
	v6.7c1-3,5.7-7,13.4-7c9.4,0,16.8,6,16.8,19.5V-46.4z"/>
</svg>
